%TF.GenerationSoftware,KiCad,Pcbnew,(5.1.10)-1*%
%TF.CreationDate,2021-07-16T07:11:48+08:00*%
%TF.ProjectId,2.5_SAS_Backend,322e355f-5341-4535-9f42-61636b656e64,rev?*%
%TF.SameCoordinates,Original*%
%TF.FileFunction,Copper,L2,Bot*%
%TF.FilePolarity,Positive*%
%FSLAX46Y46*%
G04 Gerber Fmt 4.6, Leading zero omitted, Abs format (unit mm)*
G04 Created by KiCad (PCBNEW (5.1.10)-1) date 2021-07-16 07:11:48*
%MOMM*%
%LPD*%
G01*
G04 APERTURE LIST*
%TA.AperFunction,SMDPad,CuDef*%
%ADD10R,2.600000X2.600000*%
%TD*%
%TA.AperFunction,SMDPad,CuDef*%
%ADD11R,0.600000X2.530000*%
%TD*%
%TA.AperFunction,SMDPad,CuDef*%
%ADD12R,0.500000X2.530000*%
%TD*%
%TA.AperFunction,ComponentPad*%
%ADD13C,1.600000*%
%TD*%
%TA.AperFunction,ComponentPad*%
%ADD14R,1.600000X1.600000*%
%TD*%
%TA.AperFunction,ComponentPad*%
%ADD15R,2.030000X1.730000*%
%TD*%
%TA.AperFunction,ComponentPad*%
%ADD16O,2.030000X1.730000*%
%TD*%
%TA.AperFunction,ComponentPad*%
%ADD17C,0.700000*%
%TD*%
%TA.AperFunction,WasherPad*%
%ADD18C,2.540000*%
%TD*%
%TA.AperFunction,WasherPad*%
%ADD19C,1.500000*%
%TD*%
%TA.AperFunction,ComponentPad*%
%ADD20C,0.750000*%
%TD*%
%TA.AperFunction,ViaPad*%
%ADD21C,3.100000*%
%TD*%
%TA.AperFunction,ViaPad*%
%ADD22C,0.800000*%
%TD*%
%TA.AperFunction,Conductor*%
%ADD23C,0.750000*%
%TD*%
%TA.AperFunction,Conductor*%
%ADD24C,0.250000*%
%TD*%
%TA.AperFunction,Conductor*%
%ADD25C,0.200000*%
%TD*%
%TA.AperFunction,Conductor*%
%ADD26C,0.254000*%
%TD*%
%TA.AperFunction,Conductor*%
%ADD27C,0.100000*%
%TD*%
G04 APERTURE END LIST*
D10*
%TO.P,U1,*%
%TO.N,*%
X93630000Y-34163000D03*
X49880000Y-34163000D03*
D11*
%TO.P,U1,1*%
%TO.N,GND*%
X87630000Y-35993000D03*
%TO.P,U1,2*%
%TO.N,/S1_TXD_P*%
X86360000Y-35993000D03*
%TO.P,U1,3*%
%TO.N,/S1_TXD_N*%
X85090000Y-35993000D03*
%TO.P,U1,4*%
%TO.N,GND*%
X83820000Y-35993000D03*
%TO.P,U1,5*%
%TO.N,/S1_RXD_N*%
X82550000Y-35993000D03*
%TO.P,U1,6*%
%TO.N,/S1_RXD_P*%
X81280000Y-35993000D03*
%TO.P,U1,7*%
%TO.N,GND*%
X80010000Y-35993000D03*
D12*
%TO.P,U1,8*%
%TO.N,N/C*%
X79235000Y-31323000D03*
%TO.P,U1,9*%
X78435000Y-31323000D03*
%TO.P,U1,10*%
X77635000Y-31323000D03*
%TO.P,U1,11*%
X76835000Y-31323000D03*
%TO.P,U1,12*%
X76035000Y-31323000D03*
%TO.P,U1,13*%
X75235000Y-31323000D03*
%TO.P,U1,14*%
X74435000Y-31323000D03*
D11*
%TO.P,U1,15*%
%TO.N,+3V3*%
X73660000Y-35993000D03*
%TO.P,U1,16*%
X72390000Y-35993000D03*
%TO.P,U1,17*%
%TO.N,N/C*%
X71120000Y-35993000D03*
%TO.P,U1,18*%
%TO.N,GND*%
X69850000Y-35993000D03*
%TO.P,U1,19*%
X68580000Y-35993000D03*
%TO.P,U1,20*%
X67310000Y-35993000D03*
%TO.P,U1,21*%
%TO.N,+5V*%
X66040000Y-35993000D03*
%TO.P,U1,22*%
X64770000Y-35993000D03*
%TO.P,U1,23*%
X63500000Y-35993000D03*
%TO.P,U1,24*%
%TO.N,GND*%
X62230000Y-35993000D03*
%TO.P,U1,25*%
X60960000Y-35993000D03*
%TO.P,U1,26*%
X59690000Y-35993000D03*
%TO.P,U1,27*%
%TO.N,+12V*%
X58420000Y-35993000D03*
%TO.P,U1,28*%
X57150000Y-35993000D03*
%TO.P,U1,29*%
X55880000Y-35993000D03*
%TD*%
D13*
%TO.P,C1,2*%
%TO.N,GND*%
X47204000Y-64262000D03*
D14*
%TO.P,C1,1*%
%TO.N,+5V*%
X44704000Y-64262000D03*
%TD*%
D15*
%TO.P,M4,1*%
%TO.N,GND*%
X34036000Y-60452000D03*
D16*
%TO.P,M4,2*%
%TO.N,+12V*%
X34036000Y-57912000D03*
%TO.P,M4,3*%
%TO.N,N/C*%
X34036000Y-55372000D03*
%TO.P,M4,4*%
X34036000Y-52832000D03*
%TD*%
D15*
%TO.P,M3,1*%
%TO.N,GND*%
X34036000Y-42926000D03*
D16*
%TO.P,M3,2*%
%TO.N,+12V*%
X34036000Y-40386000D03*
%TO.P,M3,3*%
%TO.N,N/C*%
X34036000Y-37846000D03*
%TO.P,M3,4*%
X34036000Y-35306000D03*
%TD*%
D15*
%TO.P,M2,1*%
%TO.N,GND*%
X98298000Y-35560000D03*
D16*
%TO.P,M2,2*%
%TO.N,+5V*%
X98298000Y-38100000D03*
%TO.P,M2,3*%
%TO.N,N/C*%
X98298000Y-40640000D03*
%TO.P,M2,4*%
X98298000Y-43180000D03*
%TD*%
D15*
%TO.P,M1,1*%
%TO.N,GND*%
X98298000Y-51308000D03*
D16*
%TO.P,M1,2*%
%TO.N,+5V*%
X98298000Y-53848000D03*
%TO.P,M1,3*%
%TO.N,N/C*%
X98298000Y-56388000D03*
%TO.P,M1,4*%
X98298000Y-58928000D03*
%TD*%
D13*
%TO.P,C4,2*%
%TO.N,GND*%
X97242000Y-63754000D03*
D14*
%TO.P,C4,1*%
%TO.N,+12V*%
X94742000Y-63754000D03*
%TD*%
D13*
%TO.P,C3,2*%
%TO.N,GND*%
X90384000Y-64008000D03*
D14*
%TO.P,C3,1*%
%TO.N,+12V*%
X87884000Y-64008000D03*
%TD*%
D13*
%TO.P,C2,2*%
%TO.N,GND*%
X53808000Y-64262000D03*
D14*
%TO.P,C2,1*%
%TO.N,+5V*%
X51308000Y-64262000D03*
%TD*%
D17*
%TO.P,U2,14*%
%TO.N,+12V*%
X62680000Y-64262000D03*
%TO.P,U2,13*%
X63950000Y-64262000D03*
%TO.P,U2,15*%
X61410000Y-64262000D03*
%TO.P,U2,10*%
%TO.N,GND*%
X67760000Y-64262000D03*
%TO.P,U2,12*%
X65220000Y-64262000D03*
%TO.P,U2,11*%
%TO.N,N/C*%
X66490000Y-64262000D03*
%TO.P,U2,9*%
%TO.N,+5V*%
X69030000Y-64262000D03*
%TO.P,U2,8*%
X70300000Y-64262000D03*
%TO.P,U2,7*%
X71570000Y-64262000D03*
%TO.P,U2,6*%
%TO.N,GND*%
X72840000Y-64262000D03*
%TO.P,U2,5*%
X74110000Y-64262000D03*
%TO.P,U2,4*%
X75380000Y-64262000D03*
%TO.P,U2,3*%
%TO.N,N/C*%
X76650000Y-64262000D03*
%TO.P,U2,2*%
%TO.N,+3V3*%
X77920000Y-64262000D03*
%TO.P,U2,1*%
X79190000Y-64262000D03*
D18*
%TO.P,U2,*%
%TO.N,*%
X58140600Y-64262000D03*
X82550000Y-64262000D03*
%TD*%
D19*
%TO.P,U5,*%
%TO.N,*%
X40386000Y-52084000D03*
X40386000Y-65024000D03*
D20*
%TO.P,U5,7*%
%TO.N,GND*%
X40886000Y-54744000D03*
%TO.P,U5,6*%
%TO.N,/S2_RXD_P*%
X39886000Y-56014000D03*
%TO.P,U5,5*%
%TO.N,/S2_RXD_N*%
X39886000Y-57284000D03*
%TO.P,U5,4*%
%TO.N,GND*%
X40886000Y-58554000D03*
%TO.P,U5,3*%
%TO.N,/S2_TXD_N*%
X39886000Y-59824000D03*
%TO.P,U5,2*%
%TO.N,/S2_TXD_P*%
X39886000Y-61094000D03*
%TO.P,U5,1*%
%TO.N,GND*%
X40886000Y-62364000D03*
%TD*%
D19*
%TO.P,U3,*%
%TO.N,*%
X40386000Y-34424000D03*
X40386000Y-47364000D03*
D20*
%TO.P,U3,7*%
%TO.N,GND*%
X40886000Y-37084000D03*
%TO.P,U3,6*%
%TO.N,/S1_RXD_P*%
X39886000Y-38354000D03*
%TO.P,U3,5*%
%TO.N,/S1_RXD_N*%
X39886000Y-39624000D03*
%TO.P,U3,4*%
%TO.N,GND*%
X40886000Y-40894000D03*
%TO.P,U3,3*%
%TO.N,/S1_TXD_N*%
X39886000Y-42164000D03*
%TO.P,U3,2*%
%TO.N,/S1_TXD_P*%
X39886000Y-43434000D03*
%TO.P,U3,1*%
%TO.N,GND*%
X40886000Y-44704000D03*
%TD*%
D10*
%TO.P,U4,*%
%TO.N,*%
X93630000Y-55880000D03*
X49880000Y-55880000D03*
D11*
%TO.P,U4,1*%
%TO.N,GND*%
X87630000Y-57710000D03*
%TO.P,U4,2*%
%TO.N,/S2_TXD_P*%
X86360000Y-57710000D03*
%TO.P,U4,3*%
%TO.N,/S2_TXD_N*%
X85090000Y-57710000D03*
%TO.P,U4,4*%
%TO.N,GND*%
X83820000Y-57710000D03*
%TO.P,U4,5*%
%TO.N,/S2_RXD_N*%
X82550000Y-57710000D03*
%TO.P,U4,6*%
%TO.N,/S2_RXD_P*%
X81280000Y-57710000D03*
%TO.P,U4,7*%
%TO.N,GND*%
X80010000Y-57710000D03*
D12*
%TO.P,U4,8*%
%TO.N,N/C*%
X79235000Y-53040000D03*
%TO.P,U4,9*%
X78435000Y-53040000D03*
%TO.P,U4,10*%
X77635000Y-53040000D03*
%TO.P,U4,11*%
X76835000Y-53040000D03*
%TO.P,U4,12*%
X76035000Y-53040000D03*
%TO.P,U4,13*%
X75235000Y-53040000D03*
%TO.P,U4,14*%
X74435000Y-53040000D03*
D11*
%TO.P,U4,15*%
%TO.N,+3V3*%
X73660000Y-57710000D03*
%TO.P,U4,16*%
X72390000Y-57710000D03*
%TO.P,U4,17*%
%TO.N,N/C*%
X71120000Y-57710000D03*
%TO.P,U4,18*%
%TO.N,GND*%
X69850000Y-57710000D03*
%TO.P,U4,19*%
X68580000Y-57710000D03*
%TO.P,U4,20*%
X67310000Y-57710000D03*
%TO.P,U4,21*%
%TO.N,+5V*%
X66040000Y-57710000D03*
%TO.P,U4,22*%
X64770000Y-57710000D03*
%TO.P,U4,23*%
X63500000Y-57710000D03*
%TO.P,U4,24*%
%TO.N,GND*%
X62230000Y-57710000D03*
%TO.P,U4,25*%
X60960000Y-57710000D03*
%TO.P,U4,26*%
X59690000Y-57710000D03*
%TO.P,U4,27*%
%TO.N,+12V*%
X58420000Y-57710000D03*
%TO.P,U4,28*%
X57150000Y-57710000D03*
%TO.P,U4,29*%
X55880000Y-57710000D03*
%TD*%
D21*
%TO.N,*%
X34290000Y-46990000D03*
X99060000Y-47498000D03*
X34290000Y-64770000D03*
D22*
%TO.N,+12V*%
X61468000Y-62992000D03*
X58674000Y-59690000D03*
%TO.N,GND*%
X58420000Y-55118000D03*
X65532000Y-53848000D03*
X76200000Y-55626000D03*
X77724000Y-57150000D03*
X64516000Y-62738000D03*
%TO.N,+5V*%
X68326000Y-62992000D03*
X66294000Y-59690000D03*
X64262000Y-65532000D03*
X91186000Y-59944000D03*
%TO.N,+3V3*%
X76708000Y-62738000D03*
X74168000Y-59690000D03*
%TO.N,/S1_TXD_P*%
X85461232Y-38979232D03*
%TO.N,/S1_TXD_N*%
X84718768Y-38236768D03*
%TO.N,/S1_RXD_N*%
X81651232Y-38979232D03*
%TO.N,/S1_RXD_P*%
X80908768Y-38236768D03*
%TD*%
D23*
%TO.N,+12V*%
X61410000Y-64262000D02*
X62680000Y-64262000D01*
X62680000Y-64262000D02*
X63950000Y-64262000D01*
X61410000Y-63050000D02*
X61468000Y-62992000D01*
X61410000Y-64262000D02*
X61410000Y-63050000D01*
X55880000Y-59690000D02*
X55880000Y-57710000D01*
X58674000Y-59690000D02*
X55880000Y-59690000D01*
X55880000Y-57710000D02*
X57150000Y-57710000D01*
X57150000Y-57710000D02*
X58420000Y-57710000D01*
D24*
X61410000Y-64262000D02*
X63442000Y-66294000D01*
X85598000Y-66294000D02*
X87884000Y-64008000D01*
X63442000Y-66294000D02*
X85598000Y-66294000D01*
X87884000Y-64008000D02*
X87884000Y-65532000D01*
X87884000Y-65532000D02*
X88646000Y-66294000D01*
X88646000Y-66294000D02*
X93726000Y-66294000D01*
X94742000Y-65278000D02*
X94742000Y-63754000D01*
X93726000Y-66294000D02*
X94742000Y-65278000D01*
D23*
X55880000Y-57710000D02*
X54050000Y-57710000D01*
X54050000Y-57710000D02*
X53340000Y-58420000D01*
D24*
X33782000Y-57912000D02*
X34036000Y-57912000D01*
D23*
X55880000Y-35993000D02*
X57150000Y-35993000D01*
X57150000Y-35993000D02*
X58420000Y-35993000D01*
X55880000Y-33978000D02*
X55880000Y-35993000D01*
X43561000Y-30861000D02*
X52763000Y-30861000D01*
X52763000Y-30861000D02*
X55880000Y-33978000D01*
X42418000Y-32004000D02*
X43561000Y-30861000D01*
D24*
X42164000Y-36068000D02*
X42418000Y-36322000D01*
X38354000Y-36068000D02*
X42164000Y-36068000D01*
X34036000Y-40386000D02*
X38354000Y-36068000D01*
X33782000Y-40386000D02*
X34036000Y-40386000D01*
D23*
X42418000Y-36322000D02*
X42418000Y-32004000D01*
X42418000Y-52832000D02*
X42418000Y-36322000D01*
X48006000Y-58420000D02*
X45085000Y-55499000D01*
X53340000Y-58420000D02*
X48006000Y-58420000D01*
X45085000Y-55499000D02*
X42418000Y-52832000D01*
X45468808Y-55882808D02*
X45085000Y-55499000D01*
D24*
%TO.N,GND*%
X80010000Y-56195000D02*
X80325000Y-55880000D01*
X80010000Y-57710000D02*
X80010000Y-56195000D01*
X83505000Y-55880000D02*
X83820000Y-56195000D01*
X80325000Y-55880000D02*
X83505000Y-55880000D01*
X83820000Y-56195000D02*
X83820000Y-57710000D01*
X83820000Y-56195000D02*
X84135000Y-55880000D01*
X87630000Y-56195000D02*
X87630000Y-57710000D01*
X87315000Y-55880000D02*
X87630000Y-56195000D01*
X84135000Y-55880000D02*
X87315000Y-55880000D01*
X72840000Y-64262000D02*
X74110000Y-64262000D01*
X74110000Y-64262000D02*
X75380000Y-64262000D01*
X90384000Y-60464000D02*
X87630000Y-57710000D01*
X90384000Y-64008000D02*
X90384000Y-60464000D01*
X97790000Y-63206000D02*
X97242000Y-63754000D01*
X97790000Y-60960000D02*
X97790000Y-63206000D01*
X91440000Y-60960000D02*
X97790000Y-60960000D01*
X90384000Y-62016000D02*
X91440000Y-60960000D01*
X90384000Y-64008000D02*
X90384000Y-62016000D01*
D23*
X59690000Y-57710000D02*
X60960000Y-57710000D01*
X60960000Y-57710000D02*
X62230000Y-57710000D01*
X67310000Y-57710000D02*
X68580000Y-57710000D01*
X68580000Y-57710000D02*
X69544000Y-57710000D01*
D24*
X69544000Y-57710000D02*
X69850000Y-57710000D01*
X97282000Y-34544000D02*
X98298000Y-35560000D01*
D23*
X59690000Y-56388000D02*
X58420000Y-55118000D01*
X59690000Y-57710000D02*
X59690000Y-56388000D01*
X67310000Y-57710000D02*
X67310000Y-55626000D01*
X67310000Y-55626000D02*
X65532000Y-53848000D01*
D24*
X37084000Y-40640000D02*
X37084000Y-43942000D01*
X37084000Y-43942000D02*
X37084000Y-53340000D01*
X37084000Y-57912000D02*
X37084000Y-61722000D01*
X52284000Y-62738000D02*
X53808000Y-64262000D01*
X48728000Y-62738000D02*
X52284000Y-62738000D01*
X47204000Y-64262000D02*
X48728000Y-62738000D01*
X67310000Y-55626000D02*
X76200000Y-55626000D01*
X79450000Y-57150000D02*
X80010000Y-57710000D01*
X77724000Y-57150000D02*
X79450000Y-57150000D01*
X72840000Y-64262000D02*
X72840000Y-64574000D01*
D23*
X67760000Y-64162998D02*
X67760000Y-64262000D01*
X66934001Y-63336999D02*
X67760000Y-64162998D01*
X66045999Y-63336999D02*
X66934001Y-63336999D01*
X65220000Y-64162998D02*
X66045999Y-63336999D01*
X65220000Y-64262000D02*
X65220000Y-64162998D01*
X65114999Y-63336999D02*
X64516000Y-62738000D01*
X66045999Y-63336999D02*
X65114999Y-63336999D01*
X59690000Y-35993000D02*
X60960000Y-35993000D01*
X60960000Y-35993000D02*
X62230000Y-35993000D01*
X67310000Y-35993000D02*
X68580000Y-35993000D01*
X68580000Y-35993000D02*
X69850000Y-35993000D01*
X62230000Y-35993000D02*
X62230000Y-33655000D01*
X62230000Y-33655000D02*
X62865000Y-33020000D01*
X67310000Y-33978000D02*
X67310000Y-35993000D01*
X66352000Y-33020000D02*
X67310000Y-33978000D01*
X62865000Y-33020000D02*
X66352000Y-33020000D01*
X69850000Y-35993000D02*
X69850000Y-34036000D01*
X69850000Y-34036000D02*
X70231000Y-33655000D01*
X70231000Y-33655000D02*
X79248000Y-33655000D01*
X80010000Y-34417000D02*
X80010000Y-35993000D01*
X79248000Y-33655000D02*
X80010000Y-34417000D01*
X80010000Y-33978000D02*
X80206000Y-33782000D01*
X80010000Y-35993000D02*
X80010000Y-33978000D01*
X83820000Y-33978000D02*
X83820000Y-35993000D01*
X83624000Y-33782000D02*
X83820000Y-33978000D01*
X80206000Y-33782000D02*
X83624000Y-33782000D01*
X83624000Y-33782000D02*
X87757000Y-33782000D01*
X87757000Y-33782000D02*
X87757000Y-33655000D01*
X87757000Y-33655000D02*
X90297000Y-31115000D01*
X90297000Y-31115000D02*
X96520000Y-31115000D01*
X98298000Y-32893000D02*
X98298000Y-35560000D01*
X96520000Y-31115000D02*
X98298000Y-32893000D01*
D24*
X37726000Y-58554000D02*
X37084000Y-57912000D01*
X40886000Y-58554000D02*
X37726000Y-58554000D01*
X37726000Y-62364000D02*
X37084000Y-61722000D01*
X40886000Y-62364000D02*
X37726000Y-62364000D01*
X37966000Y-54744000D02*
X37084000Y-55626000D01*
X40886000Y-54744000D02*
X37966000Y-54744000D01*
X37084000Y-55626000D02*
X37084000Y-57912000D01*
X37084000Y-53340000D02*
X37084000Y-55626000D01*
X46078999Y-63136999D02*
X47204000Y-64262000D01*
X41658999Y-63136999D02*
X46078999Y-63136999D01*
X40886000Y-62364000D02*
X41658999Y-63136999D01*
X37846000Y-44704000D02*
X36957000Y-43815000D01*
X40886000Y-44704000D02*
X37846000Y-44704000D01*
X36957000Y-43815000D02*
X37084000Y-43942000D01*
X37592000Y-40894000D02*
X37084000Y-40386000D01*
X40886000Y-40894000D02*
X37592000Y-40894000D01*
X37084000Y-40386000D02*
X37084000Y-40640000D01*
X37084000Y-38354000D02*
X37084000Y-40386000D01*
X38354000Y-37084000D02*
X37084000Y-38354000D01*
X40886000Y-37084000D02*
X38354000Y-37084000D01*
X35306000Y-61722000D02*
X34036000Y-60452000D01*
X37084000Y-61722000D02*
X35306000Y-61722000D01*
X36068000Y-42926000D02*
X36957000Y-43815000D01*
X34036000Y-42926000D02*
X36068000Y-42926000D01*
D23*
X87630000Y-33782000D02*
X87757000Y-33655000D01*
X87630000Y-35993000D02*
X87630000Y-33782000D01*
%TO.N,+5V*%
X69030000Y-64262000D02*
X70300000Y-64262000D01*
X70300000Y-64262000D02*
X71570000Y-64262000D01*
X69030000Y-63696000D02*
X68326000Y-62992000D01*
X69030000Y-64262000D02*
X69030000Y-63696000D01*
X63500000Y-57710000D02*
X63500000Y-59690000D01*
X64770000Y-59690000D02*
X64770000Y-57710000D01*
X66294000Y-59690000D02*
X64770000Y-59690000D01*
X64770000Y-59690000D02*
X63500000Y-59690000D01*
X64770000Y-57710000D02*
X66040000Y-57710000D01*
D24*
X69030000Y-64262000D02*
X67760000Y-65532000D01*
X67760000Y-65532000D02*
X64262000Y-65532000D01*
X98298000Y-38100000D02*
X97790000Y-38100000D01*
X97790000Y-38100000D02*
X96520000Y-39370000D01*
X96520000Y-39370000D02*
X96520000Y-52832000D01*
X97282000Y-52832000D02*
X98298000Y-53848000D01*
X96520000Y-52832000D02*
X97282000Y-52832000D01*
X96520000Y-56175002D02*
X92751002Y-59944000D01*
X96520000Y-52832000D02*
X96520000Y-56175002D01*
X92751002Y-59944000D02*
X91186000Y-59944000D01*
D23*
X63500000Y-35993000D02*
X64770000Y-35993000D01*
X64770000Y-35993000D02*
X66040000Y-35993000D01*
X63500000Y-39497000D02*
X63500000Y-35993000D01*
X62738000Y-40259000D02*
X63500000Y-39497000D01*
X43942000Y-52324000D02*
X43942000Y-41021000D01*
X44958000Y-53340000D02*
X43942000Y-52324000D01*
X44704000Y-40259000D02*
X62738000Y-40259000D01*
X61145000Y-53340000D02*
X44958000Y-53340000D01*
X43942000Y-41021000D02*
X44704000Y-40259000D01*
X63500000Y-55695000D02*
X61145000Y-53340000D01*
X63500000Y-57710000D02*
X63500000Y-55695000D01*
%TO.N,+3V3*%
X77920000Y-63950000D02*
X76708000Y-62738000D01*
X77920000Y-64262000D02*
X77920000Y-63950000D01*
X72390000Y-59690000D02*
X72390000Y-57710000D01*
X73660000Y-59690000D02*
X73660000Y-57710000D01*
X74168000Y-59690000D02*
X73660000Y-59690000D01*
X73660000Y-59690000D02*
X72390000Y-59690000D01*
X73660000Y-57710000D02*
X73660000Y-57658000D01*
X72390000Y-35993000D02*
X73660000Y-35993000D01*
D24*
X78561000Y-40894000D02*
X73660000Y-35993000D01*
X96012000Y-52070000D02*
X96012000Y-42672000D01*
X95758000Y-52324000D02*
X96012000Y-52070000D01*
X91948000Y-52324000D02*
X95758000Y-52324000D01*
X77978000Y-55118000D02*
X89154000Y-55118000D01*
X96012000Y-42672000D02*
X94234000Y-40894000D01*
X75386000Y-57710000D02*
X77978000Y-55118000D01*
X94234000Y-40894000D02*
X78561000Y-40894000D01*
X89154000Y-55118000D02*
X91948000Y-52324000D01*
X73660000Y-57710000D02*
X75386000Y-57710000D01*
D25*
%TO.N,/S1_TXD_P*%
X85461232Y-38554967D02*
X85461232Y-38979232D01*
X85950000Y-37368000D02*
X85950000Y-38066199D01*
X86360000Y-36958000D02*
X85950000Y-37368000D01*
X85950000Y-38066199D02*
X85461232Y-38554967D01*
X86360000Y-35993000D02*
X86360000Y-36958000D01*
%TO.N,/S1_TXD_N*%
X85143033Y-38236768D02*
X84718768Y-38236768D01*
X85500000Y-37879801D02*
X85143033Y-38236768D01*
X85500000Y-37368000D02*
X85500000Y-37879801D01*
X85090000Y-36958000D02*
X85500000Y-37368000D01*
X85090000Y-35993000D02*
X85090000Y-36958000D01*
%TO.N,/S1_RXD_N*%
X81651232Y-38554967D02*
X81651232Y-38979232D01*
X82140000Y-38066199D02*
X81651232Y-38554967D01*
X82550000Y-35993000D02*
X82550000Y-36958000D01*
X82140000Y-37368000D02*
X82140000Y-38066199D01*
X82550000Y-36958000D02*
X82140000Y-37368000D01*
%TO.N,/S1_RXD_P*%
X81333033Y-38236768D02*
X80908768Y-38236768D01*
X81690000Y-37879801D02*
X81333033Y-38236768D01*
X81280000Y-36958000D02*
X81690000Y-37368000D01*
X81280000Y-35993000D02*
X81280000Y-36958000D01*
X81690000Y-37368000D02*
X81690000Y-37879801D01*
%TO.N,/S2_TXD_P*%
X85950000Y-60017501D02*
X85950000Y-61434200D01*
X86360000Y-57710000D02*
X86360000Y-59607501D01*
X43594800Y-61947000D02*
X42331800Y-60684000D01*
X86360000Y-59607501D02*
X85950000Y-60017501D01*
X85950000Y-61434200D02*
X85437200Y-61947000D01*
X42331800Y-60684000D02*
X40296000Y-60684000D01*
X85437200Y-61947000D02*
X43594800Y-61947000D01*
X40296000Y-60684000D02*
X39886000Y-61094000D01*
%TO.N,/S2_TXD_N*%
X40296000Y-60234000D02*
X39886000Y-59824000D01*
X42518200Y-60234000D02*
X40296000Y-60234000D01*
X43781200Y-61497000D02*
X42518200Y-60234000D01*
X85500000Y-60017501D02*
X85500000Y-61247800D01*
X85090000Y-57710000D02*
X85090000Y-59607501D01*
X85250800Y-61497000D02*
X43781200Y-61497000D01*
X85090000Y-59607501D02*
X85500000Y-60017501D01*
X85500000Y-61247800D02*
X85250800Y-61497000D01*
%TO.N,/S2_RXD_N*%
X40296000Y-56874000D02*
X39886000Y-57284000D01*
X41569800Y-56874000D02*
X40296000Y-56874000D01*
X45626800Y-60931000D02*
X41569800Y-56874000D01*
X82140000Y-59085000D02*
X82140000Y-60164200D01*
X81373200Y-60931000D02*
X45626800Y-60931000D01*
X82550000Y-57710000D02*
X82550000Y-58675000D01*
X82550000Y-58675000D02*
X82140000Y-59085000D01*
X82140000Y-60164200D02*
X81373200Y-60931000D01*
%TO.N,/S2_RXD_P*%
X81280000Y-57710000D02*
X81280000Y-58675000D01*
X40296000Y-56424000D02*
X39886000Y-56014000D01*
X81690000Y-59085000D02*
X81690000Y-59977800D01*
X81186800Y-60481000D02*
X45813200Y-60481000D01*
X81690000Y-59977800D02*
X81186800Y-60481000D01*
X45813200Y-60481000D02*
X41756200Y-56424000D01*
X41756200Y-56424000D02*
X40296000Y-56424000D01*
X81280000Y-58675000D02*
X81690000Y-59085000D01*
%TD*%
D26*
%TO.N,GND*%
X43049546Y-62441193D02*
X43072562Y-62469238D01*
X43100606Y-62492253D01*
X43184480Y-62561087D01*
X43312166Y-62629337D01*
X43450715Y-62671365D01*
X43594800Y-62685556D01*
X43630905Y-62682000D01*
X57076328Y-62682000D01*
X56926234Y-62782290D01*
X56660890Y-63047634D01*
X56452411Y-63359644D01*
X56308809Y-63706332D01*
X56235600Y-64074374D01*
X56235600Y-64449626D01*
X56308809Y-64817668D01*
X56452411Y-65164356D01*
X56660890Y-65476366D01*
X56926234Y-65741710D01*
X57182587Y-65913000D01*
X42037000Y-65913000D01*
X42037000Y-63462000D01*
X43265928Y-63462000D01*
X43265928Y-65062000D01*
X43278188Y-65186482D01*
X43314498Y-65306180D01*
X43373463Y-65416494D01*
X43452815Y-65513185D01*
X43549506Y-65592537D01*
X43659820Y-65651502D01*
X43779518Y-65687812D01*
X43904000Y-65700072D01*
X45504000Y-65700072D01*
X45628482Y-65687812D01*
X45748180Y-65651502D01*
X45858494Y-65592537D01*
X45955185Y-65513185D01*
X46034537Y-65416494D01*
X46093502Y-65306180D01*
X46109117Y-65254702D01*
X46390903Y-65254702D01*
X46462486Y-65498671D01*
X46717996Y-65619571D01*
X46992184Y-65688300D01*
X47274512Y-65702217D01*
X47554130Y-65660787D01*
X47820292Y-65565603D01*
X47945514Y-65498671D01*
X48017097Y-65254702D01*
X47204000Y-64441605D01*
X46390903Y-65254702D01*
X46109117Y-65254702D01*
X46129812Y-65186482D01*
X46142072Y-65062000D01*
X46142072Y-65054785D01*
X46211298Y-65075097D01*
X47024395Y-64262000D01*
X47383605Y-64262000D01*
X48196702Y-65075097D01*
X48440671Y-65003514D01*
X48561571Y-64748004D01*
X48630300Y-64473816D01*
X48644217Y-64191488D01*
X48602787Y-63911870D01*
X48507603Y-63645708D01*
X48440671Y-63520486D01*
X48241340Y-63462000D01*
X49869928Y-63462000D01*
X49869928Y-65062000D01*
X49882188Y-65186482D01*
X49918498Y-65306180D01*
X49977463Y-65416494D01*
X50056815Y-65513185D01*
X50153506Y-65592537D01*
X50263820Y-65651502D01*
X50383518Y-65687812D01*
X50508000Y-65700072D01*
X52108000Y-65700072D01*
X52232482Y-65687812D01*
X52352180Y-65651502D01*
X52462494Y-65592537D01*
X52559185Y-65513185D01*
X52638537Y-65416494D01*
X52697502Y-65306180D01*
X52713117Y-65254702D01*
X52994903Y-65254702D01*
X53066486Y-65498671D01*
X53321996Y-65619571D01*
X53596184Y-65688300D01*
X53878512Y-65702217D01*
X54158130Y-65660787D01*
X54424292Y-65565603D01*
X54549514Y-65498671D01*
X54621097Y-65254702D01*
X53808000Y-64441605D01*
X52994903Y-65254702D01*
X52713117Y-65254702D01*
X52733812Y-65186482D01*
X52746072Y-65062000D01*
X52746072Y-65054785D01*
X52815298Y-65075097D01*
X53628395Y-64262000D01*
X53987605Y-64262000D01*
X54800702Y-65075097D01*
X55044671Y-65003514D01*
X55165571Y-64748004D01*
X55234300Y-64473816D01*
X55248217Y-64191488D01*
X55206787Y-63911870D01*
X55111603Y-63645708D01*
X55044671Y-63520486D01*
X54800702Y-63448903D01*
X53987605Y-64262000D01*
X53628395Y-64262000D01*
X52815298Y-63448903D01*
X52746072Y-63469215D01*
X52746072Y-63462000D01*
X52733812Y-63337518D01*
X52713118Y-63269298D01*
X52994903Y-63269298D01*
X53808000Y-64082395D01*
X54621097Y-63269298D01*
X54549514Y-63025329D01*
X54294004Y-62904429D01*
X54019816Y-62835700D01*
X53737488Y-62821783D01*
X53457870Y-62863213D01*
X53191708Y-62958397D01*
X53066486Y-63025329D01*
X52994903Y-63269298D01*
X52713118Y-63269298D01*
X52697502Y-63217820D01*
X52638537Y-63107506D01*
X52559185Y-63010815D01*
X52462494Y-62931463D01*
X52352180Y-62872498D01*
X52232482Y-62836188D01*
X52108000Y-62823928D01*
X50508000Y-62823928D01*
X50383518Y-62836188D01*
X50263820Y-62872498D01*
X50153506Y-62931463D01*
X50056815Y-63010815D01*
X49977463Y-63107506D01*
X49918498Y-63217820D01*
X49882188Y-63337518D01*
X49869928Y-63462000D01*
X48241340Y-63462000D01*
X48196702Y-63448903D01*
X47383605Y-64262000D01*
X47024395Y-64262000D01*
X46211298Y-63448903D01*
X46142072Y-63469215D01*
X46142072Y-63462000D01*
X46129812Y-63337518D01*
X46109118Y-63269298D01*
X46390903Y-63269298D01*
X47204000Y-64082395D01*
X48017097Y-63269298D01*
X47945514Y-63025329D01*
X47690004Y-62904429D01*
X47415816Y-62835700D01*
X47133488Y-62821783D01*
X46853870Y-62863213D01*
X46587708Y-62958397D01*
X46462486Y-63025329D01*
X46390903Y-63269298D01*
X46109118Y-63269298D01*
X46093502Y-63217820D01*
X46034537Y-63107506D01*
X45955185Y-63010815D01*
X45858494Y-62931463D01*
X45748180Y-62872498D01*
X45628482Y-62836188D01*
X45504000Y-62823928D01*
X43904000Y-62823928D01*
X43779518Y-62836188D01*
X43659820Y-62872498D01*
X43549506Y-62931463D01*
X43452815Y-63010815D01*
X43373463Y-63107506D01*
X43314498Y-63217820D01*
X43278188Y-63337518D01*
X43265928Y-63462000D01*
X42037000Y-63462000D01*
X42037000Y-61428646D01*
X43049546Y-62441193D01*
%TA.AperFunction,Conductor*%
D27*
G36*
X43049546Y-62441193D02*
G01*
X43072562Y-62469238D01*
X43100606Y-62492253D01*
X43184480Y-62561087D01*
X43312166Y-62629337D01*
X43450715Y-62671365D01*
X43594800Y-62685556D01*
X43630905Y-62682000D01*
X57076328Y-62682000D01*
X56926234Y-62782290D01*
X56660890Y-63047634D01*
X56452411Y-63359644D01*
X56308809Y-63706332D01*
X56235600Y-64074374D01*
X56235600Y-64449626D01*
X56308809Y-64817668D01*
X56452411Y-65164356D01*
X56660890Y-65476366D01*
X56926234Y-65741710D01*
X57182587Y-65913000D01*
X42037000Y-65913000D01*
X42037000Y-63462000D01*
X43265928Y-63462000D01*
X43265928Y-65062000D01*
X43278188Y-65186482D01*
X43314498Y-65306180D01*
X43373463Y-65416494D01*
X43452815Y-65513185D01*
X43549506Y-65592537D01*
X43659820Y-65651502D01*
X43779518Y-65687812D01*
X43904000Y-65700072D01*
X45504000Y-65700072D01*
X45628482Y-65687812D01*
X45748180Y-65651502D01*
X45858494Y-65592537D01*
X45955185Y-65513185D01*
X46034537Y-65416494D01*
X46093502Y-65306180D01*
X46109117Y-65254702D01*
X46390903Y-65254702D01*
X46462486Y-65498671D01*
X46717996Y-65619571D01*
X46992184Y-65688300D01*
X47274512Y-65702217D01*
X47554130Y-65660787D01*
X47820292Y-65565603D01*
X47945514Y-65498671D01*
X48017097Y-65254702D01*
X47204000Y-64441605D01*
X46390903Y-65254702D01*
X46109117Y-65254702D01*
X46129812Y-65186482D01*
X46142072Y-65062000D01*
X46142072Y-65054785D01*
X46211298Y-65075097D01*
X47024395Y-64262000D01*
X47383605Y-64262000D01*
X48196702Y-65075097D01*
X48440671Y-65003514D01*
X48561571Y-64748004D01*
X48630300Y-64473816D01*
X48644217Y-64191488D01*
X48602787Y-63911870D01*
X48507603Y-63645708D01*
X48440671Y-63520486D01*
X48241340Y-63462000D01*
X49869928Y-63462000D01*
X49869928Y-65062000D01*
X49882188Y-65186482D01*
X49918498Y-65306180D01*
X49977463Y-65416494D01*
X50056815Y-65513185D01*
X50153506Y-65592537D01*
X50263820Y-65651502D01*
X50383518Y-65687812D01*
X50508000Y-65700072D01*
X52108000Y-65700072D01*
X52232482Y-65687812D01*
X52352180Y-65651502D01*
X52462494Y-65592537D01*
X52559185Y-65513185D01*
X52638537Y-65416494D01*
X52697502Y-65306180D01*
X52713117Y-65254702D01*
X52994903Y-65254702D01*
X53066486Y-65498671D01*
X53321996Y-65619571D01*
X53596184Y-65688300D01*
X53878512Y-65702217D01*
X54158130Y-65660787D01*
X54424292Y-65565603D01*
X54549514Y-65498671D01*
X54621097Y-65254702D01*
X53808000Y-64441605D01*
X52994903Y-65254702D01*
X52713117Y-65254702D01*
X52733812Y-65186482D01*
X52746072Y-65062000D01*
X52746072Y-65054785D01*
X52815298Y-65075097D01*
X53628395Y-64262000D01*
X53987605Y-64262000D01*
X54800702Y-65075097D01*
X55044671Y-65003514D01*
X55165571Y-64748004D01*
X55234300Y-64473816D01*
X55248217Y-64191488D01*
X55206787Y-63911870D01*
X55111603Y-63645708D01*
X55044671Y-63520486D01*
X54800702Y-63448903D01*
X53987605Y-64262000D01*
X53628395Y-64262000D01*
X52815298Y-63448903D01*
X52746072Y-63469215D01*
X52746072Y-63462000D01*
X52733812Y-63337518D01*
X52713118Y-63269298D01*
X52994903Y-63269298D01*
X53808000Y-64082395D01*
X54621097Y-63269298D01*
X54549514Y-63025329D01*
X54294004Y-62904429D01*
X54019816Y-62835700D01*
X53737488Y-62821783D01*
X53457870Y-62863213D01*
X53191708Y-62958397D01*
X53066486Y-63025329D01*
X52994903Y-63269298D01*
X52713118Y-63269298D01*
X52697502Y-63217820D01*
X52638537Y-63107506D01*
X52559185Y-63010815D01*
X52462494Y-62931463D01*
X52352180Y-62872498D01*
X52232482Y-62836188D01*
X52108000Y-62823928D01*
X50508000Y-62823928D01*
X50383518Y-62836188D01*
X50263820Y-62872498D01*
X50153506Y-62931463D01*
X50056815Y-63010815D01*
X49977463Y-63107506D01*
X49918498Y-63217820D01*
X49882188Y-63337518D01*
X49869928Y-63462000D01*
X48241340Y-63462000D01*
X48196702Y-63448903D01*
X47383605Y-64262000D01*
X47024395Y-64262000D01*
X46211298Y-63448903D01*
X46142072Y-63469215D01*
X46142072Y-63462000D01*
X46129812Y-63337518D01*
X46109118Y-63269298D01*
X46390903Y-63269298D01*
X47204000Y-64082395D01*
X48017097Y-63269298D01*
X47945514Y-63025329D01*
X47690004Y-62904429D01*
X47415816Y-62835700D01*
X47133488Y-62821783D01*
X46853870Y-62863213D01*
X46587708Y-62958397D01*
X46462486Y-63025329D01*
X46390903Y-63269298D01*
X46109118Y-63269298D01*
X46093502Y-63217820D01*
X46034537Y-63107506D01*
X45955185Y-63010815D01*
X45858494Y-62931463D01*
X45748180Y-62872498D01*
X45628482Y-62836188D01*
X45504000Y-62823928D01*
X43904000Y-62823928D01*
X43779518Y-62836188D01*
X43659820Y-62872498D01*
X43549506Y-62931463D01*
X43452815Y-63010815D01*
X43373463Y-63107506D01*
X43314498Y-63217820D01*
X43278188Y-63337518D01*
X43265928Y-63462000D01*
X42037000Y-63462000D01*
X42037000Y-61428646D01*
X43049546Y-62441193D01*
G37*
%TD.AperFunction*%
D26*
X98844796Y-49683000D02*
X99275204Y-49683000D01*
X99405914Y-49657000D01*
X100203000Y-49657000D01*
X100203000Y-65913000D01*
X95181802Y-65913000D01*
X95253004Y-65841798D01*
X95282001Y-65818001D01*
X95334526Y-65753999D01*
X95376974Y-65702277D01*
X95447546Y-65570247D01*
X95464855Y-65513185D01*
X95491003Y-65426986D01*
X95502000Y-65315333D01*
X95502000Y-65315323D01*
X95505676Y-65278000D01*
X95502000Y-65240678D01*
X95502000Y-65192072D01*
X95542000Y-65192072D01*
X95666482Y-65179812D01*
X95786180Y-65143502D01*
X95896494Y-65084537D01*
X95993185Y-65005185D01*
X96072537Y-64908494D01*
X96131502Y-64798180D01*
X96147117Y-64746702D01*
X96428903Y-64746702D01*
X96500486Y-64990671D01*
X96755996Y-65111571D01*
X97030184Y-65180300D01*
X97312512Y-65194217D01*
X97592130Y-65152787D01*
X97858292Y-65057603D01*
X97983514Y-64990671D01*
X98055097Y-64746702D01*
X97242000Y-63933605D01*
X96428903Y-64746702D01*
X96147117Y-64746702D01*
X96167812Y-64678482D01*
X96180072Y-64554000D01*
X96180072Y-64546785D01*
X96249298Y-64567097D01*
X97062395Y-63754000D01*
X97421605Y-63754000D01*
X98234702Y-64567097D01*
X98478671Y-64495514D01*
X98599571Y-64240004D01*
X98668300Y-63965816D01*
X98682217Y-63683488D01*
X98640787Y-63403870D01*
X98545603Y-63137708D01*
X98478671Y-63012486D01*
X98234702Y-62940903D01*
X97421605Y-63754000D01*
X97062395Y-63754000D01*
X96249298Y-62940903D01*
X96180072Y-62961215D01*
X96180072Y-62954000D01*
X96167812Y-62829518D01*
X96147118Y-62761298D01*
X96428903Y-62761298D01*
X97242000Y-63574395D01*
X98055097Y-62761298D01*
X97983514Y-62517329D01*
X97728004Y-62396429D01*
X97453816Y-62327700D01*
X97171488Y-62313783D01*
X96891870Y-62355213D01*
X96625708Y-62450397D01*
X96500486Y-62517329D01*
X96428903Y-62761298D01*
X96147118Y-62761298D01*
X96131502Y-62709820D01*
X96072537Y-62599506D01*
X95993185Y-62502815D01*
X95896494Y-62423463D01*
X95786180Y-62364498D01*
X95666482Y-62328188D01*
X95542000Y-62315928D01*
X93942000Y-62315928D01*
X93817518Y-62328188D01*
X93697820Y-62364498D01*
X93587506Y-62423463D01*
X93490815Y-62502815D01*
X93411463Y-62599506D01*
X93352498Y-62709820D01*
X93316188Y-62829518D01*
X93303928Y-62954000D01*
X93303928Y-64554000D01*
X93316188Y-64678482D01*
X93352498Y-64798180D01*
X93411463Y-64908494D01*
X93490815Y-65005185D01*
X93587506Y-65084537D01*
X93697820Y-65143502D01*
X93777520Y-65167679D01*
X93411199Y-65534000D01*
X88960802Y-65534000D01*
X88848480Y-65421679D01*
X88928180Y-65397502D01*
X89038494Y-65338537D01*
X89135185Y-65259185D01*
X89214537Y-65162494D01*
X89273502Y-65052180D01*
X89289117Y-65000702D01*
X89570903Y-65000702D01*
X89642486Y-65244671D01*
X89897996Y-65365571D01*
X90172184Y-65434300D01*
X90454512Y-65448217D01*
X90734130Y-65406787D01*
X91000292Y-65311603D01*
X91125514Y-65244671D01*
X91197097Y-65000702D01*
X90384000Y-64187605D01*
X89570903Y-65000702D01*
X89289117Y-65000702D01*
X89309812Y-64932482D01*
X89322072Y-64808000D01*
X89322072Y-64800785D01*
X89391298Y-64821097D01*
X90204395Y-64008000D01*
X90563605Y-64008000D01*
X91376702Y-64821097D01*
X91620671Y-64749514D01*
X91741571Y-64494004D01*
X91810300Y-64219816D01*
X91824217Y-63937488D01*
X91782787Y-63657870D01*
X91687603Y-63391708D01*
X91620671Y-63266486D01*
X91376702Y-63194903D01*
X90563605Y-64008000D01*
X90204395Y-64008000D01*
X89391298Y-63194903D01*
X89322072Y-63215215D01*
X89322072Y-63208000D01*
X89309812Y-63083518D01*
X89289118Y-63015298D01*
X89570903Y-63015298D01*
X90384000Y-63828395D01*
X91197097Y-63015298D01*
X91125514Y-62771329D01*
X90870004Y-62650429D01*
X90595816Y-62581700D01*
X90313488Y-62567783D01*
X90033870Y-62609213D01*
X89767708Y-62704397D01*
X89642486Y-62771329D01*
X89570903Y-63015298D01*
X89289118Y-63015298D01*
X89273502Y-62963820D01*
X89214537Y-62853506D01*
X89135185Y-62756815D01*
X89038494Y-62677463D01*
X88928180Y-62618498D01*
X88808482Y-62582188D01*
X88684000Y-62569928D01*
X87084000Y-62569928D01*
X86959518Y-62582188D01*
X86839820Y-62618498D01*
X86729506Y-62677463D01*
X86632815Y-62756815D01*
X86553463Y-62853506D01*
X86494498Y-62963820D01*
X86458188Y-63083518D01*
X86445928Y-63208000D01*
X86445928Y-64371270D01*
X85283199Y-65534000D01*
X83972076Y-65534000D01*
X84029710Y-65476366D01*
X84238189Y-65164356D01*
X84381791Y-64817668D01*
X84455000Y-64449626D01*
X84455000Y-64074374D01*
X84381791Y-63706332D01*
X84238189Y-63359644D01*
X84029710Y-63047634D01*
X83764366Y-62782290D01*
X83614272Y-62682000D01*
X85401095Y-62682000D01*
X85437200Y-62685556D01*
X85473305Y-62682000D01*
X85581285Y-62671365D01*
X85719833Y-62629337D01*
X85847520Y-62561087D01*
X85959438Y-62469238D01*
X85982458Y-62441188D01*
X86444192Y-61979454D01*
X86472238Y-61956438D01*
X86564087Y-61844520D01*
X86598770Y-61779633D01*
X86632337Y-61716834D01*
X86674365Y-61578285D01*
X86688556Y-61434200D01*
X86685000Y-61398095D01*
X86685000Y-60321947D01*
X86854187Y-60152760D01*
X86882238Y-60129739D01*
X86974087Y-60017821D01*
X87013545Y-59944000D01*
X87042337Y-59890135D01*
X87084365Y-59751586D01*
X87098556Y-59607501D01*
X87095000Y-59571396D01*
X87095000Y-59567287D01*
X87205518Y-59600812D01*
X87330000Y-59613072D01*
X87344250Y-59610000D01*
X87503000Y-59451250D01*
X87503000Y-57837000D01*
X87757000Y-57837000D01*
X87757000Y-59451250D01*
X87915750Y-59610000D01*
X87930000Y-59613072D01*
X88054482Y-59600812D01*
X88174180Y-59564502D01*
X88284494Y-59505537D01*
X88381185Y-59426185D01*
X88460537Y-59329494D01*
X88519502Y-59219180D01*
X88555812Y-59099482D01*
X88568072Y-58975000D01*
X88565000Y-57995750D01*
X88406250Y-57837000D01*
X87757000Y-57837000D01*
X87503000Y-57837000D01*
X87483000Y-57837000D01*
X87483000Y-57583000D01*
X87503000Y-57583000D01*
X87503000Y-57563000D01*
X87757000Y-57563000D01*
X87757000Y-57583000D01*
X88406250Y-57583000D01*
X88565000Y-57424250D01*
X88568072Y-56445000D01*
X88555812Y-56320518D01*
X88519502Y-56200820D01*
X88460537Y-56090506D01*
X88381185Y-55993815D01*
X88284494Y-55914463D01*
X88216278Y-55878000D01*
X89116678Y-55878000D01*
X89154000Y-55881676D01*
X89191322Y-55878000D01*
X89191333Y-55878000D01*
X89302986Y-55867003D01*
X89446247Y-55823546D01*
X89495000Y-55797487D01*
X89495000Y-55991788D01*
X89538617Y-56211067D01*
X89624176Y-56417624D01*
X89748388Y-56603520D01*
X89906480Y-56761612D01*
X90092376Y-56885824D01*
X90298933Y-56971383D01*
X90518212Y-57015000D01*
X90741788Y-57015000D01*
X90961067Y-56971383D01*
X91167624Y-56885824D01*
X91353520Y-56761612D01*
X91511612Y-56603520D01*
X91635824Y-56417624D01*
X91691928Y-56282177D01*
X91691928Y-57180000D01*
X91704188Y-57304482D01*
X91740498Y-57424180D01*
X91799463Y-57534494D01*
X91878815Y-57631185D01*
X91975506Y-57710537D01*
X92085820Y-57769502D01*
X92205518Y-57805812D01*
X92330000Y-57818072D01*
X93802129Y-57818072D01*
X92436201Y-59184000D01*
X91889711Y-59184000D01*
X91845774Y-59140063D01*
X91676256Y-59026795D01*
X91487898Y-58948774D01*
X91287939Y-58909000D01*
X91084061Y-58909000D01*
X90884102Y-58948774D01*
X90695744Y-59026795D01*
X90526226Y-59140063D01*
X90382063Y-59284226D01*
X90268795Y-59453744D01*
X90190774Y-59642102D01*
X90151000Y-59842061D01*
X90151000Y-60045939D01*
X90190774Y-60245898D01*
X90268795Y-60434256D01*
X90382063Y-60603774D01*
X90526226Y-60747937D01*
X90695744Y-60861205D01*
X90884102Y-60939226D01*
X91084061Y-60979000D01*
X91287939Y-60979000D01*
X91487898Y-60939226D01*
X91676256Y-60861205D01*
X91845774Y-60747937D01*
X91889711Y-60704000D01*
X92713680Y-60704000D01*
X92751002Y-60707676D01*
X92788324Y-60704000D01*
X92788335Y-60704000D01*
X92899988Y-60693003D01*
X93043249Y-60649546D01*
X93175278Y-60578974D01*
X93291003Y-60484001D01*
X93314806Y-60454997D01*
X96772727Y-56997077D01*
X96894762Y-57225387D01*
X97082208Y-57453792D01*
X97310613Y-57641238D01*
X97341972Y-57658000D01*
X97310613Y-57674762D01*
X97082208Y-57862208D01*
X96894762Y-58090613D01*
X96755476Y-58351198D01*
X96669705Y-58633949D01*
X96640743Y-58928000D01*
X96669705Y-59222051D01*
X96755476Y-59504802D01*
X96894762Y-59765387D01*
X97082208Y-59993792D01*
X97310613Y-60181238D01*
X97571198Y-60320524D01*
X97853949Y-60406295D01*
X98074320Y-60428000D01*
X98521680Y-60428000D01*
X98742051Y-60406295D01*
X99024802Y-60320524D01*
X99285387Y-60181238D01*
X99513792Y-59993792D01*
X99701238Y-59765387D01*
X99840524Y-59504802D01*
X99926295Y-59222051D01*
X99955257Y-58928000D01*
X99926295Y-58633949D01*
X99840524Y-58351198D01*
X99701238Y-58090613D01*
X99513792Y-57862208D01*
X99285387Y-57674762D01*
X99254028Y-57658000D01*
X99285387Y-57641238D01*
X99513792Y-57453792D01*
X99701238Y-57225387D01*
X99840524Y-56964802D01*
X99926295Y-56682051D01*
X99955257Y-56388000D01*
X99926295Y-56093949D01*
X99840524Y-55811198D01*
X99701238Y-55550613D01*
X99513792Y-55322208D01*
X99285387Y-55134762D01*
X99254028Y-55118000D01*
X99285387Y-55101238D01*
X99513792Y-54913792D01*
X99701238Y-54685387D01*
X99840524Y-54424802D01*
X99926295Y-54142051D01*
X99955257Y-53848000D01*
X99926295Y-53553949D01*
X99840524Y-53271198D01*
X99701238Y-53010613D01*
X99513792Y-52782208D01*
X99507970Y-52777430D01*
X99557180Y-52762502D01*
X99667494Y-52703537D01*
X99764185Y-52624185D01*
X99843537Y-52527494D01*
X99902502Y-52417180D01*
X99938812Y-52297482D01*
X99951072Y-52173000D01*
X99948000Y-51593750D01*
X99789250Y-51435000D01*
X98425000Y-51435000D01*
X98425000Y-51455000D01*
X98171000Y-51455000D01*
X98171000Y-51435000D01*
X98151000Y-51435000D01*
X98151000Y-51181000D01*
X98171000Y-51181000D01*
X98171000Y-49966750D01*
X98425000Y-49966750D01*
X98425000Y-51181000D01*
X99789250Y-51181000D01*
X99948000Y-51022250D01*
X99951072Y-50443000D01*
X99938812Y-50318518D01*
X99902502Y-50198820D01*
X99843537Y-50088506D01*
X99764185Y-49991815D01*
X99667494Y-49912463D01*
X99557180Y-49853498D01*
X99437482Y-49817188D01*
X99313000Y-49804928D01*
X98583750Y-49808000D01*
X98425000Y-49966750D01*
X98171000Y-49966750D01*
X98012250Y-49808000D01*
X97283000Y-49804928D01*
X97280000Y-49805223D01*
X97280000Y-49657000D01*
X98714086Y-49657000D01*
X98844796Y-49683000D01*
%TA.AperFunction,Conductor*%
D27*
G36*
X98844796Y-49683000D02*
G01*
X99275204Y-49683000D01*
X99405914Y-49657000D01*
X100203000Y-49657000D01*
X100203000Y-65913000D01*
X95181802Y-65913000D01*
X95253004Y-65841798D01*
X95282001Y-65818001D01*
X95334526Y-65753999D01*
X95376974Y-65702277D01*
X95447546Y-65570247D01*
X95464855Y-65513185D01*
X95491003Y-65426986D01*
X95502000Y-65315333D01*
X95502000Y-65315323D01*
X95505676Y-65278000D01*
X95502000Y-65240678D01*
X95502000Y-65192072D01*
X95542000Y-65192072D01*
X95666482Y-65179812D01*
X95786180Y-65143502D01*
X95896494Y-65084537D01*
X95993185Y-65005185D01*
X96072537Y-64908494D01*
X96131502Y-64798180D01*
X96147117Y-64746702D01*
X96428903Y-64746702D01*
X96500486Y-64990671D01*
X96755996Y-65111571D01*
X97030184Y-65180300D01*
X97312512Y-65194217D01*
X97592130Y-65152787D01*
X97858292Y-65057603D01*
X97983514Y-64990671D01*
X98055097Y-64746702D01*
X97242000Y-63933605D01*
X96428903Y-64746702D01*
X96147117Y-64746702D01*
X96167812Y-64678482D01*
X96180072Y-64554000D01*
X96180072Y-64546785D01*
X96249298Y-64567097D01*
X97062395Y-63754000D01*
X97421605Y-63754000D01*
X98234702Y-64567097D01*
X98478671Y-64495514D01*
X98599571Y-64240004D01*
X98668300Y-63965816D01*
X98682217Y-63683488D01*
X98640787Y-63403870D01*
X98545603Y-63137708D01*
X98478671Y-63012486D01*
X98234702Y-62940903D01*
X97421605Y-63754000D01*
X97062395Y-63754000D01*
X96249298Y-62940903D01*
X96180072Y-62961215D01*
X96180072Y-62954000D01*
X96167812Y-62829518D01*
X96147118Y-62761298D01*
X96428903Y-62761298D01*
X97242000Y-63574395D01*
X98055097Y-62761298D01*
X97983514Y-62517329D01*
X97728004Y-62396429D01*
X97453816Y-62327700D01*
X97171488Y-62313783D01*
X96891870Y-62355213D01*
X96625708Y-62450397D01*
X96500486Y-62517329D01*
X96428903Y-62761298D01*
X96147118Y-62761298D01*
X96131502Y-62709820D01*
X96072537Y-62599506D01*
X95993185Y-62502815D01*
X95896494Y-62423463D01*
X95786180Y-62364498D01*
X95666482Y-62328188D01*
X95542000Y-62315928D01*
X93942000Y-62315928D01*
X93817518Y-62328188D01*
X93697820Y-62364498D01*
X93587506Y-62423463D01*
X93490815Y-62502815D01*
X93411463Y-62599506D01*
X93352498Y-62709820D01*
X93316188Y-62829518D01*
X93303928Y-62954000D01*
X93303928Y-64554000D01*
X93316188Y-64678482D01*
X93352498Y-64798180D01*
X93411463Y-64908494D01*
X93490815Y-65005185D01*
X93587506Y-65084537D01*
X93697820Y-65143502D01*
X93777520Y-65167679D01*
X93411199Y-65534000D01*
X88960802Y-65534000D01*
X88848480Y-65421679D01*
X88928180Y-65397502D01*
X89038494Y-65338537D01*
X89135185Y-65259185D01*
X89214537Y-65162494D01*
X89273502Y-65052180D01*
X89289117Y-65000702D01*
X89570903Y-65000702D01*
X89642486Y-65244671D01*
X89897996Y-65365571D01*
X90172184Y-65434300D01*
X90454512Y-65448217D01*
X90734130Y-65406787D01*
X91000292Y-65311603D01*
X91125514Y-65244671D01*
X91197097Y-65000702D01*
X90384000Y-64187605D01*
X89570903Y-65000702D01*
X89289117Y-65000702D01*
X89309812Y-64932482D01*
X89322072Y-64808000D01*
X89322072Y-64800785D01*
X89391298Y-64821097D01*
X90204395Y-64008000D01*
X90563605Y-64008000D01*
X91376702Y-64821097D01*
X91620671Y-64749514D01*
X91741571Y-64494004D01*
X91810300Y-64219816D01*
X91824217Y-63937488D01*
X91782787Y-63657870D01*
X91687603Y-63391708D01*
X91620671Y-63266486D01*
X91376702Y-63194903D01*
X90563605Y-64008000D01*
X90204395Y-64008000D01*
X89391298Y-63194903D01*
X89322072Y-63215215D01*
X89322072Y-63208000D01*
X89309812Y-63083518D01*
X89289118Y-63015298D01*
X89570903Y-63015298D01*
X90384000Y-63828395D01*
X91197097Y-63015298D01*
X91125514Y-62771329D01*
X90870004Y-62650429D01*
X90595816Y-62581700D01*
X90313488Y-62567783D01*
X90033870Y-62609213D01*
X89767708Y-62704397D01*
X89642486Y-62771329D01*
X89570903Y-63015298D01*
X89289118Y-63015298D01*
X89273502Y-62963820D01*
X89214537Y-62853506D01*
X89135185Y-62756815D01*
X89038494Y-62677463D01*
X88928180Y-62618498D01*
X88808482Y-62582188D01*
X88684000Y-62569928D01*
X87084000Y-62569928D01*
X86959518Y-62582188D01*
X86839820Y-62618498D01*
X86729506Y-62677463D01*
X86632815Y-62756815D01*
X86553463Y-62853506D01*
X86494498Y-62963820D01*
X86458188Y-63083518D01*
X86445928Y-63208000D01*
X86445928Y-64371270D01*
X85283199Y-65534000D01*
X83972076Y-65534000D01*
X84029710Y-65476366D01*
X84238189Y-65164356D01*
X84381791Y-64817668D01*
X84455000Y-64449626D01*
X84455000Y-64074374D01*
X84381791Y-63706332D01*
X84238189Y-63359644D01*
X84029710Y-63047634D01*
X83764366Y-62782290D01*
X83614272Y-62682000D01*
X85401095Y-62682000D01*
X85437200Y-62685556D01*
X85473305Y-62682000D01*
X85581285Y-62671365D01*
X85719833Y-62629337D01*
X85847520Y-62561087D01*
X85959438Y-62469238D01*
X85982458Y-62441188D01*
X86444192Y-61979454D01*
X86472238Y-61956438D01*
X86564087Y-61844520D01*
X86598770Y-61779633D01*
X86632337Y-61716834D01*
X86674365Y-61578285D01*
X86688556Y-61434200D01*
X86685000Y-61398095D01*
X86685000Y-60321947D01*
X86854187Y-60152760D01*
X86882238Y-60129739D01*
X86974087Y-60017821D01*
X87013545Y-59944000D01*
X87042337Y-59890135D01*
X87084365Y-59751586D01*
X87098556Y-59607501D01*
X87095000Y-59571396D01*
X87095000Y-59567287D01*
X87205518Y-59600812D01*
X87330000Y-59613072D01*
X87344250Y-59610000D01*
X87503000Y-59451250D01*
X87503000Y-57837000D01*
X87757000Y-57837000D01*
X87757000Y-59451250D01*
X87915750Y-59610000D01*
X87930000Y-59613072D01*
X88054482Y-59600812D01*
X88174180Y-59564502D01*
X88284494Y-59505537D01*
X88381185Y-59426185D01*
X88460537Y-59329494D01*
X88519502Y-59219180D01*
X88555812Y-59099482D01*
X88568072Y-58975000D01*
X88565000Y-57995750D01*
X88406250Y-57837000D01*
X87757000Y-57837000D01*
X87503000Y-57837000D01*
X87483000Y-57837000D01*
X87483000Y-57583000D01*
X87503000Y-57583000D01*
X87503000Y-57563000D01*
X87757000Y-57563000D01*
X87757000Y-57583000D01*
X88406250Y-57583000D01*
X88565000Y-57424250D01*
X88568072Y-56445000D01*
X88555812Y-56320518D01*
X88519502Y-56200820D01*
X88460537Y-56090506D01*
X88381185Y-55993815D01*
X88284494Y-55914463D01*
X88216278Y-55878000D01*
X89116678Y-55878000D01*
X89154000Y-55881676D01*
X89191322Y-55878000D01*
X89191333Y-55878000D01*
X89302986Y-55867003D01*
X89446247Y-55823546D01*
X89495000Y-55797487D01*
X89495000Y-55991788D01*
X89538617Y-56211067D01*
X89624176Y-56417624D01*
X89748388Y-56603520D01*
X89906480Y-56761612D01*
X90092376Y-56885824D01*
X90298933Y-56971383D01*
X90518212Y-57015000D01*
X90741788Y-57015000D01*
X90961067Y-56971383D01*
X91167624Y-56885824D01*
X91353520Y-56761612D01*
X91511612Y-56603520D01*
X91635824Y-56417624D01*
X91691928Y-56282177D01*
X91691928Y-57180000D01*
X91704188Y-57304482D01*
X91740498Y-57424180D01*
X91799463Y-57534494D01*
X91878815Y-57631185D01*
X91975506Y-57710537D01*
X92085820Y-57769502D01*
X92205518Y-57805812D01*
X92330000Y-57818072D01*
X93802129Y-57818072D01*
X92436201Y-59184000D01*
X91889711Y-59184000D01*
X91845774Y-59140063D01*
X91676256Y-59026795D01*
X91487898Y-58948774D01*
X91287939Y-58909000D01*
X91084061Y-58909000D01*
X90884102Y-58948774D01*
X90695744Y-59026795D01*
X90526226Y-59140063D01*
X90382063Y-59284226D01*
X90268795Y-59453744D01*
X90190774Y-59642102D01*
X90151000Y-59842061D01*
X90151000Y-60045939D01*
X90190774Y-60245898D01*
X90268795Y-60434256D01*
X90382063Y-60603774D01*
X90526226Y-60747937D01*
X90695744Y-60861205D01*
X90884102Y-60939226D01*
X91084061Y-60979000D01*
X91287939Y-60979000D01*
X91487898Y-60939226D01*
X91676256Y-60861205D01*
X91845774Y-60747937D01*
X91889711Y-60704000D01*
X92713680Y-60704000D01*
X92751002Y-60707676D01*
X92788324Y-60704000D01*
X92788335Y-60704000D01*
X92899988Y-60693003D01*
X93043249Y-60649546D01*
X93175278Y-60578974D01*
X93291003Y-60484001D01*
X93314806Y-60454997D01*
X96772727Y-56997077D01*
X96894762Y-57225387D01*
X97082208Y-57453792D01*
X97310613Y-57641238D01*
X97341972Y-57658000D01*
X97310613Y-57674762D01*
X97082208Y-57862208D01*
X96894762Y-58090613D01*
X96755476Y-58351198D01*
X96669705Y-58633949D01*
X96640743Y-58928000D01*
X96669705Y-59222051D01*
X96755476Y-59504802D01*
X96894762Y-59765387D01*
X97082208Y-59993792D01*
X97310613Y-60181238D01*
X97571198Y-60320524D01*
X97853949Y-60406295D01*
X98074320Y-60428000D01*
X98521680Y-60428000D01*
X98742051Y-60406295D01*
X99024802Y-60320524D01*
X99285387Y-60181238D01*
X99513792Y-59993792D01*
X99701238Y-59765387D01*
X99840524Y-59504802D01*
X99926295Y-59222051D01*
X99955257Y-58928000D01*
X99926295Y-58633949D01*
X99840524Y-58351198D01*
X99701238Y-58090613D01*
X99513792Y-57862208D01*
X99285387Y-57674762D01*
X99254028Y-57658000D01*
X99285387Y-57641238D01*
X99513792Y-57453792D01*
X99701238Y-57225387D01*
X99840524Y-56964802D01*
X99926295Y-56682051D01*
X99955257Y-56388000D01*
X99926295Y-56093949D01*
X99840524Y-55811198D01*
X99701238Y-55550613D01*
X99513792Y-55322208D01*
X99285387Y-55134762D01*
X99254028Y-55118000D01*
X99285387Y-55101238D01*
X99513792Y-54913792D01*
X99701238Y-54685387D01*
X99840524Y-54424802D01*
X99926295Y-54142051D01*
X99955257Y-53848000D01*
X99926295Y-53553949D01*
X99840524Y-53271198D01*
X99701238Y-53010613D01*
X99513792Y-52782208D01*
X99507970Y-52777430D01*
X99557180Y-52762502D01*
X99667494Y-52703537D01*
X99764185Y-52624185D01*
X99843537Y-52527494D01*
X99902502Y-52417180D01*
X99938812Y-52297482D01*
X99951072Y-52173000D01*
X99948000Y-51593750D01*
X99789250Y-51435000D01*
X98425000Y-51435000D01*
X98425000Y-51455000D01*
X98171000Y-51455000D01*
X98171000Y-51435000D01*
X98151000Y-51435000D01*
X98151000Y-51181000D01*
X98171000Y-51181000D01*
X98171000Y-49966750D01*
X98425000Y-49966750D01*
X98425000Y-51181000D01*
X99789250Y-51181000D01*
X99948000Y-51022250D01*
X99951072Y-50443000D01*
X99938812Y-50318518D01*
X99902502Y-50198820D01*
X99843537Y-50088506D01*
X99764185Y-49991815D01*
X99667494Y-49912463D01*
X99557180Y-49853498D01*
X99437482Y-49817188D01*
X99313000Y-49804928D01*
X98583750Y-49808000D01*
X98425000Y-49966750D01*
X98171000Y-49966750D01*
X98012250Y-49808000D01*
X97283000Y-49804928D01*
X97280000Y-49805223D01*
X97280000Y-49657000D01*
X98714086Y-49657000D01*
X98844796Y-49683000D01*
G37*
%TD.AperFunction*%
D26*
X75673000Y-62839939D02*
X75712774Y-63039898D01*
X75790795Y-63228256D01*
X75904063Y-63397774D01*
X75984341Y-63478052D01*
X75870912Y-63591480D01*
X75854216Y-63393233D01*
X75675616Y-63317411D01*
X75485656Y-63277890D01*
X75291636Y-63276187D01*
X75101011Y-63312368D01*
X74921107Y-63385043D01*
X74905784Y-63393233D01*
X74889088Y-63591483D01*
X75380000Y-64082395D01*
X75394143Y-64068253D01*
X75573748Y-64247858D01*
X75559605Y-64262000D01*
X75573748Y-64276143D01*
X75394143Y-64455748D01*
X75380000Y-64441605D01*
X74889088Y-64932517D01*
X74905784Y-65130767D01*
X75084384Y-65206589D01*
X75274344Y-65246110D01*
X75468364Y-65247813D01*
X75658989Y-65211632D01*
X75838893Y-65138957D01*
X75854216Y-65130767D01*
X75870912Y-64932520D01*
X75989631Y-65051239D01*
X76017935Y-65022935D01*
X76022099Y-65027099D01*
X76183428Y-65134896D01*
X76362686Y-65209147D01*
X76552986Y-65247000D01*
X76747014Y-65247000D01*
X76937314Y-65209147D01*
X77116572Y-65134896D01*
X77268147Y-65033617D01*
X77356160Y-65105847D01*
X77531620Y-65199632D01*
X77722006Y-65257385D01*
X77920000Y-65276886D01*
X78117993Y-65257385D01*
X78308379Y-65199632D01*
X78483840Y-65105847D01*
X78571853Y-65033617D01*
X78723428Y-65134896D01*
X78902686Y-65209147D01*
X79092986Y-65247000D01*
X79287014Y-65247000D01*
X79477314Y-65209147D01*
X79656572Y-65134896D01*
X79817901Y-65027099D01*
X79955099Y-64889901D01*
X80062896Y-64728572D01*
X80137147Y-64549314D01*
X80175000Y-64359014D01*
X80175000Y-64164986D01*
X80137147Y-63974686D01*
X80062896Y-63795428D01*
X79955099Y-63634099D01*
X79817901Y-63496901D01*
X79656572Y-63389104D01*
X79477314Y-63314853D01*
X79287014Y-63277000D01*
X79092986Y-63277000D01*
X78902686Y-63314853D01*
X78755396Y-63375862D01*
X78637633Y-63232367D01*
X78599099Y-63200743D01*
X78080356Y-62682000D01*
X81485728Y-62682000D01*
X81335634Y-62782290D01*
X81070290Y-63047634D01*
X80861811Y-63359644D01*
X80718209Y-63706332D01*
X80645000Y-64074374D01*
X80645000Y-64449626D01*
X80718209Y-64817668D01*
X80861811Y-65164356D01*
X81070290Y-65476366D01*
X81127924Y-65534000D01*
X68832801Y-65534000D01*
X69094802Y-65272000D01*
X71619608Y-65272000D01*
X71767994Y-65257385D01*
X71958380Y-65199632D01*
X72133840Y-65105847D01*
X72216852Y-65037722D01*
X72230369Y-65051239D01*
X72349088Y-64932520D01*
X72365784Y-65130767D01*
X72544384Y-65206589D01*
X72734344Y-65246110D01*
X72928364Y-65247813D01*
X73118989Y-65211632D01*
X73298893Y-65138957D01*
X73314216Y-65130767D01*
X73330912Y-64932517D01*
X73619088Y-64932517D01*
X73635784Y-65130767D01*
X73814384Y-65206589D01*
X74004344Y-65246110D01*
X74198364Y-65247813D01*
X74388989Y-65211632D01*
X74568893Y-65138957D01*
X74584216Y-65130767D01*
X74600912Y-64932517D01*
X74110000Y-64441605D01*
X73619088Y-64932517D01*
X73330912Y-64932517D01*
X72840000Y-64441605D01*
X72825858Y-64455748D01*
X72646253Y-64276143D01*
X72660395Y-64262000D01*
X73019605Y-64262000D01*
X73127986Y-64370381D01*
X73160368Y-64540989D01*
X73233043Y-64720893D01*
X73241233Y-64736216D01*
X73439483Y-64752912D01*
X73475000Y-64717395D01*
X73510517Y-64752912D01*
X73708767Y-64736216D01*
X73784589Y-64557616D01*
X73823945Y-64368450D01*
X73930395Y-64262000D01*
X74289605Y-64262000D01*
X74397986Y-64370381D01*
X74430368Y-64540989D01*
X74503043Y-64720893D01*
X74511233Y-64736216D01*
X74709483Y-64752912D01*
X74745000Y-64717395D01*
X74780517Y-64752912D01*
X74978767Y-64736216D01*
X75054589Y-64557616D01*
X75093945Y-64368450D01*
X75200395Y-64262000D01*
X75092014Y-64153619D01*
X75059632Y-63983011D01*
X74986957Y-63803107D01*
X74978767Y-63787784D01*
X74780517Y-63771088D01*
X74745000Y-63806605D01*
X74709483Y-63771088D01*
X74511233Y-63787784D01*
X74435411Y-63966384D01*
X74396055Y-64155550D01*
X74289605Y-64262000D01*
X73930395Y-64262000D01*
X73822014Y-64153619D01*
X73789632Y-63983011D01*
X73716957Y-63803107D01*
X73708767Y-63787784D01*
X73510517Y-63771088D01*
X73475000Y-63806605D01*
X73439483Y-63771088D01*
X73241233Y-63787784D01*
X73165411Y-63966384D01*
X73126055Y-64155550D01*
X73019605Y-64262000D01*
X72660395Y-64262000D01*
X72646253Y-64247858D01*
X72825858Y-64068253D01*
X72840000Y-64082395D01*
X73330912Y-63591483D01*
X73619088Y-63591483D01*
X74110000Y-64082395D01*
X74600912Y-63591483D01*
X74584216Y-63393233D01*
X74405616Y-63317411D01*
X74215656Y-63277890D01*
X74021636Y-63276187D01*
X73831011Y-63312368D01*
X73651107Y-63385043D01*
X73635784Y-63393233D01*
X73619088Y-63591483D01*
X73330912Y-63591483D01*
X73314216Y-63393233D01*
X73135616Y-63317411D01*
X72945656Y-63277890D01*
X72751636Y-63276187D01*
X72561011Y-63312368D01*
X72381107Y-63385043D01*
X72365784Y-63393233D01*
X72349088Y-63591480D01*
X72230369Y-63472761D01*
X72216852Y-63486278D01*
X72133840Y-63418153D01*
X71958380Y-63324368D01*
X71767994Y-63266615D01*
X71619608Y-63252000D01*
X69937903Y-63252000D01*
X69873847Y-63132160D01*
X69747633Y-62978367D01*
X69709094Y-62946739D01*
X69444355Y-62682000D01*
X75673000Y-62682000D01*
X75673000Y-62839939D01*
%TA.AperFunction,Conductor*%
D27*
G36*
X75673000Y-62839939D02*
G01*
X75712774Y-63039898D01*
X75790795Y-63228256D01*
X75904063Y-63397774D01*
X75984341Y-63478052D01*
X75870912Y-63591480D01*
X75854216Y-63393233D01*
X75675616Y-63317411D01*
X75485656Y-63277890D01*
X75291636Y-63276187D01*
X75101011Y-63312368D01*
X74921107Y-63385043D01*
X74905784Y-63393233D01*
X74889088Y-63591483D01*
X75380000Y-64082395D01*
X75394143Y-64068253D01*
X75573748Y-64247858D01*
X75559605Y-64262000D01*
X75573748Y-64276143D01*
X75394143Y-64455748D01*
X75380000Y-64441605D01*
X74889088Y-64932517D01*
X74905784Y-65130767D01*
X75084384Y-65206589D01*
X75274344Y-65246110D01*
X75468364Y-65247813D01*
X75658989Y-65211632D01*
X75838893Y-65138957D01*
X75854216Y-65130767D01*
X75870912Y-64932520D01*
X75989631Y-65051239D01*
X76017935Y-65022935D01*
X76022099Y-65027099D01*
X76183428Y-65134896D01*
X76362686Y-65209147D01*
X76552986Y-65247000D01*
X76747014Y-65247000D01*
X76937314Y-65209147D01*
X77116572Y-65134896D01*
X77268147Y-65033617D01*
X77356160Y-65105847D01*
X77531620Y-65199632D01*
X77722006Y-65257385D01*
X77920000Y-65276886D01*
X78117993Y-65257385D01*
X78308379Y-65199632D01*
X78483840Y-65105847D01*
X78571853Y-65033617D01*
X78723428Y-65134896D01*
X78902686Y-65209147D01*
X79092986Y-65247000D01*
X79287014Y-65247000D01*
X79477314Y-65209147D01*
X79656572Y-65134896D01*
X79817901Y-65027099D01*
X79955099Y-64889901D01*
X80062896Y-64728572D01*
X80137147Y-64549314D01*
X80175000Y-64359014D01*
X80175000Y-64164986D01*
X80137147Y-63974686D01*
X80062896Y-63795428D01*
X79955099Y-63634099D01*
X79817901Y-63496901D01*
X79656572Y-63389104D01*
X79477314Y-63314853D01*
X79287014Y-63277000D01*
X79092986Y-63277000D01*
X78902686Y-63314853D01*
X78755396Y-63375862D01*
X78637633Y-63232367D01*
X78599099Y-63200743D01*
X78080356Y-62682000D01*
X81485728Y-62682000D01*
X81335634Y-62782290D01*
X81070290Y-63047634D01*
X80861811Y-63359644D01*
X80718209Y-63706332D01*
X80645000Y-64074374D01*
X80645000Y-64449626D01*
X80718209Y-64817668D01*
X80861811Y-65164356D01*
X81070290Y-65476366D01*
X81127924Y-65534000D01*
X68832801Y-65534000D01*
X69094802Y-65272000D01*
X71619608Y-65272000D01*
X71767994Y-65257385D01*
X71958380Y-65199632D01*
X72133840Y-65105847D01*
X72216852Y-65037722D01*
X72230369Y-65051239D01*
X72349088Y-64932520D01*
X72365784Y-65130767D01*
X72544384Y-65206589D01*
X72734344Y-65246110D01*
X72928364Y-65247813D01*
X73118989Y-65211632D01*
X73298893Y-65138957D01*
X73314216Y-65130767D01*
X73330912Y-64932517D01*
X73619088Y-64932517D01*
X73635784Y-65130767D01*
X73814384Y-65206589D01*
X74004344Y-65246110D01*
X74198364Y-65247813D01*
X74388989Y-65211632D01*
X74568893Y-65138957D01*
X74584216Y-65130767D01*
X74600912Y-64932517D01*
X74110000Y-64441605D01*
X73619088Y-64932517D01*
X73330912Y-64932517D01*
X72840000Y-64441605D01*
X72825858Y-64455748D01*
X72646253Y-64276143D01*
X72660395Y-64262000D01*
X73019605Y-64262000D01*
X73127986Y-64370381D01*
X73160368Y-64540989D01*
X73233043Y-64720893D01*
X73241233Y-64736216D01*
X73439483Y-64752912D01*
X73475000Y-64717395D01*
X73510517Y-64752912D01*
X73708767Y-64736216D01*
X73784589Y-64557616D01*
X73823945Y-64368450D01*
X73930395Y-64262000D01*
X74289605Y-64262000D01*
X74397986Y-64370381D01*
X74430368Y-64540989D01*
X74503043Y-64720893D01*
X74511233Y-64736216D01*
X74709483Y-64752912D01*
X74745000Y-64717395D01*
X74780517Y-64752912D01*
X74978767Y-64736216D01*
X75054589Y-64557616D01*
X75093945Y-64368450D01*
X75200395Y-64262000D01*
X75092014Y-64153619D01*
X75059632Y-63983011D01*
X74986957Y-63803107D01*
X74978767Y-63787784D01*
X74780517Y-63771088D01*
X74745000Y-63806605D01*
X74709483Y-63771088D01*
X74511233Y-63787784D01*
X74435411Y-63966384D01*
X74396055Y-64155550D01*
X74289605Y-64262000D01*
X73930395Y-64262000D01*
X73822014Y-64153619D01*
X73789632Y-63983011D01*
X73716957Y-63803107D01*
X73708767Y-63787784D01*
X73510517Y-63771088D01*
X73475000Y-63806605D01*
X73439483Y-63771088D01*
X73241233Y-63787784D01*
X73165411Y-63966384D01*
X73126055Y-64155550D01*
X73019605Y-64262000D01*
X72660395Y-64262000D01*
X72646253Y-64247858D01*
X72825858Y-64068253D01*
X72840000Y-64082395D01*
X73330912Y-63591483D01*
X73619088Y-63591483D01*
X74110000Y-64082395D01*
X74600912Y-63591483D01*
X74584216Y-63393233D01*
X74405616Y-63317411D01*
X74215656Y-63277890D01*
X74021636Y-63276187D01*
X73831011Y-63312368D01*
X73651107Y-63385043D01*
X73635784Y-63393233D01*
X73619088Y-63591483D01*
X73330912Y-63591483D01*
X73314216Y-63393233D01*
X73135616Y-63317411D01*
X72945656Y-63277890D01*
X72751636Y-63276187D01*
X72561011Y-63312368D01*
X72381107Y-63385043D01*
X72365784Y-63393233D01*
X72349088Y-63591480D01*
X72230369Y-63472761D01*
X72216852Y-63486278D01*
X72133840Y-63418153D01*
X71958380Y-63324368D01*
X71767994Y-63266615D01*
X71619608Y-63252000D01*
X69937903Y-63252000D01*
X69873847Y-63132160D01*
X69747633Y-62978367D01*
X69709094Y-62946739D01*
X69444355Y-62682000D01*
X75673000Y-62682000D01*
X75673000Y-62839939D01*
G37*
%TD.AperFunction*%
D26*
X67953748Y-64247858D02*
X67939605Y-64262000D01*
X67947402Y-64269797D01*
X67767797Y-64449402D01*
X67760000Y-64441605D01*
X67745858Y-64455748D01*
X67566253Y-64276143D01*
X67580395Y-64262000D01*
X67566253Y-64247858D01*
X67745858Y-64068253D01*
X67760000Y-64082395D01*
X67774143Y-64068253D01*
X67953748Y-64247858D01*
%TA.AperFunction,Conductor*%
D27*
G36*
X67953748Y-64247858D02*
G01*
X67939605Y-64262000D01*
X67947402Y-64269797D01*
X67767797Y-64449402D01*
X67760000Y-64441605D01*
X67745858Y-64455748D01*
X67566253Y-64276143D01*
X67580395Y-64262000D01*
X67566253Y-64247858D01*
X67745858Y-64068253D01*
X67760000Y-64082395D01*
X67774143Y-64068253D01*
X67953748Y-64247858D01*
G37*
%TD.AperFunction*%
D26*
X65413748Y-64247858D02*
X65399605Y-64262000D01*
X65413748Y-64276143D01*
X65234143Y-64455748D01*
X65220000Y-64441605D01*
X65205858Y-64455748D01*
X65026253Y-64276143D01*
X65040395Y-64262000D01*
X65026253Y-64247858D01*
X65205858Y-64068253D01*
X65220000Y-64082395D01*
X65234143Y-64068253D01*
X65413748Y-64247858D01*
%TA.AperFunction,Conductor*%
D27*
G36*
X65413748Y-64247858D02*
G01*
X65399605Y-64262000D01*
X65413748Y-64276143D01*
X65234143Y-64455748D01*
X65220000Y-64441605D01*
X65205858Y-64455748D01*
X65026253Y-64276143D01*
X65040395Y-64262000D01*
X65026253Y-64247858D01*
X65205858Y-64068253D01*
X65220000Y-64082395D01*
X65234143Y-64068253D01*
X65413748Y-64247858D01*
G37*
%TD.AperFunction*%
D26*
X67330774Y-62690102D02*
X67291000Y-62890061D01*
X67291000Y-63093939D01*
X67330774Y-63293898D01*
X67358863Y-63361711D01*
X67301107Y-63385043D01*
X67285784Y-63393233D01*
X67269088Y-63591480D01*
X67150369Y-63472761D01*
X67122065Y-63501065D01*
X67117901Y-63496901D01*
X66956572Y-63389104D01*
X66777314Y-63314853D01*
X66587014Y-63277000D01*
X66392986Y-63277000D01*
X66202686Y-63314853D01*
X66023428Y-63389104D01*
X65862099Y-63496901D01*
X65857935Y-63501065D01*
X65829631Y-63472761D01*
X65710912Y-63591480D01*
X65694216Y-63393233D01*
X65515616Y-63317411D01*
X65325656Y-63277890D01*
X65131636Y-63276187D01*
X64941011Y-63312368D01*
X64761107Y-63385043D01*
X64745784Y-63393233D01*
X64729088Y-63591480D01*
X64610369Y-63472761D01*
X64596852Y-63486278D01*
X64513840Y-63418153D01*
X64338380Y-63324368D01*
X64147994Y-63266615D01*
X63999608Y-63252000D01*
X62471560Y-63252000D01*
X62503000Y-63093939D01*
X62503000Y-62890061D01*
X62463226Y-62690102D01*
X62459870Y-62682000D01*
X67334130Y-62682000D01*
X67330774Y-62690102D01*
%TA.AperFunction,Conductor*%
D27*
G36*
X67330774Y-62690102D02*
G01*
X67291000Y-62890061D01*
X67291000Y-63093939D01*
X67330774Y-63293898D01*
X67358863Y-63361711D01*
X67301107Y-63385043D01*
X67285784Y-63393233D01*
X67269088Y-63591480D01*
X67150369Y-63472761D01*
X67122065Y-63501065D01*
X67117901Y-63496901D01*
X66956572Y-63389104D01*
X66777314Y-63314853D01*
X66587014Y-63277000D01*
X66392986Y-63277000D01*
X66202686Y-63314853D01*
X66023428Y-63389104D01*
X65862099Y-63496901D01*
X65857935Y-63501065D01*
X65829631Y-63472761D01*
X65710912Y-63591480D01*
X65694216Y-63393233D01*
X65515616Y-63317411D01*
X65325656Y-63277890D01*
X65131636Y-63276187D01*
X64941011Y-63312368D01*
X64761107Y-63385043D01*
X64745784Y-63393233D01*
X64729088Y-63591480D01*
X64610369Y-63472761D01*
X64596852Y-63486278D01*
X64513840Y-63418153D01*
X64338380Y-63324368D01*
X64147994Y-63266615D01*
X63999608Y-63252000D01*
X62471560Y-63252000D01*
X62503000Y-63093939D01*
X62503000Y-62890061D01*
X62463226Y-62690102D01*
X62459870Y-62682000D01*
X67334130Y-62682000D01*
X67330774Y-62690102D01*
G37*
%TD.AperFunction*%
D26*
X83947000Y-57583000D02*
X83967000Y-57583000D01*
X83967000Y-57837000D01*
X83947000Y-57837000D01*
X83947000Y-59451250D01*
X84105750Y-59610000D01*
X84120000Y-59613072D01*
X84244482Y-59600812D01*
X84355001Y-59567286D01*
X84355001Y-59571386D01*
X84351444Y-59607501D01*
X84365635Y-59751586D01*
X84393081Y-59842061D01*
X84407664Y-59890134D01*
X84475914Y-60017821D01*
X84567763Y-60129739D01*
X84595808Y-60152755D01*
X84765000Y-60321947D01*
X84765001Y-60762000D01*
X82581647Y-60762000D01*
X82634193Y-60709454D01*
X82662238Y-60686438D01*
X82754087Y-60574520D01*
X82822337Y-60446833D01*
X82864365Y-60308285D01*
X82875000Y-60200305D01*
X82878556Y-60164200D01*
X82875000Y-60128095D01*
X82875000Y-59610610D01*
X82974482Y-59600812D01*
X83094180Y-59564502D01*
X83185000Y-59515957D01*
X83275820Y-59564502D01*
X83395518Y-59600812D01*
X83520000Y-59613072D01*
X83534250Y-59610000D01*
X83693000Y-59451250D01*
X83693000Y-57837000D01*
X83673000Y-57837000D01*
X83673000Y-57583000D01*
X83693000Y-57583000D01*
X83693000Y-57563000D01*
X83947000Y-57563000D01*
X83947000Y-57583000D01*
%TA.AperFunction,Conductor*%
D27*
G36*
X83947000Y-57583000D02*
G01*
X83967000Y-57583000D01*
X83967000Y-57837000D01*
X83947000Y-57837000D01*
X83947000Y-59451250D01*
X84105750Y-59610000D01*
X84120000Y-59613072D01*
X84244482Y-59600812D01*
X84355001Y-59567286D01*
X84355001Y-59571386D01*
X84351444Y-59607501D01*
X84365635Y-59751586D01*
X84393081Y-59842061D01*
X84407664Y-59890134D01*
X84475914Y-60017821D01*
X84567763Y-60129739D01*
X84595808Y-60152755D01*
X84765000Y-60321947D01*
X84765001Y-60762000D01*
X82581647Y-60762000D01*
X82634193Y-60709454D01*
X82662238Y-60686438D01*
X82754087Y-60574520D01*
X82822337Y-60446833D01*
X82864365Y-60308285D01*
X82875000Y-60200305D01*
X82878556Y-60164200D01*
X82875000Y-60128095D01*
X82875000Y-59610610D01*
X82974482Y-59600812D01*
X83094180Y-59564502D01*
X83185000Y-59515957D01*
X83275820Y-59564502D01*
X83395518Y-59600812D01*
X83520000Y-59613072D01*
X83534250Y-59610000D01*
X83693000Y-59451250D01*
X83693000Y-57837000D01*
X83673000Y-57837000D01*
X83673000Y-57583000D01*
X83693000Y-57583000D01*
X83693000Y-57563000D01*
X83947000Y-57563000D01*
X83947000Y-57583000D01*
G37*
%TD.AperFunction*%
D26*
X79355506Y-55914463D02*
X79258815Y-55993815D01*
X79179463Y-56090506D01*
X79120498Y-56200820D01*
X79084188Y-56320518D01*
X79071928Y-56445000D01*
X79075000Y-57424250D01*
X79233750Y-57583000D01*
X79883000Y-57583000D01*
X79883000Y-57563000D01*
X80137000Y-57563000D01*
X80137000Y-57583000D01*
X80157000Y-57583000D01*
X80157000Y-57837000D01*
X80137000Y-57837000D01*
X80137000Y-59451250D01*
X80295750Y-59610000D01*
X80310000Y-59613072D01*
X80434482Y-59600812D01*
X80554180Y-59564502D01*
X80645000Y-59515957D01*
X80735820Y-59564502D01*
X80855518Y-59600812D01*
X80955000Y-59610610D01*
X80955000Y-59673353D01*
X80882354Y-59746000D01*
X75203000Y-59746000D01*
X75203000Y-59588061D01*
X75163226Y-59388102D01*
X75085205Y-59199744D01*
X74971937Y-59030226D01*
X74916711Y-58975000D01*
X79071928Y-58975000D01*
X79084188Y-59099482D01*
X79120498Y-59219180D01*
X79179463Y-59329494D01*
X79258815Y-59426185D01*
X79355506Y-59505537D01*
X79465820Y-59564502D01*
X79585518Y-59600812D01*
X79710000Y-59613072D01*
X79724250Y-59610000D01*
X79883000Y-59451250D01*
X79883000Y-57837000D01*
X79233750Y-57837000D01*
X79075000Y-57995750D01*
X79071928Y-58975000D01*
X74916711Y-58975000D01*
X74827774Y-58886063D01*
X74670000Y-58780642D01*
X74670000Y-58470000D01*
X75348678Y-58470000D01*
X75386000Y-58473676D01*
X75423322Y-58470000D01*
X75423333Y-58470000D01*
X75534986Y-58459003D01*
X75678247Y-58415546D01*
X75810276Y-58344974D01*
X75926001Y-58250001D01*
X75949804Y-58220997D01*
X78292802Y-55878000D01*
X79423722Y-55878000D01*
X79355506Y-55914463D01*
%TA.AperFunction,Conductor*%
D27*
G36*
X79355506Y-55914463D02*
G01*
X79258815Y-55993815D01*
X79179463Y-56090506D01*
X79120498Y-56200820D01*
X79084188Y-56320518D01*
X79071928Y-56445000D01*
X79075000Y-57424250D01*
X79233750Y-57583000D01*
X79883000Y-57583000D01*
X79883000Y-57563000D01*
X80137000Y-57563000D01*
X80137000Y-57583000D01*
X80157000Y-57583000D01*
X80157000Y-57837000D01*
X80137000Y-57837000D01*
X80137000Y-59451250D01*
X80295750Y-59610000D01*
X80310000Y-59613072D01*
X80434482Y-59600812D01*
X80554180Y-59564502D01*
X80645000Y-59515957D01*
X80735820Y-59564502D01*
X80855518Y-59600812D01*
X80955000Y-59610610D01*
X80955000Y-59673353D01*
X80882354Y-59746000D01*
X75203000Y-59746000D01*
X75203000Y-59588061D01*
X75163226Y-59388102D01*
X75085205Y-59199744D01*
X74971937Y-59030226D01*
X74916711Y-58975000D01*
X79071928Y-58975000D01*
X79084188Y-59099482D01*
X79120498Y-59219180D01*
X79179463Y-59329494D01*
X79258815Y-59426185D01*
X79355506Y-59505537D01*
X79465820Y-59564502D01*
X79585518Y-59600812D01*
X79710000Y-59613072D01*
X79724250Y-59610000D01*
X79883000Y-59451250D01*
X79883000Y-57837000D01*
X79233750Y-57837000D01*
X79075000Y-57995750D01*
X79071928Y-58975000D01*
X74916711Y-58975000D01*
X74827774Y-58886063D01*
X74670000Y-58780642D01*
X74670000Y-58470000D01*
X75348678Y-58470000D01*
X75386000Y-58473676D01*
X75423322Y-58470000D01*
X75423333Y-58470000D01*
X75534986Y-58459003D01*
X75678247Y-58415546D01*
X75810276Y-58344974D01*
X75926001Y-58250001D01*
X75949804Y-58220997D01*
X78292802Y-55878000D01*
X79423722Y-55878000D01*
X79355506Y-55914463D01*
G37*
%TD.AperFunction*%
D26*
X62186644Y-55810000D02*
X62102998Y-55810000D01*
X62102998Y-55968748D01*
X61944250Y-55810000D01*
X61930000Y-55806928D01*
X61805518Y-55819188D01*
X61685820Y-55855498D01*
X61595000Y-55904043D01*
X61504180Y-55855498D01*
X61384482Y-55819188D01*
X61260000Y-55806928D01*
X61245750Y-55810000D01*
X61087000Y-55968750D01*
X61087000Y-57583000D01*
X62103000Y-57583000D01*
X62103000Y-57563000D01*
X62357000Y-57563000D01*
X62357000Y-57583000D01*
X62377000Y-57583000D01*
X62377000Y-57837000D01*
X62357000Y-57837000D01*
X62357000Y-59451250D01*
X62490001Y-59584251D01*
X62490001Y-59640383D01*
X62485114Y-59690000D01*
X62490630Y-59746000D01*
X59709000Y-59746000D01*
X59709000Y-59610000D01*
X59817002Y-59610000D01*
X59817002Y-59451252D01*
X59975750Y-59610000D01*
X59990000Y-59613072D01*
X60114482Y-59600812D01*
X60234180Y-59564502D01*
X60325000Y-59515957D01*
X60415820Y-59564502D01*
X60535518Y-59600812D01*
X60660000Y-59613072D01*
X60674250Y-59610000D01*
X60833000Y-59451250D01*
X60833000Y-57837000D01*
X61087000Y-57837000D01*
X61087000Y-59451250D01*
X61245750Y-59610000D01*
X61260000Y-59613072D01*
X61384482Y-59600812D01*
X61504180Y-59564502D01*
X61595000Y-59515957D01*
X61685820Y-59564502D01*
X61805518Y-59600812D01*
X61930000Y-59613072D01*
X61944250Y-59610000D01*
X62103000Y-59451250D01*
X62103000Y-57837000D01*
X61087000Y-57837000D01*
X60833000Y-57837000D01*
X59817000Y-57837000D01*
X59817000Y-57857000D01*
X59563000Y-57857000D01*
X59563000Y-57837000D01*
X59543000Y-57837000D01*
X59543000Y-57583000D01*
X59563000Y-57583000D01*
X59563000Y-55968750D01*
X59817000Y-55968750D01*
X59817000Y-57583000D01*
X60833000Y-57583000D01*
X60833000Y-55968750D01*
X60674250Y-55810000D01*
X60660000Y-55806928D01*
X60535518Y-55819188D01*
X60415820Y-55855498D01*
X60325000Y-55904043D01*
X60234180Y-55855498D01*
X60114482Y-55819188D01*
X59990000Y-55806928D01*
X59975750Y-55810000D01*
X59817000Y-55968750D01*
X59563000Y-55968750D01*
X59404250Y-55810000D01*
X59390000Y-55806928D01*
X59265518Y-55819188D01*
X59145820Y-55855498D01*
X59055000Y-55904043D01*
X58964180Y-55855498D01*
X58844482Y-55819188D01*
X58720000Y-55806928D01*
X58120000Y-55806928D01*
X57995518Y-55819188D01*
X57875820Y-55855498D01*
X57785000Y-55904043D01*
X57694180Y-55855498D01*
X57574482Y-55819188D01*
X57450000Y-55806928D01*
X56850000Y-55806928D01*
X56725518Y-55819188D01*
X56605820Y-55855498D01*
X56515000Y-55904043D01*
X56424180Y-55855498D01*
X56304482Y-55819188D01*
X56180000Y-55806928D01*
X55580000Y-55806928D01*
X55455518Y-55819188D01*
X55335820Y-55855498D01*
X55225506Y-55914463D01*
X55128815Y-55993815D01*
X55049463Y-56090506D01*
X54990498Y-56200820D01*
X54954188Y-56320518D01*
X54941928Y-56445000D01*
X54941928Y-56700000D01*
X54099608Y-56700000D01*
X54050000Y-56695114D01*
X53933267Y-56706611D01*
X54063061Y-56512359D01*
X54163696Y-56269405D01*
X54215000Y-56011486D01*
X54215000Y-55748514D01*
X54163696Y-55490595D01*
X54063061Y-55247641D01*
X53916962Y-55028987D01*
X53731013Y-54843038D01*
X53512359Y-54696939D01*
X53269405Y-54596304D01*
X53011486Y-54545000D01*
X52748514Y-54545000D01*
X52490595Y-54596304D01*
X52247641Y-54696939D01*
X52028987Y-54843038D01*
X51843038Y-55028987D01*
X51818072Y-55066351D01*
X51818072Y-54580000D01*
X51805812Y-54455518D01*
X51773803Y-54350000D01*
X60726645Y-54350000D01*
X62186644Y-55810000D01*
%TA.AperFunction,Conductor*%
D27*
G36*
X62186644Y-55810000D02*
G01*
X62102998Y-55810000D01*
X62102998Y-55968748D01*
X61944250Y-55810000D01*
X61930000Y-55806928D01*
X61805518Y-55819188D01*
X61685820Y-55855498D01*
X61595000Y-55904043D01*
X61504180Y-55855498D01*
X61384482Y-55819188D01*
X61260000Y-55806928D01*
X61245750Y-55810000D01*
X61087000Y-55968750D01*
X61087000Y-57583000D01*
X62103000Y-57583000D01*
X62103000Y-57563000D01*
X62357000Y-57563000D01*
X62357000Y-57583000D01*
X62377000Y-57583000D01*
X62377000Y-57837000D01*
X62357000Y-57837000D01*
X62357000Y-59451250D01*
X62490001Y-59584251D01*
X62490001Y-59640383D01*
X62485114Y-59690000D01*
X62490630Y-59746000D01*
X59709000Y-59746000D01*
X59709000Y-59610000D01*
X59817002Y-59610000D01*
X59817002Y-59451252D01*
X59975750Y-59610000D01*
X59990000Y-59613072D01*
X60114482Y-59600812D01*
X60234180Y-59564502D01*
X60325000Y-59515957D01*
X60415820Y-59564502D01*
X60535518Y-59600812D01*
X60660000Y-59613072D01*
X60674250Y-59610000D01*
X60833000Y-59451250D01*
X60833000Y-57837000D01*
X61087000Y-57837000D01*
X61087000Y-59451250D01*
X61245750Y-59610000D01*
X61260000Y-59613072D01*
X61384482Y-59600812D01*
X61504180Y-59564502D01*
X61595000Y-59515957D01*
X61685820Y-59564502D01*
X61805518Y-59600812D01*
X61930000Y-59613072D01*
X61944250Y-59610000D01*
X62103000Y-59451250D01*
X62103000Y-57837000D01*
X61087000Y-57837000D01*
X60833000Y-57837000D01*
X59817000Y-57837000D01*
X59817000Y-57857000D01*
X59563000Y-57857000D01*
X59563000Y-57837000D01*
X59543000Y-57837000D01*
X59543000Y-57583000D01*
X59563000Y-57583000D01*
X59563000Y-55968750D01*
X59817000Y-55968750D01*
X59817000Y-57583000D01*
X60833000Y-57583000D01*
X60833000Y-55968750D01*
X60674250Y-55810000D01*
X60660000Y-55806928D01*
X60535518Y-55819188D01*
X60415820Y-55855498D01*
X60325000Y-55904043D01*
X60234180Y-55855498D01*
X60114482Y-55819188D01*
X59990000Y-55806928D01*
X59975750Y-55810000D01*
X59817000Y-55968750D01*
X59563000Y-55968750D01*
X59404250Y-55810000D01*
X59390000Y-55806928D01*
X59265518Y-55819188D01*
X59145820Y-55855498D01*
X59055000Y-55904043D01*
X58964180Y-55855498D01*
X58844482Y-55819188D01*
X58720000Y-55806928D01*
X58120000Y-55806928D01*
X57995518Y-55819188D01*
X57875820Y-55855498D01*
X57785000Y-55904043D01*
X57694180Y-55855498D01*
X57574482Y-55819188D01*
X57450000Y-55806928D01*
X56850000Y-55806928D01*
X56725518Y-55819188D01*
X56605820Y-55855498D01*
X56515000Y-55904043D01*
X56424180Y-55855498D01*
X56304482Y-55819188D01*
X56180000Y-55806928D01*
X55580000Y-55806928D01*
X55455518Y-55819188D01*
X55335820Y-55855498D01*
X55225506Y-55914463D01*
X55128815Y-55993815D01*
X55049463Y-56090506D01*
X54990498Y-56200820D01*
X54954188Y-56320518D01*
X54941928Y-56445000D01*
X54941928Y-56700000D01*
X54099608Y-56700000D01*
X54050000Y-56695114D01*
X53933267Y-56706611D01*
X54063061Y-56512359D01*
X54163696Y-56269405D01*
X54215000Y-56011486D01*
X54215000Y-55748514D01*
X54163696Y-55490595D01*
X54063061Y-55247641D01*
X53916962Y-55028987D01*
X53731013Y-54843038D01*
X53512359Y-54696939D01*
X53269405Y-54596304D01*
X53011486Y-54545000D01*
X52748514Y-54545000D01*
X52490595Y-54596304D01*
X52247641Y-54696939D01*
X52028987Y-54843038D01*
X51843038Y-55028987D01*
X51818072Y-55066351D01*
X51818072Y-54580000D01*
X51805812Y-54455518D01*
X51773803Y-54350000D01*
X60726645Y-54350000D01*
X62186644Y-55810000D01*
G37*
%TD.AperFunction*%
D26*
X73546928Y-54305000D02*
X73559188Y-54429482D01*
X73595498Y-54549180D01*
X73654463Y-54659494D01*
X73733815Y-54756185D01*
X73830506Y-54835537D01*
X73940820Y-54894502D01*
X74060518Y-54930812D01*
X74185000Y-54943072D01*
X74685000Y-54943072D01*
X74809482Y-54930812D01*
X74835000Y-54923071D01*
X74860518Y-54930812D01*
X74985000Y-54943072D01*
X75485000Y-54943072D01*
X75609482Y-54930812D01*
X75635000Y-54923071D01*
X75660518Y-54930812D01*
X75785000Y-54943072D01*
X76285000Y-54943072D01*
X76409482Y-54930812D01*
X76435000Y-54923071D01*
X76460518Y-54930812D01*
X76585000Y-54943072D01*
X77078126Y-54943072D01*
X75071199Y-56950000D01*
X74598072Y-56950000D01*
X74598072Y-56445000D01*
X74585812Y-56320518D01*
X74549502Y-56200820D01*
X74490537Y-56090506D01*
X74411185Y-55993815D01*
X74314494Y-55914463D01*
X74204180Y-55855498D01*
X74084482Y-55819188D01*
X73960000Y-55806928D01*
X73360000Y-55806928D01*
X73235518Y-55819188D01*
X73115820Y-55855498D01*
X73025000Y-55904043D01*
X72934180Y-55855498D01*
X72814482Y-55819188D01*
X72690000Y-55806928D01*
X72090000Y-55806928D01*
X71965518Y-55819188D01*
X71845820Y-55855498D01*
X71755000Y-55904043D01*
X71664180Y-55855498D01*
X71544482Y-55819188D01*
X71420000Y-55806928D01*
X70820000Y-55806928D01*
X70695518Y-55819188D01*
X70575820Y-55855498D01*
X70485000Y-55904043D01*
X70394180Y-55855498D01*
X70274482Y-55819188D01*
X70150000Y-55806928D01*
X70135750Y-55810000D01*
X69977000Y-55968750D01*
X69977000Y-57583000D01*
X69997000Y-57583000D01*
X69997000Y-57837000D01*
X69977000Y-57837000D01*
X69977000Y-59451250D01*
X70135750Y-59610000D01*
X70150000Y-59613072D01*
X70274482Y-59600812D01*
X70394180Y-59564502D01*
X70485000Y-59515957D01*
X70575820Y-59564502D01*
X70695518Y-59600812D01*
X70820000Y-59613072D01*
X71380000Y-59613072D01*
X71380000Y-59640392D01*
X71375114Y-59690000D01*
X71380630Y-59746000D01*
X67329000Y-59746000D01*
X67329000Y-59610000D01*
X67437002Y-59610000D01*
X67437002Y-59451252D01*
X67595750Y-59610000D01*
X67610000Y-59613072D01*
X67734482Y-59600812D01*
X67854180Y-59564502D01*
X67945000Y-59515957D01*
X68035820Y-59564502D01*
X68155518Y-59600812D01*
X68280000Y-59613072D01*
X68294250Y-59610000D01*
X68453000Y-59451250D01*
X68453000Y-57837000D01*
X68707000Y-57837000D01*
X68707000Y-59451250D01*
X68865750Y-59610000D01*
X68880000Y-59613072D01*
X69004482Y-59600812D01*
X69124180Y-59564502D01*
X69215000Y-59515957D01*
X69305820Y-59564502D01*
X69425518Y-59600812D01*
X69550000Y-59613072D01*
X69564250Y-59610000D01*
X69723000Y-59451250D01*
X69723000Y-57837000D01*
X68707000Y-57837000D01*
X68453000Y-57837000D01*
X67437000Y-57837000D01*
X67437000Y-57857000D01*
X67183000Y-57857000D01*
X67183000Y-57837000D01*
X67163000Y-57837000D01*
X67163000Y-57583000D01*
X67183000Y-57583000D01*
X67183000Y-55968750D01*
X67437000Y-55968750D01*
X67437000Y-57583000D01*
X68453000Y-57583000D01*
X68453000Y-55968750D01*
X68707000Y-55968750D01*
X68707000Y-57583000D01*
X69723000Y-57583000D01*
X69723000Y-55968750D01*
X69564250Y-55810000D01*
X69550000Y-55806928D01*
X69425518Y-55819188D01*
X69305820Y-55855498D01*
X69215000Y-55904043D01*
X69124180Y-55855498D01*
X69004482Y-55819188D01*
X68880000Y-55806928D01*
X68865750Y-55810000D01*
X68707000Y-55968750D01*
X68453000Y-55968750D01*
X68294250Y-55810000D01*
X68280000Y-55806928D01*
X68155518Y-55819188D01*
X68035820Y-55855498D01*
X67945000Y-55904043D01*
X67854180Y-55855498D01*
X67734482Y-55819188D01*
X67610000Y-55806928D01*
X67595750Y-55810000D01*
X67437000Y-55968750D01*
X67183000Y-55968750D01*
X67024250Y-55810000D01*
X67010000Y-55806928D01*
X66885518Y-55819188D01*
X66765820Y-55855498D01*
X66675000Y-55904043D01*
X66584180Y-55855498D01*
X66464482Y-55819188D01*
X66340000Y-55806928D01*
X65740000Y-55806928D01*
X65615518Y-55819188D01*
X65495820Y-55855498D01*
X65405000Y-55904043D01*
X65314180Y-55855498D01*
X65194482Y-55819188D01*
X65070000Y-55806928D01*
X64510000Y-55806928D01*
X64510000Y-55744608D01*
X64514886Y-55695000D01*
X64495385Y-55497005D01*
X64437632Y-55306620D01*
X64386874Y-55211659D01*
X64343847Y-55131160D01*
X64217633Y-54977367D01*
X64179100Y-54945744D01*
X61894261Y-52660906D01*
X61862633Y-52622367D01*
X61708840Y-52496153D01*
X61533380Y-52402368D01*
X61342994Y-52344615D01*
X61194608Y-52330000D01*
X61145000Y-52325114D01*
X61095392Y-52330000D01*
X45376356Y-52330000D01*
X45268356Y-52222000D01*
X73546928Y-52222000D01*
X73546928Y-54305000D01*
%TA.AperFunction,Conductor*%
D27*
G36*
X73546928Y-54305000D02*
G01*
X73559188Y-54429482D01*
X73595498Y-54549180D01*
X73654463Y-54659494D01*
X73733815Y-54756185D01*
X73830506Y-54835537D01*
X73940820Y-54894502D01*
X74060518Y-54930812D01*
X74185000Y-54943072D01*
X74685000Y-54943072D01*
X74809482Y-54930812D01*
X74835000Y-54923071D01*
X74860518Y-54930812D01*
X74985000Y-54943072D01*
X75485000Y-54943072D01*
X75609482Y-54930812D01*
X75635000Y-54923071D01*
X75660518Y-54930812D01*
X75785000Y-54943072D01*
X76285000Y-54943072D01*
X76409482Y-54930812D01*
X76435000Y-54923071D01*
X76460518Y-54930812D01*
X76585000Y-54943072D01*
X77078126Y-54943072D01*
X75071199Y-56950000D01*
X74598072Y-56950000D01*
X74598072Y-56445000D01*
X74585812Y-56320518D01*
X74549502Y-56200820D01*
X74490537Y-56090506D01*
X74411185Y-55993815D01*
X74314494Y-55914463D01*
X74204180Y-55855498D01*
X74084482Y-55819188D01*
X73960000Y-55806928D01*
X73360000Y-55806928D01*
X73235518Y-55819188D01*
X73115820Y-55855498D01*
X73025000Y-55904043D01*
X72934180Y-55855498D01*
X72814482Y-55819188D01*
X72690000Y-55806928D01*
X72090000Y-55806928D01*
X71965518Y-55819188D01*
X71845820Y-55855498D01*
X71755000Y-55904043D01*
X71664180Y-55855498D01*
X71544482Y-55819188D01*
X71420000Y-55806928D01*
X70820000Y-55806928D01*
X70695518Y-55819188D01*
X70575820Y-55855498D01*
X70485000Y-55904043D01*
X70394180Y-55855498D01*
X70274482Y-55819188D01*
X70150000Y-55806928D01*
X70135750Y-55810000D01*
X69977000Y-55968750D01*
X69977000Y-57583000D01*
X69997000Y-57583000D01*
X69997000Y-57837000D01*
X69977000Y-57837000D01*
X69977000Y-59451250D01*
X70135750Y-59610000D01*
X70150000Y-59613072D01*
X70274482Y-59600812D01*
X70394180Y-59564502D01*
X70485000Y-59515957D01*
X70575820Y-59564502D01*
X70695518Y-59600812D01*
X70820000Y-59613072D01*
X71380000Y-59613072D01*
X71380000Y-59640392D01*
X71375114Y-59690000D01*
X71380630Y-59746000D01*
X67329000Y-59746000D01*
X67329000Y-59610000D01*
X67437002Y-59610000D01*
X67437002Y-59451252D01*
X67595750Y-59610000D01*
X67610000Y-59613072D01*
X67734482Y-59600812D01*
X67854180Y-59564502D01*
X67945000Y-59515957D01*
X68035820Y-59564502D01*
X68155518Y-59600812D01*
X68280000Y-59613072D01*
X68294250Y-59610000D01*
X68453000Y-59451250D01*
X68453000Y-57837000D01*
X68707000Y-57837000D01*
X68707000Y-59451250D01*
X68865750Y-59610000D01*
X68880000Y-59613072D01*
X69004482Y-59600812D01*
X69124180Y-59564502D01*
X69215000Y-59515957D01*
X69305820Y-59564502D01*
X69425518Y-59600812D01*
X69550000Y-59613072D01*
X69564250Y-59610000D01*
X69723000Y-59451250D01*
X69723000Y-57837000D01*
X68707000Y-57837000D01*
X68453000Y-57837000D01*
X67437000Y-57837000D01*
X67437000Y-57857000D01*
X67183000Y-57857000D01*
X67183000Y-57837000D01*
X67163000Y-57837000D01*
X67163000Y-57583000D01*
X67183000Y-57583000D01*
X67183000Y-55968750D01*
X67437000Y-55968750D01*
X67437000Y-57583000D01*
X68453000Y-57583000D01*
X68453000Y-55968750D01*
X68707000Y-55968750D01*
X68707000Y-57583000D01*
X69723000Y-57583000D01*
X69723000Y-55968750D01*
X69564250Y-55810000D01*
X69550000Y-55806928D01*
X69425518Y-55819188D01*
X69305820Y-55855498D01*
X69215000Y-55904043D01*
X69124180Y-55855498D01*
X69004482Y-55819188D01*
X68880000Y-55806928D01*
X68865750Y-55810000D01*
X68707000Y-55968750D01*
X68453000Y-55968750D01*
X68294250Y-55810000D01*
X68280000Y-55806928D01*
X68155518Y-55819188D01*
X68035820Y-55855498D01*
X67945000Y-55904043D01*
X67854180Y-55855498D01*
X67734482Y-55819188D01*
X67610000Y-55806928D01*
X67595750Y-55810000D01*
X67437000Y-55968750D01*
X67183000Y-55968750D01*
X67024250Y-55810000D01*
X67010000Y-55806928D01*
X66885518Y-55819188D01*
X66765820Y-55855498D01*
X66675000Y-55904043D01*
X66584180Y-55855498D01*
X66464482Y-55819188D01*
X66340000Y-55806928D01*
X65740000Y-55806928D01*
X65615518Y-55819188D01*
X65495820Y-55855498D01*
X65405000Y-55904043D01*
X65314180Y-55855498D01*
X65194482Y-55819188D01*
X65070000Y-55806928D01*
X64510000Y-55806928D01*
X64510000Y-55744608D01*
X64514886Y-55695000D01*
X64495385Y-55497005D01*
X64437632Y-55306620D01*
X64386874Y-55211659D01*
X64343847Y-55131160D01*
X64217633Y-54977367D01*
X64179100Y-54945744D01*
X61894261Y-52660906D01*
X61862633Y-52622367D01*
X61708840Y-52496153D01*
X61533380Y-52402368D01*
X61342994Y-52344615D01*
X61194608Y-52330000D01*
X61145000Y-52325114D01*
X61095392Y-52330000D01*
X45376356Y-52330000D01*
X45268356Y-52222000D01*
X73546928Y-52222000D01*
X73546928Y-54305000D01*
G37*
%TD.AperFunction*%
D26*
X83692998Y-55968748D02*
X83602250Y-55878000D01*
X83692998Y-55878000D01*
X83692998Y-55968748D01*
%TA.AperFunction,Conductor*%
D27*
G36*
X83692998Y-55968748D02*
G01*
X83602250Y-55878000D01*
X83692998Y-55878000D01*
X83692998Y-55968748D01*
G37*
%TD.AperFunction*%
D26*
X87502998Y-55968748D02*
X87412250Y-55878000D01*
X87502998Y-55878000D01*
X87502998Y-55968748D01*
%TA.AperFunction,Conductor*%
D27*
G36*
X87502998Y-55968748D02*
G01*
X87412250Y-55878000D01*
X87502998Y-55878000D01*
X87502998Y-55968748D01*
G37*
%TD.AperFunction*%
D26*
X83947002Y-55968748D02*
X83947002Y-55878000D01*
X84037750Y-55878000D01*
X83947002Y-55968748D01*
%TA.AperFunction,Conductor*%
D27*
G36*
X83947002Y-55968748D02*
G01*
X83947002Y-55878000D01*
X84037750Y-55878000D01*
X83947002Y-55968748D01*
G37*
%TD.AperFunction*%
D26*
X80137002Y-55968748D02*
X80137002Y-55878000D01*
X80227750Y-55878000D01*
X80137002Y-55968748D01*
%TA.AperFunction,Conductor*%
D27*
G36*
X80137002Y-55968748D02*
G01*
X80137002Y-55878000D01*
X80227750Y-55878000D01*
X80137002Y-55968748D01*
G37*
%TD.AperFunction*%
D26*
X73546928Y-32588000D02*
X73559188Y-32712482D01*
X73595498Y-32832180D01*
X73654463Y-32942494D01*
X73733815Y-33039185D01*
X73830506Y-33118537D01*
X73940820Y-33177502D01*
X74060518Y-33213812D01*
X74185000Y-33226072D01*
X74685000Y-33226072D01*
X74809482Y-33213812D01*
X74835000Y-33206071D01*
X74860518Y-33213812D01*
X74985000Y-33226072D01*
X75485000Y-33226072D01*
X75609482Y-33213812D01*
X75635000Y-33206071D01*
X75660518Y-33213812D01*
X75785000Y-33226072D01*
X76285000Y-33226072D01*
X76409482Y-33213812D01*
X76435000Y-33206071D01*
X76460518Y-33213812D01*
X76585000Y-33226072D01*
X77085000Y-33226072D01*
X77209482Y-33213812D01*
X77235000Y-33206071D01*
X77260518Y-33213812D01*
X77385000Y-33226072D01*
X77885000Y-33226072D01*
X78009482Y-33213812D01*
X78035000Y-33206071D01*
X78060518Y-33213812D01*
X78185000Y-33226072D01*
X78685000Y-33226072D01*
X78809482Y-33213812D01*
X78835000Y-33206071D01*
X78860518Y-33213812D01*
X78985000Y-33226072D01*
X79485000Y-33226072D01*
X79609482Y-33213812D01*
X79729180Y-33177502D01*
X79839494Y-33118537D01*
X79936185Y-33039185D01*
X80015537Y-32942494D01*
X80074502Y-32832180D01*
X80110812Y-32712482D01*
X80123072Y-32588000D01*
X80123072Y-30607000D01*
X100203000Y-30607000D01*
X100203000Y-44323000D01*
X99419713Y-44323000D01*
X99513792Y-44245792D01*
X99701238Y-44017387D01*
X99840524Y-43756802D01*
X99926295Y-43474051D01*
X99955257Y-43180000D01*
X99926295Y-42885949D01*
X99840524Y-42603198D01*
X99701238Y-42342613D01*
X99513792Y-42114208D01*
X99285387Y-41926762D01*
X99254028Y-41910000D01*
X99285387Y-41893238D01*
X99513792Y-41705792D01*
X99701238Y-41477387D01*
X99840524Y-41216802D01*
X99926295Y-40934051D01*
X99955257Y-40640000D01*
X99926295Y-40345949D01*
X99840524Y-40063198D01*
X99701238Y-39802613D01*
X99513792Y-39574208D01*
X99285387Y-39386762D01*
X99254028Y-39370000D01*
X99285387Y-39353238D01*
X99513792Y-39165792D01*
X99701238Y-38937387D01*
X99840524Y-38676802D01*
X99926295Y-38394051D01*
X99955257Y-38100000D01*
X99926295Y-37805949D01*
X99840524Y-37523198D01*
X99701238Y-37262613D01*
X99513792Y-37034208D01*
X99507970Y-37029430D01*
X99557180Y-37014502D01*
X99667494Y-36955537D01*
X99764185Y-36876185D01*
X99843537Y-36779494D01*
X99902502Y-36669180D01*
X99938812Y-36549482D01*
X99951072Y-36425000D01*
X99948000Y-35845750D01*
X99789250Y-35687000D01*
X98425000Y-35687000D01*
X98425000Y-35707000D01*
X98171000Y-35707000D01*
X98171000Y-35687000D01*
X96806750Y-35687000D01*
X96648000Y-35845750D01*
X96644928Y-36425000D01*
X96657188Y-36549482D01*
X96693498Y-36669180D01*
X96752463Y-36779494D01*
X96831815Y-36876185D01*
X96928506Y-36955537D01*
X97038820Y-37014502D01*
X97088030Y-37029430D01*
X97082208Y-37034208D01*
X96894762Y-37262613D01*
X96755476Y-37523198D01*
X96669705Y-37805949D01*
X96640743Y-38100000D01*
X96647419Y-38167780D01*
X96009003Y-38806196D01*
X95979999Y-38829999D01*
X95925389Y-38896542D01*
X95885026Y-38945724D01*
X95847817Y-39015337D01*
X95814454Y-39077754D01*
X95770997Y-39221015D01*
X95760000Y-39332668D01*
X95760000Y-39332678D01*
X95756324Y-39370000D01*
X95760000Y-39407322D01*
X95760000Y-41345199D01*
X94797804Y-40383003D01*
X94774001Y-40353999D01*
X94658276Y-40259026D01*
X94526247Y-40188454D01*
X94382986Y-40144997D01*
X94271333Y-40134000D01*
X94271322Y-40134000D01*
X94234000Y-40130324D01*
X94196678Y-40134000D01*
X78875802Y-40134000D01*
X75999802Y-37258000D01*
X79071928Y-37258000D01*
X79084188Y-37382482D01*
X79120498Y-37502180D01*
X79179463Y-37612494D01*
X79258815Y-37709185D01*
X79355506Y-37788537D01*
X79465820Y-37847502D01*
X79585518Y-37883812D01*
X79710000Y-37896072D01*
X79724250Y-37893000D01*
X79882998Y-37734252D01*
X79882998Y-37893000D01*
X79930885Y-37893000D01*
X79913542Y-37934870D01*
X79873768Y-38134829D01*
X79873768Y-38338707D01*
X79913542Y-38538666D01*
X79991563Y-38727024D01*
X80104831Y-38896542D01*
X80248994Y-39040705D01*
X80418512Y-39153973D01*
X80606870Y-39231994D01*
X80647854Y-39240146D01*
X80656006Y-39281130D01*
X80734027Y-39469488D01*
X80847295Y-39639006D01*
X80991458Y-39783169D01*
X81160976Y-39896437D01*
X81349334Y-39974458D01*
X81549293Y-40014232D01*
X81753171Y-40014232D01*
X81953130Y-39974458D01*
X82141488Y-39896437D01*
X82311006Y-39783169D01*
X82455169Y-39639006D01*
X82568437Y-39469488D01*
X82646458Y-39281130D01*
X82686232Y-39081171D01*
X82686232Y-38877293D01*
X82646458Y-38677334D01*
X82623569Y-38622076D01*
X82634187Y-38611458D01*
X82662238Y-38588437D01*
X82754087Y-38476519D01*
X82822337Y-38348832D01*
X82864365Y-38210284D01*
X82875000Y-38102304D01*
X82875000Y-38102295D01*
X82878555Y-38066200D01*
X82875000Y-38030105D01*
X82875000Y-37893610D01*
X82974482Y-37883812D01*
X83094180Y-37847502D01*
X83185000Y-37798957D01*
X83275820Y-37847502D01*
X83395518Y-37883812D01*
X83520000Y-37896072D01*
X83534250Y-37893000D01*
X83692998Y-37734252D01*
X83692998Y-37893000D01*
X83740885Y-37893000D01*
X83723542Y-37934870D01*
X83683768Y-38134829D01*
X83683768Y-38338707D01*
X83723542Y-38538666D01*
X83801563Y-38727024D01*
X83914831Y-38896542D01*
X84058994Y-39040705D01*
X84228512Y-39153973D01*
X84416870Y-39231994D01*
X84457854Y-39240146D01*
X84466006Y-39281130D01*
X84544027Y-39469488D01*
X84657295Y-39639006D01*
X84801458Y-39783169D01*
X84970976Y-39896437D01*
X85159334Y-39974458D01*
X85359293Y-40014232D01*
X85563171Y-40014232D01*
X85763130Y-39974458D01*
X85951488Y-39896437D01*
X86121006Y-39783169D01*
X86265169Y-39639006D01*
X86378437Y-39469488D01*
X86456458Y-39281130D01*
X86496232Y-39081171D01*
X86496232Y-38877293D01*
X86456458Y-38677334D01*
X86433569Y-38622076D01*
X86444187Y-38611458D01*
X86472238Y-38588437D01*
X86564087Y-38476519D01*
X86632337Y-38348832D01*
X86674365Y-38210284D01*
X86685000Y-38102304D01*
X86685000Y-38102295D01*
X86688555Y-38066200D01*
X86685000Y-38030105D01*
X86685000Y-37893610D01*
X86784482Y-37883812D01*
X86904180Y-37847502D01*
X86995000Y-37798957D01*
X87085820Y-37847502D01*
X87205518Y-37883812D01*
X87330000Y-37896072D01*
X87344250Y-37893000D01*
X87503000Y-37734250D01*
X87503000Y-36120000D01*
X87757000Y-36120000D01*
X87757000Y-37734250D01*
X87915750Y-37893000D01*
X87930000Y-37896072D01*
X88054482Y-37883812D01*
X88174180Y-37847502D01*
X88284494Y-37788537D01*
X88381185Y-37709185D01*
X88460537Y-37612494D01*
X88519502Y-37502180D01*
X88555812Y-37382482D01*
X88568072Y-37258000D01*
X88565000Y-36278750D01*
X88406250Y-36120000D01*
X87757000Y-36120000D01*
X87503000Y-36120000D01*
X87483000Y-36120000D01*
X87483000Y-35866000D01*
X87503000Y-35866000D01*
X87503000Y-34251750D01*
X87757000Y-34251750D01*
X87757000Y-35866000D01*
X88406250Y-35866000D01*
X88565000Y-35707250D01*
X88568072Y-34728000D01*
X88555812Y-34603518D01*
X88519502Y-34483820D01*
X88460537Y-34373506D01*
X88381185Y-34276815D01*
X88284494Y-34197463D01*
X88174180Y-34138498D01*
X88054482Y-34102188D01*
X87930000Y-34089928D01*
X87915750Y-34093000D01*
X87757000Y-34251750D01*
X87503000Y-34251750D01*
X87344250Y-34093000D01*
X87330000Y-34089928D01*
X87205518Y-34102188D01*
X87085820Y-34138498D01*
X86995000Y-34187043D01*
X86904180Y-34138498D01*
X86784482Y-34102188D01*
X86660000Y-34089928D01*
X86060000Y-34089928D01*
X85935518Y-34102188D01*
X85815820Y-34138498D01*
X85725000Y-34187043D01*
X85634180Y-34138498D01*
X85514482Y-34102188D01*
X85390000Y-34089928D01*
X84790000Y-34089928D01*
X84665518Y-34102188D01*
X84545820Y-34138498D01*
X84455000Y-34187043D01*
X84364180Y-34138498D01*
X84244482Y-34102188D01*
X84120000Y-34089928D01*
X84105750Y-34093000D01*
X83947000Y-34251750D01*
X83947000Y-35866000D01*
X83967000Y-35866000D01*
X83967000Y-36120000D01*
X83947000Y-36120000D01*
X83947000Y-36140000D01*
X83693000Y-36140000D01*
X83693000Y-36120000D01*
X83673000Y-36120000D01*
X83673000Y-35866000D01*
X83693000Y-35866000D01*
X83693000Y-34251750D01*
X83534250Y-34093000D01*
X83520000Y-34089928D01*
X83395518Y-34102188D01*
X83275820Y-34138498D01*
X83185000Y-34187043D01*
X83094180Y-34138498D01*
X82974482Y-34102188D01*
X82850000Y-34089928D01*
X82250000Y-34089928D01*
X82125518Y-34102188D01*
X82005820Y-34138498D01*
X81915000Y-34187043D01*
X81824180Y-34138498D01*
X81704482Y-34102188D01*
X81580000Y-34089928D01*
X80980000Y-34089928D01*
X80855518Y-34102188D01*
X80735820Y-34138498D01*
X80645000Y-34187043D01*
X80554180Y-34138498D01*
X80434482Y-34102188D01*
X80310000Y-34089928D01*
X80295750Y-34093000D01*
X80137000Y-34251750D01*
X80137000Y-35866000D01*
X80157000Y-35866000D01*
X80157000Y-36120000D01*
X80137000Y-36120000D01*
X80137000Y-36140000D01*
X79883000Y-36140000D01*
X79883000Y-36120000D01*
X79233750Y-36120000D01*
X79075000Y-36278750D01*
X79071928Y-37258000D01*
X75999802Y-37258000D01*
X74668340Y-35926539D01*
X74655385Y-35795006D01*
X74598072Y-35606070D01*
X74598072Y-34728000D01*
X79071928Y-34728000D01*
X79075000Y-35707250D01*
X79233750Y-35866000D01*
X79883000Y-35866000D01*
X79883000Y-34251750D01*
X79724250Y-34093000D01*
X79710000Y-34089928D01*
X79585518Y-34102188D01*
X79465820Y-34138498D01*
X79355506Y-34197463D01*
X79258815Y-34276815D01*
X79179463Y-34373506D01*
X79120498Y-34483820D01*
X79084188Y-34603518D01*
X79071928Y-34728000D01*
X74598072Y-34728000D01*
X74585812Y-34603518D01*
X74549502Y-34483820D01*
X74490537Y-34373506D01*
X74411185Y-34276815D01*
X74314494Y-34197463D01*
X74204180Y-34138498D01*
X74084482Y-34102188D01*
X73960000Y-34089928D01*
X73360000Y-34089928D01*
X73235518Y-34102188D01*
X73115820Y-34138498D01*
X73025000Y-34187043D01*
X72934180Y-34138498D01*
X72814482Y-34102188D01*
X72690000Y-34089928D01*
X72090000Y-34089928D01*
X71965518Y-34102188D01*
X71845820Y-34138498D01*
X71755000Y-34187043D01*
X71664180Y-34138498D01*
X71544482Y-34102188D01*
X71420000Y-34089928D01*
X70820000Y-34089928D01*
X70695518Y-34102188D01*
X70575820Y-34138498D01*
X70485000Y-34187043D01*
X70394180Y-34138498D01*
X70274482Y-34102188D01*
X70150000Y-34089928D01*
X70135750Y-34093000D01*
X69977000Y-34251750D01*
X69977000Y-35866000D01*
X69997000Y-35866000D01*
X69997000Y-36120000D01*
X69977000Y-36120000D01*
X69977000Y-37734250D01*
X70135750Y-37893000D01*
X70150000Y-37896072D01*
X70274482Y-37883812D01*
X70394180Y-37847502D01*
X70485000Y-37798957D01*
X70575820Y-37847502D01*
X70695518Y-37883812D01*
X70820000Y-37896072D01*
X71420000Y-37896072D01*
X71544482Y-37883812D01*
X71664180Y-37847502D01*
X71755000Y-37798957D01*
X71845820Y-37847502D01*
X71965518Y-37883812D01*
X72090000Y-37896072D01*
X72690000Y-37896072D01*
X72814482Y-37883812D01*
X72934180Y-37847502D01*
X73025000Y-37798957D01*
X73115820Y-37847502D01*
X73235518Y-37883812D01*
X73360000Y-37896072D01*
X73960000Y-37896072D01*
X74084482Y-37883812D01*
X74204180Y-37847502D01*
X74314494Y-37788537D01*
X74350877Y-37758678D01*
X77997200Y-41405002D01*
X78020999Y-41434001D01*
X78136724Y-41528974D01*
X78268753Y-41599546D01*
X78412014Y-41643003D01*
X78523667Y-41654000D01*
X78523675Y-41654000D01*
X78561000Y-41657676D01*
X78598325Y-41654000D01*
X93919199Y-41654000D01*
X94023199Y-41758000D01*
X44952000Y-41758000D01*
X44952000Y-41439355D01*
X45122356Y-41269000D01*
X62688392Y-41269000D01*
X62738000Y-41273886D01*
X62935994Y-41254385D01*
X63059888Y-41216802D01*
X63126380Y-41196632D01*
X63301840Y-41102847D01*
X63455633Y-40976633D01*
X63487260Y-40938095D01*
X64179099Y-40246257D01*
X64217633Y-40214633D01*
X64343847Y-40060840D01*
X64437632Y-39885380D01*
X64465268Y-39794276D01*
X64495385Y-39694995D01*
X64514886Y-39497000D01*
X64510000Y-39447392D01*
X64510000Y-37896072D01*
X65070000Y-37896072D01*
X65194482Y-37883812D01*
X65314180Y-37847502D01*
X65405000Y-37798957D01*
X65495820Y-37847502D01*
X65615518Y-37883812D01*
X65740000Y-37896072D01*
X66340000Y-37896072D01*
X66464482Y-37883812D01*
X66584180Y-37847502D01*
X66675000Y-37798957D01*
X66765820Y-37847502D01*
X66885518Y-37883812D01*
X67010000Y-37896072D01*
X67024250Y-37893000D01*
X67183000Y-37734250D01*
X67183000Y-36120000D01*
X67437000Y-36120000D01*
X67437000Y-37734250D01*
X67595750Y-37893000D01*
X67610000Y-37896072D01*
X67734482Y-37883812D01*
X67854180Y-37847502D01*
X67945000Y-37798957D01*
X68035820Y-37847502D01*
X68155518Y-37883812D01*
X68280000Y-37896072D01*
X68294250Y-37893000D01*
X68453000Y-37734250D01*
X68453000Y-36120000D01*
X68707000Y-36120000D01*
X68707000Y-37734250D01*
X68865750Y-37893000D01*
X68880000Y-37896072D01*
X69004482Y-37883812D01*
X69124180Y-37847502D01*
X69215000Y-37798957D01*
X69305820Y-37847502D01*
X69425518Y-37883812D01*
X69550000Y-37896072D01*
X69564250Y-37893000D01*
X69723000Y-37734250D01*
X69723000Y-36120000D01*
X68707000Y-36120000D01*
X68453000Y-36120000D01*
X67437000Y-36120000D01*
X67183000Y-36120000D01*
X67163000Y-36120000D01*
X67163000Y-35866000D01*
X67183000Y-35866000D01*
X67183000Y-34251750D01*
X67437000Y-34251750D01*
X67437000Y-35866000D01*
X68453000Y-35866000D01*
X68453000Y-34251750D01*
X68707000Y-34251750D01*
X68707000Y-35866000D01*
X69723000Y-35866000D01*
X69723000Y-34251750D01*
X69564250Y-34093000D01*
X69550000Y-34089928D01*
X69425518Y-34102188D01*
X69305820Y-34138498D01*
X69215000Y-34187043D01*
X69124180Y-34138498D01*
X69004482Y-34102188D01*
X68880000Y-34089928D01*
X68865750Y-34093000D01*
X68707000Y-34251750D01*
X68453000Y-34251750D01*
X68294250Y-34093000D01*
X68280000Y-34089928D01*
X68155518Y-34102188D01*
X68035820Y-34138498D01*
X67945000Y-34187043D01*
X67854180Y-34138498D01*
X67734482Y-34102188D01*
X67610000Y-34089928D01*
X67595750Y-34093000D01*
X67437000Y-34251750D01*
X67183000Y-34251750D01*
X67024250Y-34093000D01*
X67010000Y-34089928D01*
X66885518Y-34102188D01*
X66765820Y-34138498D01*
X66675000Y-34187043D01*
X66584180Y-34138498D01*
X66464482Y-34102188D01*
X66340000Y-34089928D01*
X65740000Y-34089928D01*
X65615518Y-34102188D01*
X65495820Y-34138498D01*
X65405000Y-34187043D01*
X65314180Y-34138498D01*
X65194482Y-34102188D01*
X65070000Y-34089928D01*
X64470000Y-34089928D01*
X64345518Y-34102188D01*
X64225820Y-34138498D01*
X64135000Y-34187043D01*
X64044180Y-34138498D01*
X63924482Y-34102188D01*
X63800000Y-34089928D01*
X63200000Y-34089928D01*
X63075518Y-34102188D01*
X62955820Y-34138498D01*
X62865000Y-34187043D01*
X62774180Y-34138498D01*
X62654482Y-34102188D01*
X62530000Y-34089928D01*
X62515750Y-34093000D01*
X62357000Y-34251750D01*
X62357000Y-35866000D01*
X62377000Y-35866000D01*
X62377000Y-36120000D01*
X62357000Y-36120000D01*
X62357000Y-37734250D01*
X62490000Y-37867250D01*
X62490000Y-39078644D01*
X62319645Y-39249000D01*
X44753608Y-39249000D01*
X44704000Y-39244114D01*
X44506005Y-39263615D01*
X44315620Y-39321368D01*
X44140160Y-39415153D01*
X43986367Y-39541367D01*
X43954743Y-39579901D01*
X43428000Y-40106645D01*
X43428000Y-32422355D01*
X43979355Y-31871000D01*
X52344645Y-31871000D01*
X53412023Y-32938378D01*
X53269405Y-32879304D01*
X53011486Y-32828000D01*
X52748514Y-32828000D01*
X52490595Y-32879304D01*
X52247641Y-32979939D01*
X52028987Y-33126038D01*
X51843038Y-33311987D01*
X51818072Y-33349351D01*
X51818072Y-32863000D01*
X51805812Y-32738518D01*
X51769502Y-32618820D01*
X51710537Y-32508506D01*
X51631185Y-32411815D01*
X51534494Y-32332463D01*
X51424180Y-32273498D01*
X51304482Y-32237188D01*
X51180000Y-32224928D01*
X48580000Y-32224928D01*
X48455518Y-32237188D01*
X48335820Y-32273498D01*
X48225506Y-32332463D01*
X48128815Y-32411815D01*
X48049463Y-32508506D01*
X47990498Y-32618820D01*
X47954188Y-32738518D01*
X47941928Y-32863000D01*
X47941928Y-35463000D01*
X47954188Y-35587482D01*
X47990498Y-35707180D01*
X48049463Y-35817494D01*
X48128815Y-35914185D01*
X48225506Y-35993537D01*
X48335820Y-36052502D01*
X48455518Y-36088812D01*
X48580000Y-36101072D01*
X51180000Y-36101072D01*
X51304482Y-36088812D01*
X51424180Y-36052502D01*
X51534494Y-35993537D01*
X51631185Y-35914185D01*
X51710537Y-35817494D01*
X51769502Y-35707180D01*
X51805812Y-35587482D01*
X51818072Y-35463000D01*
X51818072Y-34976649D01*
X51843038Y-35014013D01*
X52028987Y-35199962D01*
X52247641Y-35346061D01*
X52490595Y-35446696D01*
X52748514Y-35498000D01*
X53011486Y-35498000D01*
X53269405Y-35446696D01*
X53512359Y-35346061D01*
X53731013Y-35199962D01*
X53916962Y-35014013D01*
X54063061Y-34795359D01*
X54163696Y-34552405D01*
X54215000Y-34294486D01*
X54215000Y-34031514D01*
X54163696Y-33773595D01*
X54104622Y-33630977D01*
X54870000Y-34396356D01*
X54870001Y-35943383D01*
X54865114Y-35993000D01*
X54884615Y-36190994D01*
X54941928Y-36379930D01*
X54941928Y-37258000D01*
X54954188Y-37382482D01*
X54990498Y-37502180D01*
X55049463Y-37612494D01*
X55128815Y-37709185D01*
X55225506Y-37788537D01*
X55335820Y-37847502D01*
X55455518Y-37883812D01*
X55580000Y-37896072D01*
X56180000Y-37896072D01*
X56304482Y-37883812D01*
X56424180Y-37847502D01*
X56515000Y-37798957D01*
X56605820Y-37847502D01*
X56725518Y-37883812D01*
X56850000Y-37896072D01*
X57450000Y-37896072D01*
X57574482Y-37883812D01*
X57694180Y-37847502D01*
X57785000Y-37798957D01*
X57875820Y-37847502D01*
X57995518Y-37883812D01*
X58120000Y-37896072D01*
X58720000Y-37896072D01*
X58844482Y-37883812D01*
X58964180Y-37847502D01*
X59055000Y-37798957D01*
X59145820Y-37847502D01*
X59265518Y-37883812D01*
X59390000Y-37896072D01*
X59404250Y-37893000D01*
X59563000Y-37734250D01*
X59563000Y-36120000D01*
X59817000Y-36120000D01*
X59817000Y-37734250D01*
X59975750Y-37893000D01*
X59990000Y-37896072D01*
X60114482Y-37883812D01*
X60234180Y-37847502D01*
X60325000Y-37798957D01*
X60415820Y-37847502D01*
X60535518Y-37883812D01*
X60660000Y-37896072D01*
X60674250Y-37893000D01*
X60833000Y-37734250D01*
X60833000Y-36120000D01*
X61087000Y-36120000D01*
X61087000Y-37734250D01*
X61245750Y-37893000D01*
X61260000Y-37896072D01*
X61384482Y-37883812D01*
X61504180Y-37847502D01*
X61595000Y-37798957D01*
X61685820Y-37847502D01*
X61805518Y-37883812D01*
X61930000Y-37896072D01*
X61944250Y-37893000D01*
X62103000Y-37734250D01*
X62103000Y-36120000D01*
X61087000Y-36120000D01*
X60833000Y-36120000D01*
X59817000Y-36120000D01*
X59563000Y-36120000D01*
X59543000Y-36120000D01*
X59543000Y-35866000D01*
X59563000Y-35866000D01*
X59563000Y-34251750D01*
X59817000Y-34251750D01*
X59817000Y-35866000D01*
X60833000Y-35866000D01*
X60833000Y-34251750D01*
X61087000Y-34251750D01*
X61087000Y-35866000D01*
X62103000Y-35866000D01*
X62103000Y-34251750D01*
X61944250Y-34093000D01*
X61930000Y-34089928D01*
X61805518Y-34102188D01*
X61685820Y-34138498D01*
X61595000Y-34187043D01*
X61504180Y-34138498D01*
X61384482Y-34102188D01*
X61260000Y-34089928D01*
X61245750Y-34093000D01*
X61087000Y-34251750D01*
X60833000Y-34251750D01*
X60674250Y-34093000D01*
X60660000Y-34089928D01*
X60535518Y-34102188D01*
X60415820Y-34138498D01*
X60325000Y-34187043D01*
X60234180Y-34138498D01*
X60114482Y-34102188D01*
X59990000Y-34089928D01*
X59975750Y-34093000D01*
X59817000Y-34251750D01*
X59563000Y-34251750D01*
X59404250Y-34093000D01*
X59390000Y-34089928D01*
X59265518Y-34102188D01*
X59145820Y-34138498D01*
X59055000Y-34187043D01*
X58964180Y-34138498D01*
X58844482Y-34102188D01*
X58720000Y-34089928D01*
X58120000Y-34089928D01*
X57995518Y-34102188D01*
X57875820Y-34138498D01*
X57785000Y-34187043D01*
X57694180Y-34138498D01*
X57574482Y-34102188D01*
X57450000Y-34089928D01*
X56890000Y-34089928D01*
X56890000Y-34051212D01*
X89495000Y-34051212D01*
X89495000Y-34274788D01*
X89538617Y-34494067D01*
X89624176Y-34700624D01*
X89748388Y-34886520D01*
X89906480Y-35044612D01*
X90092376Y-35168824D01*
X90298933Y-35254383D01*
X90518212Y-35298000D01*
X90741788Y-35298000D01*
X90961067Y-35254383D01*
X91167624Y-35168824D01*
X91353520Y-35044612D01*
X91511612Y-34886520D01*
X91635824Y-34700624D01*
X91691928Y-34565177D01*
X91691928Y-35463000D01*
X91704188Y-35587482D01*
X91740498Y-35707180D01*
X91799463Y-35817494D01*
X91878815Y-35914185D01*
X91975506Y-35993537D01*
X92085820Y-36052502D01*
X92205518Y-36088812D01*
X92330000Y-36101072D01*
X94930000Y-36101072D01*
X95054482Y-36088812D01*
X95174180Y-36052502D01*
X95284494Y-35993537D01*
X95381185Y-35914185D01*
X95460537Y-35817494D01*
X95519502Y-35707180D01*
X95555812Y-35587482D01*
X95568072Y-35463000D01*
X95568072Y-34695000D01*
X96644928Y-34695000D01*
X96648000Y-35274250D01*
X96806750Y-35433000D01*
X98171000Y-35433000D01*
X98171000Y-34218750D01*
X98425000Y-34218750D01*
X98425000Y-35433000D01*
X99789250Y-35433000D01*
X99948000Y-35274250D01*
X99951072Y-34695000D01*
X99938812Y-34570518D01*
X99902502Y-34450820D01*
X99843537Y-34340506D01*
X99764185Y-34243815D01*
X99667494Y-34164463D01*
X99557180Y-34105498D01*
X99437482Y-34069188D01*
X99313000Y-34056928D01*
X98583750Y-34060000D01*
X98425000Y-34218750D01*
X98171000Y-34218750D01*
X98012250Y-34060000D01*
X97283000Y-34056928D01*
X97158518Y-34069188D01*
X97038820Y-34105498D01*
X96928506Y-34164463D01*
X96831815Y-34243815D01*
X96752463Y-34340506D01*
X96693498Y-34450820D01*
X96657188Y-34570518D01*
X96644928Y-34695000D01*
X95568072Y-34695000D01*
X95568072Y-32863000D01*
X95555812Y-32738518D01*
X95519502Y-32618820D01*
X95460537Y-32508506D01*
X95381185Y-32411815D01*
X95284494Y-32332463D01*
X95174180Y-32273498D01*
X95054482Y-32237188D01*
X94930000Y-32224928D01*
X92330000Y-32224928D01*
X92205518Y-32237188D01*
X92085820Y-32273498D01*
X91975506Y-32332463D01*
X91878815Y-32411815D01*
X91799463Y-32508506D01*
X91740498Y-32618820D01*
X91704188Y-32738518D01*
X91691928Y-32863000D01*
X91691928Y-33760823D01*
X91635824Y-33625376D01*
X91511612Y-33439480D01*
X91353520Y-33281388D01*
X91167624Y-33157176D01*
X90961067Y-33071617D01*
X90741788Y-33028000D01*
X90518212Y-33028000D01*
X90298933Y-33071617D01*
X90092376Y-33157176D01*
X89906480Y-33281388D01*
X89748388Y-33439480D01*
X89624176Y-33625376D01*
X89538617Y-33831933D01*
X89495000Y-34051212D01*
X56890000Y-34051212D01*
X56890000Y-34027608D01*
X56894886Y-33978000D01*
X56875385Y-33780005D01*
X56817632Y-33589620D01*
X56786107Y-33530641D01*
X56723847Y-33414160D01*
X56597633Y-33260367D01*
X56559100Y-33228744D01*
X53937355Y-30607000D01*
X73546928Y-30607000D01*
X73546928Y-32588000D01*
%TA.AperFunction,Conductor*%
D27*
G36*
X73546928Y-32588000D02*
G01*
X73559188Y-32712482D01*
X73595498Y-32832180D01*
X73654463Y-32942494D01*
X73733815Y-33039185D01*
X73830506Y-33118537D01*
X73940820Y-33177502D01*
X74060518Y-33213812D01*
X74185000Y-33226072D01*
X74685000Y-33226072D01*
X74809482Y-33213812D01*
X74835000Y-33206071D01*
X74860518Y-33213812D01*
X74985000Y-33226072D01*
X75485000Y-33226072D01*
X75609482Y-33213812D01*
X75635000Y-33206071D01*
X75660518Y-33213812D01*
X75785000Y-33226072D01*
X76285000Y-33226072D01*
X76409482Y-33213812D01*
X76435000Y-33206071D01*
X76460518Y-33213812D01*
X76585000Y-33226072D01*
X77085000Y-33226072D01*
X77209482Y-33213812D01*
X77235000Y-33206071D01*
X77260518Y-33213812D01*
X77385000Y-33226072D01*
X77885000Y-33226072D01*
X78009482Y-33213812D01*
X78035000Y-33206071D01*
X78060518Y-33213812D01*
X78185000Y-33226072D01*
X78685000Y-33226072D01*
X78809482Y-33213812D01*
X78835000Y-33206071D01*
X78860518Y-33213812D01*
X78985000Y-33226072D01*
X79485000Y-33226072D01*
X79609482Y-33213812D01*
X79729180Y-33177502D01*
X79839494Y-33118537D01*
X79936185Y-33039185D01*
X80015537Y-32942494D01*
X80074502Y-32832180D01*
X80110812Y-32712482D01*
X80123072Y-32588000D01*
X80123072Y-30607000D01*
X100203000Y-30607000D01*
X100203000Y-44323000D01*
X99419713Y-44323000D01*
X99513792Y-44245792D01*
X99701238Y-44017387D01*
X99840524Y-43756802D01*
X99926295Y-43474051D01*
X99955257Y-43180000D01*
X99926295Y-42885949D01*
X99840524Y-42603198D01*
X99701238Y-42342613D01*
X99513792Y-42114208D01*
X99285387Y-41926762D01*
X99254028Y-41910000D01*
X99285387Y-41893238D01*
X99513792Y-41705792D01*
X99701238Y-41477387D01*
X99840524Y-41216802D01*
X99926295Y-40934051D01*
X99955257Y-40640000D01*
X99926295Y-40345949D01*
X99840524Y-40063198D01*
X99701238Y-39802613D01*
X99513792Y-39574208D01*
X99285387Y-39386762D01*
X99254028Y-39370000D01*
X99285387Y-39353238D01*
X99513792Y-39165792D01*
X99701238Y-38937387D01*
X99840524Y-38676802D01*
X99926295Y-38394051D01*
X99955257Y-38100000D01*
X99926295Y-37805949D01*
X99840524Y-37523198D01*
X99701238Y-37262613D01*
X99513792Y-37034208D01*
X99507970Y-37029430D01*
X99557180Y-37014502D01*
X99667494Y-36955537D01*
X99764185Y-36876185D01*
X99843537Y-36779494D01*
X99902502Y-36669180D01*
X99938812Y-36549482D01*
X99951072Y-36425000D01*
X99948000Y-35845750D01*
X99789250Y-35687000D01*
X98425000Y-35687000D01*
X98425000Y-35707000D01*
X98171000Y-35707000D01*
X98171000Y-35687000D01*
X96806750Y-35687000D01*
X96648000Y-35845750D01*
X96644928Y-36425000D01*
X96657188Y-36549482D01*
X96693498Y-36669180D01*
X96752463Y-36779494D01*
X96831815Y-36876185D01*
X96928506Y-36955537D01*
X97038820Y-37014502D01*
X97088030Y-37029430D01*
X97082208Y-37034208D01*
X96894762Y-37262613D01*
X96755476Y-37523198D01*
X96669705Y-37805949D01*
X96640743Y-38100000D01*
X96647419Y-38167780D01*
X96009003Y-38806196D01*
X95979999Y-38829999D01*
X95925389Y-38896542D01*
X95885026Y-38945724D01*
X95847817Y-39015337D01*
X95814454Y-39077754D01*
X95770997Y-39221015D01*
X95760000Y-39332668D01*
X95760000Y-39332678D01*
X95756324Y-39370000D01*
X95760000Y-39407322D01*
X95760000Y-41345199D01*
X94797804Y-40383003D01*
X94774001Y-40353999D01*
X94658276Y-40259026D01*
X94526247Y-40188454D01*
X94382986Y-40144997D01*
X94271333Y-40134000D01*
X94271322Y-40134000D01*
X94234000Y-40130324D01*
X94196678Y-40134000D01*
X78875802Y-40134000D01*
X75999802Y-37258000D01*
X79071928Y-37258000D01*
X79084188Y-37382482D01*
X79120498Y-37502180D01*
X79179463Y-37612494D01*
X79258815Y-37709185D01*
X79355506Y-37788537D01*
X79465820Y-37847502D01*
X79585518Y-37883812D01*
X79710000Y-37896072D01*
X79724250Y-37893000D01*
X79882998Y-37734252D01*
X79882998Y-37893000D01*
X79930885Y-37893000D01*
X79913542Y-37934870D01*
X79873768Y-38134829D01*
X79873768Y-38338707D01*
X79913542Y-38538666D01*
X79991563Y-38727024D01*
X80104831Y-38896542D01*
X80248994Y-39040705D01*
X80418512Y-39153973D01*
X80606870Y-39231994D01*
X80647854Y-39240146D01*
X80656006Y-39281130D01*
X80734027Y-39469488D01*
X80847295Y-39639006D01*
X80991458Y-39783169D01*
X81160976Y-39896437D01*
X81349334Y-39974458D01*
X81549293Y-40014232D01*
X81753171Y-40014232D01*
X81953130Y-39974458D01*
X82141488Y-39896437D01*
X82311006Y-39783169D01*
X82455169Y-39639006D01*
X82568437Y-39469488D01*
X82646458Y-39281130D01*
X82686232Y-39081171D01*
X82686232Y-38877293D01*
X82646458Y-38677334D01*
X82623569Y-38622076D01*
X82634187Y-38611458D01*
X82662238Y-38588437D01*
X82754087Y-38476519D01*
X82822337Y-38348832D01*
X82864365Y-38210284D01*
X82875000Y-38102304D01*
X82875000Y-38102295D01*
X82878555Y-38066200D01*
X82875000Y-38030105D01*
X82875000Y-37893610D01*
X82974482Y-37883812D01*
X83094180Y-37847502D01*
X83185000Y-37798957D01*
X83275820Y-37847502D01*
X83395518Y-37883812D01*
X83520000Y-37896072D01*
X83534250Y-37893000D01*
X83692998Y-37734252D01*
X83692998Y-37893000D01*
X83740885Y-37893000D01*
X83723542Y-37934870D01*
X83683768Y-38134829D01*
X83683768Y-38338707D01*
X83723542Y-38538666D01*
X83801563Y-38727024D01*
X83914831Y-38896542D01*
X84058994Y-39040705D01*
X84228512Y-39153973D01*
X84416870Y-39231994D01*
X84457854Y-39240146D01*
X84466006Y-39281130D01*
X84544027Y-39469488D01*
X84657295Y-39639006D01*
X84801458Y-39783169D01*
X84970976Y-39896437D01*
X85159334Y-39974458D01*
X85359293Y-40014232D01*
X85563171Y-40014232D01*
X85763130Y-39974458D01*
X85951488Y-39896437D01*
X86121006Y-39783169D01*
X86265169Y-39639006D01*
X86378437Y-39469488D01*
X86456458Y-39281130D01*
X86496232Y-39081171D01*
X86496232Y-38877293D01*
X86456458Y-38677334D01*
X86433569Y-38622076D01*
X86444187Y-38611458D01*
X86472238Y-38588437D01*
X86564087Y-38476519D01*
X86632337Y-38348832D01*
X86674365Y-38210284D01*
X86685000Y-38102304D01*
X86685000Y-38102295D01*
X86688555Y-38066200D01*
X86685000Y-38030105D01*
X86685000Y-37893610D01*
X86784482Y-37883812D01*
X86904180Y-37847502D01*
X86995000Y-37798957D01*
X87085820Y-37847502D01*
X87205518Y-37883812D01*
X87330000Y-37896072D01*
X87344250Y-37893000D01*
X87503000Y-37734250D01*
X87503000Y-36120000D01*
X87757000Y-36120000D01*
X87757000Y-37734250D01*
X87915750Y-37893000D01*
X87930000Y-37896072D01*
X88054482Y-37883812D01*
X88174180Y-37847502D01*
X88284494Y-37788537D01*
X88381185Y-37709185D01*
X88460537Y-37612494D01*
X88519502Y-37502180D01*
X88555812Y-37382482D01*
X88568072Y-37258000D01*
X88565000Y-36278750D01*
X88406250Y-36120000D01*
X87757000Y-36120000D01*
X87503000Y-36120000D01*
X87483000Y-36120000D01*
X87483000Y-35866000D01*
X87503000Y-35866000D01*
X87503000Y-34251750D01*
X87757000Y-34251750D01*
X87757000Y-35866000D01*
X88406250Y-35866000D01*
X88565000Y-35707250D01*
X88568072Y-34728000D01*
X88555812Y-34603518D01*
X88519502Y-34483820D01*
X88460537Y-34373506D01*
X88381185Y-34276815D01*
X88284494Y-34197463D01*
X88174180Y-34138498D01*
X88054482Y-34102188D01*
X87930000Y-34089928D01*
X87915750Y-34093000D01*
X87757000Y-34251750D01*
X87503000Y-34251750D01*
X87344250Y-34093000D01*
X87330000Y-34089928D01*
X87205518Y-34102188D01*
X87085820Y-34138498D01*
X86995000Y-34187043D01*
X86904180Y-34138498D01*
X86784482Y-34102188D01*
X86660000Y-34089928D01*
X86060000Y-34089928D01*
X85935518Y-34102188D01*
X85815820Y-34138498D01*
X85725000Y-34187043D01*
X85634180Y-34138498D01*
X85514482Y-34102188D01*
X85390000Y-34089928D01*
X84790000Y-34089928D01*
X84665518Y-34102188D01*
X84545820Y-34138498D01*
X84455000Y-34187043D01*
X84364180Y-34138498D01*
X84244482Y-34102188D01*
X84120000Y-34089928D01*
X84105750Y-34093000D01*
X83947000Y-34251750D01*
X83947000Y-35866000D01*
X83967000Y-35866000D01*
X83967000Y-36120000D01*
X83947000Y-36120000D01*
X83947000Y-36140000D01*
X83693000Y-36140000D01*
X83693000Y-36120000D01*
X83673000Y-36120000D01*
X83673000Y-35866000D01*
X83693000Y-35866000D01*
X83693000Y-34251750D01*
X83534250Y-34093000D01*
X83520000Y-34089928D01*
X83395518Y-34102188D01*
X83275820Y-34138498D01*
X83185000Y-34187043D01*
X83094180Y-34138498D01*
X82974482Y-34102188D01*
X82850000Y-34089928D01*
X82250000Y-34089928D01*
X82125518Y-34102188D01*
X82005820Y-34138498D01*
X81915000Y-34187043D01*
X81824180Y-34138498D01*
X81704482Y-34102188D01*
X81580000Y-34089928D01*
X80980000Y-34089928D01*
X80855518Y-34102188D01*
X80735820Y-34138498D01*
X80645000Y-34187043D01*
X80554180Y-34138498D01*
X80434482Y-34102188D01*
X80310000Y-34089928D01*
X80295750Y-34093000D01*
X80137000Y-34251750D01*
X80137000Y-35866000D01*
X80157000Y-35866000D01*
X80157000Y-36120000D01*
X80137000Y-36120000D01*
X80137000Y-36140000D01*
X79883000Y-36140000D01*
X79883000Y-36120000D01*
X79233750Y-36120000D01*
X79075000Y-36278750D01*
X79071928Y-37258000D01*
X75999802Y-37258000D01*
X74668340Y-35926539D01*
X74655385Y-35795006D01*
X74598072Y-35606070D01*
X74598072Y-34728000D01*
X79071928Y-34728000D01*
X79075000Y-35707250D01*
X79233750Y-35866000D01*
X79883000Y-35866000D01*
X79883000Y-34251750D01*
X79724250Y-34093000D01*
X79710000Y-34089928D01*
X79585518Y-34102188D01*
X79465820Y-34138498D01*
X79355506Y-34197463D01*
X79258815Y-34276815D01*
X79179463Y-34373506D01*
X79120498Y-34483820D01*
X79084188Y-34603518D01*
X79071928Y-34728000D01*
X74598072Y-34728000D01*
X74585812Y-34603518D01*
X74549502Y-34483820D01*
X74490537Y-34373506D01*
X74411185Y-34276815D01*
X74314494Y-34197463D01*
X74204180Y-34138498D01*
X74084482Y-34102188D01*
X73960000Y-34089928D01*
X73360000Y-34089928D01*
X73235518Y-34102188D01*
X73115820Y-34138498D01*
X73025000Y-34187043D01*
X72934180Y-34138498D01*
X72814482Y-34102188D01*
X72690000Y-34089928D01*
X72090000Y-34089928D01*
X71965518Y-34102188D01*
X71845820Y-34138498D01*
X71755000Y-34187043D01*
X71664180Y-34138498D01*
X71544482Y-34102188D01*
X71420000Y-34089928D01*
X70820000Y-34089928D01*
X70695518Y-34102188D01*
X70575820Y-34138498D01*
X70485000Y-34187043D01*
X70394180Y-34138498D01*
X70274482Y-34102188D01*
X70150000Y-34089928D01*
X70135750Y-34093000D01*
X69977000Y-34251750D01*
X69977000Y-35866000D01*
X69997000Y-35866000D01*
X69997000Y-36120000D01*
X69977000Y-36120000D01*
X69977000Y-37734250D01*
X70135750Y-37893000D01*
X70150000Y-37896072D01*
X70274482Y-37883812D01*
X70394180Y-37847502D01*
X70485000Y-37798957D01*
X70575820Y-37847502D01*
X70695518Y-37883812D01*
X70820000Y-37896072D01*
X71420000Y-37896072D01*
X71544482Y-37883812D01*
X71664180Y-37847502D01*
X71755000Y-37798957D01*
X71845820Y-37847502D01*
X71965518Y-37883812D01*
X72090000Y-37896072D01*
X72690000Y-37896072D01*
X72814482Y-37883812D01*
X72934180Y-37847502D01*
X73025000Y-37798957D01*
X73115820Y-37847502D01*
X73235518Y-37883812D01*
X73360000Y-37896072D01*
X73960000Y-37896072D01*
X74084482Y-37883812D01*
X74204180Y-37847502D01*
X74314494Y-37788537D01*
X74350877Y-37758678D01*
X77997200Y-41405002D01*
X78020999Y-41434001D01*
X78136724Y-41528974D01*
X78268753Y-41599546D01*
X78412014Y-41643003D01*
X78523667Y-41654000D01*
X78523675Y-41654000D01*
X78561000Y-41657676D01*
X78598325Y-41654000D01*
X93919199Y-41654000D01*
X94023199Y-41758000D01*
X44952000Y-41758000D01*
X44952000Y-41439355D01*
X45122356Y-41269000D01*
X62688392Y-41269000D01*
X62738000Y-41273886D01*
X62935994Y-41254385D01*
X63059888Y-41216802D01*
X63126380Y-41196632D01*
X63301840Y-41102847D01*
X63455633Y-40976633D01*
X63487260Y-40938095D01*
X64179099Y-40246257D01*
X64217633Y-40214633D01*
X64343847Y-40060840D01*
X64437632Y-39885380D01*
X64465268Y-39794276D01*
X64495385Y-39694995D01*
X64514886Y-39497000D01*
X64510000Y-39447392D01*
X64510000Y-37896072D01*
X65070000Y-37896072D01*
X65194482Y-37883812D01*
X65314180Y-37847502D01*
X65405000Y-37798957D01*
X65495820Y-37847502D01*
X65615518Y-37883812D01*
X65740000Y-37896072D01*
X66340000Y-37896072D01*
X66464482Y-37883812D01*
X66584180Y-37847502D01*
X66675000Y-37798957D01*
X66765820Y-37847502D01*
X66885518Y-37883812D01*
X67010000Y-37896072D01*
X67024250Y-37893000D01*
X67183000Y-37734250D01*
X67183000Y-36120000D01*
X67437000Y-36120000D01*
X67437000Y-37734250D01*
X67595750Y-37893000D01*
X67610000Y-37896072D01*
X67734482Y-37883812D01*
X67854180Y-37847502D01*
X67945000Y-37798957D01*
X68035820Y-37847502D01*
X68155518Y-37883812D01*
X68280000Y-37896072D01*
X68294250Y-37893000D01*
X68453000Y-37734250D01*
X68453000Y-36120000D01*
X68707000Y-36120000D01*
X68707000Y-37734250D01*
X68865750Y-37893000D01*
X68880000Y-37896072D01*
X69004482Y-37883812D01*
X69124180Y-37847502D01*
X69215000Y-37798957D01*
X69305820Y-37847502D01*
X69425518Y-37883812D01*
X69550000Y-37896072D01*
X69564250Y-37893000D01*
X69723000Y-37734250D01*
X69723000Y-36120000D01*
X68707000Y-36120000D01*
X68453000Y-36120000D01*
X67437000Y-36120000D01*
X67183000Y-36120000D01*
X67163000Y-36120000D01*
X67163000Y-35866000D01*
X67183000Y-35866000D01*
X67183000Y-34251750D01*
X67437000Y-34251750D01*
X67437000Y-35866000D01*
X68453000Y-35866000D01*
X68453000Y-34251750D01*
X68707000Y-34251750D01*
X68707000Y-35866000D01*
X69723000Y-35866000D01*
X69723000Y-34251750D01*
X69564250Y-34093000D01*
X69550000Y-34089928D01*
X69425518Y-34102188D01*
X69305820Y-34138498D01*
X69215000Y-34187043D01*
X69124180Y-34138498D01*
X69004482Y-34102188D01*
X68880000Y-34089928D01*
X68865750Y-34093000D01*
X68707000Y-34251750D01*
X68453000Y-34251750D01*
X68294250Y-34093000D01*
X68280000Y-34089928D01*
X68155518Y-34102188D01*
X68035820Y-34138498D01*
X67945000Y-34187043D01*
X67854180Y-34138498D01*
X67734482Y-34102188D01*
X67610000Y-34089928D01*
X67595750Y-34093000D01*
X67437000Y-34251750D01*
X67183000Y-34251750D01*
X67024250Y-34093000D01*
X67010000Y-34089928D01*
X66885518Y-34102188D01*
X66765820Y-34138498D01*
X66675000Y-34187043D01*
X66584180Y-34138498D01*
X66464482Y-34102188D01*
X66340000Y-34089928D01*
X65740000Y-34089928D01*
X65615518Y-34102188D01*
X65495820Y-34138498D01*
X65405000Y-34187043D01*
X65314180Y-34138498D01*
X65194482Y-34102188D01*
X65070000Y-34089928D01*
X64470000Y-34089928D01*
X64345518Y-34102188D01*
X64225820Y-34138498D01*
X64135000Y-34187043D01*
X64044180Y-34138498D01*
X63924482Y-34102188D01*
X63800000Y-34089928D01*
X63200000Y-34089928D01*
X63075518Y-34102188D01*
X62955820Y-34138498D01*
X62865000Y-34187043D01*
X62774180Y-34138498D01*
X62654482Y-34102188D01*
X62530000Y-34089928D01*
X62515750Y-34093000D01*
X62357000Y-34251750D01*
X62357000Y-35866000D01*
X62377000Y-35866000D01*
X62377000Y-36120000D01*
X62357000Y-36120000D01*
X62357000Y-37734250D01*
X62490000Y-37867250D01*
X62490000Y-39078644D01*
X62319645Y-39249000D01*
X44753608Y-39249000D01*
X44704000Y-39244114D01*
X44506005Y-39263615D01*
X44315620Y-39321368D01*
X44140160Y-39415153D01*
X43986367Y-39541367D01*
X43954743Y-39579901D01*
X43428000Y-40106645D01*
X43428000Y-32422355D01*
X43979355Y-31871000D01*
X52344645Y-31871000D01*
X53412023Y-32938378D01*
X53269405Y-32879304D01*
X53011486Y-32828000D01*
X52748514Y-32828000D01*
X52490595Y-32879304D01*
X52247641Y-32979939D01*
X52028987Y-33126038D01*
X51843038Y-33311987D01*
X51818072Y-33349351D01*
X51818072Y-32863000D01*
X51805812Y-32738518D01*
X51769502Y-32618820D01*
X51710537Y-32508506D01*
X51631185Y-32411815D01*
X51534494Y-32332463D01*
X51424180Y-32273498D01*
X51304482Y-32237188D01*
X51180000Y-32224928D01*
X48580000Y-32224928D01*
X48455518Y-32237188D01*
X48335820Y-32273498D01*
X48225506Y-32332463D01*
X48128815Y-32411815D01*
X48049463Y-32508506D01*
X47990498Y-32618820D01*
X47954188Y-32738518D01*
X47941928Y-32863000D01*
X47941928Y-35463000D01*
X47954188Y-35587482D01*
X47990498Y-35707180D01*
X48049463Y-35817494D01*
X48128815Y-35914185D01*
X48225506Y-35993537D01*
X48335820Y-36052502D01*
X48455518Y-36088812D01*
X48580000Y-36101072D01*
X51180000Y-36101072D01*
X51304482Y-36088812D01*
X51424180Y-36052502D01*
X51534494Y-35993537D01*
X51631185Y-35914185D01*
X51710537Y-35817494D01*
X51769502Y-35707180D01*
X51805812Y-35587482D01*
X51818072Y-35463000D01*
X51818072Y-34976649D01*
X51843038Y-35014013D01*
X52028987Y-35199962D01*
X52247641Y-35346061D01*
X52490595Y-35446696D01*
X52748514Y-35498000D01*
X53011486Y-35498000D01*
X53269405Y-35446696D01*
X53512359Y-35346061D01*
X53731013Y-35199962D01*
X53916962Y-35014013D01*
X54063061Y-34795359D01*
X54163696Y-34552405D01*
X54215000Y-34294486D01*
X54215000Y-34031514D01*
X54163696Y-33773595D01*
X54104622Y-33630977D01*
X54870000Y-34396356D01*
X54870001Y-35943383D01*
X54865114Y-35993000D01*
X54884615Y-36190994D01*
X54941928Y-36379930D01*
X54941928Y-37258000D01*
X54954188Y-37382482D01*
X54990498Y-37502180D01*
X55049463Y-37612494D01*
X55128815Y-37709185D01*
X55225506Y-37788537D01*
X55335820Y-37847502D01*
X55455518Y-37883812D01*
X55580000Y-37896072D01*
X56180000Y-37896072D01*
X56304482Y-37883812D01*
X56424180Y-37847502D01*
X56515000Y-37798957D01*
X56605820Y-37847502D01*
X56725518Y-37883812D01*
X56850000Y-37896072D01*
X57450000Y-37896072D01*
X57574482Y-37883812D01*
X57694180Y-37847502D01*
X57785000Y-37798957D01*
X57875820Y-37847502D01*
X57995518Y-37883812D01*
X58120000Y-37896072D01*
X58720000Y-37896072D01*
X58844482Y-37883812D01*
X58964180Y-37847502D01*
X59055000Y-37798957D01*
X59145820Y-37847502D01*
X59265518Y-37883812D01*
X59390000Y-37896072D01*
X59404250Y-37893000D01*
X59563000Y-37734250D01*
X59563000Y-36120000D01*
X59817000Y-36120000D01*
X59817000Y-37734250D01*
X59975750Y-37893000D01*
X59990000Y-37896072D01*
X60114482Y-37883812D01*
X60234180Y-37847502D01*
X60325000Y-37798957D01*
X60415820Y-37847502D01*
X60535518Y-37883812D01*
X60660000Y-37896072D01*
X60674250Y-37893000D01*
X60833000Y-37734250D01*
X60833000Y-36120000D01*
X61087000Y-36120000D01*
X61087000Y-37734250D01*
X61245750Y-37893000D01*
X61260000Y-37896072D01*
X61384482Y-37883812D01*
X61504180Y-37847502D01*
X61595000Y-37798957D01*
X61685820Y-37847502D01*
X61805518Y-37883812D01*
X61930000Y-37896072D01*
X61944250Y-37893000D01*
X62103000Y-37734250D01*
X62103000Y-36120000D01*
X61087000Y-36120000D01*
X60833000Y-36120000D01*
X59817000Y-36120000D01*
X59563000Y-36120000D01*
X59543000Y-36120000D01*
X59543000Y-35866000D01*
X59563000Y-35866000D01*
X59563000Y-34251750D01*
X59817000Y-34251750D01*
X59817000Y-35866000D01*
X60833000Y-35866000D01*
X60833000Y-34251750D01*
X61087000Y-34251750D01*
X61087000Y-35866000D01*
X62103000Y-35866000D01*
X62103000Y-34251750D01*
X61944250Y-34093000D01*
X61930000Y-34089928D01*
X61805518Y-34102188D01*
X61685820Y-34138498D01*
X61595000Y-34187043D01*
X61504180Y-34138498D01*
X61384482Y-34102188D01*
X61260000Y-34089928D01*
X61245750Y-34093000D01*
X61087000Y-34251750D01*
X60833000Y-34251750D01*
X60674250Y-34093000D01*
X60660000Y-34089928D01*
X60535518Y-34102188D01*
X60415820Y-34138498D01*
X60325000Y-34187043D01*
X60234180Y-34138498D01*
X60114482Y-34102188D01*
X59990000Y-34089928D01*
X59975750Y-34093000D01*
X59817000Y-34251750D01*
X59563000Y-34251750D01*
X59404250Y-34093000D01*
X59390000Y-34089928D01*
X59265518Y-34102188D01*
X59145820Y-34138498D01*
X59055000Y-34187043D01*
X58964180Y-34138498D01*
X58844482Y-34102188D01*
X58720000Y-34089928D01*
X58120000Y-34089928D01*
X57995518Y-34102188D01*
X57875820Y-34138498D01*
X57785000Y-34187043D01*
X57694180Y-34138498D01*
X57574482Y-34102188D01*
X57450000Y-34089928D01*
X56890000Y-34089928D01*
X56890000Y-34051212D01*
X89495000Y-34051212D01*
X89495000Y-34274788D01*
X89538617Y-34494067D01*
X89624176Y-34700624D01*
X89748388Y-34886520D01*
X89906480Y-35044612D01*
X90092376Y-35168824D01*
X90298933Y-35254383D01*
X90518212Y-35298000D01*
X90741788Y-35298000D01*
X90961067Y-35254383D01*
X91167624Y-35168824D01*
X91353520Y-35044612D01*
X91511612Y-34886520D01*
X91635824Y-34700624D01*
X91691928Y-34565177D01*
X91691928Y-35463000D01*
X91704188Y-35587482D01*
X91740498Y-35707180D01*
X91799463Y-35817494D01*
X91878815Y-35914185D01*
X91975506Y-35993537D01*
X92085820Y-36052502D01*
X92205518Y-36088812D01*
X92330000Y-36101072D01*
X94930000Y-36101072D01*
X95054482Y-36088812D01*
X95174180Y-36052502D01*
X95284494Y-35993537D01*
X95381185Y-35914185D01*
X95460537Y-35817494D01*
X95519502Y-35707180D01*
X95555812Y-35587482D01*
X95568072Y-35463000D01*
X95568072Y-34695000D01*
X96644928Y-34695000D01*
X96648000Y-35274250D01*
X96806750Y-35433000D01*
X98171000Y-35433000D01*
X98171000Y-34218750D01*
X98425000Y-34218750D01*
X98425000Y-35433000D01*
X99789250Y-35433000D01*
X99948000Y-35274250D01*
X99951072Y-34695000D01*
X99938812Y-34570518D01*
X99902502Y-34450820D01*
X99843537Y-34340506D01*
X99764185Y-34243815D01*
X99667494Y-34164463D01*
X99557180Y-34105498D01*
X99437482Y-34069188D01*
X99313000Y-34056928D01*
X98583750Y-34060000D01*
X98425000Y-34218750D01*
X98171000Y-34218750D01*
X98012250Y-34060000D01*
X97283000Y-34056928D01*
X97158518Y-34069188D01*
X97038820Y-34105498D01*
X96928506Y-34164463D01*
X96831815Y-34243815D01*
X96752463Y-34340506D01*
X96693498Y-34450820D01*
X96657188Y-34570518D01*
X96644928Y-34695000D01*
X95568072Y-34695000D01*
X95568072Y-32863000D01*
X95555812Y-32738518D01*
X95519502Y-32618820D01*
X95460537Y-32508506D01*
X95381185Y-32411815D01*
X95284494Y-32332463D01*
X95174180Y-32273498D01*
X95054482Y-32237188D01*
X94930000Y-32224928D01*
X92330000Y-32224928D01*
X92205518Y-32237188D01*
X92085820Y-32273498D01*
X91975506Y-32332463D01*
X91878815Y-32411815D01*
X91799463Y-32508506D01*
X91740498Y-32618820D01*
X91704188Y-32738518D01*
X91691928Y-32863000D01*
X91691928Y-33760823D01*
X91635824Y-33625376D01*
X91511612Y-33439480D01*
X91353520Y-33281388D01*
X91167624Y-33157176D01*
X90961067Y-33071617D01*
X90741788Y-33028000D01*
X90518212Y-33028000D01*
X90298933Y-33071617D01*
X90092376Y-33157176D01*
X89906480Y-33281388D01*
X89748388Y-33439480D01*
X89624176Y-33625376D01*
X89538617Y-33831933D01*
X89495000Y-34051212D01*
X56890000Y-34051212D01*
X56890000Y-34027608D01*
X56894886Y-33978000D01*
X56875385Y-33780005D01*
X56817632Y-33589620D01*
X56786107Y-33530641D01*
X56723847Y-33414160D01*
X56597633Y-33260367D01*
X56559100Y-33228744D01*
X53937355Y-30607000D01*
X73546928Y-30607000D01*
X73546928Y-32588000D01*
G37*
%TD.AperFunction*%
%TD*%
M02*
