%TF.GenerationSoftware,KiCad,Pcbnew,(5.1.10)-1*%
%TF.CreationDate,2021-07-16T07:11:48+08:00*%
%TF.ProjectId,2.5_SAS_Backend,322e355f-5341-4535-9f42-61636b656e64,rev?*%
%TF.SameCoordinates,Original*%
%TF.FileFunction,Paste,Bot*%
%TF.FilePolarity,Positive*%
%FSLAX46Y46*%
G04 Gerber Fmt 4.6, Leading zero omitted, Abs format (unit mm)*
G04 Created by KiCad (PCBNEW (5.1.10)-1) date 2021-07-16 07:11:48*
%MOMM*%
%LPD*%
G01*
G04 APERTURE LIST*
%ADD10R,2.600000X2.600000*%
%ADD11R,0.600000X2.530000*%
%ADD12R,0.500000X2.530000*%
G04 APERTURE END LIST*
D10*
%TO.C,U1*%
X93630000Y-34163000D03*
X49880000Y-34163000D03*
D11*
X87630000Y-35993000D03*
X86360000Y-35993000D03*
X85090000Y-35993000D03*
X83820000Y-35993000D03*
X82550000Y-35993000D03*
X81280000Y-35993000D03*
X80010000Y-35993000D03*
D12*
X79235000Y-31323000D03*
X78435000Y-31323000D03*
X77635000Y-31323000D03*
X76835000Y-31323000D03*
X76035000Y-31323000D03*
X75235000Y-31323000D03*
X74435000Y-31323000D03*
D11*
X73660000Y-35993000D03*
X72390000Y-35993000D03*
X71120000Y-35993000D03*
X69850000Y-35993000D03*
X68580000Y-35993000D03*
X67310000Y-35993000D03*
X66040000Y-35993000D03*
X64770000Y-35993000D03*
X63500000Y-35993000D03*
X62230000Y-35993000D03*
X60960000Y-35993000D03*
X59690000Y-35993000D03*
X58420000Y-35993000D03*
X57150000Y-35993000D03*
X55880000Y-35993000D03*
%TD*%
D10*
%TO.C,U4*%
X93630000Y-55880000D03*
X49880000Y-55880000D03*
D11*
X87630000Y-57710000D03*
X86360000Y-57710000D03*
X85090000Y-57710000D03*
X83820000Y-57710000D03*
X82550000Y-57710000D03*
X81280000Y-57710000D03*
X80010000Y-57710000D03*
D12*
X79235000Y-53040000D03*
X78435000Y-53040000D03*
X77635000Y-53040000D03*
X76835000Y-53040000D03*
X76035000Y-53040000D03*
X75235000Y-53040000D03*
X74435000Y-53040000D03*
D11*
X73660000Y-57710000D03*
X72390000Y-57710000D03*
X71120000Y-57710000D03*
X69850000Y-57710000D03*
X68580000Y-57710000D03*
X67310000Y-57710000D03*
X66040000Y-57710000D03*
X64770000Y-57710000D03*
X63500000Y-57710000D03*
X62230000Y-57710000D03*
X60960000Y-57710000D03*
X59690000Y-57710000D03*
X58420000Y-57710000D03*
X57150000Y-57710000D03*
X55880000Y-57710000D03*
%TD*%
M02*
