%TF.GenerationSoftware,KiCad,Pcbnew,(5.1.10)-1*%
%TF.CreationDate,2021-07-14T07:55:42+08:00*%
%TF.ProjectId,2.5_SAS_Backend,322e355f-5341-4535-9f42-61636b656e64,rev?*%
%TF.SameCoordinates,Original*%
%TF.FileFunction,Legend,Bot*%
%TF.FilePolarity,Positive*%
%FSLAX46Y46*%
G04 Gerber Fmt 4.6, Leading zero omitted, Abs format (unit mm)*
G04 Created by KiCad (PCBNEW (5.1.10)-1) date 2021-07-14 07:55:42*
%MOMM*%
%LPD*%
G01*
G04 APERTURE LIST*
%ADD10C,0.300000*%
%ADD11C,0.120000*%
%ADD12C,0.150000*%
G04 APERTURE END LIST*
D10*
X37508571Y-35798571D02*
X37508571Y-34941428D01*
X37508571Y-35370000D02*
X36008571Y-35370000D01*
X36222857Y-35227142D01*
X36365714Y-35084285D01*
X36437142Y-34941428D01*
X36151428Y-36370000D02*
X36080000Y-36441428D01*
X36008571Y-36584285D01*
X36008571Y-36941428D01*
X36080000Y-37084285D01*
X36151428Y-37155714D01*
X36294285Y-37227142D01*
X36437142Y-37227142D01*
X36651428Y-37155714D01*
X37508571Y-36298571D01*
X37508571Y-37227142D01*
X36008571Y-37655714D02*
X37508571Y-38155714D01*
X36008571Y-38655714D01*
X37651428Y-38798571D02*
X37651428Y-39941428D01*
X36722857Y-40798571D02*
X36722857Y-40298571D01*
X37508571Y-40298571D02*
X36008571Y-40298571D01*
X36008571Y-41012857D01*
X37080000Y-41512857D02*
X37080000Y-42227142D01*
X37508571Y-41370000D02*
X36008571Y-41870000D01*
X37508571Y-42370000D01*
X37508571Y-42870000D02*
X36008571Y-42870000D01*
X37508571Y-43727142D01*
X36008571Y-43727142D01*
X37508571Y-53578571D02*
X37508571Y-52721428D01*
X37508571Y-53150000D02*
X36008571Y-53150000D01*
X36222857Y-53007142D01*
X36365714Y-52864285D01*
X36437142Y-52721428D01*
X36151428Y-54150000D02*
X36080000Y-54221428D01*
X36008571Y-54364285D01*
X36008571Y-54721428D01*
X36080000Y-54864285D01*
X36151428Y-54935714D01*
X36294285Y-55007142D01*
X36437142Y-55007142D01*
X36651428Y-54935714D01*
X37508571Y-54078571D01*
X37508571Y-55007142D01*
X36008571Y-55435714D02*
X37508571Y-55935714D01*
X36008571Y-56435714D01*
X37651428Y-56578571D02*
X37651428Y-57721428D01*
X36722857Y-58578571D02*
X36722857Y-58078571D01*
X37508571Y-58078571D02*
X36008571Y-58078571D01*
X36008571Y-58792857D01*
X37080000Y-59292857D02*
X37080000Y-60007142D01*
X37508571Y-59150000D02*
X36008571Y-59650000D01*
X37508571Y-60150000D01*
X37508571Y-60650000D02*
X36008571Y-60650000D01*
X37508571Y-61507142D01*
X36008571Y-61507142D01*
X97341428Y-58808571D02*
X97341428Y-59522857D01*
X96627142Y-59594285D01*
X96698571Y-59522857D01*
X96770000Y-59380000D01*
X96770000Y-59022857D01*
X96698571Y-58880000D01*
X96627142Y-58808571D01*
X96484285Y-58737142D01*
X96127142Y-58737142D01*
X95984285Y-58808571D01*
X95912857Y-58880000D01*
X95841428Y-59022857D01*
X95841428Y-59380000D01*
X95912857Y-59522857D01*
X95984285Y-59594285D01*
X97341428Y-58308571D02*
X95841428Y-57808571D01*
X97341428Y-57308571D01*
X95698571Y-57165714D02*
X95698571Y-56022857D01*
X96627142Y-55165714D02*
X96627142Y-55665714D01*
X95841428Y-55665714D02*
X97341428Y-55665714D01*
X97341428Y-54951428D01*
X96270000Y-54451428D02*
X96270000Y-53737142D01*
X95841428Y-54594285D02*
X97341428Y-54094285D01*
X95841428Y-53594285D01*
X95841428Y-53094285D02*
X97341428Y-53094285D01*
X95841428Y-52237142D01*
X97341428Y-52237142D01*
X97341428Y-41028571D02*
X97341428Y-41742857D01*
X96627142Y-41814285D01*
X96698571Y-41742857D01*
X96770000Y-41600000D01*
X96770000Y-41242857D01*
X96698571Y-41100000D01*
X96627142Y-41028571D01*
X96484285Y-40957142D01*
X96127142Y-40957142D01*
X95984285Y-41028571D01*
X95912857Y-41100000D01*
X95841428Y-41242857D01*
X95841428Y-41600000D01*
X95912857Y-41742857D01*
X95984285Y-41814285D01*
X97341428Y-40528571D02*
X95841428Y-40028571D01*
X97341428Y-39528571D01*
X95698571Y-39385714D02*
X95698571Y-38242857D01*
X96627142Y-37385714D02*
X96627142Y-37885714D01*
X95841428Y-37885714D02*
X97341428Y-37885714D01*
X97341428Y-37171428D01*
X96270000Y-36671428D02*
X96270000Y-35957142D01*
X95841428Y-36814285D02*
X97341428Y-36314285D01*
X95841428Y-35814285D01*
X95841428Y-35314285D02*
X97341428Y-35314285D01*
X95841428Y-34457142D01*
X97341428Y-34457142D01*
D11*
%TO.C,U4*%
X48260000Y-58420000D02*
X48260000Y-53340000D01*
X48260000Y-53340000D02*
X48260000Y-51816000D01*
X48260000Y-51816000D02*
X95250000Y-51816000D01*
X95250000Y-51816000D02*
X95250000Y-58928000D01*
X95250000Y-58928000D02*
X48260000Y-58928000D01*
X48260000Y-58928000D02*
X48260000Y-58420000D01*
X54610000Y-55880000D02*
X88900000Y-55880000D01*
%TO.C,U1*%
X48260000Y-39624000D02*
X48260000Y-34544000D01*
X48260000Y-34544000D02*
X48260000Y-33020000D01*
X48260000Y-33020000D02*
X95250000Y-33020000D01*
X95250000Y-33020000D02*
X95250000Y-40132000D01*
X95250000Y-40132000D02*
X48260000Y-40132000D01*
X48260000Y-40132000D02*
X48260000Y-39624000D01*
X54610000Y-37084000D02*
X88900000Y-37084000D01*
%TO.C,U4*%
D12*
X64007904Y-52538380D02*
X64007904Y-53347904D01*
X63960285Y-53443142D01*
X63912666Y-53490761D01*
X63817428Y-53538380D01*
X63626952Y-53538380D01*
X63531714Y-53490761D01*
X63484095Y-53443142D01*
X63436476Y-53347904D01*
X63436476Y-52538380D01*
X62531714Y-52871714D02*
X62531714Y-53538380D01*
X62769809Y-52490761D02*
X63007904Y-53205047D01*
X62388857Y-53205047D01*
X56499047Y-55062380D02*
X57070476Y-55062380D01*
X56784761Y-55062380D02*
X56784761Y-54062380D01*
X56880000Y-54205238D01*
X56975238Y-54300476D01*
X57070476Y-54348095D01*
X56118095Y-54157619D02*
X56070476Y-54110000D01*
X55975238Y-54062380D01*
X55737142Y-54062380D01*
X55641904Y-54110000D01*
X55594285Y-54157619D01*
X55546666Y-54252857D01*
X55546666Y-54348095D01*
X55594285Y-54490952D01*
X56165714Y-55062380D01*
X55546666Y-55062380D01*
X55260952Y-54062380D02*
X54927619Y-55062380D01*
X54594285Y-54062380D01*
X73866190Y-54062380D02*
X73247142Y-54062380D01*
X73580476Y-54443333D01*
X73437619Y-54443333D01*
X73342380Y-54490952D01*
X73294761Y-54538571D01*
X73247142Y-54633809D01*
X73247142Y-54871904D01*
X73294761Y-54967142D01*
X73342380Y-55014761D01*
X73437619Y-55062380D01*
X73723333Y-55062380D01*
X73818571Y-55014761D01*
X73866190Y-54967142D01*
X72818571Y-54967142D02*
X72770952Y-55014761D01*
X72818571Y-55062380D01*
X72866190Y-55014761D01*
X72818571Y-54967142D01*
X72818571Y-55062380D01*
X72437619Y-54062380D02*
X71818571Y-54062380D01*
X72151904Y-54443333D01*
X72009047Y-54443333D01*
X71913809Y-54490952D01*
X71866190Y-54538571D01*
X71818571Y-54633809D01*
X71818571Y-54871904D01*
X71866190Y-54967142D01*
X71913809Y-55014761D01*
X72009047Y-55062380D01*
X72294761Y-55062380D01*
X72390000Y-55014761D01*
X72437619Y-54967142D01*
X71532857Y-54062380D02*
X71199523Y-55062380D01*
X70866190Y-54062380D01*
X89058571Y-53792380D02*
X89058571Y-52792380D01*
X88677619Y-52792380D01*
X88582380Y-52840000D01*
X88534761Y-52887619D01*
X88487142Y-52982857D01*
X88487142Y-53125714D01*
X88534761Y-53220952D01*
X88582380Y-53268571D01*
X88677619Y-53316190D01*
X89058571Y-53316190D01*
X88058571Y-53792380D02*
X88058571Y-53125714D01*
X88058571Y-52792380D02*
X88106190Y-52840000D01*
X88058571Y-52887619D01*
X88010952Y-52840000D01*
X88058571Y-52792380D01*
X88058571Y-52887619D01*
X87582380Y-53125714D02*
X87582380Y-53792380D01*
X87582380Y-53220952D02*
X87534761Y-53173333D01*
X87439523Y-53125714D01*
X87296666Y-53125714D01*
X87201428Y-53173333D01*
X87153809Y-53268571D01*
X87153809Y-53792380D01*
X86153809Y-53792380D02*
X86725238Y-53792380D01*
X86439523Y-53792380D02*
X86439523Y-52792380D01*
X86534761Y-52935238D01*
X86630000Y-53030476D01*
X86725238Y-53078095D01*
%TO.C,U1*%
X67309904Y-34250380D02*
X67309904Y-35059904D01*
X67262285Y-35155142D01*
X67214666Y-35202761D01*
X67119428Y-35250380D01*
X66928952Y-35250380D01*
X66833714Y-35202761D01*
X66786095Y-35155142D01*
X66738476Y-35059904D01*
X66738476Y-34250380D01*
X65738476Y-35250380D02*
X66309904Y-35250380D01*
X66024190Y-35250380D02*
X66024190Y-34250380D01*
X66119428Y-34393238D01*
X66214666Y-34488476D01*
X66309904Y-34536095D01*
X56499047Y-36266380D02*
X57070476Y-36266380D01*
X56784761Y-36266380D02*
X56784761Y-35266380D01*
X56880000Y-35409238D01*
X56975238Y-35504476D01*
X57070476Y-35552095D01*
X56118095Y-35361619D02*
X56070476Y-35314000D01*
X55975238Y-35266380D01*
X55737142Y-35266380D01*
X55641904Y-35314000D01*
X55594285Y-35361619D01*
X55546666Y-35456857D01*
X55546666Y-35552095D01*
X55594285Y-35694952D01*
X56165714Y-36266380D01*
X55546666Y-36266380D01*
X55260952Y-35266380D02*
X54927619Y-36266380D01*
X54594285Y-35266380D01*
X73866190Y-35266380D02*
X73247142Y-35266380D01*
X73580476Y-35647333D01*
X73437619Y-35647333D01*
X73342380Y-35694952D01*
X73294761Y-35742571D01*
X73247142Y-35837809D01*
X73247142Y-36075904D01*
X73294761Y-36171142D01*
X73342380Y-36218761D01*
X73437619Y-36266380D01*
X73723333Y-36266380D01*
X73818571Y-36218761D01*
X73866190Y-36171142D01*
X72818571Y-36171142D02*
X72770952Y-36218761D01*
X72818571Y-36266380D01*
X72866190Y-36218761D01*
X72818571Y-36171142D01*
X72818571Y-36266380D01*
X72437619Y-35266380D02*
X71818571Y-35266380D01*
X72151904Y-35647333D01*
X72009047Y-35647333D01*
X71913809Y-35694952D01*
X71866190Y-35742571D01*
X71818571Y-35837809D01*
X71818571Y-36075904D01*
X71866190Y-36171142D01*
X71913809Y-36218761D01*
X72009047Y-36266380D01*
X72294761Y-36266380D01*
X72390000Y-36218761D01*
X72437619Y-36171142D01*
X71532857Y-35266380D02*
X71199523Y-36266380D01*
X70866190Y-35266380D01*
X89058571Y-34996380D02*
X89058571Y-33996380D01*
X88677619Y-33996380D01*
X88582380Y-34044000D01*
X88534761Y-34091619D01*
X88487142Y-34186857D01*
X88487142Y-34329714D01*
X88534761Y-34424952D01*
X88582380Y-34472571D01*
X88677619Y-34520190D01*
X89058571Y-34520190D01*
X88058571Y-34996380D02*
X88058571Y-34329714D01*
X88058571Y-33996380D02*
X88106190Y-34044000D01*
X88058571Y-34091619D01*
X88010952Y-34044000D01*
X88058571Y-33996380D01*
X88058571Y-34091619D01*
X87582380Y-34329714D02*
X87582380Y-34996380D01*
X87582380Y-34424952D02*
X87534761Y-34377333D01*
X87439523Y-34329714D01*
X87296666Y-34329714D01*
X87201428Y-34377333D01*
X87153809Y-34472571D01*
X87153809Y-34996380D01*
X86153809Y-34996380D02*
X86725238Y-34996380D01*
X86439523Y-34996380D02*
X86439523Y-33996380D01*
X86534761Y-34139238D01*
X86630000Y-34234476D01*
X86725238Y-34282095D01*
%TD*%
M02*
