%TF.GenerationSoftware,KiCad,Pcbnew,(5.1.10)-1*%
%TF.CreationDate,2021-07-14T07:55:42+08:00*%
%TF.ProjectId,2.5_SAS_Backend,322e355f-5341-4535-9f42-61636b656e64,rev?*%
%TF.SameCoordinates,Original*%
%TF.FileFunction,Legend,Top*%
%TF.FilePolarity,Positive*%
%FSLAX46Y46*%
G04 Gerber Fmt 4.6, Leading zero omitted, Abs format (unit mm)*
G04 Created by KiCad (PCBNEW (5.1.10)-1) date 2021-07-14 07:55:42*
%MOMM*%
%LPD*%
G01*
G04 APERTURE LIST*
%ADD10C,0.300000*%
%ADD11C,0.120000*%
%ADD12C,0.150000*%
G04 APERTURE END LIST*
D10*
X53298571Y-52661428D02*
X53370000Y-52590000D01*
X53512857Y-52518571D01*
X53870000Y-52518571D01*
X54012857Y-52590000D01*
X54084285Y-52661428D01*
X54155714Y-52804285D01*
X54155714Y-52947142D01*
X54084285Y-53161428D01*
X53227142Y-54018571D01*
X54155714Y-54018571D01*
X55084285Y-52518571D02*
X55227142Y-52518571D01*
X55370000Y-52590000D01*
X55441428Y-52661428D01*
X55512857Y-52804285D01*
X55584285Y-53090000D01*
X55584285Y-53447142D01*
X55512857Y-53732857D01*
X55441428Y-53875714D01*
X55370000Y-53947142D01*
X55227142Y-54018571D01*
X55084285Y-54018571D01*
X54941428Y-53947142D01*
X54870000Y-53875714D01*
X54798571Y-53732857D01*
X54727142Y-53447142D01*
X54727142Y-53090000D01*
X54798571Y-52804285D01*
X54870000Y-52661428D01*
X54941428Y-52590000D01*
X55084285Y-52518571D01*
X56155714Y-52661428D02*
X56227142Y-52590000D01*
X56370000Y-52518571D01*
X56727142Y-52518571D01*
X56870000Y-52590000D01*
X56941428Y-52661428D01*
X57012857Y-52804285D01*
X57012857Y-52947142D01*
X56941428Y-53161428D01*
X56084285Y-54018571D01*
X57012857Y-54018571D01*
X58441428Y-54018571D02*
X57584285Y-54018571D01*
X58012857Y-54018571D02*
X58012857Y-52518571D01*
X57870000Y-52732857D01*
X57727142Y-52875714D01*
X57584285Y-52947142D01*
X59084285Y-53447142D02*
X60227142Y-53447142D01*
X61227142Y-52518571D02*
X61370000Y-52518571D01*
X61512857Y-52590000D01*
X61584285Y-52661428D01*
X61655714Y-52804285D01*
X61727142Y-53090000D01*
X61727142Y-53447142D01*
X61655714Y-53732857D01*
X61584285Y-53875714D01*
X61512857Y-53947142D01*
X61370000Y-54018571D01*
X61227142Y-54018571D01*
X61084285Y-53947142D01*
X61012857Y-53875714D01*
X60941428Y-53732857D01*
X60870000Y-53447142D01*
X60870000Y-53090000D01*
X60941428Y-52804285D01*
X61012857Y-52661428D01*
X61084285Y-52590000D01*
X61227142Y-52518571D01*
X62227142Y-52518571D02*
X63227142Y-52518571D01*
X62584285Y-54018571D01*
X63798571Y-53447142D02*
X64941428Y-53447142D01*
X66441428Y-54018571D02*
X65584285Y-54018571D01*
X66012857Y-54018571D02*
X66012857Y-52518571D01*
X65870000Y-52732857D01*
X65727142Y-52875714D01*
X65584285Y-52947142D01*
X67727142Y-53018571D02*
X67727142Y-54018571D01*
X67370000Y-52447142D02*
X67012857Y-53518571D01*
X67941428Y-53518571D01*
X68512857Y-53447142D02*
X69655714Y-53447142D01*
X70298571Y-53947142D02*
X70512857Y-54018571D01*
X70870000Y-54018571D01*
X71012857Y-53947142D01*
X71084285Y-53875714D01*
X71155714Y-53732857D01*
X71155714Y-53590000D01*
X71084285Y-53447142D01*
X71012857Y-53375714D01*
X70870000Y-53304285D01*
X70584285Y-53232857D01*
X70441428Y-53161428D01*
X70370000Y-53090000D01*
X70298571Y-52947142D01*
X70298571Y-52804285D01*
X70370000Y-52661428D01*
X70441428Y-52590000D01*
X70584285Y-52518571D01*
X70941428Y-52518571D01*
X71155714Y-52590000D01*
X71727142Y-53590000D02*
X72441428Y-53590000D01*
X71584285Y-54018571D02*
X72084285Y-52518571D01*
X72584285Y-54018571D01*
X73012857Y-53947142D02*
X73227142Y-54018571D01*
X73584285Y-54018571D01*
X73727142Y-53947142D01*
X73798571Y-53875714D01*
X73870000Y-53732857D01*
X73870000Y-53590000D01*
X73798571Y-53447142D01*
X73727142Y-53375714D01*
X73584285Y-53304285D01*
X73298571Y-53232857D01*
X73155714Y-53161428D01*
X73084285Y-53090000D01*
X73012857Y-52947142D01*
X73012857Y-52804285D01*
X73084285Y-52661428D01*
X73155714Y-52590000D01*
X73298571Y-52518571D01*
X73655714Y-52518571D01*
X73870000Y-52590000D01*
X74512857Y-53447142D02*
X75655714Y-53447142D01*
X76870000Y-53232857D02*
X77084285Y-53304285D01*
X77155714Y-53375714D01*
X77227142Y-53518571D01*
X77227142Y-53732857D01*
X77155714Y-53875714D01*
X77084285Y-53947142D01*
X76941428Y-54018571D01*
X76370000Y-54018571D01*
X76370000Y-52518571D01*
X76870000Y-52518571D01*
X77012857Y-52590000D01*
X77084285Y-52661428D01*
X77155714Y-52804285D01*
X77155714Y-52947142D01*
X77084285Y-53090000D01*
X77012857Y-53161428D01*
X76870000Y-53232857D01*
X76370000Y-53232857D01*
X78512857Y-54018571D02*
X78512857Y-53232857D01*
X78441428Y-53090000D01*
X78298571Y-53018571D01*
X78012857Y-53018571D01*
X77870000Y-53090000D01*
X78512857Y-53947142D02*
X78370000Y-54018571D01*
X78012857Y-54018571D01*
X77870000Y-53947142D01*
X77798571Y-53804285D01*
X77798571Y-53661428D01*
X77870000Y-53518571D01*
X78012857Y-53447142D01*
X78370000Y-53447142D01*
X78512857Y-53375714D01*
X79870000Y-53947142D02*
X79727142Y-54018571D01*
X79441428Y-54018571D01*
X79298571Y-53947142D01*
X79227142Y-53875714D01*
X79155714Y-53732857D01*
X79155714Y-53304285D01*
X79227142Y-53161428D01*
X79298571Y-53090000D01*
X79441428Y-53018571D01*
X79727142Y-53018571D01*
X79870000Y-53090000D01*
X80512857Y-54018571D02*
X80512857Y-52518571D01*
X80655714Y-53447142D02*
X81084285Y-54018571D01*
X81084285Y-53018571D02*
X80512857Y-53590000D01*
X82298571Y-53947142D02*
X82155714Y-54018571D01*
X81870000Y-54018571D01*
X81727142Y-53947142D01*
X81655714Y-53804285D01*
X81655714Y-53232857D01*
X81727142Y-53090000D01*
X81870000Y-53018571D01*
X82155714Y-53018571D01*
X82298571Y-53090000D01*
X82370000Y-53232857D01*
X82370000Y-53375714D01*
X81655714Y-53518571D01*
X83012857Y-53018571D02*
X83012857Y-54018571D01*
X83012857Y-53161428D02*
X83084285Y-53090000D01*
X83227142Y-53018571D01*
X83441428Y-53018571D01*
X83584285Y-53090000D01*
X83655714Y-53232857D01*
X83655714Y-54018571D01*
X85012857Y-54018571D02*
X85012857Y-52518571D01*
X85012857Y-53947142D02*
X84870000Y-54018571D01*
X84584285Y-54018571D01*
X84441428Y-53947142D01*
X84370000Y-53875714D01*
X84298571Y-53732857D01*
X84298571Y-53304285D01*
X84370000Y-53161428D01*
X84441428Y-53090000D01*
X84584285Y-53018571D01*
X84870000Y-53018571D01*
X85012857Y-53090000D01*
X85370000Y-54161428D02*
X86512857Y-54161428D01*
X86655714Y-52518571D02*
X87155714Y-54018571D01*
X87655714Y-52518571D01*
X88941428Y-54018571D02*
X88084285Y-54018571D01*
X88512857Y-54018571D02*
X88512857Y-52518571D01*
X88370000Y-52732857D01*
X88227142Y-52875714D01*
X88084285Y-52947142D01*
D11*
%TO.C,C1*%
X48574000Y-64262000D02*
G75*
G03*
X48574000Y-64262000I-2620000J0D01*
G01*
X45954000Y-61682000D02*
X45954000Y-66842000D01*
X45994000Y-61682000D02*
X45994000Y-66842000D01*
X46034000Y-61683000D02*
X46034000Y-66841000D01*
X46074000Y-61684000D02*
X46074000Y-66840000D01*
X46114000Y-61686000D02*
X46114000Y-66838000D01*
X46154000Y-61689000D02*
X46154000Y-66835000D01*
X46194000Y-61693000D02*
X46194000Y-63222000D01*
X46194000Y-65302000D02*
X46194000Y-66831000D01*
X46234000Y-61697000D02*
X46234000Y-63222000D01*
X46234000Y-65302000D02*
X46234000Y-66827000D01*
X46274000Y-61701000D02*
X46274000Y-63222000D01*
X46274000Y-65302000D02*
X46274000Y-66823000D01*
X46314000Y-61706000D02*
X46314000Y-63222000D01*
X46314000Y-65302000D02*
X46314000Y-66818000D01*
X46354000Y-61712000D02*
X46354000Y-63222000D01*
X46354000Y-65302000D02*
X46354000Y-66812000D01*
X46394000Y-61719000D02*
X46394000Y-63222000D01*
X46394000Y-65302000D02*
X46394000Y-66805000D01*
X46434000Y-61726000D02*
X46434000Y-63222000D01*
X46434000Y-65302000D02*
X46434000Y-66798000D01*
X46474000Y-61734000D02*
X46474000Y-63222000D01*
X46474000Y-65302000D02*
X46474000Y-66790000D01*
X46514000Y-61742000D02*
X46514000Y-63222000D01*
X46514000Y-65302000D02*
X46514000Y-66782000D01*
X46554000Y-61751000D02*
X46554000Y-63222000D01*
X46554000Y-65302000D02*
X46554000Y-66773000D01*
X46594000Y-61761000D02*
X46594000Y-63222000D01*
X46594000Y-65302000D02*
X46594000Y-66763000D01*
X46634000Y-61771000D02*
X46634000Y-63222000D01*
X46634000Y-65302000D02*
X46634000Y-66753000D01*
X46675000Y-61782000D02*
X46675000Y-63222000D01*
X46675000Y-65302000D02*
X46675000Y-66742000D01*
X46715000Y-61794000D02*
X46715000Y-63222000D01*
X46715000Y-65302000D02*
X46715000Y-66730000D01*
X46755000Y-61807000D02*
X46755000Y-63222000D01*
X46755000Y-65302000D02*
X46755000Y-66717000D01*
X46795000Y-61820000D02*
X46795000Y-63222000D01*
X46795000Y-65302000D02*
X46795000Y-66704000D01*
X46835000Y-61834000D02*
X46835000Y-63222000D01*
X46835000Y-65302000D02*
X46835000Y-66690000D01*
X46875000Y-61848000D02*
X46875000Y-63222000D01*
X46875000Y-65302000D02*
X46875000Y-66676000D01*
X46915000Y-61864000D02*
X46915000Y-63222000D01*
X46915000Y-65302000D02*
X46915000Y-66660000D01*
X46955000Y-61880000D02*
X46955000Y-63222000D01*
X46955000Y-65302000D02*
X46955000Y-66644000D01*
X46995000Y-61897000D02*
X46995000Y-63222000D01*
X46995000Y-65302000D02*
X46995000Y-66627000D01*
X47035000Y-61914000D02*
X47035000Y-63222000D01*
X47035000Y-65302000D02*
X47035000Y-66610000D01*
X47075000Y-61933000D02*
X47075000Y-63222000D01*
X47075000Y-65302000D02*
X47075000Y-66591000D01*
X47115000Y-61952000D02*
X47115000Y-63222000D01*
X47115000Y-65302000D02*
X47115000Y-66572000D01*
X47155000Y-61972000D02*
X47155000Y-63222000D01*
X47155000Y-65302000D02*
X47155000Y-66552000D01*
X47195000Y-61994000D02*
X47195000Y-63222000D01*
X47195000Y-65302000D02*
X47195000Y-66530000D01*
X47235000Y-62015000D02*
X47235000Y-63222000D01*
X47235000Y-65302000D02*
X47235000Y-66509000D01*
X47275000Y-62038000D02*
X47275000Y-63222000D01*
X47275000Y-65302000D02*
X47275000Y-66486000D01*
X47315000Y-62062000D02*
X47315000Y-63222000D01*
X47315000Y-65302000D02*
X47315000Y-66462000D01*
X47355000Y-62087000D02*
X47355000Y-63222000D01*
X47355000Y-65302000D02*
X47355000Y-66437000D01*
X47395000Y-62113000D02*
X47395000Y-63222000D01*
X47395000Y-65302000D02*
X47395000Y-66411000D01*
X47435000Y-62140000D02*
X47435000Y-63222000D01*
X47435000Y-65302000D02*
X47435000Y-66384000D01*
X47475000Y-62167000D02*
X47475000Y-63222000D01*
X47475000Y-65302000D02*
X47475000Y-66357000D01*
X47515000Y-62197000D02*
X47515000Y-63222000D01*
X47515000Y-65302000D02*
X47515000Y-66327000D01*
X47555000Y-62227000D02*
X47555000Y-63222000D01*
X47555000Y-65302000D02*
X47555000Y-66297000D01*
X47595000Y-62258000D02*
X47595000Y-63222000D01*
X47595000Y-65302000D02*
X47595000Y-66266000D01*
X47635000Y-62291000D02*
X47635000Y-63222000D01*
X47635000Y-65302000D02*
X47635000Y-66233000D01*
X47675000Y-62325000D02*
X47675000Y-63222000D01*
X47675000Y-65302000D02*
X47675000Y-66199000D01*
X47715000Y-62361000D02*
X47715000Y-63222000D01*
X47715000Y-65302000D02*
X47715000Y-66163000D01*
X47755000Y-62398000D02*
X47755000Y-63222000D01*
X47755000Y-65302000D02*
X47755000Y-66126000D01*
X47795000Y-62436000D02*
X47795000Y-63222000D01*
X47795000Y-65302000D02*
X47795000Y-66088000D01*
X47835000Y-62477000D02*
X47835000Y-63222000D01*
X47835000Y-65302000D02*
X47835000Y-66047000D01*
X47875000Y-62519000D02*
X47875000Y-63222000D01*
X47875000Y-65302000D02*
X47875000Y-66005000D01*
X47915000Y-62563000D02*
X47915000Y-63222000D01*
X47915000Y-65302000D02*
X47915000Y-65961000D01*
X47955000Y-62609000D02*
X47955000Y-63222000D01*
X47955000Y-65302000D02*
X47955000Y-65915000D01*
X47995000Y-62657000D02*
X47995000Y-63222000D01*
X47995000Y-65302000D02*
X47995000Y-65867000D01*
X48035000Y-62708000D02*
X48035000Y-63222000D01*
X48035000Y-65302000D02*
X48035000Y-65816000D01*
X48075000Y-62762000D02*
X48075000Y-63222000D01*
X48075000Y-65302000D02*
X48075000Y-65762000D01*
X48115000Y-62819000D02*
X48115000Y-63222000D01*
X48115000Y-65302000D02*
X48115000Y-65705000D01*
X48155000Y-62879000D02*
X48155000Y-63222000D01*
X48155000Y-65302000D02*
X48155000Y-65645000D01*
X48195000Y-62943000D02*
X48195000Y-63222000D01*
X48195000Y-65302000D02*
X48195000Y-65581000D01*
X48235000Y-63011000D02*
X48235000Y-63222000D01*
X48235000Y-65302000D02*
X48235000Y-65513000D01*
X48275000Y-63084000D02*
X48275000Y-65440000D01*
X48315000Y-63164000D02*
X48315000Y-65360000D01*
X48355000Y-63251000D02*
X48355000Y-65273000D01*
X48395000Y-63347000D02*
X48395000Y-65177000D01*
X48435000Y-63457000D02*
X48435000Y-65067000D01*
X48475000Y-63585000D02*
X48475000Y-64939000D01*
X48515000Y-63744000D02*
X48515000Y-64780000D01*
X48555000Y-63978000D02*
X48555000Y-64546000D01*
X43149225Y-62787000D02*
X43649225Y-62787000D01*
X43399225Y-62537000D02*
X43399225Y-63037000D01*
%TO.C,M4*%
X31700000Y-61802000D02*
X31750000Y-54702000D01*
X31750000Y-54702000D02*
X31750000Y-51502000D01*
X31750000Y-51502000D02*
X37182000Y-51502000D01*
X37182000Y-51502000D02*
X37182000Y-61802000D01*
X37182000Y-61802000D02*
X31700000Y-61802000D01*
X37082000Y-60452000D02*
X36072000Y-60452000D01*
X36072000Y-60452000D02*
X36072000Y-55372000D01*
X36072000Y-55372000D02*
X37082000Y-55372000D01*
%TO.C,M3*%
X31700000Y-44276000D02*
X31750000Y-37176000D01*
X31750000Y-37176000D02*
X31750000Y-33976000D01*
X31750000Y-33976000D02*
X37182000Y-33976000D01*
X37182000Y-33976000D02*
X37182000Y-44276000D01*
X37182000Y-44276000D02*
X31700000Y-44276000D01*
X37082000Y-42926000D02*
X36072000Y-42926000D01*
X36072000Y-42926000D02*
X36072000Y-37846000D01*
X36072000Y-37846000D02*
X37082000Y-37846000D01*
%TO.C,M2*%
X100380000Y-34210000D02*
X100330000Y-41310000D01*
X100330000Y-41310000D02*
X100330000Y-44510000D01*
X100330000Y-44510000D02*
X94898000Y-44510000D01*
X94898000Y-44510000D02*
X94898000Y-34210000D01*
X94898000Y-34210000D02*
X100380000Y-34210000D01*
X94998000Y-35560000D02*
X96008000Y-35560000D01*
X96008000Y-35560000D02*
X96008000Y-40640000D01*
X96008000Y-40640000D02*
X94998000Y-40640000D01*
%TO.C,M1*%
X100380000Y-49958000D02*
X100330000Y-57058000D01*
X100330000Y-57058000D02*
X100330000Y-60258000D01*
X100330000Y-60258000D02*
X94898000Y-60258000D01*
X94898000Y-60258000D02*
X94898000Y-49958000D01*
X94898000Y-49958000D02*
X100380000Y-49958000D01*
X94998000Y-51308000D02*
X96008000Y-51308000D01*
X96008000Y-51308000D02*
X96008000Y-56388000D01*
X96008000Y-56388000D02*
X94998000Y-56388000D01*
%TO.C,R1*%
X43969000Y-58393064D02*
X43969000Y-57938936D01*
X45439000Y-58393064D02*
X45439000Y-57938936D01*
%TO.C,D1*%
X43794000Y-52594000D02*
X43794000Y-55479000D01*
X43794000Y-55479000D02*
X45614000Y-55479000D01*
X45614000Y-55479000D02*
X45614000Y-52594000D01*
%TO.C,C4*%
X98612000Y-63754000D02*
G75*
G03*
X98612000Y-63754000I-2620000J0D01*
G01*
X95992000Y-61174000D02*
X95992000Y-66334000D01*
X96032000Y-61174000D02*
X96032000Y-66334000D01*
X96072000Y-61175000D02*
X96072000Y-66333000D01*
X96112000Y-61176000D02*
X96112000Y-66332000D01*
X96152000Y-61178000D02*
X96152000Y-66330000D01*
X96192000Y-61181000D02*
X96192000Y-66327000D01*
X96232000Y-61185000D02*
X96232000Y-62714000D01*
X96232000Y-64794000D02*
X96232000Y-66323000D01*
X96272000Y-61189000D02*
X96272000Y-62714000D01*
X96272000Y-64794000D02*
X96272000Y-66319000D01*
X96312000Y-61193000D02*
X96312000Y-62714000D01*
X96312000Y-64794000D02*
X96312000Y-66315000D01*
X96352000Y-61198000D02*
X96352000Y-62714000D01*
X96352000Y-64794000D02*
X96352000Y-66310000D01*
X96392000Y-61204000D02*
X96392000Y-62714000D01*
X96392000Y-64794000D02*
X96392000Y-66304000D01*
X96432000Y-61211000D02*
X96432000Y-62714000D01*
X96432000Y-64794000D02*
X96432000Y-66297000D01*
X96472000Y-61218000D02*
X96472000Y-62714000D01*
X96472000Y-64794000D02*
X96472000Y-66290000D01*
X96512000Y-61226000D02*
X96512000Y-62714000D01*
X96512000Y-64794000D02*
X96512000Y-66282000D01*
X96552000Y-61234000D02*
X96552000Y-62714000D01*
X96552000Y-64794000D02*
X96552000Y-66274000D01*
X96592000Y-61243000D02*
X96592000Y-62714000D01*
X96592000Y-64794000D02*
X96592000Y-66265000D01*
X96632000Y-61253000D02*
X96632000Y-62714000D01*
X96632000Y-64794000D02*
X96632000Y-66255000D01*
X96672000Y-61263000D02*
X96672000Y-62714000D01*
X96672000Y-64794000D02*
X96672000Y-66245000D01*
X96713000Y-61274000D02*
X96713000Y-62714000D01*
X96713000Y-64794000D02*
X96713000Y-66234000D01*
X96753000Y-61286000D02*
X96753000Y-62714000D01*
X96753000Y-64794000D02*
X96753000Y-66222000D01*
X96793000Y-61299000D02*
X96793000Y-62714000D01*
X96793000Y-64794000D02*
X96793000Y-66209000D01*
X96833000Y-61312000D02*
X96833000Y-62714000D01*
X96833000Y-64794000D02*
X96833000Y-66196000D01*
X96873000Y-61326000D02*
X96873000Y-62714000D01*
X96873000Y-64794000D02*
X96873000Y-66182000D01*
X96913000Y-61340000D02*
X96913000Y-62714000D01*
X96913000Y-64794000D02*
X96913000Y-66168000D01*
X96953000Y-61356000D02*
X96953000Y-62714000D01*
X96953000Y-64794000D02*
X96953000Y-66152000D01*
X96993000Y-61372000D02*
X96993000Y-62714000D01*
X96993000Y-64794000D02*
X96993000Y-66136000D01*
X97033000Y-61389000D02*
X97033000Y-62714000D01*
X97033000Y-64794000D02*
X97033000Y-66119000D01*
X97073000Y-61406000D02*
X97073000Y-62714000D01*
X97073000Y-64794000D02*
X97073000Y-66102000D01*
X97113000Y-61425000D02*
X97113000Y-62714000D01*
X97113000Y-64794000D02*
X97113000Y-66083000D01*
X97153000Y-61444000D02*
X97153000Y-62714000D01*
X97153000Y-64794000D02*
X97153000Y-66064000D01*
X97193000Y-61464000D02*
X97193000Y-62714000D01*
X97193000Y-64794000D02*
X97193000Y-66044000D01*
X97233000Y-61486000D02*
X97233000Y-62714000D01*
X97233000Y-64794000D02*
X97233000Y-66022000D01*
X97273000Y-61507000D02*
X97273000Y-62714000D01*
X97273000Y-64794000D02*
X97273000Y-66001000D01*
X97313000Y-61530000D02*
X97313000Y-62714000D01*
X97313000Y-64794000D02*
X97313000Y-65978000D01*
X97353000Y-61554000D02*
X97353000Y-62714000D01*
X97353000Y-64794000D02*
X97353000Y-65954000D01*
X97393000Y-61579000D02*
X97393000Y-62714000D01*
X97393000Y-64794000D02*
X97393000Y-65929000D01*
X97433000Y-61605000D02*
X97433000Y-62714000D01*
X97433000Y-64794000D02*
X97433000Y-65903000D01*
X97473000Y-61632000D02*
X97473000Y-62714000D01*
X97473000Y-64794000D02*
X97473000Y-65876000D01*
X97513000Y-61659000D02*
X97513000Y-62714000D01*
X97513000Y-64794000D02*
X97513000Y-65849000D01*
X97553000Y-61689000D02*
X97553000Y-62714000D01*
X97553000Y-64794000D02*
X97553000Y-65819000D01*
X97593000Y-61719000D02*
X97593000Y-62714000D01*
X97593000Y-64794000D02*
X97593000Y-65789000D01*
X97633000Y-61750000D02*
X97633000Y-62714000D01*
X97633000Y-64794000D02*
X97633000Y-65758000D01*
X97673000Y-61783000D02*
X97673000Y-62714000D01*
X97673000Y-64794000D02*
X97673000Y-65725000D01*
X97713000Y-61817000D02*
X97713000Y-62714000D01*
X97713000Y-64794000D02*
X97713000Y-65691000D01*
X97753000Y-61853000D02*
X97753000Y-62714000D01*
X97753000Y-64794000D02*
X97753000Y-65655000D01*
X97793000Y-61890000D02*
X97793000Y-62714000D01*
X97793000Y-64794000D02*
X97793000Y-65618000D01*
X97833000Y-61928000D02*
X97833000Y-62714000D01*
X97833000Y-64794000D02*
X97833000Y-65580000D01*
X97873000Y-61969000D02*
X97873000Y-62714000D01*
X97873000Y-64794000D02*
X97873000Y-65539000D01*
X97913000Y-62011000D02*
X97913000Y-62714000D01*
X97913000Y-64794000D02*
X97913000Y-65497000D01*
X97953000Y-62055000D02*
X97953000Y-62714000D01*
X97953000Y-64794000D02*
X97953000Y-65453000D01*
X97993000Y-62101000D02*
X97993000Y-62714000D01*
X97993000Y-64794000D02*
X97993000Y-65407000D01*
X98033000Y-62149000D02*
X98033000Y-62714000D01*
X98033000Y-64794000D02*
X98033000Y-65359000D01*
X98073000Y-62200000D02*
X98073000Y-62714000D01*
X98073000Y-64794000D02*
X98073000Y-65308000D01*
X98113000Y-62254000D02*
X98113000Y-62714000D01*
X98113000Y-64794000D02*
X98113000Y-65254000D01*
X98153000Y-62311000D02*
X98153000Y-62714000D01*
X98153000Y-64794000D02*
X98153000Y-65197000D01*
X98193000Y-62371000D02*
X98193000Y-62714000D01*
X98193000Y-64794000D02*
X98193000Y-65137000D01*
X98233000Y-62435000D02*
X98233000Y-62714000D01*
X98233000Y-64794000D02*
X98233000Y-65073000D01*
X98273000Y-62503000D02*
X98273000Y-62714000D01*
X98273000Y-64794000D02*
X98273000Y-65005000D01*
X98313000Y-62576000D02*
X98313000Y-64932000D01*
X98353000Y-62656000D02*
X98353000Y-64852000D01*
X98393000Y-62743000D02*
X98393000Y-64765000D01*
X98433000Y-62839000D02*
X98433000Y-64669000D01*
X98473000Y-62949000D02*
X98473000Y-64559000D01*
X98513000Y-63077000D02*
X98513000Y-64431000D01*
X98553000Y-63236000D02*
X98553000Y-64272000D01*
X98593000Y-63470000D02*
X98593000Y-64038000D01*
X93187225Y-62279000D02*
X93687225Y-62279000D01*
X93437225Y-62029000D02*
X93437225Y-62529000D01*
%TO.C,C3*%
X91754000Y-64008000D02*
G75*
G03*
X91754000Y-64008000I-2620000J0D01*
G01*
X89134000Y-61428000D02*
X89134000Y-66588000D01*
X89174000Y-61428000D02*
X89174000Y-66588000D01*
X89214000Y-61429000D02*
X89214000Y-66587000D01*
X89254000Y-61430000D02*
X89254000Y-66586000D01*
X89294000Y-61432000D02*
X89294000Y-66584000D01*
X89334000Y-61435000D02*
X89334000Y-66581000D01*
X89374000Y-61439000D02*
X89374000Y-62968000D01*
X89374000Y-65048000D02*
X89374000Y-66577000D01*
X89414000Y-61443000D02*
X89414000Y-62968000D01*
X89414000Y-65048000D02*
X89414000Y-66573000D01*
X89454000Y-61447000D02*
X89454000Y-62968000D01*
X89454000Y-65048000D02*
X89454000Y-66569000D01*
X89494000Y-61452000D02*
X89494000Y-62968000D01*
X89494000Y-65048000D02*
X89494000Y-66564000D01*
X89534000Y-61458000D02*
X89534000Y-62968000D01*
X89534000Y-65048000D02*
X89534000Y-66558000D01*
X89574000Y-61465000D02*
X89574000Y-62968000D01*
X89574000Y-65048000D02*
X89574000Y-66551000D01*
X89614000Y-61472000D02*
X89614000Y-62968000D01*
X89614000Y-65048000D02*
X89614000Y-66544000D01*
X89654000Y-61480000D02*
X89654000Y-62968000D01*
X89654000Y-65048000D02*
X89654000Y-66536000D01*
X89694000Y-61488000D02*
X89694000Y-62968000D01*
X89694000Y-65048000D02*
X89694000Y-66528000D01*
X89734000Y-61497000D02*
X89734000Y-62968000D01*
X89734000Y-65048000D02*
X89734000Y-66519000D01*
X89774000Y-61507000D02*
X89774000Y-62968000D01*
X89774000Y-65048000D02*
X89774000Y-66509000D01*
X89814000Y-61517000D02*
X89814000Y-62968000D01*
X89814000Y-65048000D02*
X89814000Y-66499000D01*
X89855000Y-61528000D02*
X89855000Y-62968000D01*
X89855000Y-65048000D02*
X89855000Y-66488000D01*
X89895000Y-61540000D02*
X89895000Y-62968000D01*
X89895000Y-65048000D02*
X89895000Y-66476000D01*
X89935000Y-61553000D02*
X89935000Y-62968000D01*
X89935000Y-65048000D02*
X89935000Y-66463000D01*
X89975000Y-61566000D02*
X89975000Y-62968000D01*
X89975000Y-65048000D02*
X89975000Y-66450000D01*
X90015000Y-61580000D02*
X90015000Y-62968000D01*
X90015000Y-65048000D02*
X90015000Y-66436000D01*
X90055000Y-61594000D02*
X90055000Y-62968000D01*
X90055000Y-65048000D02*
X90055000Y-66422000D01*
X90095000Y-61610000D02*
X90095000Y-62968000D01*
X90095000Y-65048000D02*
X90095000Y-66406000D01*
X90135000Y-61626000D02*
X90135000Y-62968000D01*
X90135000Y-65048000D02*
X90135000Y-66390000D01*
X90175000Y-61643000D02*
X90175000Y-62968000D01*
X90175000Y-65048000D02*
X90175000Y-66373000D01*
X90215000Y-61660000D02*
X90215000Y-62968000D01*
X90215000Y-65048000D02*
X90215000Y-66356000D01*
X90255000Y-61679000D02*
X90255000Y-62968000D01*
X90255000Y-65048000D02*
X90255000Y-66337000D01*
X90295000Y-61698000D02*
X90295000Y-62968000D01*
X90295000Y-65048000D02*
X90295000Y-66318000D01*
X90335000Y-61718000D02*
X90335000Y-62968000D01*
X90335000Y-65048000D02*
X90335000Y-66298000D01*
X90375000Y-61740000D02*
X90375000Y-62968000D01*
X90375000Y-65048000D02*
X90375000Y-66276000D01*
X90415000Y-61761000D02*
X90415000Y-62968000D01*
X90415000Y-65048000D02*
X90415000Y-66255000D01*
X90455000Y-61784000D02*
X90455000Y-62968000D01*
X90455000Y-65048000D02*
X90455000Y-66232000D01*
X90495000Y-61808000D02*
X90495000Y-62968000D01*
X90495000Y-65048000D02*
X90495000Y-66208000D01*
X90535000Y-61833000D02*
X90535000Y-62968000D01*
X90535000Y-65048000D02*
X90535000Y-66183000D01*
X90575000Y-61859000D02*
X90575000Y-62968000D01*
X90575000Y-65048000D02*
X90575000Y-66157000D01*
X90615000Y-61886000D02*
X90615000Y-62968000D01*
X90615000Y-65048000D02*
X90615000Y-66130000D01*
X90655000Y-61913000D02*
X90655000Y-62968000D01*
X90655000Y-65048000D02*
X90655000Y-66103000D01*
X90695000Y-61943000D02*
X90695000Y-62968000D01*
X90695000Y-65048000D02*
X90695000Y-66073000D01*
X90735000Y-61973000D02*
X90735000Y-62968000D01*
X90735000Y-65048000D02*
X90735000Y-66043000D01*
X90775000Y-62004000D02*
X90775000Y-62968000D01*
X90775000Y-65048000D02*
X90775000Y-66012000D01*
X90815000Y-62037000D02*
X90815000Y-62968000D01*
X90815000Y-65048000D02*
X90815000Y-65979000D01*
X90855000Y-62071000D02*
X90855000Y-62968000D01*
X90855000Y-65048000D02*
X90855000Y-65945000D01*
X90895000Y-62107000D02*
X90895000Y-62968000D01*
X90895000Y-65048000D02*
X90895000Y-65909000D01*
X90935000Y-62144000D02*
X90935000Y-62968000D01*
X90935000Y-65048000D02*
X90935000Y-65872000D01*
X90975000Y-62182000D02*
X90975000Y-62968000D01*
X90975000Y-65048000D02*
X90975000Y-65834000D01*
X91015000Y-62223000D02*
X91015000Y-62968000D01*
X91015000Y-65048000D02*
X91015000Y-65793000D01*
X91055000Y-62265000D02*
X91055000Y-62968000D01*
X91055000Y-65048000D02*
X91055000Y-65751000D01*
X91095000Y-62309000D02*
X91095000Y-62968000D01*
X91095000Y-65048000D02*
X91095000Y-65707000D01*
X91135000Y-62355000D02*
X91135000Y-62968000D01*
X91135000Y-65048000D02*
X91135000Y-65661000D01*
X91175000Y-62403000D02*
X91175000Y-62968000D01*
X91175000Y-65048000D02*
X91175000Y-65613000D01*
X91215000Y-62454000D02*
X91215000Y-62968000D01*
X91215000Y-65048000D02*
X91215000Y-65562000D01*
X91255000Y-62508000D02*
X91255000Y-62968000D01*
X91255000Y-65048000D02*
X91255000Y-65508000D01*
X91295000Y-62565000D02*
X91295000Y-62968000D01*
X91295000Y-65048000D02*
X91295000Y-65451000D01*
X91335000Y-62625000D02*
X91335000Y-62968000D01*
X91335000Y-65048000D02*
X91335000Y-65391000D01*
X91375000Y-62689000D02*
X91375000Y-62968000D01*
X91375000Y-65048000D02*
X91375000Y-65327000D01*
X91415000Y-62757000D02*
X91415000Y-62968000D01*
X91415000Y-65048000D02*
X91415000Y-65259000D01*
X91455000Y-62830000D02*
X91455000Y-65186000D01*
X91495000Y-62910000D02*
X91495000Y-65106000D01*
X91535000Y-62997000D02*
X91535000Y-65019000D01*
X91575000Y-63093000D02*
X91575000Y-64923000D01*
X91615000Y-63203000D02*
X91615000Y-64813000D01*
X91655000Y-63331000D02*
X91655000Y-64685000D01*
X91695000Y-63490000D02*
X91695000Y-64526000D01*
X91735000Y-63724000D02*
X91735000Y-64292000D01*
X86329225Y-62533000D02*
X86829225Y-62533000D01*
X86579225Y-62283000D02*
X86579225Y-62783000D01*
%TO.C,C2*%
X55178000Y-64262000D02*
G75*
G03*
X55178000Y-64262000I-2620000J0D01*
G01*
X52558000Y-61682000D02*
X52558000Y-66842000D01*
X52598000Y-61682000D02*
X52598000Y-66842000D01*
X52638000Y-61683000D02*
X52638000Y-66841000D01*
X52678000Y-61684000D02*
X52678000Y-66840000D01*
X52718000Y-61686000D02*
X52718000Y-66838000D01*
X52758000Y-61689000D02*
X52758000Y-66835000D01*
X52798000Y-61693000D02*
X52798000Y-63222000D01*
X52798000Y-65302000D02*
X52798000Y-66831000D01*
X52838000Y-61697000D02*
X52838000Y-63222000D01*
X52838000Y-65302000D02*
X52838000Y-66827000D01*
X52878000Y-61701000D02*
X52878000Y-63222000D01*
X52878000Y-65302000D02*
X52878000Y-66823000D01*
X52918000Y-61706000D02*
X52918000Y-63222000D01*
X52918000Y-65302000D02*
X52918000Y-66818000D01*
X52958000Y-61712000D02*
X52958000Y-63222000D01*
X52958000Y-65302000D02*
X52958000Y-66812000D01*
X52998000Y-61719000D02*
X52998000Y-63222000D01*
X52998000Y-65302000D02*
X52998000Y-66805000D01*
X53038000Y-61726000D02*
X53038000Y-63222000D01*
X53038000Y-65302000D02*
X53038000Y-66798000D01*
X53078000Y-61734000D02*
X53078000Y-63222000D01*
X53078000Y-65302000D02*
X53078000Y-66790000D01*
X53118000Y-61742000D02*
X53118000Y-63222000D01*
X53118000Y-65302000D02*
X53118000Y-66782000D01*
X53158000Y-61751000D02*
X53158000Y-63222000D01*
X53158000Y-65302000D02*
X53158000Y-66773000D01*
X53198000Y-61761000D02*
X53198000Y-63222000D01*
X53198000Y-65302000D02*
X53198000Y-66763000D01*
X53238000Y-61771000D02*
X53238000Y-63222000D01*
X53238000Y-65302000D02*
X53238000Y-66753000D01*
X53279000Y-61782000D02*
X53279000Y-63222000D01*
X53279000Y-65302000D02*
X53279000Y-66742000D01*
X53319000Y-61794000D02*
X53319000Y-63222000D01*
X53319000Y-65302000D02*
X53319000Y-66730000D01*
X53359000Y-61807000D02*
X53359000Y-63222000D01*
X53359000Y-65302000D02*
X53359000Y-66717000D01*
X53399000Y-61820000D02*
X53399000Y-63222000D01*
X53399000Y-65302000D02*
X53399000Y-66704000D01*
X53439000Y-61834000D02*
X53439000Y-63222000D01*
X53439000Y-65302000D02*
X53439000Y-66690000D01*
X53479000Y-61848000D02*
X53479000Y-63222000D01*
X53479000Y-65302000D02*
X53479000Y-66676000D01*
X53519000Y-61864000D02*
X53519000Y-63222000D01*
X53519000Y-65302000D02*
X53519000Y-66660000D01*
X53559000Y-61880000D02*
X53559000Y-63222000D01*
X53559000Y-65302000D02*
X53559000Y-66644000D01*
X53599000Y-61897000D02*
X53599000Y-63222000D01*
X53599000Y-65302000D02*
X53599000Y-66627000D01*
X53639000Y-61914000D02*
X53639000Y-63222000D01*
X53639000Y-65302000D02*
X53639000Y-66610000D01*
X53679000Y-61933000D02*
X53679000Y-63222000D01*
X53679000Y-65302000D02*
X53679000Y-66591000D01*
X53719000Y-61952000D02*
X53719000Y-63222000D01*
X53719000Y-65302000D02*
X53719000Y-66572000D01*
X53759000Y-61972000D02*
X53759000Y-63222000D01*
X53759000Y-65302000D02*
X53759000Y-66552000D01*
X53799000Y-61994000D02*
X53799000Y-63222000D01*
X53799000Y-65302000D02*
X53799000Y-66530000D01*
X53839000Y-62015000D02*
X53839000Y-63222000D01*
X53839000Y-65302000D02*
X53839000Y-66509000D01*
X53879000Y-62038000D02*
X53879000Y-63222000D01*
X53879000Y-65302000D02*
X53879000Y-66486000D01*
X53919000Y-62062000D02*
X53919000Y-63222000D01*
X53919000Y-65302000D02*
X53919000Y-66462000D01*
X53959000Y-62087000D02*
X53959000Y-63222000D01*
X53959000Y-65302000D02*
X53959000Y-66437000D01*
X53999000Y-62113000D02*
X53999000Y-63222000D01*
X53999000Y-65302000D02*
X53999000Y-66411000D01*
X54039000Y-62140000D02*
X54039000Y-63222000D01*
X54039000Y-65302000D02*
X54039000Y-66384000D01*
X54079000Y-62167000D02*
X54079000Y-63222000D01*
X54079000Y-65302000D02*
X54079000Y-66357000D01*
X54119000Y-62197000D02*
X54119000Y-63222000D01*
X54119000Y-65302000D02*
X54119000Y-66327000D01*
X54159000Y-62227000D02*
X54159000Y-63222000D01*
X54159000Y-65302000D02*
X54159000Y-66297000D01*
X54199000Y-62258000D02*
X54199000Y-63222000D01*
X54199000Y-65302000D02*
X54199000Y-66266000D01*
X54239000Y-62291000D02*
X54239000Y-63222000D01*
X54239000Y-65302000D02*
X54239000Y-66233000D01*
X54279000Y-62325000D02*
X54279000Y-63222000D01*
X54279000Y-65302000D02*
X54279000Y-66199000D01*
X54319000Y-62361000D02*
X54319000Y-63222000D01*
X54319000Y-65302000D02*
X54319000Y-66163000D01*
X54359000Y-62398000D02*
X54359000Y-63222000D01*
X54359000Y-65302000D02*
X54359000Y-66126000D01*
X54399000Y-62436000D02*
X54399000Y-63222000D01*
X54399000Y-65302000D02*
X54399000Y-66088000D01*
X54439000Y-62477000D02*
X54439000Y-63222000D01*
X54439000Y-65302000D02*
X54439000Y-66047000D01*
X54479000Y-62519000D02*
X54479000Y-63222000D01*
X54479000Y-65302000D02*
X54479000Y-66005000D01*
X54519000Y-62563000D02*
X54519000Y-63222000D01*
X54519000Y-65302000D02*
X54519000Y-65961000D01*
X54559000Y-62609000D02*
X54559000Y-63222000D01*
X54559000Y-65302000D02*
X54559000Y-65915000D01*
X54599000Y-62657000D02*
X54599000Y-63222000D01*
X54599000Y-65302000D02*
X54599000Y-65867000D01*
X54639000Y-62708000D02*
X54639000Y-63222000D01*
X54639000Y-65302000D02*
X54639000Y-65816000D01*
X54679000Y-62762000D02*
X54679000Y-63222000D01*
X54679000Y-65302000D02*
X54679000Y-65762000D01*
X54719000Y-62819000D02*
X54719000Y-63222000D01*
X54719000Y-65302000D02*
X54719000Y-65705000D01*
X54759000Y-62879000D02*
X54759000Y-63222000D01*
X54759000Y-65302000D02*
X54759000Y-65645000D01*
X54799000Y-62943000D02*
X54799000Y-63222000D01*
X54799000Y-65302000D02*
X54799000Y-65581000D01*
X54839000Y-63011000D02*
X54839000Y-63222000D01*
X54839000Y-65302000D02*
X54839000Y-65513000D01*
X54879000Y-63084000D02*
X54879000Y-65440000D01*
X54919000Y-63164000D02*
X54919000Y-65360000D01*
X54959000Y-63251000D02*
X54959000Y-65273000D01*
X54999000Y-63347000D02*
X54999000Y-65177000D01*
X55039000Y-63457000D02*
X55039000Y-65067000D01*
X55079000Y-63585000D02*
X55079000Y-64939000D01*
X55119000Y-63744000D02*
X55119000Y-64780000D01*
X55159000Y-63978000D02*
X55159000Y-64546000D01*
X49753225Y-62787000D02*
X50253225Y-62787000D01*
X50003225Y-62537000D02*
X50003225Y-63037000D01*
%TO.C,U2*%
X85090000Y-66802000D02*
X85090000Y-61722000D01*
X85090000Y-61722000D02*
X55880000Y-61722000D01*
X55880000Y-61722000D02*
X55880000Y-66802000D01*
X55880000Y-66802000D02*
X85090000Y-66802000D01*
X80568800Y-62992000D02*
X80568800Y-65532000D01*
X80543400Y-65532000D02*
X60960000Y-65532000D01*
%TO.C,U5*%
X36830000Y-66174000D02*
X41910000Y-66174000D01*
X41910000Y-66174000D02*
X41910000Y-50934000D01*
X41910000Y-50934000D02*
X36830000Y-50934000D01*
X36830000Y-50934000D02*
X36830000Y-66174000D01*
X38100000Y-62364000D02*
X38100000Y-54744000D01*
X38100000Y-54744000D02*
X38100000Y-53474000D01*
X38100000Y-53474000D02*
X39598600Y-53474000D01*
%TO.C,U3*%
X36830000Y-48514000D02*
X41910000Y-48514000D01*
X41910000Y-48514000D02*
X41910000Y-33274000D01*
X41910000Y-33274000D02*
X36830000Y-33274000D01*
X36830000Y-33274000D02*
X36830000Y-48514000D01*
X38100000Y-44704000D02*
X38100000Y-37084000D01*
X38100000Y-37084000D02*
X38100000Y-35814000D01*
X38100000Y-35814000D02*
X39598600Y-35814000D01*
%TO.C,C1*%
D12*
X44029333Y-66397142D02*
X43981714Y-66444761D01*
X43838857Y-66492380D01*
X43743619Y-66492380D01*
X43600761Y-66444761D01*
X43505523Y-66349523D01*
X43457904Y-66254285D01*
X43410285Y-66063809D01*
X43410285Y-65920952D01*
X43457904Y-65730476D01*
X43505523Y-65635238D01*
X43600761Y-65540000D01*
X43743619Y-65492380D01*
X43838857Y-65492380D01*
X43981714Y-65540000D01*
X44029333Y-65587619D01*
X44981714Y-66492380D02*
X44410285Y-66492380D01*
X44696000Y-66492380D02*
X44696000Y-65492380D01*
X44600761Y-65635238D01*
X44505523Y-65730476D01*
X44410285Y-65778095D01*
%TO.C,M4*%
X36520380Y-54403523D02*
X35520380Y-54403523D01*
X36234666Y-54070190D01*
X35520380Y-53736857D01*
X36520380Y-53736857D01*
X35853714Y-52832095D02*
X36520380Y-52832095D01*
X35472761Y-53070190D02*
X36187047Y-53308285D01*
X36187047Y-52689238D01*
%TO.C,M3*%
X36774380Y-37131523D02*
X35774380Y-37131523D01*
X36488666Y-36798190D01*
X35774380Y-36464857D01*
X36774380Y-36464857D01*
X35774380Y-36083904D02*
X35774380Y-35464857D01*
X36155333Y-35798190D01*
X36155333Y-35655333D01*
X36202952Y-35560095D01*
X36250571Y-35512476D01*
X36345809Y-35464857D01*
X36583904Y-35464857D01*
X36679142Y-35512476D01*
X36726761Y-35560095D01*
X36774380Y-35655333D01*
X36774380Y-35941047D01*
X36726761Y-36036285D01*
X36679142Y-36083904D01*
%TO.C,M2*%
X96210380Y-40941523D02*
X95210380Y-40941523D01*
X95924666Y-40608190D01*
X95210380Y-40274857D01*
X96210380Y-40274857D01*
X95305619Y-39846285D02*
X95258000Y-39798666D01*
X95210380Y-39703428D01*
X95210380Y-39465333D01*
X95258000Y-39370095D01*
X95305619Y-39322476D01*
X95400857Y-39274857D01*
X95496095Y-39274857D01*
X95638952Y-39322476D01*
X96210380Y-39893904D01*
X96210380Y-39274857D01*
%TO.C,M1*%
X95956380Y-55673523D02*
X94956380Y-55673523D01*
X95670666Y-55340190D01*
X94956380Y-55006857D01*
X95956380Y-55006857D01*
X95956380Y-54006857D02*
X95956380Y-54578285D01*
X95956380Y-54292571D02*
X94956380Y-54292571D01*
X95099238Y-54387809D01*
X95194476Y-54483047D01*
X95242095Y-54578285D01*
%TO.C,R1*%
X43632380Y-58332666D02*
X43156190Y-58666000D01*
X43632380Y-58904095D02*
X42632380Y-58904095D01*
X42632380Y-58523142D01*
X42680000Y-58427904D01*
X42727619Y-58380285D01*
X42822857Y-58332666D01*
X42965714Y-58332666D01*
X43060952Y-58380285D01*
X43108571Y-58427904D01*
X43156190Y-58523142D01*
X43156190Y-58904095D01*
X43632380Y-57380285D02*
X43632380Y-57951714D01*
X43632380Y-57666000D02*
X42632380Y-57666000D01*
X42775238Y-57761238D01*
X42870476Y-57856476D01*
X42918095Y-57951714D01*
%TO.C,D1*%
X43556380Y-54332095D02*
X42556380Y-54332095D01*
X42556380Y-54094000D01*
X42604000Y-53951142D01*
X42699238Y-53855904D01*
X42794476Y-53808285D01*
X42984952Y-53760666D01*
X43127809Y-53760666D01*
X43318285Y-53808285D01*
X43413523Y-53855904D01*
X43508761Y-53951142D01*
X43556380Y-54094000D01*
X43556380Y-54332095D01*
X43556380Y-52808285D02*
X43556380Y-53379714D01*
X43556380Y-53094000D02*
X42556380Y-53094000D01*
X42699238Y-53189238D01*
X42794476Y-53284476D01*
X42842095Y-53379714D01*
%TO.C,C4*%
X100163333Y-64111142D02*
X100115714Y-64158761D01*
X99972857Y-64206380D01*
X99877619Y-64206380D01*
X99734761Y-64158761D01*
X99639523Y-64063523D01*
X99591904Y-63968285D01*
X99544285Y-63777809D01*
X99544285Y-63634952D01*
X99591904Y-63444476D01*
X99639523Y-63349238D01*
X99734761Y-63254000D01*
X99877619Y-63206380D01*
X99972857Y-63206380D01*
X100115714Y-63254000D01*
X100163333Y-63301619D01*
X101020476Y-63539714D02*
X101020476Y-64206380D01*
X100782380Y-63158761D02*
X100544285Y-63873047D01*
X101163333Y-63873047D01*
%TO.C,C3*%
X88967333Y-60615142D02*
X88919714Y-60662761D01*
X88776857Y-60710380D01*
X88681619Y-60710380D01*
X88538761Y-60662761D01*
X88443523Y-60567523D01*
X88395904Y-60472285D01*
X88348285Y-60281809D01*
X88348285Y-60138952D01*
X88395904Y-59948476D01*
X88443523Y-59853238D01*
X88538761Y-59758000D01*
X88681619Y-59710380D01*
X88776857Y-59710380D01*
X88919714Y-59758000D01*
X88967333Y-59805619D01*
X89300666Y-59710380D02*
X89919714Y-59710380D01*
X89586380Y-60091333D01*
X89729238Y-60091333D01*
X89824476Y-60138952D01*
X89872095Y-60186571D01*
X89919714Y-60281809D01*
X89919714Y-60519904D01*
X89872095Y-60615142D01*
X89824476Y-60662761D01*
X89729238Y-60710380D01*
X89443523Y-60710380D01*
X89348285Y-60662761D01*
X89300666Y-60615142D01*
%TO.C,C2*%
X51141333Y-66651142D02*
X51093714Y-66698761D01*
X50950857Y-66746380D01*
X50855619Y-66746380D01*
X50712761Y-66698761D01*
X50617523Y-66603523D01*
X50569904Y-66508285D01*
X50522285Y-66317809D01*
X50522285Y-66174952D01*
X50569904Y-65984476D01*
X50617523Y-65889238D01*
X50712761Y-65794000D01*
X50855619Y-65746380D01*
X50950857Y-65746380D01*
X51093714Y-65794000D01*
X51141333Y-65841619D01*
X51522285Y-65841619D02*
X51569904Y-65794000D01*
X51665142Y-65746380D01*
X51903238Y-65746380D01*
X51998476Y-65794000D01*
X52046095Y-65841619D01*
X52093714Y-65936857D01*
X52093714Y-66032095D01*
X52046095Y-66174952D01*
X51474666Y-66746380D01*
X52093714Y-66746380D01*
%TO.C,U2*%
X69088095Y-59904380D02*
X69088095Y-60713904D01*
X69135714Y-60809142D01*
X69183333Y-60856761D01*
X69278571Y-60904380D01*
X69469047Y-60904380D01*
X69564285Y-60856761D01*
X69611904Y-60809142D01*
X69659523Y-60713904D01*
X69659523Y-59904380D01*
X70088095Y-59999619D02*
X70135714Y-59952000D01*
X70230952Y-59904380D01*
X70469047Y-59904380D01*
X70564285Y-59952000D01*
X70611904Y-59999619D01*
X70659523Y-60094857D01*
X70659523Y-60190095D01*
X70611904Y-60332952D01*
X70040476Y-60904380D01*
X70659523Y-60904380D01*
X77311428Y-65984380D02*
X77311428Y-64984380D01*
X77692380Y-64984380D01*
X77787619Y-65032000D01*
X77835238Y-65079619D01*
X77882857Y-65174857D01*
X77882857Y-65317714D01*
X77835238Y-65412952D01*
X77787619Y-65460571D01*
X77692380Y-65508190D01*
X77311428Y-65508190D01*
X78311428Y-65984380D02*
X78311428Y-65317714D01*
X78311428Y-64984380D02*
X78263809Y-65032000D01*
X78311428Y-65079619D01*
X78359047Y-65032000D01*
X78311428Y-64984380D01*
X78311428Y-65079619D01*
X78787619Y-65317714D02*
X78787619Y-65984380D01*
X78787619Y-65412952D02*
X78835238Y-65365333D01*
X78930476Y-65317714D01*
X79073333Y-65317714D01*
X79168571Y-65365333D01*
X79216190Y-65460571D01*
X79216190Y-65984380D01*
X80216190Y-65984380D02*
X79644761Y-65984380D01*
X79930476Y-65984380D02*
X79930476Y-64984380D01*
X79835238Y-65127238D01*
X79740000Y-65222476D01*
X79644761Y-65270095D01*
X61658571Y-63444380D02*
X61087142Y-63444380D01*
X61372857Y-63444380D02*
X61372857Y-62444380D01*
X61277619Y-62587238D01*
X61182380Y-62682476D01*
X61087142Y-62730095D01*
X62039523Y-62539619D02*
X62087142Y-62492000D01*
X62182380Y-62444380D01*
X62420476Y-62444380D01*
X62515714Y-62492000D01*
X62563333Y-62539619D01*
X62610952Y-62634857D01*
X62610952Y-62730095D01*
X62563333Y-62872952D01*
X61991904Y-63444380D01*
X62610952Y-63444380D01*
X62944285Y-62777714D02*
X63182380Y-63444380D01*
X63420476Y-62777714D01*
X77311428Y-62444380D02*
X77930476Y-62444380D01*
X77597142Y-62825333D01*
X77740000Y-62825333D01*
X77835238Y-62872952D01*
X77882857Y-62920571D01*
X77930476Y-63015809D01*
X77930476Y-63253904D01*
X77882857Y-63349142D01*
X77835238Y-63396761D01*
X77740000Y-63444380D01*
X77454285Y-63444380D01*
X77359047Y-63396761D01*
X77311428Y-63349142D01*
X78359047Y-63349142D02*
X78406666Y-63396761D01*
X78359047Y-63444380D01*
X78311428Y-63396761D01*
X78359047Y-63349142D01*
X78359047Y-63444380D01*
X78740000Y-62444380D02*
X79359047Y-62444380D01*
X79025714Y-62825333D01*
X79168571Y-62825333D01*
X79263809Y-62872952D01*
X79311428Y-62920571D01*
X79359047Y-63015809D01*
X79359047Y-63253904D01*
X79311428Y-63349142D01*
X79263809Y-63396761D01*
X79168571Y-63444380D01*
X78882857Y-63444380D01*
X78787619Y-63396761D01*
X78740000Y-63349142D01*
X79692380Y-62777714D02*
X79930476Y-63444380D01*
X80168571Y-62777714D01*
%TO.C,U5*%
X35520380Y-57149904D02*
X36329904Y-57149904D01*
X36425142Y-57102285D01*
X36472761Y-57054666D01*
X36520380Y-56959428D01*
X36520380Y-56768952D01*
X36472761Y-56673714D01*
X36425142Y-56626095D01*
X36329904Y-56578476D01*
X35520380Y-56578476D01*
X35520380Y-55626095D02*
X35520380Y-56102285D01*
X35996571Y-56149904D01*
X35948952Y-56102285D01*
X35901333Y-56007047D01*
X35901333Y-55768952D01*
X35948952Y-55673714D01*
X35996571Y-55626095D01*
X36091809Y-55578476D01*
X36329904Y-55578476D01*
X36425142Y-55626095D01*
X36472761Y-55673714D01*
X36520380Y-55768952D01*
X36520380Y-56007047D01*
X36472761Y-56102285D01*
X36425142Y-56149904D01*
X41447980Y-56197971D02*
X40447980Y-56197971D01*
X40447980Y-55817019D01*
X40495600Y-55721780D01*
X40543219Y-55674161D01*
X40638457Y-55626542D01*
X40781314Y-55626542D01*
X40876552Y-55674161D01*
X40924171Y-55721780D01*
X40971790Y-55817019D01*
X40971790Y-56197971D01*
X41447980Y-55197971D02*
X40781314Y-55197971D01*
X40447980Y-55197971D02*
X40495600Y-55245590D01*
X40543219Y-55197971D01*
X40495600Y-55150352D01*
X40447980Y-55197971D01*
X40543219Y-55197971D01*
X40781314Y-54721780D02*
X41447980Y-54721780D01*
X40876552Y-54721780D02*
X40828933Y-54674161D01*
X40781314Y-54578923D01*
X40781314Y-54436066D01*
X40828933Y-54340828D01*
X40924171Y-54293209D01*
X41447980Y-54293209D01*
X40447980Y-53912257D02*
X40447980Y-53245590D01*
X41447980Y-53674161D01*
X41422580Y-63792571D02*
X40422580Y-63792571D01*
X40422580Y-63411619D01*
X40470200Y-63316380D01*
X40517819Y-63268761D01*
X40613057Y-63221142D01*
X40755914Y-63221142D01*
X40851152Y-63268761D01*
X40898771Y-63316380D01*
X40946390Y-63411619D01*
X40946390Y-63792571D01*
X41422580Y-62792571D02*
X40755914Y-62792571D01*
X40422580Y-62792571D02*
X40470200Y-62840190D01*
X40517819Y-62792571D01*
X40470200Y-62744952D01*
X40422580Y-62792571D01*
X40517819Y-62792571D01*
X40755914Y-62316380D02*
X41422580Y-62316380D01*
X40851152Y-62316380D02*
X40803533Y-62268761D01*
X40755914Y-62173523D01*
X40755914Y-62030666D01*
X40803533Y-61935428D01*
X40898771Y-61887809D01*
X41422580Y-61887809D01*
X41422580Y-60887809D02*
X41422580Y-61459238D01*
X41422580Y-61173523D02*
X40422580Y-61173523D01*
X40565438Y-61268761D01*
X40660676Y-61364000D01*
X40708295Y-61459238D01*
%TO.C,U3*%
X35520380Y-40893904D02*
X36329904Y-40893904D01*
X36425142Y-40846285D01*
X36472761Y-40798666D01*
X36520380Y-40703428D01*
X36520380Y-40512952D01*
X36472761Y-40417714D01*
X36425142Y-40370095D01*
X36329904Y-40322476D01*
X35520380Y-40322476D01*
X35520380Y-39941523D02*
X35520380Y-39322476D01*
X35901333Y-39655809D01*
X35901333Y-39512952D01*
X35948952Y-39417714D01*
X35996571Y-39370095D01*
X36091809Y-39322476D01*
X36329904Y-39322476D01*
X36425142Y-39370095D01*
X36472761Y-39417714D01*
X36520380Y-39512952D01*
X36520380Y-39798666D01*
X36472761Y-39893904D01*
X36425142Y-39941523D01*
X41447980Y-38537971D02*
X40447980Y-38537971D01*
X40447980Y-38157019D01*
X40495600Y-38061780D01*
X40543219Y-38014161D01*
X40638457Y-37966542D01*
X40781314Y-37966542D01*
X40876552Y-38014161D01*
X40924171Y-38061780D01*
X40971790Y-38157019D01*
X40971790Y-38537971D01*
X41447980Y-37537971D02*
X40781314Y-37537971D01*
X40447980Y-37537971D02*
X40495600Y-37585590D01*
X40543219Y-37537971D01*
X40495600Y-37490352D01*
X40447980Y-37537971D01*
X40543219Y-37537971D01*
X40781314Y-37061780D02*
X41447980Y-37061780D01*
X40876552Y-37061780D02*
X40828933Y-37014161D01*
X40781314Y-36918923D01*
X40781314Y-36776066D01*
X40828933Y-36680828D01*
X40924171Y-36633209D01*
X41447980Y-36633209D01*
X40447980Y-36252257D02*
X40447980Y-35585590D01*
X41447980Y-36014161D01*
X41422580Y-46132571D02*
X40422580Y-46132571D01*
X40422580Y-45751619D01*
X40470200Y-45656380D01*
X40517819Y-45608761D01*
X40613057Y-45561142D01*
X40755914Y-45561142D01*
X40851152Y-45608761D01*
X40898771Y-45656380D01*
X40946390Y-45751619D01*
X40946390Y-46132571D01*
X41422580Y-45132571D02*
X40755914Y-45132571D01*
X40422580Y-45132571D02*
X40470200Y-45180190D01*
X40517819Y-45132571D01*
X40470200Y-45084952D01*
X40422580Y-45132571D01*
X40517819Y-45132571D01*
X40755914Y-44656380D02*
X41422580Y-44656380D01*
X40851152Y-44656380D02*
X40803533Y-44608761D01*
X40755914Y-44513523D01*
X40755914Y-44370666D01*
X40803533Y-44275428D01*
X40898771Y-44227809D01*
X41422580Y-44227809D01*
X41422580Y-43227809D02*
X41422580Y-43799238D01*
X41422580Y-43513523D02*
X40422580Y-43513523D01*
X40565438Y-43608761D01*
X40660676Y-43704000D01*
X40708295Y-43799238D01*
%TD*%
M02*
