%TF.GenerationSoftware,KiCad,Pcbnew,(5.1.10)-1*%
%TF.CreationDate,2021-07-14T07:55:42+08:00*%
%TF.ProjectId,2.5_SAS_Backend,322e355f-5341-4535-9f42-61636b656e64,rev?*%
%TF.SameCoordinates,Original*%
%TF.FileFunction,Copper,L2,Bot*%
%TF.FilePolarity,Positive*%
%FSLAX46Y46*%
G04 Gerber Fmt 4.6, Leading zero omitted, Abs format (unit mm)*
G04 Created by KiCad (PCBNEW (5.1.10)-1) date 2021-07-14 07:55:42*
%MOMM*%
%LPD*%
G01*
G04 APERTURE LIST*
%TA.AperFunction,ComponentPad*%
%ADD10C,1.600000*%
%TD*%
%TA.AperFunction,ComponentPad*%
%ADD11R,1.600000X1.600000*%
%TD*%
%TA.AperFunction,ComponentPad*%
%ADD12R,2.030000X1.730000*%
%TD*%
%TA.AperFunction,ComponentPad*%
%ADD13O,2.030000X1.730000*%
%TD*%
%TA.AperFunction,ComponentPad*%
%ADD14C,0.700000*%
%TD*%
%TA.AperFunction,WasherPad*%
%ADD15C,2.540000*%
%TD*%
%TA.AperFunction,WasherPad*%
%ADD16C,1.500000*%
%TD*%
%TA.AperFunction,ComponentPad*%
%ADD17C,0.750000*%
%TD*%
%TA.AperFunction,SMDPad,CuDef*%
%ADD18R,2.600000X2.600000*%
%TD*%
%TA.AperFunction,SMDPad,CuDef*%
%ADD19R,0.600000X2.530000*%
%TD*%
%TA.AperFunction,SMDPad,CuDef*%
%ADD20R,0.500000X2.530000*%
%TD*%
%TA.AperFunction,ViaPad*%
%ADD21C,3.100000*%
%TD*%
%TA.AperFunction,ViaPad*%
%ADD22C,0.800000*%
%TD*%
%TA.AperFunction,Conductor*%
%ADD23C,0.750000*%
%TD*%
%TA.AperFunction,Conductor*%
%ADD24C,0.250000*%
%TD*%
%TA.AperFunction,Conductor*%
%ADD25C,0.200000*%
%TD*%
%TA.AperFunction,Conductor*%
%ADD26C,0.254000*%
%TD*%
%TA.AperFunction,Conductor*%
%ADD27C,0.100000*%
%TD*%
G04 APERTURE END LIST*
D10*
%TO.P,C1,2*%
%TO.N,GND*%
X47204000Y-64262000D03*
D11*
%TO.P,C1,1*%
%TO.N,+5V*%
X44704000Y-64262000D03*
%TD*%
D12*
%TO.P,M4,1*%
%TO.N,GND*%
X33782000Y-60452000D03*
D13*
%TO.P,M4,2*%
%TO.N,+12V*%
X33782000Y-57912000D03*
%TO.P,M4,3*%
%TO.N,N/C*%
X33782000Y-55372000D03*
%TO.P,M4,4*%
X33782000Y-52832000D03*
%TD*%
D12*
%TO.P,M3,1*%
%TO.N,GND*%
X33782000Y-42926000D03*
D13*
%TO.P,M3,2*%
%TO.N,+12V*%
X33782000Y-40386000D03*
%TO.P,M3,3*%
%TO.N,N/C*%
X33782000Y-37846000D03*
%TO.P,M3,4*%
X33782000Y-35306000D03*
%TD*%
D12*
%TO.P,M2,1*%
%TO.N,GND*%
X98298000Y-35560000D03*
D13*
%TO.P,M2,2*%
%TO.N,+5V*%
X98298000Y-38100000D03*
%TO.P,M2,3*%
%TO.N,N/C*%
X98298000Y-40640000D03*
%TO.P,M2,4*%
X98298000Y-43180000D03*
%TD*%
D12*
%TO.P,M1,1*%
%TO.N,GND*%
X98298000Y-51308000D03*
D13*
%TO.P,M1,2*%
%TO.N,+5V*%
X98298000Y-53848000D03*
%TO.P,M1,3*%
%TO.N,N/C*%
X98298000Y-56388000D03*
%TO.P,M1,4*%
X98298000Y-58928000D03*
%TD*%
D10*
%TO.P,C4,2*%
%TO.N,GND*%
X97242000Y-63754000D03*
D11*
%TO.P,C4,1*%
%TO.N,+12V*%
X94742000Y-63754000D03*
%TD*%
D10*
%TO.P,C3,2*%
%TO.N,GND*%
X90384000Y-64008000D03*
D11*
%TO.P,C3,1*%
%TO.N,+12V*%
X87884000Y-64008000D03*
%TD*%
D10*
%TO.P,C2,2*%
%TO.N,GND*%
X53808000Y-64262000D03*
D11*
%TO.P,C2,1*%
%TO.N,+5V*%
X51308000Y-64262000D03*
%TD*%
D14*
%TO.P,U2,14*%
%TO.N,+12V*%
X62680000Y-64262000D03*
%TO.P,U2,13*%
X63950000Y-64262000D03*
%TO.P,U2,15*%
X61410000Y-64262000D03*
%TO.P,U2,10*%
%TO.N,GND*%
X67760000Y-64262000D03*
%TO.P,U2,12*%
X65220000Y-64262000D03*
%TO.P,U2,11*%
%TO.N,N/C*%
X66490000Y-64262000D03*
%TO.P,U2,9*%
%TO.N,+5V*%
X69030000Y-64262000D03*
%TO.P,U2,8*%
X70300000Y-64262000D03*
%TO.P,U2,7*%
X71570000Y-64262000D03*
%TO.P,U2,6*%
%TO.N,GND*%
X72840000Y-64262000D03*
%TO.P,U2,5*%
X74110000Y-64262000D03*
%TO.P,U2,4*%
X75380000Y-64262000D03*
%TO.P,U2,3*%
%TO.N,N/C*%
X76650000Y-64262000D03*
%TO.P,U2,2*%
%TO.N,+3V3*%
X77920000Y-64262000D03*
%TO.P,U2,1*%
X79190000Y-64262000D03*
D15*
%TO.P,U2,*%
%TO.N,*%
X58140600Y-64262000D03*
X82550000Y-64262000D03*
%TD*%
D16*
%TO.P,U5,*%
%TO.N,*%
X39370000Y-52084000D03*
X39370000Y-65024000D03*
D17*
%TO.P,U5,7*%
%TO.N,GND*%
X39870000Y-54744000D03*
%TO.P,U5,6*%
%TO.N,/S2_RXD_P*%
X38870000Y-56014000D03*
%TO.P,U5,5*%
%TO.N,/S2_RXD_N*%
X38870000Y-57284000D03*
%TO.P,U5,4*%
%TO.N,GND*%
X39870000Y-58554000D03*
%TO.P,U5,3*%
%TO.N,/S2_TXD_N*%
X38870000Y-59824000D03*
%TO.P,U5,2*%
%TO.N,/S2_TXD_P*%
X38870000Y-61094000D03*
%TO.P,U5,1*%
%TO.N,GND*%
X39870000Y-62364000D03*
%TD*%
D16*
%TO.P,U3,*%
%TO.N,*%
X39370000Y-34424000D03*
X39370000Y-47364000D03*
D17*
%TO.P,U3,7*%
%TO.N,GND*%
X39870000Y-37084000D03*
%TO.P,U3,6*%
%TO.N,/S1_RXD_P*%
X38870000Y-38354000D03*
%TO.P,U3,5*%
%TO.N,/S1_RXD_N*%
X38870000Y-39624000D03*
%TO.P,U3,4*%
%TO.N,GND*%
X39870000Y-40894000D03*
%TO.P,U3,3*%
%TO.N,/S1_TXD_N*%
X38870000Y-42164000D03*
%TO.P,U3,2*%
%TO.N,/S1_TXD_P*%
X38870000Y-43434000D03*
%TO.P,U3,1*%
%TO.N,GND*%
X39870000Y-44704000D03*
%TD*%
D18*
%TO.P,U4,*%
%TO.N,*%
X93630000Y-55880000D03*
X49880000Y-55880000D03*
D19*
%TO.P,U4,1*%
%TO.N,GND*%
X87630000Y-57710000D03*
%TO.P,U4,2*%
%TO.N,/S2_TXD_P*%
X86360000Y-57710000D03*
%TO.P,U4,3*%
%TO.N,/S2_TXD_N*%
X85090000Y-57710000D03*
%TO.P,U4,4*%
%TO.N,GND*%
X83820000Y-57710000D03*
%TO.P,U4,5*%
%TO.N,/S2_RXD_N*%
X82550000Y-57710000D03*
%TO.P,U4,6*%
%TO.N,/S2_RXD_P*%
X81280000Y-57710000D03*
%TO.P,U4,7*%
%TO.N,GND*%
X80010000Y-57710000D03*
D20*
%TO.P,U4,8*%
%TO.N,N/C*%
X79235000Y-53040000D03*
%TO.P,U4,9*%
X78435000Y-53040000D03*
%TO.P,U4,10*%
X77635000Y-53040000D03*
%TO.P,U4,11*%
X76835000Y-53040000D03*
%TO.P,U4,12*%
X76035000Y-53040000D03*
%TO.P,U4,13*%
X75235000Y-53040000D03*
%TO.P,U4,14*%
X74435000Y-53040000D03*
D19*
%TO.P,U4,15*%
%TO.N,+3V3*%
X73660000Y-57710000D03*
%TO.P,U4,16*%
X72390000Y-57710000D03*
%TO.P,U4,17*%
%TO.N,N/C*%
X71120000Y-57710000D03*
%TO.P,U4,18*%
%TO.N,GND*%
X69850000Y-57710000D03*
%TO.P,U4,19*%
X68580000Y-57710000D03*
%TO.P,U4,20*%
X67310000Y-57710000D03*
%TO.P,U4,21*%
%TO.N,+5V*%
X66040000Y-57710000D03*
%TO.P,U4,22*%
X64770000Y-57710000D03*
%TO.P,U4,23*%
X63500000Y-57710000D03*
%TO.P,U4,24*%
%TO.N,GND*%
X62230000Y-57710000D03*
%TO.P,U4,25*%
X60960000Y-57710000D03*
%TO.P,U4,26*%
X59690000Y-57710000D03*
%TO.P,U4,27*%
%TO.N,+12V*%
X58420000Y-57710000D03*
%TO.P,U4,28*%
X57150000Y-57710000D03*
%TO.P,U4,29*%
X55880000Y-57710000D03*
%TD*%
D18*
%TO.P,U1,*%
%TO.N,*%
X93630000Y-37084000D03*
X49880000Y-37084000D03*
D19*
%TO.P,U1,1*%
%TO.N,GND*%
X87630000Y-38914000D03*
%TO.P,U1,2*%
%TO.N,/S1_TXD_P*%
X86360000Y-38914000D03*
%TO.P,U1,3*%
%TO.N,/S1_TXD_N*%
X85090000Y-38914000D03*
%TO.P,U1,4*%
%TO.N,GND*%
X83820000Y-38914000D03*
%TO.P,U1,5*%
%TO.N,/S1_RXD_N*%
X82550000Y-38914000D03*
%TO.P,U1,6*%
%TO.N,/S1_RXD_P*%
X81280000Y-38914000D03*
%TO.P,U1,7*%
%TO.N,GND*%
X80010000Y-38914000D03*
D20*
%TO.P,U1,8*%
%TO.N,N/C*%
X79235000Y-34244000D03*
%TO.P,U1,9*%
X78435000Y-34244000D03*
%TO.P,U1,10*%
X77635000Y-34244000D03*
%TO.P,U1,11*%
X76835000Y-34244000D03*
%TO.P,U1,12*%
X76035000Y-34244000D03*
%TO.P,U1,13*%
X75235000Y-34244000D03*
%TO.P,U1,14*%
X74435000Y-34244000D03*
D19*
%TO.P,U1,15*%
%TO.N,+3V3*%
X73660000Y-38914000D03*
%TO.P,U1,16*%
X72390000Y-38914000D03*
%TO.P,U1,17*%
%TO.N,N/C*%
X71120000Y-38914000D03*
%TO.P,U1,18*%
%TO.N,GND*%
X69850000Y-38914000D03*
%TO.P,U1,19*%
X68580000Y-38914000D03*
%TO.P,U1,20*%
X67310000Y-38914000D03*
%TO.P,U1,21*%
%TO.N,+5V*%
X66040000Y-38914000D03*
%TO.P,U1,22*%
X64770000Y-38914000D03*
%TO.P,U1,23*%
X63500000Y-38914000D03*
%TO.P,U1,24*%
%TO.N,GND*%
X62230000Y-38914000D03*
%TO.P,U1,25*%
X60960000Y-38914000D03*
%TO.P,U1,26*%
X59690000Y-38914000D03*
%TO.P,U1,27*%
%TO.N,+12V*%
X58420000Y-38914000D03*
%TO.P,U1,28*%
X57150000Y-38914000D03*
%TO.P,U1,29*%
X55880000Y-38914000D03*
%TD*%
D21*
%TO.N,*%
X34290000Y-46990000D03*
X99060000Y-47498000D03*
X34290000Y-64770000D03*
D22*
%TO.N,+12V*%
X61468000Y-62992000D03*
X58674000Y-59690000D03*
%TO.N,GND*%
X58420000Y-55118000D03*
X65532000Y-53848000D03*
X76200000Y-55626000D03*
X77724000Y-57150000D03*
X64516000Y-62738000D03*
%TO.N,+5V*%
X68326000Y-62992000D03*
X66294000Y-59690000D03*
X64262000Y-65532000D03*
X91186000Y-59944000D03*
%TO.N,+3V3*%
X76708000Y-62738000D03*
X74168000Y-59690000D03*
%TO.N,/S1_TXD_P*%
X75347319Y-41033135D03*
%TO.N,/S1_TXD_N*%
X74604855Y-40290671D03*
%TO.N,/S1_RXD_N*%
X81905232Y-35696768D03*
%TO.N,/S1_RXD_P*%
X81162768Y-36439232D03*
%TD*%
D23*
%TO.N,+12V*%
X61410000Y-64262000D02*
X62680000Y-64262000D01*
X62680000Y-64262000D02*
X63950000Y-64262000D01*
X61410000Y-63050000D02*
X61468000Y-62992000D01*
X61410000Y-64262000D02*
X61410000Y-63050000D01*
X55880000Y-59690000D02*
X55880000Y-57710000D01*
X58674000Y-59690000D02*
X55880000Y-59690000D01*
X55880000Y-57710000D02*
X57150000Y-57710000D01*
X57150000Y-57710000D02*
X58420000Y-57710000D01*
D24*
X61410000Y-64262000D02*
X63442000Y-66294000D01*
X85598000Y-66294000D02*
X87884000Y-64008000D01*
X63442000Y-66294000D02*
X85598000Y-66294000D01*
X87884000Y-64008000D02*
X87884000Y-65532000D01*
X87884000Y-65532000D02*
X88646000Y-66294000D01*
X88646000Y-66294000D02*
X93726000Y-66294000D01*
X94742000Y-65278000D02*
X94742000Y-63754000D01*
X93726000Y-66294000D02*
X94742000Y-65278000D01*
D23*
X55880000Y-57710000D02*
X54050000Y-57710000D01*
X54050000Y-57710000D02*
X53340000Y-58420000D01*
X45468808Y-58420000D02*
X41910000Y-54861192D01*
X53340000Y-58420000D02*
X45468808Y-58420000D01*
X41910000Y-35560000D02*
X43180000Y-34290000D01*
X55880000Y-36899000D02*
X55880000Y-38914000D01*
X53271000Y-34290000D02*
X55880000Y-36899000D01*
X43180000Y-34290000D02*
X53271000Y-34290000D01*
X55880000Y-38914000D02*
X57150000Y-38914000D01*
X57150000Y-38914000D02*
X58420000Y-38914000D01*
D24*
X33782000Y-40386000D02*
X34036000Y-40386000D01*
X34036000Y-40386000D02*
X38354000Y-36068000D01*
D23*
X41910000Y-36068000D02*
X41910000Y-35560000D01*
D24*
X38354000Y-36068000D02*
X41910000Y-36068000D01*
D23*
X41910000Y-54861192D02*
X41910000Y-36068000D01*
D24*
X33782000Y-57912000D02*
X34036000Y-57912000D01*
%TO.N,GND*%
X80010000Y-56195000D02*
X80325000Y-55880000D01*
X80010000Y-57710000D02*
X80010000Y-56195000D01*
X83505000Y-55880000D02*
X83820000Y-56195000D01*
X80325000Y-55880000D02*
X83505000Y-55880000D01*
X83820000Y-56195000D02*
X83820000Y-57710000D01*
X83820000Y-56195000D02*
X84135000Y-55880000D01*
X87630000Y-56195000D02*
X87630000Y-57710000D01*
X87315000Y-55880000D02*
X87630000Y-56195000D01*
X84135000Y-55880000D02*
X87315000Y-55880000D01*
X72840000Y-64262000D02*
X74110000Y-64262000D01*
X74110000Y-64262000D02*
X75380000Y-64262000D01*
X90384000Y-60464000D02*
X87630000Y-57710000D01*
X90384000Y-64008000D02*
X90384000Y-60464000D01*
X97790000Y-63206000D02*
X97242000Y-63754000D01*
X97790000Y-60960000D02*
X97790000Y-63206000D01*
X91440000Y-60960000D02*
X97790000Y-60960000D01*
X90384000Y-62016000D02*
X91440000Y-60960000D01*
X90384000Y-64008000D02*
X90384000Y-62016000D01*
D23*
X59690000Y-38914000D02*
X60960000Y-38914000D01*
X60960000Y-38914000D02*
X62230000Y-38914000D01*
X68580000Y-38914000D02*
X69850000Y-38914000D01*
X67310000Y-38914000D02*
X68580000Y-38914000D01*
X59690000Y-57710000D02*
X60960000Y-57710000D01*
X60960000Y-57710000D02*
X62230000Y-57710000D01*
X67310000Y-57710000D02*
X68580000Y-57710000D01*
X68580000Y-57710000D02*
X69544000Y-57710000D01*
D24*
X69544000Y-57710000D02*
X69850000Y-57710000D01*
D23*
X62230000Y-38914000D02*
X62230000Y-36576000D01*
X62230000Y-36576000D02*
X62738000Y-36068000D01*
X67310000Y-36899000D02*
X67310000Y-38914000D01*
X66479000Y-36068000D02*
X67310000Y-36899000D01*
X62738000Y-36068000D02*
X66479000Y-36068000D01*
D24*
X79502000Y-36576000D02*
X81534000Y-34544000D01*
X97282000Y-34544000D02*
X98298000Y-35560000D01*
X69850000Y-36576000D02*
X79502000Y-36576000D01*
X68580000Y-37846000D02*
X69850000Y-36576000D01*
X68580000Y-38914000D02*
X68580000Y-37846000D01*
X87630000Y-38914000D02*
X87630000Y-34798000D01*
X87630000Y-34798000D02*
X87884000Y-34544000D01*
X87884000Y-34544000D02*
X97282000Y-34544000D01*
X83820000Y-35560000D02*
X84836000Y-34544000D01*
X83820000Y-38914000D02*
X83820000Y-35560000D01*
X84836000Y-34544000D02*
X87884000Y-34544000D01*
X81534000Y-34544000D02*
X84836000Y-34544000D01*
X80010000Y-37084000D02*
X79502000Y-36576000D01*
X80010000Y-38914000D02*
X80010000Y-37084000D01*
D23*
X59690000Y-56388000D02*
X58420000Y-55118000D01*
X59690000Y-57710000D02*
X59690000Y-56388000D01*
X67310000Y-57710000D02*
X67310000Y-55626000D01*
X67310000Y-55626000D02*
X65532000Y-53848000D01*
D24*
X39870000Y-37084000D02*
X38354000Y-37084000D01*
X38354000Y-37084000D02*
X37084000Y-38354000D01*
X37084000Y-38354000D02*
X37084000Y-40640000D01*
X39616000Y-40640000D02*
X39870000Y-40894000D01*
X37084000Y-40640000D02*
X39616000Y-40640000D01*
X37084000Y-40640000D02*
X37084000Y-43942000D01*
X37846000Y-44704000D02*
X39870000Y-44704000D01*
X37084000Y-43942000D02*
X37846000Y-44704000D01*
X37084000Y-43942000D02*
X37084000Y-53340000D01*
X38488000Y-54744000D02*
X39870000Y-54744000D01*
X37084000Y-53340000D02*
X38488000Y-54744000D01*
X37084000Y-53340000D02*
X37084000Y-57912000D01*
X37726000Y-58554000D02*
X39870000Y-58554000D01*
X37084000Y-57912000D02*
X37726000Y-58554000D01*
X37084000Y-57912000D02*
X37084000Y-61722000D01*
X37726000Y-62364000D02*
X39870000Y-62364000D01*
X37084000Y-61722000D02*
X37726000Y-62364000D01*
X52284000Y-62738000D02*
X53808000Y-64262000D01*
X48728000Y-62738000D02*
X52284000Y-62738000D01*
X47204000Y-64262000D02*
X48728000Y-62738000D01*
X47204000Y-64262000D02*
X47204000Y-62952000D01*
X47204000Y-62952000D02*
X46736000Y-62484000D01*
X39990000Y-62484000D02*
X39870000Y-62364000D01*
X46736000Y-62484000D02*
X39990000Y-62484000D01*
X67310000Y-55626000D02*
X76200000Y-55626000D01*
X79450000Y-57150000D02*
X80010000Y-57710000D01*
X77724000Y-57150000D02*
X79450000Y-57150000D01*
X72840000Y-64262000D02*
X72840000Y-64574000D01*
D23*
X67760000Y-64162998D02*
X67760000Y-64262000D01*
X66934001Y-63336999D02*
X67760000Y-64162998D01*
X66045999Y-63336999D02*
X66934001Y-63336999D01*
X65220000Y-64162998D02*
X66045999Y-63336999D01*
X65220000Y-64262000D02*
X65220000Y-64162998D01*
X65114999Y-63336999D02*
X64516000Y-62738000D01*
X66045999Y-63336999D02*
X65114999Y-63336999D01*
D24*
X35814000Y-60452000D02*
X37084000Y-61722000D01*
X33782000Y-60452000D02*
X35814000Y-60452000D01*
X36068000Y-42926000D02*
X37084000Y-43942000D01*
X33782000Y-42926000D02*
X36068000Y-42926000D01*
D23*
%TO.N,+5V*%
X69030000Y-64262000D02*
X70300000Y-64262000D01*
X70300000Y-64262000D02*
X71570000Y-64262000D01*
X69030000Y-63696000D02*
X68326000Y-62992000D01*
X69030000Y-64262000D02*
X69030000Y-63696000D01*
X63500000Y-57710000D02*
X63500000Y-59690000D01*
X64770000Y-59690000D02*
X64770000Y-57710000D01*
X66294000Y-59690000D02*
X64770000Y-59690000D01*
X64770000Y-59690000D02*
X63500000Y-59690000D01*
X64770000Y-57710000D02*
X66040000Y-57710000D01*
D24*
X69030000Y-64262000D02*
X67760000Y-65532000D01*
X67760000Y-65532000D02*
X64262000Y-65532000D01*
D23*
X63281000Y-41148000D02*
X63500000Y-40929000D01*
X43434000Y-41402000D02*
X43688000Y-41148000D01*
X43434000Y-51816000D02*
X43434000Y-41402000D01*
X44958000Y-53340000D02*
X43434000Y-51816000D01*
X43688000Y-41148000D02*
X63281000Y-41148000D01*
X61145000Y-53340000D02*
X44958000Y-53340000D01*
X63500000Y-55695000D02*
X61145000Y-53340000D01*
X63500000Y-40929000D02*
X63500000Y-38914000D01*
X63500000Y-57710000D02*
X63500000Y-55695000D01*
X63500000Y-38914000D02*
X64770000Y-38914000D01*
X64770000Y-38914000D02*
X66040000Y-38914000D01*
D24*
X98298000Y-38100000D02*
X97790000Y-38100000D01*
X97790000Y-38100000D02*
X96520000Y-39370000D01*
X96520000Y-39370000D02*
X96520000Y-52832000D01*
X97282000Y-52832000D02*
X98298000Y-53848000D01*
X96520000Y-52832000D02*
X97282000Y-52832000D01*
X96520000Y-56175002D02*
X92751002Y-59944000D01*
X96520000Y-52832000D02*
X96520000Y-56175002D01*
X92751002Y-59944000D02*
X91186000Y-59944000D01*
D23*
%TO.N,+3V3*%
X77920000Y-63950000D02*
X76708000Y-62738000D01*
X77920000Y-64262000D02*
X77920000Y-63950000D01*
X72390000Y-59690000D02*
X72390000Y-57710000D01*
X73660000Y-59690000D02*
X73660000Y-57710000D01*
X74168000Y-59690000D02*
X73660000Y-59690000D01*
X73660000Y-59690000D02*
X72390000Y-59690000D01*
X72390000Y-38914000D02*
X73660000Y-38914000D01*
X73660000Y-57710000D02*
X73660000Y-57658000D01*
D24*
X73660000Y-57710000D02*
X75386000Y-57710000D01*
X75386000Y-57710000D02*
X77978000Y-55118000D01*
X89154000Y-55118000D02*
X91948000Y-52324000D01*
X77978000Y-55118000D02*
X89154000Y-55118000D01*
X91948000Y-52324000D02*
X95758000Y-52324000D01*
X95758000Y-52324000D02*
X96012000Y-52070000D01*
X96012000Y-52070000D02*
X96012000Y-42685012D01*
X95236988Y-41910000D02*
X95243494Y-41916506D01*
X96012000Y-42685012D02*
X95243494Y-41916506D01*
X73660000Y-38914000D02*
X73660000Y-40429000D01*
X73660000Y-40429000D02*
X73660000Y-40640000D01*
X73660000Y-40640000D02*
X74930000Y-41910000D01*
X74930000Y-41910000D02*
X95250000Y-41910000D01*
D25*
%TO.N,/S1_TXD_P*%
X86360000Y-38914000D02*
X85910000Y-39364000D01*
X75354837Y-40601352D02*
X75354837Y-40650663D01*
X75354837Y-40650663D02*
X75347319Y-40658181D01*
X85910000Y-39364000D02*
X85910000Y-40199002D01*
X85910000Y-40199002D02*
X85180010Y-40928992D01*
X76592189Y-39364000D02*
X75354837Y-40601352D01*
X85180010Y-40928992D02*
X79283607Y-40928992D01*
X79283607Y-40928992D02*
X77718615Y-39364000D01*
X77718615Y-39364000D02*
X76592189Y-39364000D01*
X75347319Y-40658181D02*
X75347319Y-41033135D01*
%TO.N,/S1_TXD_N*%
X74979809Y-40290671D02*
X74604855Y-40290671D01*
X75036638Y-40283153D02*
X74987327Y-40283153D01*
X76405791Y-38914000D02*
X75036638Y-40283153D01*
X79469999Y-40479001D02*
X77904998Y-38914000D01*
X77904998Y-38914000D02*
X76405791Y-38914000D01*
X84360001Y-40479001D02*
X79469999Y-40479001D01*
X84420001Y-40419001D02*
X84360001Y-40479001D01*
X85090000Y-38914000D02*
X84420001Y-38914000D01*
X84420001Y-38914000D02*
X84420001Y-40419001D01*
X74987327Y-40283153D02*
X74979809Y-40290671D01*
%TO.N,/S1_RXD_N*%
X82550000Y-37949000D02*
X82140000Y-37539000D01*
X82550000Y-38914000D02*
X82550000Y-37949000D01*
X82140000Y-37539000D02*
X82140000Y-36355801D01*
X81905232Y-36121033D02*
X81905232Y-35696768D01*
X82140000Y-36355801D02*
X81905232Y-36121033D01*
%TO.N,/S1_RXD_P*%
X81280000Y-37949000D02*
X81690000Y-37539000D01*
X81280000Y-38914000D02*
X81280000Y-37949000D01*
X81587033Y-36439232D02*
X81162768Y-36439232D01*
X81690000Y-36542199D02*
X81587033Y-36439232D01*
X81690000Y-37539000D02*
X81690000Y-36542199D01*
%TO.N,/S2_TXD_P*%
X86360000Y-57710000D02*
X86360000Y-59607501D01*
X85950000Y-60017501D02*
X85950000Y-61434200D01*
X39280000Y-60684000D02*
X38870000Y-61094000D01*
X85950000Y-61434200D02*
X85437200Y-61947000D01*
X85437200Y-61947000D02*
X43594800Y-61947000D01*
X43594800Y-61947000D02*
X42331800Y-60684000D01*
X42331800Y-60684000D02*
X39280000Y-60684000D01*
X86360000Y-59607501D02*
X85950000Y-60017501D01*
%TO.N,/S2_TXD_N*%
X43781200Y-61497000D02*
X42518200Y-60234000D01*
X39280000Y-60234000D02*
X38870000Y-59824000D01*
X42518200Y-60234000D02*
X39280000Y-60234000D01*
X85090000Y-57710000D02*
X85090000Y-59607501D01*
X85090000Y-59607501D02*
X85500000Y-60017501D01*
X85500000Y-60017501D02*
X85500000Y-61247800D01*
X85500000Y-61247800D02*
X85250800Y-61497000D01*
X85250800Y-61497000D02*
X43781200Y-61497000D01*
%TO.N,/S2_RXD_N*%
X82140000Y-59085000D02*
X82140000Y-60164200D01*
X82550000Y-58675000D02*
X82140000Y-59085000D01*
X82550000Y-57710000D02*
X82550000Y-58675000D01*
X82140000Y-60164200D02*
X81373200Y-60931000D01*
X81373200Y-60931000D02*
X46388800Y-60931000D01*
X39280000Y-56874000D02*
X38870000Y-57284000D01*
X42331800Y-56874000D02*
X39280000Y-56874000D01*
X46388800Y-60931000D02*
X42331800Y-56874000D01*
%TO.N,/S2_RXD_P*%
X81690000Y-59085000D02*
X81690000Y-59977800D01*
X81280000Y-58675000D02*
X81690000Y-59085000D01*
X81280000Y-57710000D02*
X81280000Y-58675000D01*
X81690000Y-59977800D02*
X81186800Y-60481000D01*
X81186800Y-60481000D02*
X46575200Y-60481000D01*
X39280000Y-56424000D02*
X38870000Y-56014000D01*
X42518200Y-56424000D02*
X39280000Y-56424000D01*
X46575200Y-60481000D02*
X42518200Y-56424000D01*
%TD*%
D26*
%TO.N,GND*%
X38861265Y-36972433D02*
X38858882Y-37171372D01*
X38891076Y-37344000D01*
X38770524Y-37344000D01*
X38575394Y-37382814D01*
X38391586Y-37458950D01*
X38226163Y-37569482D01*
X38085482Y-37710163D01*
X37974950Y-37875586D01*
X37898814Y-38059394D01*
X37860000Y-38254524D01*
X37860000Y-38453476D01*
X37898814Y-38648606D01*
X37974950Y-38832414D01*
X38079577Y-38989000D01*
X37974950Y-39145586D01*
X37898814Y-39329394D01*
X37860000Y-39524524D01*
X37860000Y-39723476D01*
X37898814Y-39918606D01*
X37974950Y-40102414D01*
X38085482Y-40267837D01*
X38226163Y-40408518D01*
X38391586Y-40519050D01*
X38575394Y-40595186D01*
X38770524Y-40634000D01*
X38892643Y-40634000D01*
X38861265Y-40782433D01*
X38858882Y-40981372D01*
X38891076Y-41154000D01*
X38770524Y-41154000D01*
X38575394Y-41192814D01*
X38391586Y-41268950D01*
X38226163Y-41379482D01*
X38085482Y-41520163D01*
X37974950Y-41685586D01*
X37898814Y-41869394D01*
X37860000Y-42064524D01*
X37860000Y-42263476D01*
X37898814Y-42458606D01*
X37974950Y-42642414D01*
X38079577Y-42799000D01*
X37974950Y-42955586D01*
X37898814Y-43139394D01*
X37860000Y-43334524D01*
X37860000Y-43533476D01*
X37898814Y-43728606D01*
X37974950Y-43912414D01*
X38085482Y-44077837D01*
X38226163Y-44218518D01*
X38391586Y-44329050D01*
X38575394Y-44405186D01*
X38770524Y-44444000D01*
X38892643Y-44444000D01*
X38861265Y-44592433D01*
X38858882Y-44791372D01*
X38895356Y-44986952D01*
X38969285Y-45171659D01*
X38980745Y-45193101D01*
X39181515Y-45212880D01*
X39690395Y-44704000D01*
X40049605Y-44704000D01*
X40558485Y-45212880D01*
X40759255Y-45193101D01*
X40837587Y-45010218D01*
X40878735Y-44815567D01*
X40881118Y-44616628D01*
X40844644Y-44421048D01*
X40770715Y-44236341D01*
X40759255Y-44214899D01*
X40558485Y-44195120D01*
X40049605Y-44704000D01*
X39690395Y-44704000D01*
X39676253Y-44689858D01*
X39855858Y-44510253D01*
X39870000Y-44524395D01*
X40378880Y-44015515D01*
X40359101Y-43814745D01*
X40176218Y-43736413D01*
X39981567Y-43695265D01*
X39848136Y-43693667D01*
X39880000Y-43533476D01*
X39880000Y-43334524D01*
X39841186Y-43139394D01*
X39765050Y-42955586D01*
X39660423Y-42799000D01*
X39765050Y-42642414D01*
X39841186Y-42458606D01*
X39880000Y-42263476D01*
X39880000Y-42064524D01*
X39848031Y-41903808D01*
X39957372Y-41905118D01*
X40152952Y-41868644D01*
X40337659Y-41794715D01*
X40359101Y-41783255D01*
X40378880Y-41582485D01*
X39870000Y-41073605D01*
X39855858Y-41087748D01*
X39676253Y-40908143D01*
X39690395Y-40894000D01*
X40049605Y-40894000D01*
X40558485Y-41402880D01*
X40759255Y-41383101D01*
X40837587Y-41200218D01*
X40878735Y-41005567D01*
X40881118Y-40806628D01*
X40844644Y-40611048D01*
X40770715Y-40426341D01*
X40759255Y-40404899D01*
X40558485Y-40385120D01*
X40049605Y-40894000D01*
X39690395Y-40894000D01*
X39676253Y-40879858D01*
X39855858Y-40700253D01*
X39870000Y-40714395D01*
X40378880Y-40205515D01*
X40359101Y-40004745D01*
X40176218Y-39926413D01*
X39981567Y-39885265D01*
X39848136Y-39883667D01*
X39880000Y-39723476D01*
X39880000Y-39524524D01*
X39841186Y-39329394D01*
X39765050Y-39145586D01*
X39660423Y-38989000D01*
X39765050Y-38832414D01*
X39841186Y-38648606D01*
X39880000Y-38453476D01*
X39880000Y-38254524D01*
X39848031Y-38093808D01*
X39957372Y-38095118D01*
X40152952Y-38058644D01*
X40337659Y-37984715D01*
X40359101Y-37973255D01*
X40378880Y-37772485D01*
X39870000Y-37263605D01*
X39855858Y-37277748D01*
X39676253Y-37098143D01*
X39690395Y-37084000D01*
X39676253Y-37069858D01*
X39855858Y-36890253D01*
X39870000Y-36904395D01*
X39884143Y-36890253D01*
X40063748Y-37069858D01*
X40049605Y-37084000D01*
X40558485Y-37592880D01*
X40759255Y-37573101D01*
X40837587Y-37390218D01*
X40878735Y-37195567D01*
X40881118Y-36996628D01*
X40849670Y-36828000D01*
X40900001Y-36828000D01*
X40900000Y-54811584D01*
X40895114Y-54861192D01*
X40914615Y-55059186D01*
X40966274Y-55229482D01*
X40972368Y-55249571D01*
X41066153Y-55425032D01*
X41192367Y-55578825D01*
X41230906Y-55610453D01*
X41309453Y-55689000D01*
X40227016Y-55689000D01*
X40337659Y-55644715D01*
X40359101Y-55633255D01*
X40378880Y-55432485D01*
X39870000Y-54923605D01*
X39855858Y-54937748D01*
X39676253Y-54758143D01*
X39690395Y-54744000D01*
X40049605Y-54744000D01*
X40558485Y-55252880D01*
X40759255Y-55233101D01*
X40837587Y-55050218D01*
X40878735Y-54855567D01*
X40881118Y-54656628D01*
X40844644Y-54461048D01*
X40770715Y-54276341D01*
X40759255Y-54254899D01*
X40558485Y-54235120D01*
X40049605Y-54744000D01*
X39690395Y-54744000D01*
X39181515Y-54235120D01*
X38980745Y-54254899D01*
X38902413Y-54437782D01*
X38861265Y-54632433D01*
X38858882Y-54831372D01*
X38891076Y-55004000D01*
X38770524Y-55004000D01*
X38575394Y-55042814D01*
X38391586Y-55118950D01*
X38226163Y-55229482D01*
X38085482Y-55370163D01*
X37974950Y-55535586D01*
X37898814Y-55719394D01*
X37860000Y-55914524D01*
X37860000Y-56113476D01*
X37898814Y-56308606D01*
X37974950Y-56492414D01*
X38079577Y-56649000D01*
X37974950Y-56805586D01*
X37898814Y-56989394D01*
X37860000Y-57184524D01*
X37860000Y-57383476D01*
X37898814Y-57578606D01*
X37974950Y-57762414D01*
X38085482Y-57927837D01*
X38226163Y-58068518D01*
X38391586Y-58179050D01*
X38575394Y-58255186D01*
X38770524Y-58294000D01*
X38892643Y-58294000D01*
X38861265Y-58442433D01*
X38858882Y-58641372D01*
X38891076Y-58814000D01*
X38770524Y-58814000D01*
X38575394Y-58852814D01*
X38391586Y-58928950D01*
X38226163Y-59039482D01*
X38085482Y-59180163D01*
X37974950Y-59345586D01*
X37898814Y-59529394D01*
X37860000Y-59724524D01*
X37860000Y-59923476D01*
X37898814Y-60118606D01*
X37974950Y-60302414D01*
X38079577Y-60459000D01*
X37974950Y-60615586D01*
X37898814Y-60799394D01*
X37860000Y-60994524D01*
X37860000Y-61193476D01*
X37898814Y-61388606D01*
X37974950Y-61572414D01*
X38085482Y-61737837D01*
X38226163Y-61878518D01*
X38391586Y-61989050D01*
X38575394Y-62065186D01*
X38770524Y-62104000D01*
X38892643Y-62104000D01*
X38861265Y-62252433D01*
X38858882Y-62451372D01*
X38895356Y-62646952D01*
X38969285Y-62831659D01*
X38980745Y-62853101D01*
X39181515Y-62872880D01*
X39690395Y-62364000D01*
X40049605Y-62364000D01*
X40558485Y-62872880D01*
X40759255Y-62853101D01*
X40837587Y-62670218D01*
X40878735Y-62475567D01*
X40881118Y-62276628D01*
X40844644Y-62081048D01*
X40770715Y-61896341D01*
X40759255Y-61874899D01*
X40558485Y-61855120D01*
X40049605Y-62364000D01*
X39690395Y-62364000D01*
X39676253Y-62349858D01*
X39855858Y-62170253D01*
X39870000Y-62184395D01*
X40378880Y-61675515D01*
X40359101Y-61474745D01*
X40228952Y-61419000D01*
X42027354Y-61419000D01*
X43049546Y-62441193D01*
X43072562Y-62469238D01*
X43100606Y-62492253D01*
X43184480Y-62561087D01*
X43312166Y-62629337D01*
X43450715Y-62671365D01*
X43594800Y-62685556D01*
X43630905Y-62682000D01*
X57076328Y-62682000D01*
X56926234Y-62782290D01*
X56660890Y-63047634D01*
X56452411Y-63359644D01*
X56308809Y-63706332D01*
X56235600Y-64074374D01*
X56235600Y-64449626D01*
X56308809Y-64817668D01*
X56452411Y-65164356D01*
X56660890Y-65476366D01*
X56926234Y-65741710D01*
X57182587Y-65913000D01*
X40439685Y-65913000D01*
X40445799Y-65906886D01*
X40597371Y-65680043D01*
X40701775Y-65427989D01*
X40755000Y-65160411D01*
X40755000Y-64887589D01*
X40701775Y-64620011D01*
X40597371Y-64367957D01*
X40445799Y-64141114D01*
X40252886Y-63948201D01*
X40026043Y-63796629D01*
X39773989Y-63692225D01*
X39506411Y-63639000D01*
X39233589Y-63639000D01*
X38966011Y-63692225D01*
X38713957Y-63796629D01*
X38487114Y-63948201D01*
X38294201Y-64141114D01*
X38142629Y-64367957D01*
X38038225Y-64620011D01*
X37985000Y-64887589D01*
X37985000Y-65160411D01*
X38038225Y-65427989D01*
X38142629Y-65680043D01*
X38294201Y-65906886D01*
X38300315Y-65913000D01*
X36957000Y-65913000D01*
X36957000Y-63462000D01*
X43265928Y-63462000D01*
X43265928Y-65062000D01*
X43278188Y-65186482D01*
X43314498Y-65306180D01*
X43373463Y-65416494D01*
X43452815Y-65513185D01*
X43549506Y-65592537D01*
X43659820Y-65651502D01*
X43779518Y-65687812D01*
X43904000Y-65700072D01*
X45504000Y-65700072D01*
X45628482Y-65687812D01*
X45748180Y-65651502D01*
X45858494Y-65592537D01*
X45955185Y-65513185D01*
X46034537Y-65416494D01*
X46093502Y-65306180D01*
X46109117Y-65254702D01*
X46390903Y-65254702D01*
X46462486Y-65498671D01*
X46717996Y-65619571D01*
X46992184Y-65688300D01*
X47274512Y-65702217D01*
X47554130Y-65660787D01*
X47820292Y-65565603D01*
X47945514Y-65498671D01*
X48017097Y-65254702D01*
X47204000Y-64441605D01*
X46390903Y-65254702D01*
X46109117Y-65254702D01*
X46129812Y-65186482D01*
X46142072Y-65062000D01*
X46142072Y-65054785D01*
X46211298Y-65075097D01*
X47024395Y-64262000D01*
X47383605Y-64262000D01*
X48196702Y-65075097D01*
X48440671Y-65003514D01*
X48561571Y-64748004D01*
X48630300Y-64473816D01*
X48644217Y-64191488D01*
X48602787Y-63911870D01*
X48507603Y-63645708D01*
X48440671Y-63520486D01*
X48241340Y-63462000D01*
X49869928Y-63462000D01*
X49869928Y-65062000D01*
X49882188Y-65186482D01*
X49918498Y-65306180D01*
X49977463Y-65416494D01*
X50056815Y-65513185D01*
X50153506Y-65592537D01*
X50263820Y-65651502D01*
X50383518Y-65687812D01*
X50508000Y-65700072D01*
X52108000Y-65700072D01*
X52232482Y-65687812D01*
X52352180Y-65651502D01*
X52462494Y-65592537D01*
X52559185Y-65513185D01*
X52638537Y-65416494D01*
X52697502Y-65306180D01*
X52713117Y-65254702D01*
X52994903Y-65254702D01*
X53066486Y-65498671D01*
X53321996Y-65619571D01*
X53596184Y-65688300D01*
X53878512Y-65702217D01*
X54158130Y-65660787D01*
X54424292Y-65565603D01*
X54549514Y-65498671D01*
X54621097Y-65254702D01*
X53808000Y-64441605D01*
X52994903Y-65254702D01*
X52713117Y-65254702D01*
X52733812Y-65186482D01*
X52746072Y-65062000D01*
X52746072Y-65054785D01*
X52815298Y-65075097D01*
X53628395Y-64262000D01*
X53987605Y-64262000D01*
X54800702Y-65075097D01*
X55044671Y-65003514D01*
X55165571Y-64748004D01*
X55234300Y-64473816D01*
X55248217Y-64191488D01*
X55206787Y-63911870D01*
X55111603Y-63645708D01*
X55044671Y-63520486D01*
X54800702Y-63448903D01*
X53987605Y-64262000D01*
X53628395Y-64262000D01*
X52815298Y-63448903D01*
X52746072Y-63469215D01*
X52746072Y-63462000D01*
X52733812Y-63337518D01*
X52713118Y-63269298D01*
X52994903Y-63269298D01*
X53808000Y-64082395D01*
X54621097Y-63269298D01*
X54549514Y-63025329D01*
X54294004Y-62904429D01*
X54019816Y-62835700D01*
X53737488Y-62821783D01*
X53457870Y-62863213D01*
X53191708Y-62958397D01*
X53066486Y-63025329D01*
X52994903Y-63269298D01*
X52713118Y-63269298D01*
X52697502Y-63217820D01*
X52638537Y-63107506D01*
X52559185Y-63010815D01*
X52462494Y-62931463D01*
X52352180Y-62872498D01*
X52232482Y-62836188D01*
X52108000Y-62823928D01*
X50508000Y-62823928D01*
X50383518Y-62836188D01*
X50263820Y-62872498D01*
X50153506Y-62931463D01*
X50056815Y-63010815D01*
X49977463Y-63107506D01*
X49918498Y-63217820D01*
X49882188Y-63337518D01*
X49869928Y-63462000D01*
X48241340Y-63462000D01*
X48196702Y-63448903D01*
X47383605Y-64262000D01*
X47024395Y-64262000D01*
X46211298Y-63448903D01*
X46142072Y-63469215D01*
X46142072Y-63462000D01*
X46129812Y-63337518D01*
X46109118Y-63269298D01*
X46390903Y-63269298D01*
X47204000Y-64082395D01*
X48017097Y-63269298D01*
X47945514Y-63025329D01*
X47690004Y-62904429D01*
X47415816Y-62835700D01*
X47133488Y-62821783D01*
X46853870Y-62863213D01*
X46587708Y-62958397D01*
X46462486Y-63025329D01*
X46390903Y-63269298D01*
X46109118Y-63269298D01*
X46093502Y-63217820D01*
X46034537Y-63107506D01*
X45955185Y-63010815D01*
X45858494Y-62931463D01*
X45748180Y-62872498D01*
X45628482Y-62836188D01*
X45504000Y-62823928D01*
X43904000Y-62823928D01*
X43779518Y-62836188D01*
X43659820Y-62872498D01*
X43549506Y-62931463D01*
X43452815Y-63010815D01*
X43373463Y-63107506D01*
X43314498Y-63217820D01*
X43278188Y-63337518D01*
X43265928Y-63462000D01*
X36957000Y-63462000D01*
X36957000Y-63052485D01*
X39361120Y-63052485D01*
X39380899Y-63253255D01*
X39563782Y-63331587D01*
X39758433Y-63372735D01*
X39957372Y-63375118D01*
X40152952Y-63338644D01*
X40337659Y-63264715D01*
X40359101Y-63253255D01*
X40378880Y-63052485D01*
X39870000Y-62543605D01*
X39361120Y-63052485D01*
X36957000Y-63052485D01*
X36957000Y-54055515D01*
X39361120Y-54055515D01*
X39870000Y-54564395D01*
X40378880Y-54055515D01*
X40359101Y-53854745D01*
X40176218Y-53776413D01*
X39981567Y-53735265D01*
X39782628Y-53732882D01*
X39587048Y-53769356D01*
X39402341Y-53843285D01*
X39380899Y-53854745D01*
X39361120Y-54055515D01*
X36957000Y-54055515D01*
X36957000Y-51947589D01*
X37985000Y-51947589D01*
X37985000Y-52220411D01*
X38038225Y-52487989D01*
X38142629Y-52740043D01*
X38294201Y-52966886D01*
X38487114Y-53159799D01*
X38713957Y-53311371D01*
X38966011Y-53415775D01*
X39233589Y-53469000D01*
X39506411Y-53469000D01*
X39773989Y-53415775D01*
X40026043Y-53311371D01*
X40252886Y-53159799D01*
X40445799Y-52966886D01*
X40597371Y-52740043D01*
X40701775Y-52487989D01*
X40755000Y-52220411D01*
X40755000Y-51947589D01*
X40701775Y-51680011D01*
X40597371Y-51427957D01*
X40445799Y-51201114D01*
X40252886Y-51008201D01*
X40026043Y-50856629D01*
X39773989Y-50752225D01*
X39506411Y-50699000D01*
X39233589Y-50699000D01*
X38966011Y-50752225D01*
X38713957Y-50856629D01*
X38487114Y-51008201D01*
X38294201Y-51201114D01*
X38142629Y-51427957D01*
X38038225Y-51680011D01*
X37985000Y-51947589D01*
X36957000Y-51947589D01*
X36957000Y-47227589D01*
X37985000Y-47227589D01*
X37985000Y-47500411D01*
X38038225Y-47767989D01*
X38142629Y-48020043D01*
X38294201Y-48246886D01*
X38487114Y-48439799D01*
X38713957Y-48591371D01*
X38966011Y-48695775D01*
X39233589Y-48749000D01*
X39506411Y-48749000D01*
X39773989Y-48695775D01*
X40026043Y-48591371D01*
X40252886Y-48439799D01*
X40445799Y-48246886D01*
X40597371Y-48020043D01*
X40701775Y-47767989D01*
X40755000Y-47500411D01*
X40755000Y-47227589D01*
X40701775Y-46960011D01*
X40597371Y-46707957D01*
X40445799Y-46481114D01*
X40252886Y-46288201D01*
X40026043Y-46136629D01*
X39773989Y-46032225D01*
X39506411Y-45979000D01*
X39233589Y-45979000D01*
X38966011Y-46032225D01*
X38713957Y-46136629D01*
X38487114Y-46288201D01*
X38294201Y-46481114D01*
X38142629Y-46707957D01*
X38038225Y-46960011D01*
X37985000Y-47227589D01*
X36957000Y-47227589D01*
X36957000Y-45392485D01*
X39361120Y-45392485D01*
X39380899Y-45593255D01*
X39563782Y-45671587D01*
X39758433Y-45712735D01*
X39957372Y-45715118D01*
X40152952Y-45678644D01*
X40337659Y-45604715D01*
X40359101Y-45593255D01*
X40378880Y-45392485D01*
X39870000Y-44883605D01*
X39361120Y-45392485D01*
X36957000Y-45392485D01*
X36957000Y-38539802D01*
X38668802Y-36828000D01*
X38891797Y-36828000D01*
X38861265Y-36972433D01*
%TA.AperFunction,Conductor*%
D27*
G36*
X38861265Y-36972433D02*
G01*
X38858882Y-37171372D01*
X38891076Y-37344000D01*
X38770524Y-37344000D01*
X38575394Y-37382814D01*
X38391586Y-37458950D01*
X38226163Y-37569482D01*
X38085482Y-37710163D01*
X37974950Y-37875586D01*
X37898814Y-38059394D01*
X37860000Y-38254524D01*
X37860000Y-38453476D01*
X37898814Y-38648606D01*
X37974950Y-38832414D01*
X38079577Y-38989000D01*
X37974950Y-39145586D01*
X37898814Y-39329394D01*
X37860000Y-39524524D01*
X37860000Y-39723476D01*
X37898814Y-39918606D01*
X37974950Y-40102414D01*
X38085482Y-40267837D01*
X38226163Y-40408518D01*
X38391586Y-40519050D01*
X38575394Y-40595186D01*
X38770524Y-40634000D01*
X38892643Y-40634000D01*
X38861265Y-40782433D01*
X38858882Y-40981372D01*
X38891076Y-41154000D01*
X38770524Y-41154000D01*
X38575394Y-41192814D01*
X38391586Y-41268950D01*
X38226163Y-41379482D01*
X38085482Y-41520163D01*
X37974950Y-41685586D01*
X37898814Y-41869394D01*
X37860000Y-42064524D01*
X37860000Y-42263476D01*
X37898814Y-42458606D01*
X37974950Y-42642414D01*
X38079577Y-42799000D01*
X37974950Y-42955586D01*
X37898814Y-43139394D01*
X37860000Y-43334524D01*
X37860000Y-43533476D01*
X37898814Y-43728606D01*
X37974950Y-43912414D01*
X38085482Y-44077837D01*
X38226163Y-44218518D01*
X38391586Y-44329050D01*
X38575394Y-44405186D01*
X38770524Y-44444000D01*
X38892643Y-44444000D01*
X38861265Y-44592433D01*
X38858882Y-44791372D01*
X38895356Y-44986952D01*
X38969285Y-45171659D01*
X38980745Y-45193101D01*
X39181515Y-45212880D01*
X39690395Y-44704000D01*
X40049605Y-44704000D01*
X40558485Y-45212880D01*
X40759255Y-45193101D01*
X40837587Y-45010218D01*
X40878735Y-44815567D01*
X40881118Y-44616628D01*
X40844644Y-44421048D01*
X40770715Y-44236341D01*
X40759255Y-44214899D01*
X40558485Y-44195120D01*
X40049605Y-44704000D01*
X39690395Y-44704000D01*
X39676253Y-44689858D01*
X39855858Y-44510253D01*
X39870000Y-44524395D01*
X40378880Y-44015515D01*
X40359101Y-43814745D01*
X40176218Y-43736413D01*
X39981567Y-43695265D01*
X39848136Y-43693667D01*
X39880000Y-43533476D01*
X39880000Y-43334524D01*
X39841186Y-43139394D01*
X39765050Y-42955586D01*
X39660423Y-42799000D01*
X39765050Y-42642414D01*
X39841186Y-42458606D01*
X39880000Y-42263476D01*
X39880000Y-42064524D01*
X39848031Y-41903808D01*
X39957372Y-41905118D01*
X40152952Y-41868644D01*
X40337659Y-41794715D01*
X40359101Y-41783255D01*
X40378880Y-41582485D01*
X39870000Y-41073605D01*
X39855858Y-41087748D01*
X39676253Y-40908143D01*
X39690395Y-40894000D01*
X40049605Y-40894000D01*
X40558485Y-41402880D01*
X40759255Y-41383101D01*
X40837587Y-41200218D01*
X40878735Y-41005567D01*
X40881118Y-40806628D01*
X40844644Y-40611048D01*
X40770715Y-40426341D01*
X40759255Y-40404899D01*
X40558485Y-40385120D01*
X40049605Y-40894000D01*
X39690395Y-40894000D01*
X39676253Y-40879858D01*
X39855858Y-40700253D01*
X39870000Y-40714395D01*
X40378880Y-40205515D01*
X40359101Y-40004745D01*
X40176218Y-39926413D01*
X39981567Y-39885265D01*
X39848136Y-39883667D01*
X39880000Y-39723476D01*
X39880000Y-39524524D01*
X39841186Y-39329394D01*
X39765050Y-39145586D01*
X39660423Y-38989000D01*
X39765050Y-38832414D01*
X39841186Y-38648606D01*
X39880000Y-38453476D01*
X39880000Y-38254524D01*
X39848031Y-38093808D01*
X39957372Y-38095118D01*
X40152952Y-38058644D01*
X40337659Y-37984715D01*
X40359101Y-37973255D01*
X40378880Y-37772485D01*
X39870000Y-37263605D01*
X39855858Y-37277748D01*
X39676253Y-37098143D01*
X39690395Y-37084000D01*
X39676253Y-37069858D01*
X39855858Y-36890253D01*
X39870000Y-36904395D01*
X39884143Y-36890253D01*
X40063748Y-37069858D01*
X40049605Y-37084000D01*
X40558485Y-37592880D01*
X40759255Y-37573101D01*
X40837587Y-37390218D01*
X40878735Y-37195567D01*
X40881118Y-36996628D01*
X40849670Y-36828000D01*
X40900001Y-36828000D01*
X40900000Y-54811584D01*
X40895114Y-54861192D01*
X40914615Y-55059186D01*
X40966274Y-55229482D01*
X40972368Y-55249571D01*
X41066153Y-55425032D01*
X41192367Y-55578825D01*
X41230906Y-55610453D01*
X41309453Y-55689000D01*
X40227016Y-55689000D01*
X40337659Y-55644715D01*
X40359101Y-55633255D01*
X40378880Y-55432485D01*
X39870000Y-54923605D01*
X39855858Y-54937748D01*
X39676253Y-54758143D01*
X39690395Y-54744000D01*
X40049605Y-54744000D01*
X40558485Y-55252880D01*
X40759255Y-55233101D01*
X40837587Y-55050218D01*
X40878735Y-54855567D01*
X40881118Y-54656628D01*
X40844644Y-54461048D01*
X40770715Y-54276341D01*
X40759255Y-54254899D01*
X40558485Y-54235120D01*
X40049605Y-54744000D01*
X39690395Y-54744000D01*
X39181515Y-54235120D01*
X38980745Y-54254899D01*
X38902413Y-54437782D01*
X38861265Y-54632433D01*
X38858882Y-54831372D01*
X38891076Y-55004000D01*
X38770524Y-55004000D01*
X38575394Y-55042814D01*
X38391586Y-55118950D01*
X38226163Y-55229482D01*
X38085482Y-55370163D01*
X37974950Y-55535586D01*
X37898814Y-55719394D01*
X37860000Y-55914524D01*
X37860000Y-56113476D01*
X37898814Y-56308606D01*
X37974950Y-56492414D01*
X38079577Y-56649000D01*
X37974950Y-56805586D01*
X37898814Y-56989394D01*
X37860000Y-57184524D01*
X37860000Y-57383476D01*
X37898814Y-57578606D01*
X37974950Y-57762414D01*
X38085482Y-57927837D01*
X38226163Y-58068518D01*
X38391586Y-58179050D01*
X38575394Y-58255186D01*
X38770524Y-58294000D01*
X38892643Y-58294000D01*
X38861265Y-58442433D01*
X38858882Y-58641372D01*
X38891076Y-58814000D01*
X38770524Y-58814000D01*
X38575394Y-58852814D01*
X38391586Y-58928950D01*
X38226163Y-59039482D01*
X38085482Y-59180163D01*
X37974950Y-59345586D01*
X37898814Y-59529394D01*
X37860000Y-59724524D01*
X37860000Y-59923476D01*
X37898814Y-60118606D01*
X37974950Y-60302414D01*
X38079577Y-60459000D01*
X37974950Y-60615586D01*
X37898814Y-60799394D01*
X37860000Y-60994524D01*
X37860000Y-61193476D01*
X37898814Y-61388606D01*
X37974950Y-61572414D01*
X38085482Y-61737837D01*
X38226163Y-61878518D01*
X38391586Y-61989050D01*
X38575394Y-62065186D01*
X38770524Y-62104000D01*
X38892643Y-62104000D01*
X38861265Y-62252433D01*
X38858882Y-62451372D01*
X38895356Y-62646952D01*
X38969285Y-62831659D01*
X38980745Y-62853101D01*
X39181515Y-62872880D01*
X39690395Y-62364000D01*
X40049605Y-62364000D01*
X40558485Y-62872880D01*
X40759255Y-62853101D01*
X40837587Y-62670218D01*
X40878735Y-62475567D01*
X40881118Y-62276628D01*
X40844644Y-62081048D01*
X40770715Y-61896341D01*
X40759255Y-61874899D01*
X40558485Y-61855120D01*
X40049605Y-62364000D01*
X39690395Y-62364000D01*
X39676253Y-62349858D01*
X39855858Y-62170253D01*
X39870000Y-62184395D01*
X40378880Y-61675515D01*
X40359101Y-61474745D01*
X40228952Y-61419000D01*
X42027354Y-61419000D01*
X43049546Y-62441193D01*
X43072562Y-62469238D01*
X43100606Y-62492253D01*
X43184480Y-62561087D01*
X43312166Y-62629337D01*
X43450715Y-62671365D01*
X43594800Y-62685556D01*
X43630905Y-62682000D01*
X57076328Y-62682000D01*
X56926234Y-62782290D01*
X56660890Y-63047634D01*
X56452411Y-63359644D01*
X56308809Y-63706332D01*
X56235600Y-64074374D01*
X56235600Y-64449626D01*
X56308809Y-64817668D01*
X56452411Y-65164356D01*
X56660890Y-65476366D01*
X56926234Y-65741710D01*
X57182587Y-65913000D01*
X40439685Y-65913000D01*
X40445799Y-65906886D01*
X40597371Y-65680043D01*
X40701775Y-65427989D01*
X40755000Y-65160411D01*
X40755000Y-64887589D01*
X40701775Y-64620011D01*
X40597371Y-64367957D01*
X40445799Y-64141114D01*
X40252886Y-63948201D01*
X40026043Y-63796629D01*
X39773989Y-63692225D01*
X39506411Y-63639000D01*
X39233589Y-63639000D01*
X38966011Y-63692225D01*
X38713957Y-63796629D01*
X38487114Y-63948201D01*
X38294201Y-64141114D01*
X38142629Y-64367957D01*
X38038225Y-64620011D01*
X37985000Y-64887589D01*
X37985000Y-65160411D01*
X38038225Y-65427989D01*
X38142629Y-65680043D01*
X38294201Y-65906886D01*
X38300315Y-65913000D01*
X36957000Y-65913000D01*
X36957000Y-63462000D01*
X43265928Y-63462000D01*
X43265928Y-65062000D01*
X43278188Y-65186482D01*
X43314498Y-65306180D01*
X43373463Y-65416494D01*
X43452815Y-65513185D01*
X43549506Y-65592537D01*
X43659820Y-65651502D01*
X43779518Y-65687812D01*
X43904000Y-65700072D01*
X45504000Y-65700072D01*
X45628482Y-65687812D01*
X45748180Y-65651502D01*
X45858494Y-65592537D01*
X45955185Y-65513185D01*
X46034537Y-65416494D01*
X46093502Y-65306180D01*
X46109117Y-65254702D01*
X46390903Y-65254702D01*
X46462486Y-65498671D01*
X46717996Y-65619571D01*
X46992184Y-65688300D01*
X47274512Y-65702217D01*
X47554130Y-65660787D01*
X47820292Y-65565603D01*
X47945514Y-65498671D01*
X48017097Y-65254702D01*
X47204000Y-64441605D01*
X46390903Y-65254702D01*
X46109117Y-65254702D01*
X46129812Y-65186482D01*
X46142072Y-65062000D01*
X46142072Y-65054785D01*
X46211298Y-65075097D01*
X47024395Y-64262000D01*
X47383605Y-64262000D01*
X48196702Y-65075097D01*
X48440671Y-65003514D01*
X48561571Y-64748004D01*
X48630300Y-64473816D01*
X48644217Y-64191488D01*
X48602787Y-63911870D01*
X48507603Y-63645708D01*
X48440671Y-63520486D01*
X48241340Y-63462000D01*
X49869928Y-63462000D01*
X49869928Y-65062000D01*
X49882188Y-65186482D01*
X49918498Y-65306180D01*
X49977463Y-65416494D01*
X50056815Y-65513185D01*
X50153506Y-65592537D01*
X50263820Y-65651502D01*
X50383518Y-65687812D01*
X50508000Y-65700072D01*
X52108000Y-65700072D01*
X52232482Y-65687812D01*
X52352180Y-65651502D01*
X52462494Y-65592537D01*
X52559185Y-65513185D01*
X52638537Y-65416494D01*
X52697502Y-65306180D01*
X52713117Y-65254702D01*
X52994903Y-65254702D01*
X53066486Y-65498671D01*
X53321996Y-65619571D01*
X53596184Y-65688300D01*
X53878512Y-65702217D01*
X54158130Y-65660787D01*
X54424292Y-65565603D01*
X54549514Y-65498671D01*
X54621097Y-65254702D01*
X53808000Y-64441605D01*
X52994903Y-65254702D01*
X52713117Y-65254702D01*
X52733812Y-65186482D01*
X52746072Y-65062000D01*
X52746072Y-65054785D01*
X52815298Y-65075097D01*
X53628395Y-64262000D01*
X53987605Y-64262000D01*
X54800702Y-65075097D01*
X55044671Y-65003514D01*
X55165571Y-64748004D01*
X55234300Y-64473816D01*
X55248217Y-64191488D01*
X55206787Y-63911870D01*
X55111603Y-63645708D01*
X55044671Y-63520486D01*
X54800702Y-63448903D01*
X53987605Y-64262000D01*
X53628395Y-64262000D01*
X52815298Y-63448903D01*
X52746072Y-63469215D01*
X52746072Y-63462000D01*
X52733812Y-63337518D01*
X52713118Y-63269298D01*
X52994903Y-63269298D01*
X53808000Y-64082395D01*
X54621097Y-63269298D01*
X54549514Y-63025329D01*
X54294004Y-62904429D01*
X54019816Y-62835700D01*
X53737488Y-62821783D01*
X53457870Y-62863213D01*
X53191708Y-62958397D01*
X53066486Y-63025329D01*
X52994903Y-63269298D01*
X52713118Y-63269298D01*
X52697502Y-63217820D01*
X52638537Y-63107506D01*
X52559185Y-63010815D01*
X52462494Y-62931463D01*
X52352180Y-62872498D01*
X52232482Y-62836188D01*
X52108000Y-62823928D01*
X50508000Y-62823928D01*
X50383518Y-62836188D01*
X50263820Y-62872498D01*
X50153506Y-62931463D01*
X50056815Y-63010815D01*
X49977463Y-63107506D01*
X49918498Y-63217820D01*
X49882188Y-63337518D01*
X49869928Y-63462000D01*
X48241340Y-63462000D01*
X48196702Y-63448903D01*
X47383605Y-64262000D01*
X47024395Y-64262000D01*
X46211298Y-63448903D01*
X46142072Y-63469215D01*
X46142072Y-63462000D01*
X46129812Y-63337518D01*
X46109118Y-63269298D01*
X46390903Y-63269298D01*
X47204000Y-64082395D01*
X48017097Y-63269298D01*
X47945514Y-63025329D01*
X47690004Y-62904429D01*
X47415816Y-62835700D01*
X47133488Y-62821783D01*
X46853870Y-62863213D01*
X46587708Y-62958397D01*
X46462486Y-63025329D01*
X46390903Y-63269298D01*
X46109118Y-63269298D01*
X46093502Y-63217820D01*
X46034537Y-63107506D01*
X45955185Y-63010815D01*
X45858494Y-62931463D01*
X45748180Y-62872498D01*
X45628482Y-62836188D01*
X45504000Y-62823928D01*
X43904000Y-62823928D01*
X43779518Y-62836188D01*
X43659820Y-62872498D01*
X43549506Y-62931463D01*
X43452815Y-63010815D01*
X43373463Y-63107506D01*
X43314498Y-63217820D01*
X43278188Y-63337518D01*
X43265928Y-63462000D01*
X36957000Y-63462000D01*
X36957000Y-63052485D01*
X39361120Y-63052485D01*
X39380899Y-63253255D01*
X39563782Y-63331587D01*
X39758433Y-63372735D01*
X39957372Y-63375118D01*
X40152952Y-63338644D01*
X40337659Y-63264715D01*
X40359101Y-63253255D01*
X40378880Y-63052485D01*
X39870000Y-62543605D01*
X39361120Y-63052485D01*
X36957000Y-63052485D01*
X36957000Y-54055515D01*
X39361120Y-54055515D01*
X39870000Y-54564395D01*
X40378880Y-54055515D01*
X40359101Y-53854745D01*
X40176218Y-53776413D01*
X39981567Y-53735265D01*
X39782628Y-53732882D01*
X39587048Y-53769356D01*
X39402341Y-53843285D01*
X39380899Y-53854745D01*
X39361120Y-54055515D01*
X36957000Y-54055515D01*
X36957000Y-51947589D01*
X37985000Y-51947589D01*
X37985000Y-52220411D01*
X38038225Y-52487989D01*
X38142629Y-52740043D01*
X38294201Y-52966886D01*
X38487114Y-53159799D01*
X38713957Y-53311371D01*
X38966011Y-53415775D01*
X39233589Y-53469000D01*
X39506411Y-53469000D01*
X39773989Y-53415775D01*
X40026043Y-53311371D01*
X40252886Y-53159799D01*
X40445799Y-52966886D01*
X40597371Y-52740043D01*
X40701775Y-52487989D01*
X40755000Y-52220411D01*
X40755000Y-51947589D01*
X40701775Y-51680011D01*
X40597371Y-51427957D01*
X40445799Y-51201114D01*
X40252886Y-51008201D01*
X40026043Y-50856629D01*
X39773989Y-50752225D01*
X39506411Y-50699000D01*
X39233589Y-50699000D01*
X38966011Y-50752225D01*
X38713957Y-50856629D01*
X38487114Y-51008201D01*
X38294201Y-51201114D01*
X38142629Y-51427957D01*
X38038225Y-51680011D01*
X37985000Y-51947589D01*
X36957000Y-51947589D01*
X36957000Y-47227589D01*
X37985000Y-47227589D01*
X37985000Y-47500411D01*
X38038225Y-47767989D01*
X38142629Y-48020043D01*
X38294201Y-48246886D01*
X38487114Y-48439799D01*
X38713957Y-48591371D01*
X38966011Y-48695775D01*
X39233589Y-48749000D01*
X39506411Y-48749000D01*
X39773989Y-48695775D01*
X40026043Y-48591371D01*
X40252886Y-48439799D01*
X40445799Y-48246886D01*
X40597371Y-48020043D01*
X40701775Y-47767989D01*
X40755000Y-47500411D01*
X40755000Y-47227589D01*
X40701775Y-46960011D01*
X40597371Y-46707957D01*
X40445799Y-46481114D01*
X40252886Y-46288201D01*
X40026043Y-46136629D01*
X39773989Y-46032225D01*
X39506411Y-45979000D01*
X39233589Y-45979000D01*
X38966011Y-46032225D01*
X38713957Y-46136629D01*
X38487114Y-46288201D01*
X38294201Y-46481114D01*
X38142629Y-46707957D01*
X38038225Y-46960011D01*
X37985000Y-47227589D01*
X36957000Y-47227589D01*
X36957000Y-45392485D01*
X39361120Y-45392485D01*
X39380899Y-45593255D01*
X39563782Y-45671587D01*
X39758433Y-45712735D01*
X39957372Y-45715118D01*
X40152952Y-45678644D01*
X40337659Y-45604715D01*
X40359101Y-45593255D01*
X40378880Y-45392485D01*
X39870000Y-44883605D01*
X39361120Y-45392485D01*
X36957000Y-45392485D01*
X36957000Y-38539802D01*
X38668802Y-36828000D01*
X38891797Y-36828000D01*
X38861265Y-36972433D01*
G37*
%TD.AperFunction*%
D26*
X89495000Y-55991788D02*
X89538617Y-56211067D01*
X89624176Y-56417624D01*
X89748388Y-56603520D01*
X89906480Y-56761612D01*
X90092376Y-56885824D01*
X90298933Y-56971383D01*
X90518212Y-57015000D01*
X90741788Y-57015000D01*
X90961067Y-56971383D01*
X91167624Y-56885824D01*
X91353520Y-56761612D01*
X91511612Y-56603520D01*
X91635824Y-56417624D01*
X91691928Y-56282177D01*
X91691928Y-57180000D01*
X91704188Y-57304482D01*
X91740498Y-57424180D01*
X91799463Y-57534494D01*
X91878815Y-57631185D01*
X91975506Y-57710537D01*
X92085820Y-57769502D01*
X92205518Y-57805812D01*
X92330000Y-57818072D01*
X93802129Y-57818072D01*
X92436201Y-59184000D01*
X91889711Y-59184000D01*
X91845774Y-59140063D01*
X91676256Y-59026795D01*
X91487898Y-58948774D01*
X91287939Y-58909000D01*
X91084061Y-58909000D01*
X90884102Y-58948774D01*
X90695744Y-59026795D01*
X90526226Y-59140063D01*
X90382063Y-59284226D01*
X90268795Y-59453744D01*
X90190774Y-59642102D01*
X90151000Y-59842061D01*
X90151000Y-60045939D01*
X90190774Y-60245898D01*
X90268795Y-60434256D01*
X90382063Y-60603774D01*
X90526226Y-60747937D01*
X90695744Y-60861205D01*
X90884102Y-60939226D01*
X91084061Y-60979000D01*
X91287939Y-60979000D01*
X91487898Y-60939226D01*
X91676256Y-60861205D01*
X91845774Y-60747937D01*
X91889711Y-60704000D01*
X92713680Y-60704000D01*
X92751002Y-60707676D01*
X92788324Y-60704000D01*
X92788335Y-60704000D01*
X92899988Y-60693003D01*
X93043249Y-60649546D01*
X93175278Y-60578974D01*
X93291003Y-60484001D01*
X93314806Y-60454997D01*
X96393000Y-57376804D01*
X96393000Y-63084605D01*
X96249298Y-62940903D01*
X96180072Y-62961215D01*
X96180072Y-62954000D01*
X96167812Y-62829518D01*
X96131502Y-62709820D01*
X96072537Y-62599506D01*
X95993185Y-62502815D01*
X95896494Y-62423463D01*
X95786180Y-62364498D01*
X95666482Y-62328188D01*
X95542000Y-62315928D01*
X93942000Y-62315928D01*
X93817518Y-62328188D01*
X93697820Y-62364498D01*
X93587506Y-62423463D01*
X93490815Y-62502815D01*
X93411463Y-62599506D01*
X93352498Y-62709820D01*
X93316188Y-62829518D01*
X93303928Y-62954000D01*
X93303928Y-64554000D01*
X93316188Y-64678482D01*
X93352498Y-64798180D01*
X93411463Y-64908494D01*
X93490815Y-65005185D01*
X93587506Y-65084537D01*
X93697820Y-65143502D01*
X93777520Y-65167679D01*
X93411199Y-65534000D01*
X88960802Y-65534000D01*
X88848480Y-65421679D01*
X88928180Y-65397502D01*
X89038494Y-65338537D01*
X89135185Y-65259185D01*
X89214537Y-65162494D01*
X89273502Y-65052180D01*
X89289117Y-65000702D01*
X89570903Y-65000702D01*
X89642486Y-65244671D01*
X89897996Y-65365571D01*
X90172184Y-65434300D01*
X90454512Y-65448217D01*
X90734130Y-65406787D01*
X91000292Y-65311603D01*
X91125514Y-65244671D01*
X91197097Y-65000702D01*
X90384000Y-64187605D01*
X89570903Y-65000702D01*
X89289117Y-65000702D01*
X89309812Y-64932482D01*
X89322072Y-64808000D01*
X89322072Y-64800785D01*
X89391298Y-64821097D01*
X90204395Y-64008000D01*
X90563605Y-64008000D01*
X91376702Y-64821097D01*
X91620671Y-64749514D01*
X91741571Y-64494004D01*
X91810300Y-64219816D01*
X91824217Y-63937488D01*
X91782787Y-63657870D01*
X91687603Y-63391708D01*
X91620671Y-63266486D01*
X91376702Y-63194903D01*
X90563605Y-64008000D01*
X90204395Y-64008000D01*
X89391298Y-63194903D01*
X89322072Y-63215215D01*
X89322072Y-63208000D01*
X89309812Y-63083518D01*
X89289118Y-63015298D01*
X89570903Y-63015298D01*
X90384000Y-63828395D01*
X91197097Y-63015298D01*
X91125514Y-62771329D01*
X90870004Y-62650429D01*
X90595816Y-62581700D01*
X90313488Y-62567783D01*
X90033870Y-62609213D01*
X89767708Y-62704397D01*
X89642486Y-62771329D01*
X89570903Y-63015298D01*
X89289118Y-63015298D01*
X89273502Y-62963820D01*
X89214537Y-62853506D01*
X89135185Y-62756815D01*
X89038494Y-62677463D01*
X88928180Y-62618498D01*
X88808482Y-62582188D01*
X88684000Y-62569928D01*
X87084000Y-62569928D01*
X86959518Y-62582188D01*
X86839820Y-62618498D01*
X86729506Y-62677463D01*
X86632815Y-62756815D01*
X86553463Y-62853506D01*
X86494498Y-62963820D01*
X86458188Y-63083518D01*
X86445928Y-63208000D01*
X86445928Y-64371270D01*
X85283199Y-65534000D01*
X83972076Y-65534000D01*
X84029710Y-65476366D01*
X84238189Y-65164356D01*
X84381791Y-64817668D01*
X84455000Y-64449626D01*
X84455000Y-64074374D01*
X84381791Y-63706332D01*
X84238189Y-63359644D01*
X84029710Y-63047634D01*
X83764366Y-62782290D01*
X83614272Y-62682000D01*
X85401095Y-62682000D01*
X85437200Y-62685556D01*
X85473305Y-62682000D01*
X85581285Y-62671365D01*
X85719833Y-62629337D01*
X85847520Y-62561087D01*
X85959438Y-62469238D01*
X85982458Y-62441188D01*
X86444192Y-61979454D01*
X86472238Y-61956438D01*
X86564087Y-61844520D01*
X86600532Y-61776336D01*
X86632337Y-61716834D01*
X86674365Y-61578285D01*
X86688556Y-61434200D01*
X86685000Y-61398095D01*
X86685000Y-60321947D01*
X86854187Y-60152760D01*
X86882238Y-60129739D01*
X86974087Y-60017821D01*
X87013545Y-59944000D01*
X87042337Y-59890135D01*
X87084365Y-59751586D01*
X87098556Y-59607501D01*
X87095000Y-59571396D01*
X87095000Y-59567287D01*
X87205518Y-59600812D01*
X87330000Y-59613072D01*
X87344250Y-59610000D01*
X87503000Y-59451250D01*
X87503000Y-57837000D01*
X87757000Y-57837000D01*
X87757000Y-59451250D01*
X87915750Y-59610000D01*
X87930000Y-59613072D01*
X88054482Y-59600812D01*
X88174180Y-59564502D01*
X88284494Y-59505537D01*
X88381185Y-59426185D01*
X88460537Y-59329494D01*
X88519502Y-59219180D01*
X88555812Y-59099482D01*
X88568072Y-58975000D01*
X88565000Y-57995750D01*
X88406250Y-57837000D01*
X87757000Y-57837000D01*
X87503000Y-57837000D01*
X87483000Y-57837000D01*
X87483000Y-57583000D01*
X87503000Y-57583000D01*
X87503000Y-57563000D01*
X87757000Y-57563000D01*
X87757000Y-57583000D01*
X88406250Y-57583000D01*
X88565000Y-57424250D01*
X88568072Y-56445000D01*
X88555812Y-56320518D01*
X88519502Y-56200820D01*
X88460537Y-56090506D01*
X88381185Y-55993815D01*
X88284494Y-55914463D01*
X88216278Y-55878000D01*
X89116678Y-55878000D01*
X89154000Y-55881676D01*
X89191322Y-55878000D01*
X89191333Y-55878000D01*
X89302986Y-55867003D01*
X89446247Y-55823546D01*
X89495000Y-55797487D01*
X89495000Y-55991788D01*
%TA.AperFunction,Conductor*%
D27*
G36*
X89495000Y-55991788D02*
G01*
X89538617Y-56211067D01*
X89624176Y-56417624D01*
X89748388Y-56603520D01*
X89906480Y-56761612D01*
X90092376Y-56885824D01*
X90298933Y-56971383D01*
X90518212Y-57015000D01*
X90741788Y-57015000D01*
X90961067Y-56971383D01*
X91167624Y-56885824D01*
X91353520Y-56761612D01*
X91511612Y-56603520D01*
X91635824Y-56417624D01*
X91691928Y-56282177D01*
X91691928Y-57180000D01*
X91704188Y-57304482D01*
X91740498Y-57424180D01*
X91799463Y-57534494D01*
X91878815Y-57631185D01*
X91975506Y-57710537D01*
X92085820Y-57769502D01*
X92205518Y-57805812D01*
X92330000Y-57818072D01*
X93802129Y-57818072D01*
X92436201Y-59184000D01*
X91889711Y-59184000D01*
X91845774Y-59140063D01*
X91676256Y-59026795D01*
X91487898Y-58948774D01*
X91287939Y-58909000D01*
X91084061Y-58909000D01*
X90884102Y-58948774D01*
X90695744Y-59026795D01*
X90526226Y-59140063D01*
X90382063Y-59284226D01*
X90268795Y-59453744D01*
X90190774Y-59642102D01*
X90151000Y-59842061D01*
X90151000Y-60045939D01*
X90190774Y-60245898D01*
X90268795Y-60434256D01*
X90382063Y-60603774D01*
X90526226Y-60747937D01*
X90695744Y-60861205D01*
X90884102Y-60939226D01*
X91084061Y-60979000D01*
X91287939Y-60979000D01*
X91487898Y-60939226D01*
X91676256Y-60861205D01*
X91845774Y-60747937D01*
X91889711Y-60704000D01*
X92713680Y-60704000D01*
X92751002Y-60707676D01*
X92788324Y-60704000D01*
X92788335Y-60704000D01*
X92899988Y-60693003D01*
X93043249Y-60649546D01*
X93175278Y-60578974D01*
X93291003Y-60484001D01*
X93314806Y-60454997D01*
X96393000Y-57376804D01*
X96393000Y-63084605D01*
X96249298Y-62940903D01*
X96180072Y-62961215D01*
X96180072Y-62954000D01*
X96167812Y-62829518D01*
X96131502Y-62709820D01*
X96072537Y-62599506D01*
X95993185Y-62502815D01*
X95896494Y-62423463D01*
X95786180Y-62364498D01*
X95666482Y-62328188D01*
X95542000Y-62315928D01*
X93942000Y-62315928D01*
X93817518Y-62328188D01*
X93697820Y-62364498D01*
X93587506Y-62423463D01*
X93490815Y-62502815D01*
X93411463Y-62599506D01*
X93352498Y-62709820D01*
X93316188Y-62829518D01*
X93303928Y-62954000D01*
X93303928Y-64554000D01*
X93316188Y-64678482D01*
X93352498Y-64798180D01*
X93411463Y-64908494D01*
X93490815Y-65005185D01*
X93587506Y-65084537D01*
X93697820Y-65143502D01*
X93777520Y-65167679D01*
X93411199Y-65534000D01*
X88960802Y-65534000D01*
X88848480Y-65421679D01*
X88928180Y-65397502D01*
X89038494Y-65338537D01*
X89135185Y-65259185D01*
X89214537Y-65162494D01*
X89273502Y-65052180D01*
X89289117Y-65000702D01*
X89570903Y-65000702D01*
X89642486Y-65244671D01*
X89897996Y-65365571D01*
X90172184Y-65434300D01*
X90454512Y-65448217D01*
X90734130Y-65406787D01*
X91000292Y-65311603D01*
X91125514Y-65244671D01*
X91197097Y-65000702D01*
X90384000Y-64187605D01*
X89570903Y-65000702D01*
X89289117Y-65000702D01*
X89309812Y-64932482D01*
X89322072Y-64808000D01*
X89322072Y-64800785D01*
X89391298Y-64821097D01*
X90204395Y-64008000D01*
X90563605Y-64008000D01*
X91376702Y-64821097D01*
X91620671Y-64749514D01*
X91741571Y-64494004D01*
X91810300Y-64219816D01*
X91824217Y-63937488D01*
X91782787Y-63657870D01*
X91687603Y-63391708D01*
X91620671Y-63266486D01*
X91376702Y-63194903D01*
X90563605Y-64008000D01*
X90204395Y-64008000D01*
X89391298Y-63194903D01*
X89322072Y-63215215D01*
X89322072Y-63208000D01*
X89309812Y-63083518D01*
X89289118Y-63015298D01*
X89570903Y-63015298D01*
X90384000Y-63828395D01*
X91197097Y-63015298D01*
X91125514Y-62771329D01*
X90870004Y-62650429D01*
X90595816Y-62581700D01*
X90313488Y-62567783D01*
X90033870Y-62609213D01*
X89767708Y-62704397D01*
X89642486Y-62771329D01*
X89570903Y-63015298D01*
X89289118Y-63015298D01*
X89273502Y-62963820D01*
X89214537Y-62853506D01*
X89135185Y-62756815D01*
X89038494Y-62677463D01*
X88928180Y-62618498D01*
X88808482Y-62582188D01*
X88684000Y-62569928D01*
X87084000Y-62569928D01*
X86959518Y-62582188D01*
X86839820Y-62618498D01*
X86729506Y-62677463D01*
X86632815Y-62756815D01*
X86553463Y-62853506D01*
X86494498Y-62963820D01*
X86458188Y-63083518D01*
X86445928Y-63208000D01*
X86445928Y-64371270D01*
X85283199Y-65534000D01*
X83972076Y-65534000D01*
X84029710Y-65476366D01*
X84238189Y-65164356D01*
X84381791Y-64817668D01*
X84455000Y-64449626D01*
X84455000Y-64074374D01*
X84381791Y-63706332D01*
X84238189Y-63359644D01*
X84029710Y-63047634D01*
X83764366Y-62782290D01*
X83614272Y-62682000D01*
X85401095Y-62682000D01*
X85437200Y-62685556D01*
X85473305Y-62682000D01*
X85581285Y-62671365D01*
X85719833Y-62629337D01*
X85847520Y-62561087D01*
X85959438Y-62469238D01*
X85982458Y-62441188D01*
X86444192Y-61979454D01*
X86472238Y-61956438D01*
X86564087Y-61844520D01*
X86600532Y-61776336D01*
X86632337Y-61716834D01*
X86674365Y-61578285D01*
X86688556Y-61434200D01*
X86685000Y-61398095D01*
X86685000Y-60321947D01*
X86854187Y-60152760D01*
X86882238Y-60129739D01*
X86974087Y-60017821D01*
X87013545Y-59944000D01*
X87042337Y-59890135D01*
X87084365Y-59751586D01*
X87098556Y-59607501D01*
X87095000Y-59571396D01*
X87095000Y-59567287D01*
X87205518Y-59600812D01*
X87330000Y-59613072D01*
X87344250Y-59610000D01*
X87503000Y-59451250D01*
X87503000Y-57837000D01*
X87757000Y-57837000D01*
X87757000Y-59451250D01*
X87915750Y-59610000D01*
X87930000Y-59613072D01*
X88054482Y-59600812D01*
X88174180Y-59564502D01*
X88284494Y-59505537D01*
X88381185Y-59426185D01*
X88460537Y-59329494D01*
X88519502Y-59219180D01*
X88555812Y-59099482D01*
X88568072Y-58975000D01*
X88565000Y-57995750D01*
X88406250Y-57837000D01*
X87757000Y-57837000D01*
X87503000Y-57837000D01*
X87483000Y-57837000D01*
X87483000Y-57583000D01*
X87503000Y-57583000D01*
X87503000Y-57563000D01*
X87757000Y-57563000D01*
X87757000Y-57583000D01*
X88406250Y-57583000D01*
X88565000Y-57424250D01*
X88568072Y-56445000D01*
X88555812Y-56320518D01*
X88519502Y-56200820D01*
X88460537Y-56090506D01*
X88381185Y-55993815D01*
X88284494Y-55914463D01*
X88216278Y-55878000D01*
X89116678Y-55878000D01*
X89154000Y-55881676D01*
X89191322Y-55878000D01*
X89191333Y-55878000D01*
X89302986Y-55867003D01*
X89446247Y-55823546D01*
X89495000Y-55797487D01*
X89495000Y-55991788D01*
G37*
%TD.AperFunction*%
D26*
X75673000Y-62839939D02*
X75712774Y-63039898D01*
X75790795Y-63228256D01*
X75904063Y-63397774D01*
X75984341Y-63478052D01*
X75870912Y-63591480D01*
X75854216Y-63393233D01*
X75675616Y-63317411D01*
X75485656Y-63277890D01*
X75291636Y-63276187D01*
X75101011Y-63312368D01*
X74921107Y-63385043D01*
X74905784Y-63393233D01*
X74889088Y-63591483D01*
X75380000Y-64082395D01*
X75394143Y-64068253D01*
X75573748Y-64247858D01*
X75559605Y-64262000D01*
X75573748Y-64276143D01*
X75394143Y-64455748D01*
X75380000Y-64441605D01*
X74889088Y-64932517D01*
X74905784Y-65130767D01*
X75084384Y-65206589D01*
X75274344Y-65246110D01*
X75468364Y-65247813D01*
X75658989Y-65211632D01*
X75838893Y-65138957D01*
X75854216Y-65130767D01*
X75870912Y-64932520D01*
X75989631Y-65051239D01*
X76017935Y-65022935D01*
X76022099Y-65027099D01*
X76183428Y-65134896D01*
X76362686Y-65209147D01*
X76552986Y-65247000D01*
X76747014Y-65247000D01*
X76937314Y-65209147D01*
X77116572Y-65134896D01*
X77268147Y-65033617D01*
X77356160Y-65105847D01*
X77531620Y-65199632D01*
X77722006Y-65257385D01*
X77920000Y-65276886D01*
X78117993Y-65257385D01*
X78308379Y-65199632D01*
X78483840Y-65105847D01*
X78571853Y-65033617D01*
X78723428Y-65134896D01*
X78902686Y-65209147D01*
X79092986Y-65247000D01*
X79287014Y-65247000D01*
X79477314Y-65209147D01*
X79656572Y-65134896D01*
X79817901Y-65027099D01*
X79955099Y-64889901D01*
X80062896Y-64728572D01*
X80137147Y-64549314D01*
X80175000Y-64359014D01*
X80175000Y-64164986D01*
X80137147Y-63974686D01*
X80062896Y-63795428D01*
X79955099Y-63634099D01*
X79817901Y-63496901D01*
X79656572Y-63389104D01*
X79477314Y-63314853D01*
X79287014Y-63277000D01*
X79092986Y-63277000D01*
X78902686Y-63314853D01*
X78755396Y-63375862D01*
X78637633Y-63232367D01*
X78599099Y-63200743D01*
X78080356Y-62682000D01*
X81485728Y-62682000D01*
X81335634Y-62782290D01*
X81070290Y-63047634D01*
X80861811Y-63359644D01*
X80718209Y-63706332D01*
X80645000Y-64074374D01*
X80645000Y-64449626D01*
X80718209Y-64817668D01*
X80861811Y-65164356D01*
X81070290Y-65476366D01*
X81127924Y-65534000D01*
X68832801Y-65534000D01*
X69094802Y-65272000D01*
X71619608Y-65272000D01*
X71767994Y-65257385D01*
X71958380Y-65199632D01*
X72133840Y-65105847D01*
X72216852Y-65037722D01*
X72230369Y-65051239D01*
X72349088Y-64932520D01*
X72365784Y-65130767D01*
X72544384Y-65206589D01*
X72734344Y-65246110D01*
X72928364Y-65247813D01*
X73118989Y-65211632D01*
X73298893Y-65138957D01*
X73314216Y-65130767D01*
X73330912Y-64932517D01*
X73619088Y-64932517D01*
X73635784Y-65130767D01*
X73814384Y-65206589D01*
X74004344Y-65246110D01*
X74198364Y-65247813D01*
X74388989Y-65211632D01*
X74568893Y-65138957D01*
X74584216Y-65130767D01*
X74600912Y-64932517D01*
X74110000Y-64441605D01*
X73619088Y-64932517D01*
X73330912Y-64932517D01*
X72840000Y-64441605D01*
X72825858Y-64455748D01*
X72646253Y-64276143D01*
X72660395Y-64262000D01*
X73019605Y-64262000D01*
X73127986Y-64370381D01*
X73160368Y-64540989D01*
X73233043Y-64720893D01*
X73241233Y-64736216D01*
X73439483Y-64752912D01*
X73475000Y-64717395D01*
X73510517Y-64752912D01*
X73708767Y-64736216D01*
X73784589Y-64557616D01*
X73823945Y-64368450D01*
X73930395Y-64262000D01*
X74289605Y-64262000D01*
X74397986Y-64370381D01*
X74430368Y-64540989D01*
X74503043Y-64720893D01*
X74511233Y-64736216D01*
X74709483Y-64752912D01*
X74745000Y-64717395D01*
X74780517Y-64752912D01*
X74978767Y-64736216D01*
X75054589Y-64557616D01*
X75093945Y-64368450D01*
X75200395Y-64262000D01*
X75092014Y-64153619D01*
X75059632Y-63983011D01*
X74986957Y-63803107D01*
X74978767Y-63787784D01*
X74780517Y-63771088D01*
X74745000Y-63806605D01*
X74709483Y-63771088D01*
X74511233Y-63787784D01*
X74435411Y-63966384D01*
X74396055Y-64155550D01*
X74289605Y-64262000D01*
X73930395Y-64262000D01*
X73822014Y-64153619D01*
X73789632Y-63983011D01*
X73716957Y-63803107D01*
X73708767Y-63787784D01*
X73510517Y-63771088D01*
X73475000Y-63806605D01*
X73439483Y-63771088D01*
X73241233Y-63787784D01*
X73165411Y-63966384D01*
X73126055Y-64155550D01*
X73019605Y-64262000D01*
X72660395Y-64262000D01*
X72646253Y-64247858D01*
X72825858Y-64068253D01*
X72840000Y-64082395D01*
X73330912Y-63591483D01*
X73619088Y-63591483D01*
X74110000Y-64082395D01*
X74600912Y-63591483D01*
X74584216Y-63393233D01*
X74405616Y-63317411D01*
X74215656Y-63277890D01*
X74021636Y-63276187D01*
X73831011Y-63312368D01*
X73651107Y-63385043D01*
X73635784Y-63393233D01*
X73619088Y-63591483D01*
X73330912Y-63591483D01*
X73314216Y-63393233D01*
X73135616Y-63317411D01*
X72945656Y-63277890D01*
X72751636Y-63276187D01*
X72561011Y-63312368D01*
X72381107Y-63385043D01*
X72365784Y-63393233D01*
X72349088Y-63591480D01*
X72230369Y-63472761D01*
X72216852Y-63486278D01*
X72133840Y-63418153D01*
X71958380Y-63324368D01*
X71767994Y-63266615D01*
X71619608Y-63252000D01*
X69937903Y-63252000D01*
X69873847Y-63132160D01*
X69747633Y-62978367D01*
X69709094Y-62946739D01*
X69444355Y-62682000D01*
X75673000Y-62682000D01*
X75673000Y-62839939D01*
%TA.AperFunction,Conductor*%
D27*
G36*
X75673000Y-62839939D02*
G01*
X75712774Y-63039898D01*
X75790795Y-63228256D01*
X75904063Y-63397774D01*
X75984341Y-63478052D01*
X75870912Y-63591480D01*
X75854216Y-63393233D01*
X75675616Y-63317411D01*
X75485656Y-63277890D01*
X75291636Y-63276187D01*
X75101011Y-63312368D01*
X74921107Y-63385043D01*
X74905784Y-63393233D01*
X74889088Y-63591483D01*
X75380000Y-64082395D01*
X75394143Y-64068253D01*
X75573748Y-64247858D01*
X75559605Y-64262000D01*
X75573748Y-64276143D01*
X75394143Y-64455748D01*
X75380000Y-64441605D01*
X74889088Y-64932517D01*
X74905784Y-65130767D01*
X75084384Y-65206589D01*
X75274344Y-65246110D01*
X75468364Y-65247813D01*
X75658989Y-65211632D01*
X75838893Y-65138957D01*
X75854216Y-65130767D01*
X75870912Y-64932520D01*
X75989631Y-65051239D01*
X76017935Y-65022935D01*
X76022099Y-65027099D01*
X76183428Y-65134896D01*
X76362686Y-65209147D01*
X76552986Y-65247000D01*
X76747014Y-65247000D01*
X76937314Y-65209147D01*
X77116572Y-65134896D01*
X77268147Y-65033617D01*
X77356160Y-65105847D01*
X77531620Y-65199632D01*
X77722006Y-65257385D01*
X77920000Y-65276886D01*
X78117993Y-65257385D01*
X78308379Y-65199632D01*
X78483840Y-65105847D01*
X78571853Y-65033617D01*
X78723428Y-65134896D01*
X78902686Y-65209147D01*
X79092986Y-65247000D01*
X79287014Y-65247000D01*
X79477314Y-65209147D01*
X79656572Y-65134896D01*
X79817901Y-65027099D01*
X79955099Y-64889901D01*
X80062896Y-64728572D01*
X80137147Y-64549314D01*
X80175000Y-64359014D01*
X80175000Y-64164986D01*
X80137147Y-63974686D01*
X80062896Y-63795428D01*
X79955099Y-63634099D01*
X79817901Y-63496901D01*
X79656572Y-63389104D01*
X79477314Y-63314853D01*
X79287014Y-63277000D01*
X79092986Y-63277000D01*
X78902686Y-63314853D01*
X78755396Y-63375862D01*
X78637633Y-63232367D01*
X78599099Y-63200743D01*
X78080356Y-62682000D01*
X81485728Y-62682000D01*
X81335634Y-62782290D01*
X81070290Y-63047634D01*
X80861811Y-63359644D01*
X80718209Y-63706332D01*
X80645000Y-64074374D01*
X80645000Y-64449626D01*
X80718209Y-64817668D01*
X80861811Y-65164356D01*
X81070290Y-65476366D01*
X81127924Y-65534000D01*
X68832801Y-65534000D01*
X69094802Y-65272000D01*
X71619608Y-65272000D01*
X71767994Y-65257385D01*
X71958380Y-65199632D01*
X72133840Y-65105847D01*
X72216852Y-65037722D01*
X72230369Y-65051239D01*
X72349088Y-64932520D01*
X72365784Y-65130767D01*
X72544384Y-65206589D01*
X72734344Y-65246110D01*
X72928364Y-65247813D01*
X73118989Y-65211632D01*
X73298893Y-65138957D01*
X73314216Y-65130767D01*
X73330912Y-64932517D01*
X73619088Y-64932517D01*
X73635784Y-65130767D01*
X73814384Y-65206589D01*
X74004344Y-65246110D01*
X74198364Y-65247813D01*
X74388989Y-65211632D01*
X74568893Y-65138957D01*
X74584216Y-65130767D01*
X74600912Y-64932517D01*
X74110000Y-64441605D01*
X73619088Y-64932517D01*
X73330912Y-64932517D01*
X72840000Y-64441605D01*
X72825858Y-64455748D01*
X72646253Y-64276143D01*
X72660395Y-64262000D01*
X73019605Y-64262000D01*
X73127986Y-64370381D01*
X73160368Y-64540989D01*
X73233043Y-64720893D01*
X73241233Y-64736216D01*
X73439483Y-64752912D01*
X73475000Y-64717395D01*
X73510517Y-64752912D01*
X73708767Y-64736216D01*
X73784589Y-64557616D01*
X73823945Y-64368450D01*
X73930395Y-64262000D01*
X74289605Y-64262000D01*
X74397986Y-64370381D01*
X74430368Y-64540989D01*
X74503043Y-64720893D01*
X74511233Y-64736216D01*
X74709483Y-64752912D01*
X74745000Y-64717395D01*
X74780517Y-64752912D01*
X74978767Y-64736216D01*
X75054589Y-64557616D01*
X75093945Y-64368450D01*
X75200395Y-64262000D01*
X75092014Y-64153619D01*
X75059632Y-63983011D01*
X74986957Y-63803107D01*
X74978767Y-63787784D01*
X74780517Y-63771088D01*
X74745000Y-63806605D01*
X74709483Y-63771088D01*
X74511233Y-63787784D01*
X74435411Y-63966384D01*
X74396055Y-64155550D01*
X74289605Y-64262000D01*
X73930395Y-64262000D01*
X73822014Y-64153619D01*
X73789632Y-63983011D01*
X73716957Y-63803107D01*
X73708767Y-63787784D01*
X73510517Y-63771088D01*
X73475000Y-63806605D01*
X73439483Y-63771088D01*
X73241233Y-63787784D01*
X73165411Y-63966384D01*
X73126055Y-64155550D01*
X73019605Y-64262000D01*
X72660395Y-64262000D01*
X72646253Y-64247858D01*
X72825858Y-64068253D01*
X72840000Y-64082395D01*
X73330912Y-63591483D01*
X73619088Y-63591483D01*
X74110000Y-64082395D01*
X74600912Y-63591483D01*
X74584216Y-63393233D01*
X74405616Y-63317411D01*
X74215656Y-63277890D01*
X74021636Y-63276187D01*
X73831011Y-63312368D01*
X73651107Y-63385043D01*
X73635784Y-63393233D01*
X73619088Y-63591483D01*
X73330912Y-63591483D01*
X73314216Y-63393233D01*
X73135616Y-63317411D01*
X72945656Y-63277890D01*
X72751636Y-63276187D01*
X72561011Y-63312368D01*
X72381107Y-63385043D01*
X72365784Y-63393233D01*
X72349088Y-63591480D01*
X72230369Y-63472761D01*
X72216852Y-63486278D01*
X72133840Y-63418153D01*
X71958380Y-63324368D01*
X71767994Y-63266615D01*
X71619608Y-63252000D01*
X69937903Y-63252000D01*
X69873847Y-63132160D01*
X69747633Y-62978367D01*
X69709094Y-62946739D01*
X69444355Y-62682000D01*
X75673000Y-62682000D01*
X75673000Y-62839939D01*
G37*
%TD.AperFunction*%
D26*
X67953748Y-64247858D02*
X67939605Y-64262000D01*
X67947402Y-64269797D01*
X67767797Y-64449402D01*
X67760000Y-64441605D01*
X67745858Y-64455748D01*
X67566253Y-64276143D01*
X67580395Y-64262000D01*
X67566253Y-64247858D01*
X67745858Y-64068253D01*
X67760000Y-64082395D01*
X67774143Y-64068253D01*
X67953748Y-64247858D01*
%TA.AperFunction,Conductor*%
D27*
G36*
X67953748Y-64247858D02*
G01*
X67939605Y-64262000D01*
X67947402Y-64269797D01*
X67767797Y-64449402D01*
X67760000Y-64441605D01*
X67745858Y-64455748D01*
X67566253Y-64276143D01*
X67580395Y-64262000D01*
X67566253Y-64247858D01*
X67745858Y-64068253D01*
X67760000Y-64082395D01*
X67774143Y-64068253D01*
X67953748Y-64247858D01*
G37*
%TD.AperFunction*%
D26*
X65413748Y-64247858D02*
X65399605Y-64262000D01*
X65413748Y-64276143D01*
X65234143Y-64455748D01*
X65220000Y-64441605D01*
X65205858Y-64455748D01*
X65026253Y-64276143D01*
X65040395Y-64262000D01*
X65026253Y-64247858D01*
X65205858Y-64068253D01*
X65220000Y-64082395D01*
X65234143Y-64068253D01*
X65413748Y-64247858D01*
%TA.AperFunction,Conductor*%
D27*
G36*
X65413748Y-64247858D02*
G01*
X65399605Y-64262000D01*
X65413748Y-64276143D01*
X65234143Y-64455748D01*
X65220000Y-64441605D01*
X65205858Y-64455748D01*
X65026253Y-64276143D01*
X65040395Y-64262000D01*
X65026253Y-64247858D01*
X65205858Y-64068253D01*
X65220000Y-64082395D01*
X65234143Y-64068253D01*
X65413748Y-64247858D01*
G37*
%TD.AperFunction*%
D26*
X67330774Y-62690102D02*
X67291000Y-62890061D01*
X67291000Y-63093939D01*
X67330774Y-63293898D01*
X67358863Y-63361711D01*
X67301107Y-63385043D01*
X67285784Y-63393233D01*
X67269088Y-63591480D01*
X67150369Y-63472761D01*
X67122065Y-63501065D01*
X67117901Y-63496901D01*
X66956572Y-63389104D01*
X66777314Y-63314853D01*
X66587014Y-63277000D01*
X66392986Y-63277000D01*
X66202686Y-63314853D01*
X66023428Y-63389104D01*
X65862099Y-63496901D01*
X65857935Y-63501065D01*
X65829631Y-63472761D01*
X65710912Y-63591480D01*
X65694216Y-63393233D01*
X65515616Y-63317411D01*
X65325656Y-63277890D01*
X65131636Y-63276187D01*
X64941011Y-63312368D01*
X64761107Y-63385043D01*
X64745784Y-63393233D01*
X64729088Y-63591480D01*
X64610369Y-63472761D01*
X64596852Y-63486278D01*
X64513840Y-63418153D01*
X64338380Y-63324368D01*
X64147994Y-63266615D01*
X63999608Y-63252000D01*
X62471560Y-63252000D01*
X62503000Y-63093939D01*
X62503000Y-62890061D01*
X62463226Y-62690102D01*
X62459870Y-62682000D01*
X67334130Y-62682000D01*
X67330774Y-62690102D01*
%TA.AperFunction,Conductor*%
D27*
G36*
X67330774Y-62690102D02*
G01*
X67291000Y-62890061D01*
X67291000Y-63093939D01*
X67330774Y-63293898D01*
X67358863Y-63361711D01*
X67301107Y-63385043D01*
X67285784Y-63393233D01*
X67269088Y-63591480D01*
X67150369Y-63472761D01*
X67122065Y-63501065D01*
X67117901Y-63496901D01*
X66956572Y-63389104D01*
X66777314Y-63314853D01*
X66587014Y-63277000D01*
X66392986Y-63277000D01*
X66202686Y-63314853D01*
X66023428Y-63389104D01*
X65862099Y-63496901D01*
X65857935Y-63501065D01*
X65829631Y-63472761D01*
X65710912Y-63591480D01*
X65694216Y-63393233D01*
X65515616Y-63317411D01*
X65325656Y-63277890D01*
X65131636Y-63276187D01*
X64941011Y-63312368D01*
X64761107Y-63385043D01*
X64745784Y-63393233D01*
X64729088Y-63591480D01*
X64610369Y-63472761D01*
X64596852Y-63486278D01*
X64513840Y-63418153D01*
X64338380Y-63324368D01*
X64147994Y-63266615D01*
X63999608Y-63252000D01*
X62471560Y-63252000D01*
X62503000Y-63093939D01*
X62503000Y-62890061D01*
X62463226Y-62690102D01*
X62459870Y-62682000D01*
X67334130Y-62682000D01*
X67330774Y-62690102D01*
G37*
%TD.AperFunction*%
D26*
X83947000Y-57583000D02*
X83967000Y-57583000D01*
X83967000Y-57837000D01*
X83947000Y-57837000D01*
X83947000Y-59451250D01*
X84105750Y-59610000D01*
X84120000Y-59613072D01*
X84244482Y-59600812D01*
X84355001Y-59567286D01*
X84355001Y-59571386D01*
X84351444Y-59607501D01*
X84365635Y-59751586D01*
X84393081Y-59842061D01*
X84407664Y-59890134D01*
X84475914Y-60017821D01*
X84567763Y-60129739D01*
X84595808Y-60152755D01*
X84765000Y-60321947D01*
X84765001Y-60762000D01*
X82581647Y-60762000D01*
X82634193Y-60709454D01*
X82662238Y-60686438D01*
X82754087Y-60574520D01*
X82822337Y-60446833D01*
X82864365Y-60308285D01*
X82875000Y-60200305D01*
X82878556Y-60164200D01*
X82875000Y-60128095D01*
X82875000Y-59610610D01*
X82974482Y-59600812D01*
X83094180Y-59564502D01*
X83185000Y-59515957D01*
X83275820Y-59564502D01*
X83395518Y-59600812D01*
X83520000Y-59613072D01*
X83534250Y-59610000D01*
X83693000Y-59451250D01*
X83693000Y-57837000D01*
X83673000Y-57837000D01*
X83673000Y-57583000D01*
X83693000Y-57583000D01*
X83693000Y-57563000D01*
X83947000Y-57563000D01*
X83947000Y-57583000D01*
%TA.AperFunction,Conductor*%
D27*
G36*
X83947000Y-57583000D02*
G01*
X83967000Y-57583000D01*
X83967000Y-57837000D01*
X83947000Y-57837000D01*
X83947000Y-59451250D01*
X84105750Y-59610000D01*
X84120000Y-59613072D01*
X84244482Y-59600812D01*
X84355001Y-59567286D01*
X84355001Y-59571386D01*
X84351444Y-59607501D01*
X84365635Y-59751586D01*
X84393081Y-59842061D01*
X84407664Y-59890134D01*
X84475914Y-60017821D01*
X84567763Y-60129739D01*
X84595808Y-60152755D01*
X84765000Y-60321947D01*
X84765001Y-60762000D01*
X82581647Y-60762000D01*
X82634193Y-60709454D01*
X82662238Y-60686438D01*
X82754087Y-60574520D01*
X82822337Y-60446833D01*
X82864365Y-60308285D01*
X82875000Y-60200305D01*
X82878556Y-60164200D01*
X82875000Y-60128095D01*
X82875000Y-59610610D01*
X82974482Y-59600812D01*
X83094180Y-59564502D01*
X83185000Y-59515957D01*
X83275820Y-59564502D01*
X83395518Y-59600812D01*
X83520000Y-59613072D01*
X83534250Y-59610000D01*
X83693000Y-59451250D01*
X83693000Y-57837000D01*
X83673000Y-57837000D01*
X83673000Y-57583000D01*
X83693000Y-57583000D01*
X83693000Y-57563000D01*
X83947000Y-57563000D01*
X83947000Y-57583000D01*
G37*
%TD.AperFunction*%
D26*
X45180353Y-60762000D02*
X44085647Y-60762000D01*
X43063458Y-59739812D01*
X43040438Y-59711762D01*
X42928520Y-59619913D01*
X42800833Y-59551663D01*
X42662285Y-59509635D01*
X42554305Y-59499000D01*
X42518200Y-59495444D01*
X42482095Y-59499000D01*
X40227016Y-59499000D01*
X40337659Y-59454715D01*
X40359101Y-59443255D01*
X40378880Y-59242485D01*
X39870000Y-58733605D01*
X39855858Y-58747748D01*
X39676253Y-58568143D01*
X39690395Y-58554000D01*
X40049605Y-58554000D01*
X40558485Y-59062880D01*
X40759255Y-59043101D01*
X40837587Y-58860218D01*
X40878735Y-58665567D01*
X40881118Y-58466628D01*
X40844644Y-58271048D01*
X40770715Y-58086341D01*
X40759255Y-58064899D01*
X40558485Y-58045120D01*
X40049605Y-58554000D01*
X39690395Y-58554000D01*
X39676253Y-58539858D01*
X39855858Y-58360253D01*
X39870000Y-58374395D01*
X40378880Y-57865515D01*
X40359101Y-57664745D01*
X40228952Y-57609000D01*
X42027354Y-57609000D01*
X45180353Y-60762000D01*
%TA.AperFunction,Conductor*%
D27*
G36*
X45180353Y-60762000D02*
G01*
X44085647Y-60762000D01*
X43063458Y-59739812D01*
X43040438Y-59711762D01*
X42928520Y-59619913D01*
X42800833Y-59551663D01*
X42662285Y-59509635D01*
X42554305Y-59499000D01*
X42518200Y-59495444D01*
X42482095Y-59499000D01*
X40227016Y-59499000D01*
X40337659Y-59454715D01*
X40359101Y-59443255D01*
X40378880Y-59242485D01*
X39870000Y-58733605D01*
X39855858Y-58747748D01*
X39676253Y-58568143D01*
X39690395Y-58554000D01*
X40049605Y-58554000D01*
X40558485Y-59062880D01*
X40759255Y-59043101D01*
X40837587Y-58860218D01*
X40878735Y-58665567D01*
X40881118Y-58466628D01*
X40844644Y-58271048D01*
X40770715Y-58086341D01*
X40759255Y-58064899D01*
X40558485Y-58045120D01*
X40049605Y-58554000D01*
X39690395Y-58554000D01*
X39676253Y-58539858D01*
X39855858Y-58360253D01*
X39870000Y-58374395D01*
X40378880Y-57865515D01*
X40359101Y-57664745D01*
X40228952Y-57609000D01*
X42027354Y-57609000D01*
X45180353Y-60762000D01*
G37*
%TD.AperFunction*%
D26*
X62186644Y-55810000D02*
X62102998Y-55810000D01*
X62102998Y-55968748D01*
X61944250Y-55810000D01*
X61930000Y-55806928D01*
X61805518Y-55819188D01*
X61685820Y-55855498D01*
X61595000Y-55904043D01*
X61504180Y-55855498D01*
X61384482Y-55819188D01*
X61260000Y-55806928D01*
X61245750Y-55810000D01*
X61087000Y-55968750D01*
X61087000Y-57583000D01*
X62103000Y-57583000D01*
X62103000Y-57563000D01*
X62357000Y-57563000D01*
X62357000Y-57583000D01*
X62377000Y-57583000D01*
X62377000Y-57837000D01*
X62357000Y-57837000D01*
X62357000Y-59451250D01*
X62490001Y-59584251D01*
X62490001Y-59640383D01*
X62485114Y-59690000D01*
X62490630Y-59746000D01*
X59709000Y-59746000D01*
X59709000Y-59610000D01*
X59817002Y-59610000D01*
X59817002Y-59451252D01*
X59975750Y-59610000D01*
X59990000Y-59613072D01*
X60114482Y-59600812D01*
X60234180Y-59564502D01*
X60325000Y-59515957D01*
X60415820Y-59564502D01*
X60535518Y-59600812D01*
X60660000Y-59613072D01*
X60674250Y-59610000D01*
X60833000Y-59451250D01*
X60833000Y-57837000D01*
X61087000Y-57837000D01*
X61087000Y-59451250D01*
X61245750Y-59610000D01*
X61260000Y-59613072D01*
X61384482Y-59600812D01*
X61504180Y-59564502D01*
X61595000Y-59515957D01*
X61685820Y-59564502D01*
X61805518Y-59600812D01*
X61930000Y-59613072D01*
X61944250Y-59610000D01*
X62103000Y-59451250D01*
X62103000Y-57837000D01*
X61087000Y-57837000D01*
X60833000Y-57837000D01*
X59817000Y-57837000D01*
X59817000Y-57857000D01*
X59563000Y-57857000D01*
X59563000Y-57837000D01*
X59543000Y-57837000D01*
X59543000Y-57583000D01*
X59563000Y-57583000D01*
X59563000Y-55968750D01*
X59817000Y-55968750D01*
X59817000Y-57583000D01*
X60833000Y-57583000D01*
X60833000Y-55968750D01*
X60674250Y-55810000D01*
X60660000Y-55806928D01*
X60535518Y-55819188D01*
X60415820Y-55855498D01*
X60325000Y-55904043D01*
X60234180Y-55855498D01*
X60114482Y-55819188D01*
X59990000Y-55806928D01*
X59975750Y-55810000D01*
X59817000Y-55968750D01*
X59563000Y-55968750D01*
X59404250Y-55810000D01*
X59390000Y-55806928D01*
X59265518Y-55819188D01*
X59145820Y-55855498D01*
X59055000Y-55904043D01*
X58964180Y-55855498D01*
X58844482Y-55819188D01*
X58720000Y-55806928D01*
X58120000Y-55806928D01*
X57995518Y-55819188D01*
X57875820Y-55855498D01*
X57785000Y-55904043D01*
X57694180Y-55855498D01*
X57574482Y-55819188D01*
X57450000Y-55806928D01*
X56850000Y-55806928D01*
X56725518Y-55819188D01*
X56605820Y-55855498D01*
X56515000Y-55904043D01*
X56424180Y-55855498D01*
X56304482Y-55819188D01*
X56180000Y-55806928D01*
X55580000Y-55806928D01*
X55455518Y-55819188D01*
X55335820Y-55855498D01*
X55225506Y-55914463D01*
X55128815Y-55993815D01*
X55049463Y-56090506D01*
X54990498Y-56200820D01*
X54954188Y-56320518D01*
X54941928Y-56445000D01*
X54941928Y-56700000D01*
X54099608Y-56700000D01*
X54050000Y-56695114D01*
X53933267Y-56706611D01*
X54063061Y-56512359D01*
X54163696Y-56269405D01*
X54215000Y-56011486D01*
X54215000Y-55748514D01*
X54163696Y-55490595D01*
X54063061Y-55247641D01*
X53916962Y-55028987D01*
X53731013Y-54843038D01*
X53512359Y-54696939D01*
X53269405Y-54596304D01*
X53011486Y-54545000D01*
X52748514Y-54545000D01*
X52490595Y-54596304D01*
X52247641Y-54696939D01*
X52028987Y-54843038D01*
X51843038Y-55028987D01*
X51818072Y-55066351D01*
X51818072Y-54580000D01*
X51805812Y-54455518D01*
X51773803Y-54350000D01*
X60726645Y-54350000D01*
X62186644Y-55810000D01*
%TA.AperFunction,Conductor*%
D27*
G36*
X62186644Y-55810000D02*
G01*
X62102998Y-55810000D01*
X62102998Y-55968748D01*
X61944250Y-55810000D01*
X61930000Y-55806928D01*
X61805518Y-55819188D01*
X61685820Y-55855498D01*
X61595000Y-55904043D01*
X61504180Y-55855498D01*
X61384482Y-55819188D01*
X61260000Y-55806928D01*
X61245750Y-55810000D01*
X61087000Y-55968750D01*
X61087000Y-57583000D01*
X62103000Y-57583000D01*
X62103000Y-57563000D01*
X62357000Y-57563000D01*
X62357000Y-57583000D01*
X62377000Y-57583000D01*
X62377000Y-57837000D01*
X62357000Y-57837000D01*
X62357000Y-59451250D01*
X62490001Y-59584251D01*
X62490001Y-59640383D01*
X62485114Y-59690000D01*
X62490630Y-59746000D01*
X59709000Y-59746000D01*
X59709000Y-59610000D01*
X59817002Y-59610000D01*
X59817002Y-59451252D01*
X59975750Y-59610000D01*
X59990000Y-59613072D01*
X60114482Y-59600812D01*
X60234180Y-59564502D01*
X60325000Y-59515957D01*
X60415820Y-59564502D01*
X60535518Y-59600812D01*
X60660000Y-59613072D01*
X60674250Y-59610000D01*
X60833000Y-59451250D01*
X60833000Y-57837000D01*
X61087000Y-57837000D01*
X61087000Y-59451250D01*
X61245750Y-59610000D01*
X61260000Y-59613072D01*
X61384482Y-59600812D01*
X61504180Y-59564502D01*
X61595000Y-59515957D01*
X61685820Y-59564502D01*
X61805518Y-59600812D01*
X61930000Y-59613072D01*
X61944250Y-59610000D01*
X62103000Y-59451250D01*
X62103000Y-57837000D01*
X61087000Y-57837000D01*
X60833000Y-57837000D01*
X59817000Y-57837000D01*
X59817000Y-57857000D01*
X59563000Y-57857000D01*
X59563000Y-57837000D01*
X59543000Y-57837000D01*
X59543000Y-57583000D01*
X59563000Y-57583000D01*
X59563000Y-55968750D01*
X59817000Y-55968750D01*
X59817000Y-57583000D01*
X60833000Y-57583000D01*
X60833000Y-55968750D01*
X60674250Y-55810000D01*
X60660000Y-55806928D01*
X60535518Y-55819188D01*
X60415820Y-55855498D01*
X60325000Y-55904043D01*
X60234180Y-55855498D01*
X60114482Y-55819188D01*
X59990000Y-55806928D01*
X59975750Y-55810000D01*
X59817000Y-55968750D01*
X59563000Y-55968750D01*
X59404250Y-55810000D01*
X59390000Y-55806928D01*
X59265518Y-55819188D01*
X59145820Y-55855498D01*
X59055000Y-55904043D01*
X58964180Y-55855498D01*
X58844482Y-55819188D01*
X58720000Y-55806928D01*
X58120000Y-55806928D01*
X57995518Y-55819188D01*
X57875820Y-55855498D01*
X57785000Y-55904043D01*
X57694180Y-55855498D01*
X57574482Y-55819188D01*
X57450000Y-55806928D01*
X56850000Y-55806928D01*
X56725518Y-55819188D01*
X56605820Y-55855498D01*
X56515000Y-55904043D01*
X56424180Y-55855498D01*
X56304482Y-55819188D01*
X56180000Y-55806928D01*
X55580000Y-55806928D01*
X55455518Y-55819188D01*
X55335820Y-55855498D01*
X55225506Y-55914463D01*
X55128815Y-55993815D01*
X55049463Y-56090506D01*
X54990498Y-56200820D01*
X54954188Y-56320518D01*
X54941928Y-56445000D01*
X54941928Y-56700000D01*
X54099608Y-56700000D01*
X54050000Y-56695114D01*
X53933267Y-56706611D01*
X54063061Y-56512359D01*
X54163696Y-56269405D01*
X54215000Y-56011486D01*
X54215000Y-55748514D01*
X54163696Y-55490595D01*
X54063061Y-55247641D01*
X53916962Y-55028987D01*
X53731013Y-54843038D01*
X53512359Y-54696939D01*
X53269405Y-54596304D01*
X53011486Y-54545000D01*
X52748514Y-54545000D01*
X52490595Y-54596304D01*
X52247641Y-54696939D01*
X52028987Y-54843038D01*
X51843038Y-55028987D01*
X51818072Y-55066351D01*
X51818072Y-54580000D01*
X51805812Y-54455518D01*
X51773803Y-54350000D01*
X60726645Y-54350000D01*
X62186644Y-55810000D01*
G37*
%TD.AperFunction*%
D26*
X79355506Y-55914463D02*
X79258815Y-55993815D01*
X79179463Y-56090506D01*
X79120498Y-56200820D01*
X79084188Y-56320518D01*
X79071928Y-56445000D01*
X79075000Y-57424250D01*
X79233750Y-57583000D01*
X79883000Y-57583000D01*
X79883000Y-57563000D01*
X80137000Y-57563000D01*
X80137000Y-57583000D01*
X80157000Y-57583000D01*
X80157000Y-57837000D01*
X80137000Y-57837000D01*
X80137000Y-59451250D01*
X80295750Y-59610000D01*
X80310000Y-59613072D01*
X80434482Y-59600812D01*
X80554180Y-59564502D01*
X80645000Y-59515957D01*
X80735820Y-59564502D01*
X80855518Y-59600812D01*
X80955000Y-59610610D01*
X80955000Y-59673353D01*
X80882354Y-59746000D01*
X75203000Y-59746000D01*
X75203000Y-59588061D01*
X75163226Y-59388102D01*
X75085205Y-59199744D01*
X74971937Y-59030226D01*
X74916711Y-58975000D01*
X79071928Y-58975000D01*
X79084188Y-59099482D01*
X79120498Y-59219180D01*
X79179463Y-59329494D01*
X79258815Y-59426185D01*
X79355506Y-59505537D01*
X79465820Y-59564502D01*
X79585518Y-59600812D01*
X79710000Y-59613072D01*
X79724250Y-59610000D01*
X79883000Y-59451250D01*
X79883000Y-57837000D01*
X79233750Y-57837000D01*
X79075000Y-57995750D01*
X79071928Y-58975000D01*
X74916711Y-58975000D01*
X74827774Y-58886063D01*
X74670000Y-58780642D01*
X74670000Y-58470000D01*
X75348678Y-58470000D01*
X75386000Y-58473676D01*
X75423322Y-58470000D01*
X75423333Y-58470000D01*
X75534986Y-58459003D01*
X75678247Y-58415546D01*
X75810276Y-58344974D01*
X75926001Y-58250001D01*
X75949804Y-58220997D01*
X78292802Y-55878000D01*
X79423722Y-55878000D01*
X79355506Y-55914463D01*
%TA.AperFunction,Conductor*%
D27*
G36*
X79355506Y-55914463D02*
G01*
X79258815Y-55993815D01*
X79179463Y-56090506D01*
X79120498Y-56200820D01*
X79084188Y-56320518D01*
X79071928Y-56445000D01*
X79075000Y-57424250D01*
X79233750Y-57583000D01*
X79883000Y-57583000D01*
X79883000Y-57563000D01*
X80137000Y-57563000D01*
X80137000Y-57583000D01*
X80157000Y-57583000D01*
X80157000Y-57837000D01*
X80137000Y-57837000D01*
X80137000Y-59451250D01*
X80295750Y-59610000D01*
X80310000Y-59613072D01*
X80434482Y-59600812D01*
X80554180Y-59564502D01*
X80645000Y-59515957D01*
X80735820Y-59564502D01*
X80855518Y-59600812D01*
X80955000Y-59610610D01*
X80955000Y-59673353D01*
X80882354Y-59746000D01*
X75203000Y-59746000D01*
X75203000Y-59588061D01*
X75163226Y-59388102D01*
X75085205Y-59199744D01*
X74971937Y-59030226D01*
X74916711Y-58975000D01*
X79071928Y-58975000D01*
X79084188Y-59099482D01*
X79120498Y-59219180D01*
X79179463Y-59329494D01*
X79258815Y-59426185D01*
X79355506Y-59505537D01*
X79465820Y-59564502D01*
X79585518Y-59600812D01*
X79710000Y-59613072D01*
X79724250Y-59610000D01*
X79883000Y-59451250D01*
X79883000Y-57837000D01*
X79233750Y-57837000D01*
X79075000Y-57995750D01*
X79071928Y-58975000D01*
X74916711Y-58975000D01*
X74827774Y-58886063D01*
X74670000Y-58780642D01*
X74670000Y-58470000D01*
X75348678Y-58470000D01*
X75386000Y-58473676D01*
X75423322Y-58470000D01*
X75423333Y-58470000D01*
X75534986Y-58459003D01*
X75678247Y-58415546D01*
X75810276Y-58344974D01*
X75926001Y-58250001D01*
X75949804Y-58220997D01*
X78292802Y-55878000D01*
X79423722Y-55878000D01*
X79355506Y-55914463D01*
G37*
%TD.AperFunction*%
D26*
X73546928Y-54305000D02*
X73559188Y-54429482D01*
X73595498Y-54549180D01*
X73654463Y-54659494D01*
X73733815Y-54756185D01*
X73830506Y-54835537D01*
X73940820Y-54894502D01*
X74060518Y-54930812D01*
X74185000Y-54943072D01*
X74685000Y-54943072D01*
X74809482Y-54930812D01*
X74835000Y-54923071D01*
X74860518Y-54930812D01*
X74985000Y-54943072D01*
X75485000Y-54943072D01*
X75609482Y-54930812D01*
X75635000Y-54923071D01*
X75660518Y-54930812D01*
X75785000Y-54943072D01*
X76285000Y-54943072D01*
X76409482Y-54930812D01*
X76435000Y-54923071D01*
X76460518Y-54930812D01*
X76585000Y-54943072D01*
X77078126Y-54943072D01*
X75071199Y-56950000D01*
X74598072Y-56950000D01*
X74598072Y-56445000D01*
X74585812Y-56320518D01*
X74549502Y-56200820D01*
X74490537Y-56090506D01*
X74411185Y-55993815D01*
X74314494Y-55914463D01*
X74204180Y-55855498D01*
X74084482Y-55819188D01*
X73960000Y-55806928D01*
X73360000Y-55806928D01*
X73235518Y-55819188D01*
X73115820Y-55855498D01*
X73025000Y-55904043D01*
X72934180Y-55855498D01*
X72814482Y-55819188D01*
X72690000Y-55806928D01*
X72090000Y-55806928D01*
X71965518Y-55819188D01*
X71845820Y-55855498D01*
X71755000Y-55904043D01*
X71664180Y-55855498D01*
X71544482Y-55819188D01*
X71420000Y-55806928D01*
X70820000Y-55806928D01*
X70695518Y-55819188D01*
X70575820Y-55855498D01*
X70485000Y-55904043D01*
X70394180Y-55855498D01*
X70274482Y-55819188D01*
X70150000Y-55806928D01*
X70135750Y-55810000D01*
X69977000Y-55968750D01*
X69977000Y-57583000D01*
X69997000Y-57583000D01*
X69997000Y-57837000D01*
X69977000Y-57837000D01*
X69977000Y-59451250D01*
X70135750Y-59610000D01*
X70150000Y-59613072D01*
X70274482Y-59600812D01*
X70394180Y-59564502D01*
X70485000Y-59515957D01*
X70575820Y-59564502D01*
X70695518Y-59600812D01*
X70820000Y-59613072D01*
X71380000Y-59613072D01*
X71380000Y-59640392D01*
X71375114Y-59690000D01*
X71380630Y-59746000D01*
X67329000Y-59746000D01*
X67329000Y-59610000D01*
X67437002Y-59610000D01*
X67437002Y-59451252D01*
X67595750Y-59610000D01*
X67610000Y-59613072D01*
X67734482Y-59600812D01*
X67854180Y-59564502D01*
X67945000Y-59515957D01*
X68035820Y-59564502D01*
X68155518Y-59600812D01*
X68280000Y-59613072D01*
X68294250Y-59610000D01*
X68453000Y-59451250D01*
X68453000Y-57837000D01*
X68707000Y-57837000D01*
X68707000Y-59451250D01*
X68865750Y-59610000D01*
X68880000Y-59613072D01*
X69004482Y-59600812D01*
X69124180Y-59564502D01*
X69215000Y-59515957D01*
X69305820Y-59564502D01*
X69425518Y-59600812D01*
X69550000Y-59613072D01*
X69564250Y-59610000D01*
X69723000Y-59451250D01*
X69723000Y-57837000D01*
X68707000Y-57837000D01*
X68453000Y-57837000D01*
X67437000Y-57837000D01*
X67437000Y-57857000D01*
X67183000Y-57857000D01*
X67183000Y-57837000D01*
X67163000Y-57837000D01*
X67163000Y-57583000D01*
X67183000Y-57583000D01*
X67183000Y-55968750D01*
X67437000Y-55968750D01*
X67437000Y-57583000D01*
X68453000Y-57583000D01*
X68453000Y-55968750D01*
X68707000Y-55968750D01*
X68707000Y-57583000D01*
X69723000Y-57583000D01*
X69723000Y-55968750D01*
X69564250Y-55810000D01*
X69550000Y-55806928D01*
X69425518Y-55819188D01*
X69305820Y-55855498D01*
X69215000Y-55904043D01*
X69124180Y-55855498D01*
X69004482Y-55819188D01*
X68880000Y-55806928D01*
X68865750Y-55810000D01*
X68707000Y-55968750D01*
X68453000Y-55968750D01*
X68294250Y-55810000D01*
X68280000Y-55806928D01*
X68155518Y-55819188D01*
X68035820Y-55855498D01*
X67945000Y-55904043D01*
X67854180Y-55855498D01*
X67734482Y-55819188D01*
X67610000Y-55806928D01*
X67595750Y-55810000D01*
X67437000Y-55968750D01*
X67183000Y-55968750D01*
X67024250Y-55810000D01*
X67010000Y-55806928D01*
X66885518Y-55819188D01*
X66765820Y-55855498D01*
X66675000Y-55904043D01*
X66584180Y-55855498D01*
X66464482Y-55819188D01*
X66340000Y-55806928D01*
X65740000Y-55806928D01*
X65615518Y-55819188D01*
X65495820Y-55855498D01*
X65405000Y-55904043D01*
X65314180Y-55855498D01*
X65194482Y-55819188D01*
X65070000Y-55806928D01*
X64510000Y-55806928D01*
X64510000Y-55744608D01*
X64514886Y-55695000D01*
X64495385Y-55497005D01*
X64437632Y-55306620D01*
X64386874Y-55211659D01*
X64343847Y-55131160D01*
X64217633Y-54977367D01*
X64179100Y-54945744D01*
X61894261Y-52660906D01*
X61862633Y-52622367D01*
X61708840Y-52496153D01*
X61533380Y-52402368D01*
X61342994Y-52344615D01*
X61194608Y-52330000D01*
X61145000Y-52325114D01*
X61095392Y-52330000D01*
X45376356Y-52330000D01*
X45268356Y-52222000D01*
X73546928Y-52222000D01*
X73546928Y-54305000D01*
%TA.AperFunction,Conductor*%
D27*
G36*
X73546928Y-54305000D02*
G01*
X73559188Y-54429482D01*
X73595498Y-54549180D01*
X73654463Y-54659494D01*
X73733815Y-54756185D01*
X73830506Y-54835537D01*
X73940820Y-54894502D01*
X74060518Y-54930812D01*
X74185000Y-54943072D01*
X74685000Y-54943072D01*
X74809482Y-54930812D01*
X74835000Y-54923071D01*
X74860518Y-54930812D01*
X74985000Y-54943072D01*
X75485000Y-54943072D01*
X75609482Y-54930812D01*
X75635000Y-54923071D01*
X75660518Y-54930812D01*
X75785000Y-54943072D01*
X76285000Y-54943072D01*
X76409482Y-54930812D01*
X76435000Y-54923071D01*
X76460518Y-54930812D01*
X76585000Y-54943072D01*
X77078126Y-54943072D01*
X75071199Y-56950000D01*
X74598072Y-56950000D01*
X74598072Y-56445000D01*
X74585812Y-56320518D01*
X74549502Y-56200820D01*
X74490537Y-56090506D01*
X74411185Y-55993815D01*
X74314494Y-55914463D01*
X74204180Y-55855498D01*
X74084482Y-55819188D01*
X73960000Y-55806928D01*
X73360000Y-55806928D01*
X73235518Y-55819188D01*
X73115820Y-55855498D01*
X73025000Y-55904043D01*
X72934180Y-55855498D01*
X72814482Y-55819188D01*
X72690000Y-55806928D01*
X72090000Y-55806928D01*
X71965518Y-55819188D01*
X71845820Y-55855498D01*
X71755000Y-55904043D01*
X71664180Y-55855498D01*
X71544482Y-55819188D01*
X71420000Y-55806928D01*
X70820000Y-55806928D01*
X70695518Y-55819188D01*
X70575820Y-55855498D01*
X70485000Y-55904043D01*
X70394180Y-55855498D01*
X70274482Y-55819188D01*
X70150000Y-55806928D01*
X70135750Y-55810000D01*
X69977000Y-55968750D01*
X69977000Y-57583000D01*
X69997000Y-57583000D01*
X69997000Y-57837000D01*
X69977000Y-57837000D01*
X69977000Y-59451250D01*
X70135750Y-59610000D01*
X70150000Y-59613072D01*
X70274482Y-59600812D01*
X70394180Y-59564502D01*
X70485000Y-59515957D01*
X70575820Y-59564502D01*
X70695518Y-59600812D01*
X70820000Y-59613072D01*
X71380000Y-59613072D01*
X71380000Y-59640392D01*
X71375114Y-59690000D01*
X71380630Y-59746000D01*
X67329000Y-59746000D01*
X67329000Y-59610000D01*
X67437002Y-59610000D01*
X67437002Y-59451252D01*
X67595750Y-59610000D01*
X67610000Y-59613072D01*
X67734482Y-59600812D01*
X67854180Y-59564502D01*
X67945000Y-59515957D01*
X68035820Y-59564502D01*
X68155518Y-59600812D01*
X68280000Y-59613072D01*
X68294250Y-59610000D01*
X68453000Y-59451250D01*
X68453000Y-57837000D01*
X68707000Y-57837000D01*
X68707000Y-59451250D01*
X68865750Y-59610000D01*
X68880000Y-59613072D01*
X69004482Y-59600812D01*
X69124180Y-59564502D01*
X69215000Y-59515957D01*
X69305820Y-59564502D01*
X69425518Y-59600812D01*
X69550000Y-59613072D01*
X69564250Y-59610000D01*
X69723000Y-59451250D01*
X69723000Y-57837000D01*
X68707000Y-57837000D01*
X68453000Y-57837000D01*
X67437000Y-57837000D01*
X67437000Y-57857000D01*
X67183000Y-57857000D01*
X67183000Y-57837000D01*
X67163000Y-57837000D01*
X67163000Y-57583000D01*
X67183000Y-57583000D01*
X67183000Y-55968750D01*
X67437000Y-55968750D01*
X67437000Y-57583000D01*
X68453000Y-57583000D01*
X68453000Y-55968750D01*
X68707000Y-55968750D01*
X68707000Y-57583000D01*
X69723000Y-57583000D01*
X69723000Y-55968750D01*
X69564250Y-55810000D01*
X69550000Y-55806928D01*
X69425518Y-55819188D01*
X69305820Y-55855498D01*
X69215000Y-55904043D01*
X69124180Y-55855498D01*
X69004482Y-55819188D01*
X68880000Y-55806928D01*
X68865750Y-55810000D01*
X68707000Y-55968750D01*
X68453000Y-55968750D01*
X68294250Y-55810000D01*
X68280000Y-55806928D01*
X68155518Y-55819188D01*
X68035820Y-55855498D01*
X67945000Y-55904043D01*
X67854180Y-55855498D01*
X67734482Y-55819188D01*
X67610000Y-55806928D01*
X67595750Y-55810000D01*
X67437000Y-55968750D01*
X67183000Y-55968750D01*
X67024250Y-55810000D01*
X67010000Y-55806928D01*
X66885518Y-55819188D01*
X66765820Y-55855498D01*
X66675000Y-55904043D01*
X66584180Y-55855498D01*
X66464482Y-55819188D01*
X66340000Y-55806928D01*
X65740000Y-55806928D01*
X65615518Y-55819188D01*
X65495820Y-55855498D01*
X65405000Y-55904043D01*
X65314180Y-55855498D01*
X65194482Y-55819188D01*
X65070000Y-55806928D01*
X64510000Y-55806928D01*
X64510000Y-55744608D01*
X64514886Y-55695000D01*
X64495385Y-55497005D01*
X64437632Y-55306620D01*
X64386874Y-55211659D01*
X64343847Y-55131160D01*
X64217633Y-54977367D01*
X64179100Y-54945744D01*
X61894261Y-52660906D01*
X61862633Y-52622367D01*
X61708840Y-52496153D01*
X61533380Y-52402368D01*
X61342994Y-52344615D01*
X61194608Y-52330000D01*
X61145000Y-52325114D01*
X61095392Y-52330000D01*
X45376356Y-52330000D01*
X45268356Y-52222000D01*
X73546928Y-52222000D01*
X73546928Y-54305000D01*
G37*
%TD.AperFunction*%
D26*
X80137002Y-55968748D02*
X80137002Y-55878000D01*
X80227750Y-55878000D01*
X80137002Y-55968748D01*
%TA.AperFunction,Conductor*%
D27*
G36*
X80137002Y-55968748D02*
G01*
X80137002Y-55878000D01*
X80227750Y-55878000D01*
X80137002Y-55968748D01*
G37*
%TD.AperFunction*%
D26*
X83692998Y-55968748D02*
X83602250Y-55878000D01*
X83692998Y-55878000D01*
X83692998Y-55968748D01*
%TA.AperFunction,Conductor*%
D27*
G36*
X83692998Y-55968748D02*
G01*
X83602250Y-55878000D01*
X83692998Y-55878000D01*
X83692998Y-55968748D01*
G37*
%TD.AperFunction*%
D26*
X83947002Y-55968748D02*
X83947002Y-55878000D01*
X84037750Y-55878000D01*
X83947002Y-55968748D01*
%TA.AperFunction,Conductor*%
D27*
G36*
X83947002Y-55968748D02*
G01*
X83947002Y-55878000D01*
X84037750Y-55878000D01*
X83947002Y-55968748D01*
G37*
%TD.AperFunction*%
D26*
X87502998Y-55968748D02*
X87412250Y-55878000D01*
X87502998Y-55878000D01*
X87502998Y-55968748D01*
%TA.AperFunction,Conductor*%
D27*
G36*
X87502998Y-55968748D02*
G01*
X87412250Y-55878000D01*
X87502998Y-55878000D01*
X87502998Y-55968748D01*
G37*
%TD.AperFunction*%
D26*
X73595498Y-35753180D02*
X73654463Y-35863494D01*
X73733815Y-35960185D01*
X73830506Y-36039537D01*
X73940820Y-36098502D01*
X74060518Y-36134812D01*
X74185000Y-36147072D01*
X74685000Y-36147072D01*
X74809482Y-36134812D01*
X74835000Y-36127071D01*
X74860518Y-36134812D01*
X74985000Y-36147072D01*
X75485000Y-36147072D01*
X75609482Y-36134812D01*
X75635000Y-36127071D01*
X75660518Y-36134812D01*
X75785000Y-36147072D01*
X76285000Y-36147072D01*
X76409482Y-36134812D01*
X76435000Y-36127071D01*
X76460518Y-36134812D01*
X76585000Y-36147072D01*
X77085000Y-36147072D01*
X77209482Y-36134812D01*
X77235000Y-36127071D01*
X77260518Y-36134812D01*
X77385000Y-36147072D01*
X77885000Y-36147072D01*
X78009482Y-36134812D01*
X78035000Y-36127071D01*
X78060518Y-36134812D01*
X78185000Y-36147072D01*
X78685000Y-36147072D01*
X78809482Y-36134812D01*
X78835000Y-36127071D01*
X78860518Y-36134812D01*
X78985000Y-36147072D01*
X79485000Y-36147072D01*
X79609482Y-36134812D01*
X79729180Y-36098502D01*
X79839494Y-36039537D01*
X79936185Y-35960185D01*
X80015537Y-35863494D01*
X80074502Y-35753180D01*
X80094577Y-35687000D01*
X80451289Y-35687000D01*
X80358831Y-35779458D01*
X80245563Y-35948976D01*
X80167542Y-36137334D01*
X80127768Y-36337293D01*
X80127768Y-36541171D01*
X80167542Y-36741130D01*
X80245563Y-36929488D01*
X80301241Y-37012816D01*
X80295750Y-37014000D01*
X80137000Y-37172750D01*
X80137000Y-38787000D01*
X80157000Y-38787000D01*
X80157000Y-39041000D01*
X80137000Y-39041000D01*
X80137000Y-39061000D01*
X79883000Y-39061000D01*
X79883000Y-39041000D01*
X79233750Y-39041000D01*
X79152597Y-39122153D01*
X78450256Y-38419812D01*
X78427236Y-38391762D01*
X78315318Y-38299913D01*
X78187631Y-38231663D01*
X78049083Y-38189635D01*
X77941103Y-38179000D01*
X77904998Y-38175444D01*
X77868893Y-38179000D01*
X76441896Y-38179000D01*
X76405791Y-38175444D01*
X76261706Y-38189635D01*
X76123157Y-38231663D01*
X76037298Y-38277556D01*
X75995471Y-38299913D01*
X75883553Y-38391762D01*
X75860537Y-38419807D01*
X74962011Y-39318334D01*
X74906753Y-39295445D01*
X74706794Y-39255671D01*
X74611801Y-39255671D01*
X74655385Y-39111994D01*
X74674886Y-38914000D01*
X74655385Y-38716006D01*
X74598072Y-38527070D01*
X74598072Y-37649000D01*
X79071928Y-37649000D01*
X79075000Y-38628250D01*
X79233750Y-38787000D01*
X79883000Y-38787000D01*
X79883000Y-37172750D01*
X79724250Y-37014000D01*
X79710000Y-37010928D01*
X79585518Y-37023188D01*
X79465820Y-37059498D01*
X79355506Y-37118463D01*
X79258815Y-37197815D01*
X79179463Y-37294506D01*
X79120498Y-37404820D01*
X79084188Y-37524518D01*
X79071928Y-37649000D01*
X74598072Y-37649000D01*
X74585812Y-37524518D01*
X74549502Y-37404820D01*
X74490537Y-37294506D01*
X74411185Y-37197815D01*
X74314494Y-37118463D01*
X74204180Y-37059498D01*
X74084482Y-37023188D01*
X73960000Y-37010928D01*
X73360000Y-37010928D01*
X73235518Y-37023188D01*
X73115820Y-37059498D01*
X73025000Y-37108043D01*
X72934180Y-37059498D01*
X72814482Y-37023188D01*
X72690000Y-37010928D01*
X72090000Y-37010928D01*
X71965518Y-37023188D01*
X71845820Y-37059498D01*
X71755000Y-37108043D01*
X71664180Y-37059498D01*
X71544482Y-37023188D01*
X71420000Y-37010928D01*
X70820000Y-37010928D01*
X70695518Y-37023188D01*
X70575820Y-37059498D01*
X70485000Y-37108043D01*
X70394180Y-37059498D01*
X70274482Y-37023188D01*
X70150000Y-37010928D01*
X70135750Y-37014000D01*
X69977000Y-37172750D01*
X69977000Y-38787000D01*
X69997000Y-38787000D01*
X69997000Y-39041000D01*
X69977000Y-39041000D01*
X69977000Y-40655250D01*
X70135750Y-40814000D01*
X70150000Y-40817072D01*
X70274482Y-40804812D01*
X70394180Y-40768502D01*
X70485000Y-40719957D01*
X70575820Y-40768502D01*
X70695518Y-40804812D01*
X70820000Y-40817072D01*
X71420000Y-40817072D01*
X71544482Y-40804812D01*
X71664180Y-40768502D01*
X71755000Y-40719957D01*
X71845820Y-40768502D01*
X71965518Y-40804812D01*
X72090000Y-40817072D01*
X72690000Y-40817072D01*
X72814482Y-40804812D01*
X72909711Y-40775925D01*
X72910997Y-40788986D01*
X72954454Y-40932247D01*
X73025026Y-41064276D01*
X73119999Y-41180001D01*
X73149001Y-41203802D01*
X73703199Y-41758000D01*
X64099355Y-41758000D01*
X64179094Y-41678261D01*
X64217633Y-41646633D01*
X64343847Y-41492840D01*
X64437632Y-41317380D01*
X64479179Y-41180418D01*
X64495385Y-41126995D01*
X64514886Y-40929000D01*
X64510000Y-40879392D01*
X64510000Y-40817072D01*
X65070000Y-40817072D01*
X65194482Y-40804812D01*
X65314180Y-40768502D01*
X65405000Y-40719957D01*
X65495820Y-40768502D01*
X65615518Y-40804812D01*
X65740000Y-40817072D01*
X66340000Y-40817072D01*
X66464482Y-40804812D01*
X66584180Y-40768502D01*
X66675000Y-40719957D01*
X66765820Y-40768502D01*
X66885518Y-40804812D01*
X67010000Y-40817072D01*
X67024250Y-40814000D01*
X67183000Y-40655250D01*
X67183000Y-39041000D01*
X67437000Y-39041000D01*
X67437000Y-40655250D01*
X67595750Y-40814000D01*
X67610000Y-40817072D01*
X67734482Y-40804812D01*
X67854180Y-40768502D01*
X67945000Y-40719957D01*
X68035820Y-40768502D01*
X68155518Y-40804812D01*
X68280000Y-40817072D01*
X68294250Y-40814000D01*
X68453000Y-40655250D01*
X68453000Y-39041000D01*
X68707000Y-39041000D01*
X68707000Y-40655250D01*
X68865750Y-40814000D01*
X68880000Y-40817072D01*
X69004482Y-40804812D01*
X69124180Y-40768502D01*
X69215000Y-40719957D01*
X69305820Y-40768502D01*
X69425518Y-40804812D01*
X69550000Y-40817072D01*
X69564250Y-40814000D01*
X69723000Y-40655250D01*
X69723000Y-39041000D01*
X68707000Y-39041000D01*
X68453000Y-39041000D01*
X67437000Y-39041000D01*
X67183000Y-39041000D01*
X67163000Y-39041000D01*
X67163000Y-38787000D01*
X67183000Y-38787000D01*
X67183000Y-37172750D01*
X67437000Y-37172750D01*
X67437000Y-38787000D01*
X68453000Y-38787000D01*
X68453000Y-37172750D01*
X68707000Y-37172750D01*
X68707000Y-38787000D01*
X69723000Y-38787000D01*
X69723000Y-37172750D01*
X69564250Y-37014000D01*
X69550000Y-37010928D01*
X69425518Y-37023188D01*
X69305820Y-37059498D01*
X69215000Y-37108043D01*
X69124180Y-37059498D01*
X69004482Y-37023188D01*
X68880000Y-37010928D01*
X68865750Y-37014000D01*
X68707000Y-37172750D01*
X68453000Y-37172750D01*
X68294250Y-37014000D01*
X68280000Y-37010928D01*
X68155518Y-37023188D01*
X68035820Y-37059498D01*
X67945000Y-37108043D01*
X67854180Y-37059498D01*
X67734482Y-37023188D01*
X67610000Y-37010928D01*
X67595750Y-37014000D01*
X67437000Y-37172750D01*
X67183000Y-37172750D01*
X67024250Y-37014000D01*
X67010000Y-37010928D01*
X66885518Y-37023188D01*
X66765820Y-37059498D01*
X66675000Y-37108043D01*
X66584180Y-37059498D01*
X66464482Y-37023188D01*
X66340000Y-37010928D01*
X65740000Y-37010928D01*
X65615518Y-37023188D01*
X65495820Y-37059498D01*
X65405000Y-37108043D01*
X65314180Y-37059498D01*
X65194482Y-37023188D01*
X65070000Y-37010928D01*
X64470000Y-37010928D01*
X64345518Y-37023188D01*
X64225820Y-37059498D01*
X64135000Y-37108043D01*
X64044180Y-37059498D01*
X63924482Y-37023188D01*
X63800000Y-37010928D01*
X63200000Y-37010928D01*
X63075518Y-37023188D01*
X62955820Y-37059498D01*
X62865000Y-37108043D01*
X62774180Y-37059498D01*
X62654482Y-37023188D01*
X62530000Y-37010928D01*
X62515750Y-37014000D01*
X62357000Y-37172750D01*
X62357000Y-38787000D01*
X62377000Y-38787000D01*
X62377000Y-39041000D01*
X62357000Y-39041000D01*
X62357000Y-39061000D01*
X62103000Y-39061000D01*
X62103000Y-39041000D01*
X61087000Y-39041000D01*
X61087000Y-39061000D01*
X60833000Y-39061000D01*
X60833000Y-39041000D01*
X59817000Y-39041000D01*
X59817000Y-39061000D01*
X59563000Y-39061000D01*
X59563000Y-39041000D01*
X59543000Y-39041000D01*
X59543000Y-38787000D01*
X59563000Y-38787000D01*
X59563000Y-37172750D01*
X59817000Y-37172750D01*
X59817000Y-38787000D01*
X60833000Y-38787000D01*
X60833000Y-37172750D01*
X61087000Y-37172750D01*
X61087000Y-38787000D01*
X62103000Y-38787000D01*
X62103000Y-37172750D01*
X61944250Y-37014000D01*
X61930000Y-37010928D01*
X61805518Y-37023188D01*
X61685820Y-37059498D01*
X61595000Y-37108043D01*
X61504180Y-37059498D01*
X61384482Y-37023188D01*
X61260000Y-37010928D01*
X61245750Y-37014000D01*
X61087000Y-37172750D01*
X60833000Y-37172750D01*
X60674250Y-37014000D01*
X60660000Y-37010928D01*
X60535518Y-37023188D01*
X60415820Y-37059498D01*
X60325000Y-37108043D01*
X60234180Y-37059498D01*
X60114482Y-37023188D01*
X59990000Y-37010928D01*
X59975750Y-37014000D01*
X59817000Y-37172750D01*
X59563000Y-37172750D01*
X59404250Y-37014000D01*
X59390000Y-37010928D01*
X59265518Y-37023188D01*
X59145820Y-37059498D01*
X59055000Y-37108043D01*
X58964180Y-37059498D01*
X58844482Y-37023188D01*
X58720000Y-37010928D01*
X58120000Y-37010928D01*
X57995518Y-37023188D01*
X57875820Y-37059498D01*
X57785000Y-37108043D01*
X57694180Y-37059498D01*
X57574482Y-37023188D01*
X57450000Y-37010928D01*
X56890000Y-37010928D01*
X56890000Y-36948604D01*
X56894886Y-36898999D01*
X56889741Y-36846762D01*
X56875385Y-36701006D01*
X56817632Y-36510620D01*
X56723847Y-36335160D01*
X56597633Y-36181367D01*
X56559094Y-36149739D01*
X56096355Y-35687000D01*
X73575423Y-35687000D01*
X73595498Y-35753180D01*
%TA.AperFunction,Conductor*%
D27*
G36*
X73595498Y-35753180D02*
G01*
X73654463Y-35863494D01*
X73733815Y-35960185D01*
X73830506Y-36039537D01*
X73940820Y-36098502D01*
X74060518Y-36134812D01*
X74185000Y-36147072D01*
X74685000Y-36147072D01*
X74809482Y-36134812D01*
X74835000Y-36127071D01*
X74860518Y-36134812D01*
X74985000Y-36147072D01*
X75485000Y-36147072D01*
X75609482Y-36134812D01*
X75635000Y-36127071D01*
X75660518Y-36134812D01*
X75785000Y-36147072D01*
X76285000Y-36147072D01*
X76409482Y-36134812D01*
X76435000Y-36127071D01*
X76460518Y-36134812D01*
X76585000Y-36147072D01*
X77085000Y-36147072D01*
X77209482Y-36134812D01*
X77235000Y-36127071D01*
X77260518Y-36134812D01*
X77385000Y-36147072D01*
X77885000Y-36147072D01*
X78009482Y-36134812D01*
X78035000Y-36127071D01*
X78060518Y-36134812D01*
X78185000Y-36147072D01*
X78685000Y-36147072D01*
X78809482Y-36134812D01*
X78835000Y-36127071D01*
X78860518Y-36134812D01*
X78985000Y-36147072D01*
X79485000Y-36147072D01*
X79609482Y-36134812D01*
X79729180Y-36098502D01*
X79839494Y-36039537D01*
X79936185Y-35960185D01*
X80015537Y-35863494D01*
X80074502Y-35753180D01*
X80094577Y-35687000D01*
X80451289Y-35687000D01*
X80358831Y-35779458D01*
X80245563Y-35948976D01*
X80167542Y-36137334D01*
X80127768Y-36337293D01*
X80127768Y-36541171D01*
X80167542Y-36741130D01*
X80245563Y-36929488D01*
X80301241Y-37012816D01*
X80295750Y-37014000D01*
X80137000Y-37172750D01*
X80137000Y-38787000D01*
X80157000Y-38787000D01*
X80157000Y-39041000D01*
X80137000Y-39041000D01*
X80137000Y-39061000D01*
X79883000Y-39061000D01*
X79883000Y-39041000D01*
X79233750Y-39041000D01*
X79152597Y-39122153D01*
X78450256Y-38419812D01*
X78427236Y-38391762D01*
X78315318Y-38299913D01*
X78187631Y-38231663D01*
X78049083Y-38189635D01*
X77941103Y-38179000D01*
X77904998Y-38175444D01*
X77868893Y-38179000D01*
X76441896Y-38179000D01*
X76405791Y-38175444D01*
X76261706Y-38189635D01*
X76123157Y-38231663D01*
X76037298Y-38277556D01*
X75995471Y-38299913D01*
X75883553Y-38391762D01*
X75860537Y-38419807D01*
X74962011Y-39318334D01*
X74906753Y-39295445D01*
X74706794Y-39255671D01*
X74611801Y-39255671D01*
X74655385Y-39111994D01*
X74674886Y-38914000D01*
X74655385Y-38716006D01*
X74598072Y-38527070D01*
X74598072Y-37649000D01*
X79071928Y-37649000D01*
X79075000Y-38628250D01*
X79233750Y-38787000D01*
X79883000Y-38787000D01*
X79883000Y-37172750D01*
X79724250Y-37014000D01*
X79710000Y-37010928D01*
X79585518Y-37023188D01*
X79465820Y-37059498D01*
X79355506Y-37118463D01*
X79258815Y-37197815D01*
X79179463Y-37294506D01*
X79120498Y-37404820D01*
X79084188Y-37524518D01*
X79071928Y-37649000D01*
X74598072Y-37649000D01*
X74585812Y-37524518D01*
X74549502Y-37404820D01*
X74490537Y-37294506D01*
X74411185Y-37197815D01*
X74314494Y-37118463D01*
X74204180Y-37059498D01*
X74084482Y-37023188D01*
X73960000Y-37010928D01*
X73360000Y-37010928D01*
X73235518Y-37023188D01*
X73115820Y-37059498D01*
X73025000Y-37108043D01*
X72934180Y-37059498D01*
X72814482Y-37023188D01*
X72690000Y-37010928D01*
X72090000Y-37010928D01*
X71965518Y-37023188D01*
X71845820Y-37059498D01*
X71755000Y-37108043D01*
X71664180Y-37059498D01*
X71544482Y-37023188D01*
X71420000Y-37010928D01*
X70820000Y-37010928D01*
X70695518Y-37023188D01*
X70575820Y-37059498D01*
X70485000Y-37108043D01*
X70394180Y-37059498D01*
X70274482Y-37023188D01*
X70150000Y-37010928D01*
X70135750Y-37014000D01*
X69977000Y-37172750D01*
X69977000Y-38787000D01*
X69997000Y-38787000D01*
X69997000Y-39041000D01*
X69977000Y-39041000D01*
X69977000Y-40655250D01*
X70135750Y-40814000D01*
X70150000Y-40817072D01*
X70274482Y-40804812D01*
X70394180Y-40768502D01*
X70485000Y-40719957D01*
X70575820Y-40768502D01*
X70695518Y-40804812D01*
X70820000Y-40817072D01*
X71420000Y-40817072D01*
X71544482Y-40804812D01*
X71664180Y-40768502D01*
X71755000Y-40719957D01*
X71845820Y-40768502D01*
X71965518Y-40804812D01*
X72090000Y-40817072D01*
X72690000Y-40817072D01*
X72814482Y-40804812D01*
X72909711Y-40775925D01*
X72910997Y-40788986D01*
X72954454Y-40932247D01*
X73025026Y-41064276D01*
X73119999Y-41180001D01*
X73149001Y-41203802D01*
X73703199Y-41758000D01*
X64099355Y-41758000D01*
X64179094Y-41678261D01*
X64217633Y-41646633D01*
X64343847Y-41492840D01*
X64437632Y-41317380D01*
X64479179Y-41180418D01*
X64495385Y-41126995D01*
X64514886Y-40929000D01*
X64510000Y-40879392D01*
X64510000Y-40817072D01*
X65070000Y-40817072D01*
X65194482Y-40804812D01*
X65314180Y-40768502D01*
X65405000Y-40719957D01*
X65495820Y-40768502D01*
X65615518Y-40804812D01*
X65740000Y-40817072D01*
X66340000Y-40817072D01*
X66464482Y-40804812D01*
X66584180Y-40768502D01*
X66675000Y-40719957D01*
X66765820Y-40768502D01*
X66885518Y-40804812D01*
X67010000Y-40817072D01*
X67024250Y-40814000D01*
X67183000Y-40655250D01*
X67183000Y-39041000D01*
X67437000Y-39041000D01*
X67437000Y-40655250D01*
X67595750Y-40814000D01*
X67610000Y-40817072D01*
X67734482Y-40804812D01*
X67854180Y-40768502D01*
X67945000Y-40719957D01*
X68035820Y-40768502D01*
X68155518Y-40804812D01*
X68280000Y-40817072D01*
X68294250Y-40814000D01*
X68453000Y-40655250D01*
X68453000Y-39041000D01*
X68707000Y-39041000D01*
X68707000Y-40655250D01*
X68865750Y-40814000D01*
X68880000Y-40817072D01*
X69004482Y-40804812D01*
X69124180Y-40768502D01*
X69215000Y-40719957D01*
X69305820Y-40768502D01*
X69425518Y-40804812D01*
X69550000Y-40817072D01*
X69564250Y-40814000D01*
X69723000Y-40655250D01*
X69723000Y-39041000D01*
X68707000Y-39041000D01*
X68453000Y-39041000D01*
X67437000Y-39041000D01*
X67183000Y-39041000D01*
X67163000Y-39041000D01*
X67163000Y-38787000D01*
X67183000Y-38787000D01*
X67183000Y-37172750D01*
X67437000Y-37172750D01*
X67437000Y-38787000D01*
X68453000Y-38787000D01*
X68453000Y-37172750D01*
X68707000Y-37172750D01*
X68707000Y-38787000D01*
X69723000Y-38787000D01*
X69723000Y-37172750D01*
X69564250Y-37014000D01*
X69550000Y-37010928D01*
X69425518Y-37023188D01*
X69305820Y-37059498D01*
X69215000Y-37108043D01*
X69124180Y-37059498D01*
X69004482Y-37023188D01*
X68880000Y-37010928D01*
X68865750Y-37014000D01*
X68707000Y-37172750D01*
X68453000Y-37172750D01*
X68294250Y-37014000D01*
X68280000Y-37010928D01*
X68155518Y-37023188D01*
X68035820Y-37059498D01*
X67945000Y-37108043D01*
X67854180Y-37059498D01*
X67734482Y-37023188D01*
X67610000Y-37010928D01*
X67595750Y-37014000D01*
X67437000Y-37172750D01*
X67183000Y-37172750D01*
X67024250Y-37014000D01*
X67010000Y-37010928D01*
X66885518Y-37023188D01*
X66765820Y-37059498D01*
X66675000Y-37108043D01*
X66584180Y-37059498D01*
X66464482Y-37023188D01*
X66340000Y-37010928D01*
X65740000Y-37010928D01*
X65615518Y-37023188D01*
X65495820Y-37059498D01*
X65405000Y-37108043D01*
X65314180Y-37059498D01*
X65194482Y-37023188D01*
X65070000Y-37010928D01*
X64470000Y-37010928D01*
X64345518Y-37023188D01*
X64225820Y-37059498D01*
X64135000Y-37108043D01*
X64044180Y-37059498D01*
X63924482Y-37023188D01*
X63800000Y-37010928D01*
X63200000Y-37010928D01*
X63075518Y-37023188D01*
X62955820Y-37059498D01*
X62865000Y-37108043D01*
X62774180Y-37059498D01*
X62654482Y-37023188D01*
X62530000Y-37010928D01*
X62515750Y-37014000D01*
X62357000Y-37172750D01*
X62357000Y-38787000D01*
X62377000Y-38787000D01*
X62377000Y-39041000D01*
X62357000Y-39041000D01*
X62357000Y-39061000D01*
X62103000Y-39061000D01*
X62103000Y-39041000D01*
X61087000Y-39041000D01*
X61087000Y-39061000D01*
X60833000Y-39061000D01*
X60833000Y-39041000D01*
X59817000Y-39041000D01*
X59817000Y-39061000D01*
X59563000Y-39061000D01*
X59563000Y-39041000D01*
X59543000Y-39041000D01*
X59543000Y-38787000D01*
X59563000Y-38787000D01*
X59563000Y-37172750D01*
X59817000Y-37172750D01*
X59817000Y-38787000D01*
X60833000Y-38787000D01*
X60833000Y-37172750D01*
X61087000Y-37172750D01*
X61087000Y-38787000D01*
X62103000Y-38787000D01*
X62103000Y-37172750D01*
X61944250Y-37014000D01*
X61930000Y-37010928D01*
X61805518Y-37023188D01*
X61685820Y-37059498D01*
X61595000Y-37108043D01*
X61504180Y-37059498D01*
X61384482Y-37023188D01*
X61260000Y-37010928D01*
X61245750Y-37014000D01*
X61087000Y-37172750D01*
X60833000Y-37172750D01*
X60674250Y-37014000D01*
X60660000Y-37010928D01*
X60535518Y-37023188D01*
X60415820Y-37059498D01*
X60325000Y-37108043D01*
X60234180Y-37059498D01*
X60114482Y-37023188D01*
X59990000Y-37010928D01*
X59975750Y-37014000D01*
X59817000Y-37172750D01*
X59563000Y-37172750D01*
X59404250Y-37014000D01*
X59390000Y-37010928D01*
X59265518Y-37023188D01*
X59145820Y-37059498D01*
X59055000Y-37108043D01*
X58964180Y-37059498D01*
X58844482Y-37023188D01*
X58720000Y-37010928D01*
X58120000Y-37010928D01*
X57995518Y-37023188D01*
X57875820Y-37059498D01*
X57785000Y-37108043D01*
X57694180Y-37059498D01*
X57574482Y-37023188D01*
X57450000Y-37010928D01*
X56890000Y-37010928D01*
X56890000Y-36948604D01*
X56894886Y-36898999D01*
X56889741Y-36846762D01*
X56875385Y-36701006D01*
X56817632Y-36510620D01*
X56723847Y-36335160D01*
X56597633Y-36181367D01*
X56559094Y-36149739D01*
X56096355Y-35687000D01*
X73575423Y-35687000D01*
X73595498Y-35753180D01*
G37*
%TD.AperFunction*%
D26*
X91691928Y-35784000D02*
X91691928Y-36681823D01*
X91635824Y-36546376D01*
X91511612Y-36360480D01*
X91353520Y-36202388D01*
X91167624Y-36078176D01*
X90961067Y-35992617D01*
X90741788Y-35949000D01*
X90518212Y-35949000D01*
X90298933Y-35992617D01*
X90092376Y-36078176D01*
X89906480Y-36202388D01*
X89748388Y-36360480D01*
X89624176Y-36546376D01*
X89538617Y-36752933D01*
X89495000Y-36972212D01*
X89495000Y-37195788D01*
X89538617Y-37415067D01*
X89624176Y-37621624D01*
X89748388Y-37807520D01*
X89906480Y-37965612D01*
X90092376Y-38089824D01*
X90298933Y-38175383D01*
X90518212Y-38219000D01*
X90741788Y-38219000D01*
X90961067Y-38175383D01*
X91167624Y-38089824D01*
X91353520Y-37965612D01*
X91511612Y-37807520D01*
X91635824Y-37621624D01*
X91691928Y-37486177D01*
X91691928Y-38384000D01*
X91704188Y-38508482D01*
X91740498Y-38628180D01*
X91799463Y-38738494D01*
X91878815Y-38835185D01*
X91975506Y-38914537D01*
X92085820Y-38973502D01*
X92205518Y-39009812D01*
X92330000Y-39022072D01*
X94930000Y-39022072D01*
X95054482Y-39009812D01*
X95174180Y-38973502D01*
X95284494Y-38914537D01*
X95381185Y-38835185D01*
X95460537Y-38738494D01*
X95519502Y-38628180D01*
X95555812Y-38508482D01*
X95568072Y-38384000D01*
X95568072Y-35784000D01*
X95558519Y-35687000D01*
X96393000Y-35687000D01*
X96393000Y-38422199D01*
X96009003Y-38806196D01*
X95979999Y-38829999D01*
X95924871Y-38897174D01*
X95885026Y-38945724D01*
X95866618Y-38980163D01*
X95814454Y-39077754D01*
X95770997Y-39221015D01*
X95760000Y-39332668D01*
X95760000Y-39332678D01*
X95756324Y-39370000D01*
X95760000Y-39407322D01*
X95760000Y-41345378D01*
X95674276Y-41275026D01*
X95542247Y-41204454D01*
X95398986Y-41160997D01*
X95287333Y-41150000D01*
X95274310Y-41150000D01*
X95236988Y-41146324D01*
X95199666Y-41150000D01*
X85998448Y-41150000D01*
X86331377Y-40817072D01*
X86660000Y-40817072D01*
X86784482Y-40804812D01*
X86904180Y-40768502D01*
X86995000Y-40719957D01*
X87085820Y-40768502D01*
X87205518Y-40804812D01*
X87330000Y-40817072D01*
X87344250Y-40814000D01*
X87503000Y-40655250D01*
X87503000Y-39041000D01*
X87757000Y-39041000D01*
X87757000Y-40655250D01*
X87915750Y-40814000D01*
X87930000Y-40817072D01*
X88054482Y-40804812D01*
X88174180Y-40768502D01*
X88284494Y-40709537D01*
X88381185Y-40630185D01*
X88460537Y-40533494D01*
X88519502Y-40423180D01*
X88555812Y-40303482D01*
X88568072Y-40179000D01*
X88565000Y-39199750D01*
X88406250Y-39041000D01*
X87757000Y-39041000D01*
X87503000Y-39041000D01*
X87483000Y-39041000D01*
X87483000Y-38787000D01*
X87503000Y-38787000D01*
X87503000Y-37172750D01*
X87757000Y-37172750D01*
X87757000Y-38787000D01*
X88406250Y-38787000D01*
X88565000Y-38628250D01*
X88568072Y-37649000D01*
X88555812Y-37524518D01*
X88519502Y-37404820D01*
X88460537Y-37294506D01*
X88381185Y-37197815D01*
X88284494Y-37118463D01*
X88174180Y-37059498D01*
X88054482Y-37023188D01*
X87930000Y-37010928D01*
X87915750Y-37014000D01*
X87757000Y-37172750D01*
X87503000Y-37172750D01*
X87344250Y-37014000D01*
X87330000Y-37010928D01*
X87205518Y-37023188D01*
X87085820Y-37059498D01*
X86995000Y-37108043D01*
X86904180Y-37059498D01*
X86784482Y-37023188D01*
X86660000Y-37010928D01*
X86060000Y-37010928D01*
X85935518Y-37023188D01*
X85815820Y-37059498D01*
X85725000Y-37108043D01*
X85634180Y-37059498D01*
X85514482Y-37023188D01*
X85390000Y-37010928D01*
X84790000Y-37010928D01*
X84665518Y-37023188D01*
X84545820Y-37059498D01*
X84455000Y-37108043D01*
X84364180Y-37059498D01*
X84244482Y-37023188D01*
X84120000Y-37010928D01*
X84105750Y-37014000D01*
X83947000Y-37172750D01*
X83947000Y-38351354D01*
X83897763Y-38391762D01*
X83805914Y-38503680D01*
X83737664Y-38631367D01*
X83695636Y-38769915D01*
X83681445Y-38914000D01*
X83685001Y-38950104D01*
X83685001Y-39041000D01*
X83673000Y-39041000D01*
X83673000Y-38787000D01*
X83693000Y-38787000D01*
X83693000Y-37172750D01*
X83534250Y-37014000D01*
X83520000Y-37010928D01*
X83395518Y-37023188D01*
X83275820Y-37059498D01*
X83185000Y-37108043D01*
X83094180Y-37059498D01*
X82974482Y-37023188D01*
X82875000Y-37013390D01*
X82875000Y-36391897D01*
X82878555Y-36355800D01*
X82875000Y-36319703D01*
X82875000Y-36319696D01*
X82864365Y-36211716D01*
X82861536Y-36202388D01*
X82847809Y-36157138D01*
X82842316Y-36139031D01*
X82900458Y-35998666D01*
X82940232Y-35798707D01*
X82940232Y-35687000D01*
X91701481Y-35687000D01*
X91691928Y-35784000D01*
%TA.AperFunction,Conductor*%
D27*
G36*
X91691928Y-35784000D02*
G01*
X91691928Y-36681823D01*
X91635824Y-36546376D01*
X91511612Y-36360480D01*
X91353520Y-36202388D01*
X91167624Y-36078176D01*
X90961067Y-35992617D01*
X90741788Y-35949000D01*
X90518212Y-35949000D01*
X90298933Y-35992617D01*
X90092376Y-36078176D01*
X89906480Y-36202388D01*
X89748388Y-36360480D01*
X89624176Y-36546376D01*
X89538617Y-36752933D01*
X89495000Y-36972212D01*
X89495000Y-37195788D01*
X89538617Y-37415067D01*
X89624176Y-37621624D01*
X89748388Y-37807520D01*
X89906480Y-37965612D01*
X90092376Y-38089824D01*
X90298933Y-38175383D01*
X90518212Y-38219000D01*
X90741788Y-38219000D01*
X90961067Y-38175383D01*
X91167624Y-38089824D01*
X91353520Y-37965612D01*
X91511612Y-37807520D01*
X91635824Y-37621624D01*
X91691928Y-37486177D01*
X91691928Y-38384000D01*
X91704188Y-38508482D01*
X91740498Y-38628180D01*
X91799463Y-38738494D01*
X91878815Y-38835185D01*
X91975506Y-38914537D01*
X92085820Y-38973502D01*
X92205518Y-39009812D01*
X92330000Y-39022072D01*
X94930000Y-39022072D01*
X95054482Y-39009812D01*
X95174180Y-38973502D01*
X95284494Y-38914537D01*
X95381185Y-38835185D01*
X95460537Y-38738494D01*
X95519502Y-38628180D01*
X95555812Y-38508482D01*
X95568072Y-38384000D01*
X95568072Y-35784000D01*
X95558519Y-35687000D01*
X96393000Y-35687000D01*
X96393000Y-38422199D01*
X96009003Y-38806196D01*
X95979999Y-38829999D01*
X95924871Y-38897174D01*
X95885026Y-38945724D01*
X95866618Y-38980163D01*
X95814454Y-39077754D01*
X95770997Y-39221015D01*
X95760000Y-39332668D01*
X95760000Y-39332678D01*
X95756324Y-39370000D01*
X95760000Y-39407322D01*
X95760000Y-41345378D01*
X95674276Y-41275026D01*
X95542247Y-41204454D01*
X95398986Y-41160997D01*
X95287333Y-41150000D01*
X95274310Y-41150000D01*
X95236988Y-41146324D01*
X95199666Y-41150000D01*
X85998448Y-41150000D01*
X86331377Y-40817072D01*
X86660000Y-40817072D01*
X86784482Y-40804812D01*
X86904180Y-40768502D01*
X86995000Y-40719957D01*
X87085820Y-40768502D01*
X87205518Y-40804812D01*
X87330000Y-40817072D01*
X87344250Y-40814000D01*
X87503000Y-40655250D01*
X87503000Y-39041000D01*
X87757000Y-39041000D01*
X87757000Y-40655250D01*
X87915750Y-40814000D01*
X87930000Y-40817072D01*
X88054482Y-40804812D01*
X88174180Y-40768502D01*
X88284494Y-40709537D01*
X88381185Y-40630185D01*
X88460537Y-40533494D01*
X88519502Y-40423180D01*
X88555812Y-40303482D01*
X88568072Y-40179000D01*
X88565000Y-39199750D01*
X88406250Y-39041000D01*
X87757000Y-39041000D01*
X87503000Y-39041000D01*
X87483000Y-39041000D01*
X87483000Y-38787000D01*
X87503000Y-38787000D01*
X87503000Y-37172750D01*
X87757000Y-37172750D01*
X87757000Y-38787000D01*
X88406250Y-38787000D01*
X88565000Y-38628250D01*
X88568072Y-37649000D01*
X88555812Y-37524518D01*
X88519502Y-37404820D01*
X88460537Y-37294506D01*
X88381185Y-37197815D01*
X88284494Y-37118463D01*
X88174180Y-37059498D01*
X88054482Y-37023188D01*
X87930000Y-37010928D01*
X87915750Y-37014000D01*
X87757000Y-37172750D01*
X87503000Y-37172750D01*
X87344250Y-37014000D01*
X87330000Y-37010928D01*
X87205518Y-37023188D01*
X87085820Y-37059498D01*
X86995000Y-37108043D01*
X86904180Y-37059498D01*
X86784482Y-37023188D01*
X86660000Y-37010928D01*
X86060000Y-37010928D01*
X85935518Y-37023188D01*
X85815820Y-37059498D01*
X85725000Y-37108043D01*
X85634180Y-37059498D01*
X85514482Y-37023188D01*
X85390000Y-37010928D01*
X84790000Y-37010928D01*
X84665518Y-37023188D01*
X84545820Y-37059498D01*
X84455000Y-37108043D01*
X84364180Y-37059498D01*
X84244482Y-37023188D01*
X84120000Y-37010928D01*
X84105750Y-37014000D01*
X83947000Y-37172750D01*
X83947000Y-38351354D01*
X83897763Y-38391762D01*
X83805914Y-38503680D01*
X83737664Y-38631367D01*
X83695636Y-38769915D01*
X83681445Y-38914000D01*
X83685001Y-38950104D01*
X83685001Y-39041000D01*
X83673000Y-39041000D01*
X83673000Y-38787000D01*
X83693000Y-38787000D01*
X83693000Y-37172750D01*
X83534250Y-37014000D01*
X83520000Y-37010928D01*
X83395518Y-37023188D01*
X83275820Y-37059498D01*
X83185000Y-37108043D01*
X83094180Y-37059498D01*
X82974482Y-37023188D01*
X82875000Y-37013390D01*
X82875000Y-36391897D01*
X82878555Y-36355800D01*
X82875000Y-36319703D01*
X82875000Y-36319696D01*
X82864365Y-36211716D01*
X82861536Y-36202388D01*
X82847809Y-36157138D01*
X82842316Y-36139031D01*
X82900458Y-35998666D01*
X82940232Y-35798707D01*
X82940232Y-35687000D01*
X91701481Y-35687000D01*
X91691928Y-35784000D01*
G37*
%TD.AperFunction*%
%TD*%
M02*
