%TF.GenerationSoftware,KiCad,Pcbnew,(5.1.10)-1*%
%TF.CreationDate,2021-07-14T07:55:42+08:00*%
%TF.ProjectId,2.5_SAS_Backend,322e355f-5341-4535-9f42-61636b656e64,rev?*%
%TF.SameCoordinates,Original*%
%TF.FileFunction,Soldermask,Bot*%
%TF.FilePolarity,Negative*%
%FSLAX46Y46*%
G04 Gerber Fmt 4.6, Leading zero omitted, Abs format (unit mm)*
G04 Created by KiCad (PCBNEW (5.1.10)-1) date 2021-07-14 07:55:42*
%MOMM*%
%LPD*%
G01*
G04 APERTURE LIST*
%ADD10C,1.600000*%
%ADD11R,1.600000X1.600000*%
%ADD12R,2.030000X1.730000*%
%ADD13O,2.030000X1.730000*%
%ADD14C,0.700000*%
%ADD15C,2.540000*%
%ADD16C,1.500000*%
%ADD17C,0.750000*%
%ADD18R,2.600000X2.600000*%
%ADD19C,1.000000*%
%ADD20C,1.400000*%
%ADD21R,0.600000X2.530000*%
%ADD22R,0.500000X2.530000*%
G04 APERTURE END LIST*
D10*
%TO.C,C1*%
X47204000Y-64262000D03*
D11*
X44704000Y-64262000D03*
%TD*%
D12*
%TO.C,M4*%
X33782000Y-60452000D03*
D13*
X33782000Y-57912000D03*
X33782000Y-55372000D03*
X33782000Y-52832000D03*
%TD*%
D12*
%TO.C,M3*%
X33782000Y-42926000D03*
D13*
X33782000Y-40386000D03*
X33782000Y-37846000D03*
X33782000Y-35306000D03*
%TD*%
D12*
%TO.C,M2*%
X98298000Y-35560000D03*
D13*
X98298000Y-38100000D03*
X98298000Y-40640000D03*
X98298000Y-43180000D03*
%TD*%
D12*
%TO.C,M1*%
X98298000Y-51308000D03*
D13*
X98298000Y-53848000D03*
X98298000Y-56388000D03*
X98298000Y-58928000D03*
%TD*%
D10*
%TO.C,C4*%
X97242000Y-63754000D03*
D11*
X94742000Y-63754000D03*
%TD*%
D10*
%TO.C,C3*%
X90384000Y-64008000D03*
D11*
X87884000Y-64008000D03*
%TD*%
D10*
%TO.C,C2*%
X53808000Y-64262000D03*
D11*
X51308000Y-64262000D03*
%TD*%
D14*
%TO.C,U2*%
X62680000Y-64262000D03*
X63950000Y-64262000D03*
X61410000Y-64262000D03*
X67760000Y-64262000D03*
X65220000Y-64262000D03*
X66490000Y-64262000D03*
X69030000Y-64262000D03*
X70300000Y-64262000D03*
X71570000Y-64262000D03*
X72840000Y-64262000D03*
X74110000Y-64262000D03*
X75380000Y-64262000D03*
X76650000Y-64262000D03*
X77920000Y-64262000D03*
X79190000Y-64262000D03*
D15*
X58140600Y-64262000D03*
X82550000Y-64262000D03*
%TD*%
D16*
%TO.C,U5*%
X39370000Y-52084000D03*
X39370000Y-65024000D03*
D17*
X39870000Y-54744000D03*
X38870000Y-56014000D03*
X38870000Y-57284000D03*
X39870000Y-58554000D03*
X38870000Y-59824000D03*
X38870000Y-61094000D03*
X39870000Y-62364000D03*
%TD*%
D16*
%TO.C,U3*%
X39370000Y-34424000D03*
X39370000Y-47364000D03*
D17*
X39870000Y-37084000D03*
X38870000Y-38354000D03*
X38870000Y-39624000D03*
X39870000Y-40894000D03*
X38870000Y-42164000D03*
X38870000Y-43434000D03*
X39870000Y-44704000D03*
%TD*%
D18*
%TO.C,U4*%
X93630000Y-55880000D03*
X49880000Y-55880000D03*
D19*
X90630000Y-55880000D03*
D20*
X52880000Y-55880000D03*
D21*
X87630000Y-57710000D03*
X86360000Y-57710000D03*
X85090000Y-57710000D03*
X83820000Y-57710000D03*
X82550000Y-57710000D03*
X81280000Y-57710000D03*
X80010000Y-57710000D03*
D22*
X79235000Y-53040000D03*
X78435000Y-53040000D03*
X77635000Y-53040000D03*
X76835000Y-53040000D03*
X76035000Y-53040000D03*
X75235000Y-53040000D03*
X74435000Y-53040000D03*
D21*
X73660000Y-57710000D03*
X72390000Y-57710000D03*
X71120000Y-57710000D03*
X69850000Y-57710000D03*
X68580000Y-57710000D03*
X67310000Y-57710000D03*
X66040000Y-57710000D03*
X64770000Y-57710000D03*
X63500000Y-57710000D03*
X62230000Y-57710000D03*
X60960000Y-57710000D03*
X59690000Y-57710000D03*
X58420000Y-57710000D03*
X57150000Y-57710000D03*
X55880000Y-57710000D03*
%TD*%
D18*
%TO.C,U1*%
X93630000Y-37084000D03*
X49880000Y-37084000D03*
D19*
X90630000Y-37084000D03*
D20*
X52880000Y-37084000D03*
D21*
X87630000Y-38914000D03*
X86360000Y-38914000D03*
X85090000Y-38914000D03*
X83820000Y-38914000D03*
X82550000Y-38914000D03*
X81280000Y-38914000D03*
X80010000Y-38914000D03*
D22*
X79235000Y-34244000D03*
X78435000Y-34244000D03*
X77635000Y-34244000D03*
X76835000Y-34244000D03*
X76035000Y-34244000D03*
X75235000Y-34244000D03*
X74435000Y-34244000D03*
D21*
X73660000Y-38914000D03*
X72390000Y-38914000D03*
X71120000Y-38914000D03*
X69850000Y-38914000D03*
X68580000Y-38914000D03*
X67310000Y-38914000D03*
X66040000Y-38914000D03*
X64770000Y-38914000D03*
X63500000Y-38914000D03*
X62230000Y-38914000D03*
X60960000Y-38914000D03*
X59690000Y-38914000D03*
X58420000Y-38914000D03*
X57150000Y-38914000D03*
X55880000Y-38914000D03*
%TD*%
M02*
