%TF.GenerationSoftware,KiCad,Pcbnew,(5.1.10)-1*%
%TF.CreationDate,2021-07-14T07:55:42+08:00*%
%TF.ProjectId,2.5_SAS_Backend,322e355f-5341-4535-9f42-61636b656e64,rev?*%
%TF.SameCoordinates,Original*%
%TF.FileFunction,Copper,L1,Top*%
%TF.FilePolarity,Positive*%
%FSLAX46Y46*%
G04 Gerber Fmt 4.6, Leading zero omitted, Abs format (unit mm)*
G04 Created by KiCad (PCBNEW (5.1.10)-1) date 2021-07-14 07:55:42*
%MOMM*%
%LPD*%
G01*
G04 APERTURE LIST*
%TA.AperFunction,ComponentPad*%
%ADD10C,1.600000*%
%TD*%
%TA.AperFunction,ComponentPad*%
%ADD11R,1.600000X1.600000*%
%TD*%
%TA.AperFunction,ComponentPad*%
%ADD12R,2.030000X1.730000*%
%TD*%
%TA.AperFunction,ComponentPad*%
%ADD13O,2.030000X1.730000*%
%TD*%
%TA.AperFunction,ComponentPad*%
%ADD14C,0.700000*%
%TD*%
%TA.AperFunction,WasherPad*%
%ADD15C,2.540000*%
%TD*%
%TA.AperFunction,WasherPad*%
%ADD16C,1.500000*%
%TD*%
%TA.AperFunction,ComponentPad*%
%ADD17C,0.750000*%
%TD*%
%TA.AperFunction,ViaPad*%
%ADD18C,3.100000*%
%TD*%
%TA.AperFunction,ViaPad*%
%ADD19C,0.800000*%
%TD*%
%TA.AperFunction,Conductor*%
%ADD20C,0.750000*%
%TD*%
%TA.AperFunction,Conductor*%
%ADD21C,0.250000*%
%TD*%
%TA.AperFunction,Conductor*%
%ADD22C,0.200000*%
%TD*%
%TA.AperFunction,Conductor*%
%ADD23C,0.254000*%
%TD*%
%TA.AperFunction,Conductor*%
%ADD24C,0.100000*%
%TD*%
G04 APERTURE END LIST*
D10*
%TO.P,C1,2*%
%TO.N,GND*%
X47204000Y-64262000D03*
D11*
%TO.P,C1,1*%
%TO.N,+5V*%
X44704000Y-64262000D03*
%TD*%
D12*
%TO.P,M4,1*%
%TO.N,GND*%
X33782000Y-60452000D03*
D13*
%TO.P,M4,2*%
%TO.N,+12V*%
X33782000Y-57912000D03*
%TO.P,M4,3*%
%TO.N,N/C*%
X33782000Y-55372000D03*
%TO.P,M4,4*%
X33782000Y-52832000D03*
%TD*%
D12*
%TO.P,M3,1*%
%TO.N,GND*%
X33782000Y-42926000D03*
D13*
%TO.P,M3,2*%
%TO.N,+12V*%
X33782000Y-40386000D03*
%TO.P,M3,3*%
%TO.N,N/C*%
X33782000Y-37846000D03*
%TO.P,M3,4*%
X33782000Y-35306000D03*
%TD*%
D12*
%TO.P,M2,1*%
%TO.N,GND*%
X98298000Y-35560000D03*
D13*
%TO.P,M2,2*%
%TO.N,+5V*%
X98298000Y-38100000D03*
%TO.P,M2,3*%
%TO.N,N/C*%
X98298000Y-40640000D03*
%TO.P,M2,4*%
X98298000Y-43180000D03*
%TD*%
D12*
%TO.P,M1,1*%
%TO.N,GND*%
X98298000Y-51308000D03*
D13*
%TO.P,M1,2*%
%TO.N,+5V*%
X98298000Y-53848000D03*
%TO.P,M1,3*%
%TO.N,N/C*%
X98298000Y-56388000D03*
%TO.P,M1,4*%
X98298000Y-58928000D03*
%TD*%
%TO.P,R1,2*%
%TO.N,Net-(D1-Pad2)*%
%TA.AperFunction,SMDPad,CuDef*%
G36*
G01*
X45154001Y-57766000D02*
X44253999Y-57766000D01*
G75*
G02*
X44004000Y-57516001I0J249999D01*
G01*
X44004000Y-56990999D01*
G75*
G02*
X44253999Y-56741000I249999J0D01*
G01*
X45154001Y-56741000D01*
G75*
G02*
X45404000Y-56990999I0J-249999D01*
G01*
X45404000Y-57516001D01*
G75*
G02*
X45154001Y-57766000I-249999J0D01*
G01*
G37*
%TD.AperFunction*%
%TO.P,R1,1*%
%TO.N,+5V*%
%TA.AperFunction,SMDPad,CuDef*%
G36*
G01*
X45154001Y-59591000D02*
X44253999Y-59591000D01*
G75*
G02*
X44004000Y-59341001I0J249999D01*
G01*
X44004000Y-58815999D01*
G75*
G02*
X44253999Y-58566000I249999J0D01*
G01*
X45154001Y-58566000D01*
G75*
G02*
X45404000Y-58815999I0J-249999D01*
G01*
X45404000Y-59341001D01*
G75*
G02*
X45154001Y-59591000I-249999J0D01*
G01*
G37*
%TD.AperFunction*%
%TD*%
%TO.P,D1,2*%
%TO.N,Net-(D1-Pad2)*%
%TA.AperFunction,SMDPad,CuDef*%
G36*
G01*
X45104000Y-53294000D02*
X44304000Y-53294000D01*
G75*
G02*
X44054000Y-53044000I0J250000D01*
G01*
X44054000Y-52219000D01*
G75*
G02*
X44304000Y-51969000I250000J0D01*
G01*
X45104000Y-51969000D01*
G75*
G02*
X45354000Y-52219000I0J-250000D01*
G01*
X45354000Y-53044000D01*
G75*
G02*
X45104000Y-53294000I-250000J0D01*
G01*
G37*
%TD.AperFunction*%
%TO.P,D1,1*%
%TO.N,GND*%
%TA.AperFunction,SMDPad,CuDef*%
G36*
G01*
X45104000Y-55219000D02*
X44304000Y-55219000D01*
G75*
G02*
X44054000Y-54969000I0J250000D01*
G01*
X44054000Y-54144000D01*
G75*
G02*
X44304000Y-53894000I250000J0D01*
G01*
X45104000Y-53894000D01*
G75*
G02*
X45354000Y-54144000I0J-250000D01*
G01*
X45354000Y-54969000D01*
G75*
G02*
X45104000Y-55219000I-250000J0D01*
G01*
G37*
%TD.AperFunction*%
%TD*%
D10*
%TO.P,C4,2*%
%TO.N,GND*%
X97242000Y-63754000D03*
D11*
%TO.P,C4,1*%
%TO.N,+12V*%
X94742000Y-63754000D03*
%TD*%
D10*
%TO.P,C3,2*%
%TO.N,GND*%
X90384000Y-64008000D03*
D11*
%TO.P,C3,1*%
%TO.N,+12V*%
X87884000Y-64008000D03*
%TD*%
D10*
%TO.P,C2,2*%
%TO.N,GND*%
X53808000Y-64262000D03*
D11*
%TO.P,C2,1*%
%TO.N,+5V*%
X51308000Y-64262000D03*
%TD*%
D14*
%TO.P,U2,14*%
%TO.N,+12V*%
X62680000Y-64262000D03*
%TO.P,U2,13*%
X63950000Y-64262000D03*
%TO.P,U2,15*%
X61410000Y-64262000D03*
%TO.P,U2,10*%
%TO.N,GND*%
X67760000Y-64262000D03*
%TO.P,U2,12*%
X65220000Y-64262000D03*
%TO.P,U2,11*%
%TO.N,N/C*%
X66490000Y-64262000D03*
%TO.P,U2,9*%
%TO.N,+5V*%
X69030000Y-64262000D03*
%TO.P,U2,8*%
X70300000Y-64262000D03*
%TO.P,U2,7*%
X71570000Y-64262000D03*
%TO.P,U2,6*%
%TO.N,GND*%
X72840000Y-64262000D03*
%TO.P,U2,5*%
X74110000Y-64262000D03*
%TO.P,U2,4*%
X75380000Y-64262000D03*
%TO.P,U2,3*%
%TO.N,N/C*%
X76650000Y-64262000D03*
%TO.P,U2,2*%
%TO.N,+3V3*%
X77920000Y-64262000D03*
%TO.P,U2,1*%
X79190000Y-64262000D03*
D15*
%TO.P,U2,*%
%TO.N,*%
X58140600Y-64262000D03*
X82550000Y-64262000D03*
%TD*%
D16*
%TO.P,U5,*%
%TO.N,*%
X39370000Y-52084000D03*
X39370000Y-65024000D03*
D17*
%TO.P,U5,7*%
%TO.N,GND*%
X39870000Y-54744000D03*
%TO.P,U5,6*%
%TO.N,/S2_RXD_P*%
X38870000Y-56014000D03*
%TO.P,U5,5*%
%TO.N,/S2_RXD_N*%
X38870000Y-57284000D03*
%TO.P,U5,4*%
%TO.N,GND*%
X39870000Y-58554000D03*
%TO.P,U5,3*%
%TO.N,/S2_TXD_N*%
X38870000Y-59824000D03*
%TO.P,U5,2*%
%TO.N,/S2_TXD_P*%
X38870000Y-61094000D03*
%TO.P,U5,1*%
%TO.N,GND*%
X39870000Y-62364000D03*
%TD*%
D16*
%TO.P,U3,*%
%TO.N,*%
X39370000Y-34424000D03*
X39370000Y-47364000D03*
D17*
%TO.P,U3,7*%
%TO.N,GND*%
X39870000Y-37084000D03*
%TO.P,U3,6*%
%TO.N,/S1_RXD_P*%
X38870000Y-38354000D03*
%TO.P,U3,5*%
%TO.N,/S1_RXD_N*%
X38870000Y-39624000D03*
%TO.P,U3,4*%
%TO.N,GND*%
X39870000Y-40894000D03*
%TO.P,U3,3*%
%TO.N,/S1_TXD_N*%
X38870000Y-42164000D03*
%TO.P,U3,2*%
%TO.N,/S1_TXD_P*%
X38870000Y-43434000D03*
%TO.P,U3,1*%
%TO.N,GND*%
X39870000Y-44704000D03*
%TD*%
D18*
%TO.N,*%
X34290000Y-46990000D03*
X99060000Y-47498000D03*
X34290000Y-64770000D03*
D19*
%TO.N,+12V*%
X61468000Y-62992000D03*
X58674000Y-59690000D03*
%TO.N,GND*%
X58420000Y-55118000D03*
X65532000Y-53848000D03*
X76200000Y-55626000D03*
X77724000Y-57150000D03*
X64516000Y-62738000D03*
%TO.N,+5V*%
X68326000Y-62992000D03*
X66294000Y-59690000D03*
X64262000Y-65532000D03*
X91186000Y-59944000D03*
%TO.N,+3V3*%
X76708000Y-62738000D03*
X74168000Y-59690000D03*
%TO.N,/S1_TXD_P*%
X75347319Y-41033135D03*
%TO.N,/S1_TXD_N*%
X74604855Y-40290671D03*
%TO.N,/S1_RXD_N*%
X81905232Y-35696768D03*
%TO.N,/S1_RXD_P*%
X81162768Y-36439232D03*
%TD*%
D20*
%TO.N,+12V*%
X61468000Y-62484000D02*
X58674000Y-59690000D01*
X61468000Y-62992000D02*
X61468000Y-62484000D01*
D21*
X33782000Y-57912000D02*
X34798000Y-57912000D01*
X34798000Y-57912000D02*
X36576000Y-56134000D01*
X36576000Y-43180000D02*
X33782000Y-40386000D01*
X36576000Y-56134000D02*
X36576000Y-43180000D01*
D20*
%TO.N,GND*%
X53808000Y-59730000D02*
X53808000Y-64262000D01*
X58420000Y-55118000D02*
X53808000Y-59730000D01*
X64262000Y-55118000D02*
X58420000Y-55118000D01*
X65532000Y-53848000D02*
X64262000Y-55118000D01*
D21*
X76200000Y-55626000D02*
X77724000Y-57150000D01*
X72840000Y-64262000D02*
X72840000Y-65082000D01*
X72840000Y-65082000D02*
X72440011Y-65481989D01*
X72440011Y-65481989D02*
X68021989Y-65481989D01*
X67760000Y-65220000D02*
X67760000Y-64262000D01*
X68021989Y-65481989D02*
X67760000Y-65220000D01*
D20*
X64516000Y-54864000D02*
X65532000Y-53848000D01*
X64516000Y-62738000D02*
X64516000Y-54864000D01*
D21*
X40057500Y-54556500D02*
X39870000Y-54744000D01*
X44704000Y-54556500D02*
X40057500Y-54556500D01*
D20*
X96520000Y-35560000D02*
X95250000Y-36830000D01*
X98298000Y-35560000D02*
X96520000Y-35560000D01*
X97282000Y-51308000D02*
X96520000Y-52070000D01*
X98298000Y-51308000D02*
X97282000Y-51308000D01*
D21*
X96520000Y-52070000D02*
X95250000Y-53340000D01*
D20*
%TO.N,+5V*%
X68326000Y-61722000D02*
X66294000Y-59690000D01*
X68326000Y-62992000D02*
X68326000Y-61722000D01*
D21*
X64262000Y-65532000D02*
X63500000Y-66294000D01*
X53340000Y-66294000D02*
X51308000Y-64262000D01*
X63500000Y-66294000D02*
X53340000Y-66294000D01*
X51308000Y-64262000D02*
X51054000Y-64262000D01*
X51054000Y-64262000D02*
X49022000Y-66294000D01*
X46736000Y-66294000D02*
X44704000Y-64262000D01*
X49022000Y-66294000D02*
X46736000Y-66294000D01*
X44704000Y-64262000D02*
X44704000Y-59078500D01*
X91186000Y-59944000D02*
X88646000Y-59944000D01*
X88646000Y-59944000D02*
X84836000Y-63754000D01*
X84836000Y-63754000D02*
X84836000Y-65278000D01*
X64661999Y-65931999D02*
X64262000Y-65532000D01*
X84182001Y-65931999D02*
X64661999Y-65931999D01*
X84836000Y-65278000D02*
X84182001Y-65931999D01*
D20*
%TO.N,+3V3*%
X76708000Y-62230000D02*
X74168000Y-59690000D01*
X76708000Y-62738000D02*
X76708000Y-62230000D01*
X79190000Y-64262000D02*
X77920000Y-64262000D01*
D21*
%TO.N,Net-(D1-Pad2)*%
X44704000Y-57253500D02*
X46228000Y-55729500D01*
X46228000Y-54155500D02*
X44704000Y-52631500D01*
X46228000Y-55729500D02*
X46228000Y-54155500D01*
D22*
%TO.N,/S1_TXD_P*%
X44569377Y-42092990D02*
X43638367Y-43024000D01*
X39280000Y-43024000D02*
X38870000Y-43434000D01*
X73863199Y-42092990D02*
X44569377Y-42092990D01*
X74923054Y-41033135D02*
X73863199Y-42092990D01*
X43638367Y-43024000D02*
X39280000Y-43024000D01*
X75347319Y-41033135D02*
X74923054Y-41033135D01*
%TO.N,/S1_TXD_N*%
X44382985Y-41642999D02*
X43451984Y-42574000D01*
X74604855Y-40290671D02*
X74604855Y-40714936D01*
X74604855Y-40714936D02*
X73676792Y-41642999D01*
X43451984Y-42574000D02*
X39280000Y-42574000D01*
X73676792Y-41642999D02*
X44382985Y-41642999D01*
X39280000Y-42574000D02*
X38870000Y-42164000D01*
%TO.N,/S1_RXD_N*%
X79424002Y-39214000D02*
X39280000Y-39214000D01*
X81862769Y-36775233D02*
X79424002Y-39214000D01*
X81862769Y-36375629D02*
X81862769Y-36775233D01*
X81905232Y-36333166D02*
X81862769Y-36375629D01*
X81905232Y-35696768D02*
X81905232Y-36333166D01*
X39280000Y-39214000D02*
X38870000Y-39624000D01*
%TO.N,/S1_RXD_P*%
X39280000Y-38764000D02*
X38870000Y-38354000D01*
X78838000Y-38764000D02*
X39280000Y-38764000D01*
X81162768Y-36439232D02*
X78838000Y-38764000D01*
%TD*%
D23*
%TO.N,GND*%
X38966011Y-35755775D02*
X39233589Y-35809000D01*
X39506411Y-35809000D01*
X39773989Y-35755775D01*
X39940027Y-35687000D01*
X80451289Y-35687000D01*
X80358831Y-35779458D01*
X80245563Y-35948976D01*
X80167542Y-36137334D01*
X80127768Y-36337293D01*
X80127768Y-36434785D01*
X78533554Y-38029000D01*
X53822975Y-38029000D01*
X53916962Y-37935013D01*
X54063061Y-37716359D01*
X54163696Y-37473405D01*
X54215000Y-37215486D01*
X54215000Y-36952514D01*
X54163696Y-36694595D01*
X54063061Y-36451641D01*
X53916962Y-36232987D01*
X53731013Y-36047038D01*
X53512359Y-35900939D01*
X53269405Y-35800304D01*
X53011486Y-35749000D01*
X52748514Y-35749000D01*
X52490595Y-35800304D01*
X52247641Y-35900939D01*
X52028987Y-36047038D01*
X51843038Y-36232987D01*
X51696939Y-36451641D01*
X51596304Y-36694595D01*
X51545000Y-36952514D01*
X51545000Y-37215486D01*
X51596304Y-37473405D01*
X51696939Y-37716359D01*
X51843038Y-37935013D01*
X51937025Y-38029000D01*
X40227016Y-38029000D01*
X40337659Y-37984715D01*
X40359101Y-37973255D01*
X40378880Y-37772485D01*
X39870000Y-37263605D01*
X39855858Y-37277748D01*
X39676253Y-37098143D01*
X39690395Y-37084000D01*
X40049605Y-37084000D01*
X40558485Y-37592880D01*
X40759255Y-37573101D01*
X40837587Y-37390218D01*
X40878735Y-37195567D01*
X40881118Y-36996628D01*
X40844644Y-36801048D01*
X40770715Y-36616341D01*
X40759255Y-36594899D01*
X40558485Y-36575120D01*
X40049605Y-37084000D01*
X39690395Y-37084000D01*
X39181515Y-36575120D01*
X38980745Y-36594899D01*
X38902413Y-36777782D01*
X38861265Y-36972433D01*
X38858882Y-37171372D01*
X38891076Y-37344000D01*
X38770524Y-37344000D01*
X38575394Y-37382814D01*
X38391586Y-37458950D01*
X38226163Y-37569482D01*
X38085482Y-37710163D01*
X37974950Y-37875586D01*
X37898814Y-38059394D01*
X37860000Y-38254524D01*
X37860000Y-38453476D01*
X37898814Y-38648606D01*
X37974950Y-38832414D01*
X38079577Y-38989000D01*
X37974950Y-39145586D01*
X37898814Y-39329394D01*
X37860000Y-39524524D01*
X37860000Y-39723476D01*
X37898814Y-39918606D01*
X37974950Y-40102414D01*
X38085482Y-40267837D01*
X38226163Y-40408518D01*
X38391586Y-40519050D01*
X38575394Y-40595186D01*
X38770524Y-40634000D01*
X38892643Y-40634000D01*
X38861265Y-40782433D01*
X38858882Y-40981372D01*
X38891076Y-41154000D01*
X38770524Y-41154000D01*
X38575394Y-41192814D01*
X38391586Y-41268950D01*
X38226163Y-41379482D01*
X38085482Y-41520163D01*
X37974950Y-41685586D01*
X37898814Y-41869394D01*
X37860000Y-42064524D01*
X37860000Y-42263476D01*
X37898814Y-42458606D01*
X37974950Y-42642414D01*
X38079577Y-42799000D01*
X37974950Y-42955586D01*
X37898814Y-43139394D01*
X37860000Y-43334524D01*
X37860000Y-43533476D01*
X37898814Y-43728606D01*
X37974950Y-43912414D01*
X38085482Y-44077837D01*
X38226163Y-44218518D01*
X38391586Y-44329050D01*
X38575394Y-44405186D01*
X38770524Y-44444000D01*
X38892643Y-44444000D01*
X38861265Y-44592433D01*
X38858882Y-44791372D01*
X38895356Y-44986952D01*
X38969285Y-45171659D01*
X38980745Y-45193101D01*
X39181515Y-45212880D01*
X39690395Y-44704000D01*
X40049605Y-44704000D01*
X40558485Y-45212880D01*
X40759255Y-45193101D01*
X40837587Y-45010218D01*
X40878735Y-44815567D01*
X40881118Y-44616628D01*
X40844644Y-44421048D01*
X40770715Y-44236341D01*
X40759255Y-44214899D01*
X40558485Y-44195120D01*
X40049605Y-44704000D01*
X39690395Y-44704000D01*
X39676253Y-44689858D01*
X39855858Y-44510253D01*
X39870000Y-44524395D01*
X40378880Y-44015515D01*
X40359101Y-43814745D01*
X40228952Y-43759000D01*
X43602262Y-43759000D01*
X43638367Y-43762556D01*
X43674472Y-43759000D01*
X43782452Y-43748365D01*
X43921000Y-43706337D01*
X44044000Y-43640592D01*
X44044001Y-51374306D01*
X43964150Y-51398528D01*
X43810614Y-51480595D01*
X43676038Y-51591038D01*
X43565595Y-51725614D01*
X43483528Y-51879150D01*
X43432992Y-52045746D01*
X43415928Y-52219000D01*
X43415928Y-53044000D01*
X43432992Y-53217254D01*
X43483528Y-53383850D01*
X43549664Y-53507580D01*
X43523463Y-53539506D01*
X43464498Y-53649820D01*
X43428188Y-53769518D01*
X43415928Y-53894000D01*
X43419000Y-54270750D01*
X43577750Y-54429500D01*
X44577000Y-54429500D01*
X44577000Y-54409500D01*
X44831000Y-54409500D01*
X44831000Y-54429500D01*
X44851000Y-54429500D01*
X44851000Y-54683500D01*
X44831000Y-54683500D01*
X44831000Y-55695250D01*
X44989750Y-55854000D01*
X45028372Y-55854326D01*
X44779770Y-56102928D01*
X44253999Y-56102928D01*
X44080745Y-56119992D01*
X43914149Y-56170528D01*
X43760613Y-56252595D01*
X43626038Y-56363038D01*
X43515595Y-56497613D01*
X43433528Y-56651149D01*
X43382992Y-56817745D01*
X43365928Y-56990999D01*
X43365928Y-57516001D01*
X43382992Y-57689255D01*
X43433528Y-57855851D01*
X43515595Y-58009387D01*
X43626038Y-58143962D01*
X43652891Y-58166000D01*
X43626038Y-58188038D01*
X43515595Y-58322613D01*
X43433528Y-58476149D01*
X43382992Y-58642745D01*
X43365928Y-58815999D01*
X43365928Y-59341001D01*
X43382992Y-59514255D01*
X43433528Y-59680851D01*
X43515595Y-59834387D01*
X43626038Y-59968962D01*
X43760613Y-60079405D01*
X43914149Y-60161472D01*
X43944001Y-60170527D01*
X43944000Y-62823928D01*
X43904000Y-62823928D01*
X43779518Y-62836188D01*
X43659820Y-62872498D01*
X43549506Y-62931463D01*
X43452815Y-63010815D01*
X43373463Y-63107506D01*
X43314498Y-63217820D01*
X43278188Y-63337518D01*
X43265928Y-63462000D01*
X43265928Y-65062000D01*
X43278188Y-65186482D01*
X43314498Y-65306180D01*
X43373463Y-65416494D01*
X43452815Y-65513185D01*
X43549506Y-65592537D01*
X43659820Y-65651502D01*
X43779518Y-65687812D01*
X43904000Y-65700072D01*
X45067271Y-65700072D01*
X45280199Y-65913000D01*
X40439685Y-65913000D01*
X40445799Y-65906886D01*
X40597371Y-65680043D01*
X40701775Y-65427989D01*
X40755000Y-65160411D01*
X40755000Y-64887589D01*
X40701775Y-64620011D01*
X40597371Y-64367957D01*
X40445799Y-64141114D01*
X40252886Y-63948201D01*
X40026043Y-63796629D01*
X39773989Y-63692225D01*
X39506411Y-63639000D01*
X39233589Y-63639000D01*
X38966011Y-63692225D01*
X38713957Y-63796629D01*
X38487114Y-63948201D01*
X38294201Y-64141114D01*
X38142629Y-64367957D01*
X38038225Y-64620011D01*
X37985000Y-64887589D01*
X37985000Y-65160411D01*
X38038225Y-65427989D01*
X38142629Y-65680043D01*
X38294201Y-65906886D01*
X38300315Y-65913000D01*
X36957000Y-65913000D01*
X36957000Y-63052485D01*
X39361120Y-63052485D01*
X39380899Y-63253255D01*
X39563782Y-63331587D01*
X39758433Y-63372735D01*
X39957372Y-63375118D01*
X40152952Y-63338644D01*
X40337659Y-63264715D01*
X40359101Y-63253255D01*
X40378880Y-63052485D01*
X39870000Y-62543605D01*
X39361120Y-63052485D01*
X36957000Y-63052485D01*
X36957000Y-56827802D01*
X37087004Y-56697798D01*
X37116001Y-56674001D01*
X37210974Y-56558276D01*
X37281546Y-56426247D01*
X37325003Y-56282986D01*
X37336000Y-56171333D01*
X37336000Y-56171325D01*
X37339676Y-56134000D01*
X37336000Y-56096675D01*
X37336000Y-55914524D01*
X37860000Y-55914524D01*
X37860000Y-56113476D01*
X37898814Y-56308606D01*
X37974950Y-56492414D01*
X38079577Y-56649000D01*
X37974950Y-56805586D01*
X37898814Y-56989394D01*
X37860000Y-57184524D01*
X37860000Y-57383476D01*
X37898814Y-57578606D01*
X37974950Y-57762414D01*
X38085482Y-57927837D01*
X38226163Y-58068518D01*
X38391586Y-58179050D01*
X38575394Y-58255186D01*
X38770524Y-58294000D01*
X38892643Y-58294000D01*
X38861265Y-58442433D01*
X38858882Y-58641372D01*
X38891076Y-58814000D01*
X38770524Y-58814000D01*
X38575394Y-58852814D01*
X38391586Y-58928950D01*
X38226163Y-59039482D01*
X38085482Y-59180163D01*
X37974950Y-59345586D01*
X37898814Y-59529394D01*
X37860000Y-59724524D01*
X37860000Y-59923476D01*
X37898814Y-60118606D01*
X37974950Y-60302414D01*
X38079577Y-60459000D01*
X37974950Y-60615586D01*
X37898814Y-60799394D01*
X37860000Y-60994524D01*
X37860000Y-61193476D01*
X37898814Y-61388606D01*
X37974950Y-61572414D01*
X38085482Y-61737837D01*
X38226163Y-61878518D01*
X38391586Y-61989050D01*
X38575394Y-62065186D01*
X38770524Y-62104000D01*
X38892643Y-62104000D01*
X38861265Y-62252433D01*
X38858882Y-62451372D01*
X38895356Y-62646952D01*
X38969285Y-62831659D01*
X38980745Y-62853101D01*
X39181515Y-62872880D01*
X39690395Y-62364000D01*
X40049605Y-62364000D01*
X40558485Y-62872880D01*
X40759255Y-62853101D01*
X40837587Y-62670218D01*
X40878735Y-62475567D01*
X40881118Y-62276628D01*
X40844644Y-62081048D01*
X40770715Y-61896341D01*
X40759255Y-61874899D01*
X40558485Y-61855120D01*
X40049605Y-62364000D01*
X39690395Y-62364000D01*
X39676253Y-62349858D01*
X39855858Y-62170253D01*
X39870000Y-62184395D01*
X40378880Y-61675515D01*
X40359101Y-61474745D01*
X40176218Y-61396413D01*
X39981567Y-61355265D01*
X39848136Y-61353667D01*
X39880000Y-61193476D01*
X39880000Y-60994524D01*
X39841186Y-60799394D01*
X39765050Y-60615586D01*
X39660423Y-60459000D01*
X39765050Y-60302414D01*
X39841186Y-60118606D01*
X39880000Y-59923476D01*
X39880000Y-59724524D01*
X39848031Y-59563808D01*
X39957372Y-59565118D01*
X40152952Y-59528644D01*
X40337659Y-59454715D01*
X40359101Y-59443255D01*
X40378880Y-59242485D01*
X39870000Y-58733605D01*
X39855858Y-58747748D01*
X39676253Y-58568143D01*
X39690395Y-58554000D01*
X40049605Y-58554000D01*
X40558485Y-59062880D01*
X40759255Y-59043101D01*
X40837587Y-58860218D01*
X40878735Y-58665567D01*
X40881118Y-58466628D01*
X40844644Y-58271048D01*
X40770715Y-58086341D01*
X40759255Y-58064899D01*
X40558485Y-58045120D01*
X40049605Y-58554000D01*
X39690395Y-58554000D01*
X39676253Y-58539858D01*
X39855858Y-58360253D01*
X39870000Y-58374395D01*
X40378880Y-57865515D01*
X40359101Y-57664745D01*
X40176218Y-57586413D01*
X39981567Y-57545265D01*
X39848136Y-57543667D01*
X39880000Y-57383476D01*
X39880000Y-57184524D01*
X39841186Y-56989394D01*
X39765050Y-56805586D01*
X39660423Y-56649000D01*
X39765050Y-56492414D01*
X39841186Y-56308606D01*
X39880000Y-56113476D01*
X39880000Y-55914524D01*
X39848031Y-55753808D01*
X39957372Y-55755118D01*
X40152952Y-55718644D01*
X40337659Y-55644715D01*
X40359101Y-55633255D01*
X40378880Y-55432485D01*
X39870000Y-54923605D01*
X39855858Y-54937748D01*
X39676253Y-54758143D01*
X39690395Y-54744000D01*
X40049605Y-54744000D01*
X40558485Y-55252880D01*
X40759255Y-55233101D01*
X40765294Y-55219000D01*
X43415928Y-55219000D01*
X43428188Y-55343482D01*
X43464498Y-55463180D01*
X43523463Y-55573494D01*
X43602815Y-55670185D01*
X43699506Y-55749537D01*
X43809820Y-55808502D01*
X43929518Y-55844812D01*
X44054000Y-55857072D01*
X44418250Y-55854000D01*
X44577000Y-55695250D01*
X44577000Y-54683500D01*
X43577750Y-54683500D01*
X43419000Y-54842250D01*
X43415928Y-55219000D01*
X40765294Y-55219000D01*
X40837587Y-55050218D01*
X40878735Y-54855567D01*
X40881118Y-54656628D01*
X40844644Y-54461048D01*
X40770715Y-54276341D01*
X40759255Y-54254899D01*
X40558485Y-54235120D01*
X40049605Y-54744000D01*
X39690395Y-54744000D01*
X39181515Y-54235120D01*
X38980745Y-54254899D01*
X38902413Y-54437782D01*
X38861265Y-54632433D01*
X38858882Y-54831372D01*
X38891076Y-55004000D01*
X38770524Y-55004000D01*
X38575394Y-55042814D01*
X38391586Y-55118950D01*
X38226163Y-55229482D01*
X38085482Y-55370163D01*
X37974950Y-55535586D01*
X37898814Y-55719394D01*
X37860000Y-55914524D01*
X37336000Y-55914524D01*
X37336000Y-54055515D01*
X39361120Y-54055515D01*
X39870000Y-54564395D01*
X40378880Y-54055515D01*
X40359101Y-53854745D01*
X40176218Y-53776413D01*
X39981567Y-53735265D01*
X39782628Y-53732882D01*
X39587048Y-53769356D01*
X39402341Y-53843285D01*
X39380899Y-53854745D01*
X39361120Y-54055515D01*
X37336000Y-54055515D01*
X37336000Y-51947589D01*
X37985000Y-51947589D01*
X37985000Y-52220411D01*
X38038225Y-52487989D01*
X38142629Y-52740043D01*
X38294201Y-52966886D01*
X38487114Y-53159799D01*
X38713957Y-53311371D01*
X38966011Y-53415775D01*
X39233589Y-53469000D01*
X39506411Y-53469000D01*
X39773989Y-53415775D01*
X40026043Y-53311371D01*
X40252886Y-53159799D01*
X40445799Y-52966886D01*
X40597371Y-52740043D01*
X40701775Y-52487989D01*
X40755000Y-52220411D01*
X40755000Y-51947589D01*
X40701775Y-51680011D01*
X40597371Y-51427957D01*
X40445799Y-51201114D01*
X40252886Y-51008201D01*
X40026043Y-50856629D01*
X39773989Y-50752225D01*
X39506411Y-50699000D01*
X39233589Y-50699000D01*
X38966011Y-50752225D01*
X38713957Y-50856629D01*
X38487114Y-51008201D01*
X38294201Y-51201114D01*
X38142629Y-51427957D01*
X38038225Y-51680011D01*
X37985000Y-51947589D01*
X37336000Y-51947589D01*
X37336000Y-47227589D01*
X37985000Y-47227589D01*
X37985000Y-47500411D01*
X38038225Y-47767989D01*
X38142629Y-48020043D01*
X38294201Y-48246886D01*
X38487114Y-48439799D01*
X38713957Y-48591371D01*
X38966011Y-48695775D01*
X39233589Y-48749000D01*
X39506411Y-48749000D01*
X39773989Y-48695775D01*
X40026043Y-48591371D01*
X40252886Y-48439799D01*
X40445799Y-48246886D01*
X40597371Y-48020043D01*
X40701775Y-47767989D01*
X40755000Y-47500411D01*
X40755000Y-47227589D01*
X40701775Y-46960011D01*
X40597371Y-46707957D01*
X40445799Y-46481114D01*
X40252886Y-46288201D01*
X40026043Y-46136629D01*
X39773989Y-46032225D01*
X39506411Y-45979000D01*
X39233589Y-45979000D01*
X38966011Y-46032225D01*
X38713957Y-46136629D01*
X38487114Y-46288201D01*
X38294201Y-46481114D01*
X38142629Y-46707957D01*
X38038225Y-46960011D01*
X37985000Y-47227589D01*
X37336000Y-47227589D01*
X37336000Y-45392485D01*
X39361120Y-45392485D01*
X39380899Y-45593255D01*
X39563782Y-45671587D01*
X39758433Y-45712735D01*
X39957372Y-45715118D01*
X40152952Y-45678644D01*
X40337659Y-45604715D01*
X40359101Y-45593255D01*
X40378880Y-45392485D01*
X39870000Y-44883605D01*
X39361120Y-45392485D01*
X37336000Y-45392485D01*
X37336000Y-43217325D01*
X37339676Y-43180000D01*
X37336000Y-43142675D01*
X37336000Y-43142667D01*
X37325003Y-43031014D01*
X37281546Y-42887753D01*
X37210974Y-42755724D01*
X37116001Y-42639999D01*
X37087003Y-42616201D01*
X36957000Y-42486198D01*
X36957000Y-36395515D01*
X39361120Y-36395515D01*
X39870000Y-36904395D01*
X40378880Y-36395515D01*
X40359101Y-36194745D01*
X40176218Y-36116413D01*
X39981567Y-36075265D01*
X39782628Y-36072882D01*
X39587048Y-36109356D01*
X39402341Y-36183285D01*
X39380899Y-36194745D01*
X39361120Y-36395515D01*
X36957000Y-36395515D01*
X36957000Y-35687000D01*
X38799973Y-35687000D01*
X38966011Y-35755775D01*
%TA.AperFunction,Conductor*%
D24*
G36*
X38966011Y-35755775D02*
G01*
X39233589Y-35809000D01*
X39506411Y-35809000D01*
X39773989Y-35755775D01*
X39940027Y-35687000D01*
X80451289Y-35687000D01*
X80358831Y-35779458D01*
X80245563Y-35948976D01*
X80167542Y-36137334D01*
X80127768Y-36337293D01*
X80127768Y-36434785D01*
X78533554Y-38029000D01*
X53822975Y-38029000D01*
X53916962Y-37935013D01*
X54063061Y-37716359D01*
X54163696Y-37473405D01*
X54215000Y-37215486D01*
X54215000Y-36952514D01*
X54163696Y-36694595D01*
X54063061Y-36451641D01*
X53916962Y-36232987D01*
X53731013Y-36047038D01*
X53512359Y-35900939D01*
X53269405Y-35800304D01*
X53011486Y-35749000D01*
X52748514Y-35749000D01*
X52490595Y-35800304D01*
X52247641Y-35900939D01*
X52028987Y-36047038D01*
X51843038Y-36232987D01*
X51696939Y-36451641D01*
X51596304Y-36694595D01*
X51545000Y-36952514D01*
X51545000Y-37215486D01*
X51596304Y-37473405D01*
X51696939Y-37716359D01*
X51843038Y-37935013D01*
X51937025Y-38029000D01*
X40227016Y-38029000D01*
X40337659Y-37984715D01*
X40359101Y-37973255D01*
X40378880Y-37772485D01*
X39870000Y-37263605D01*
X39855858Y-37277748D01*
X39676253Y-37098143D01*
X39690395Y-37084000D01*
X40049605Y-37084000D01*
X40558485Y-37592880D01*
X40759255Y-37573101D01*
X40837587Y-37390218D01*
X40878735Y-37195567D01*
X40881118Y-36996628D01*
X40844644Y-36801048D01*
X40770715Y-36616341D01*
X40759255Y-36594899D01*
X40558485Y-36575120D01*
X40049605Y-37084000D01*
X39690395Y-37084000D01*
X39181515Y-36575120D01*
X38980745Y-36594899D01*
X38902413Y-36777782D01*
X38861265Y-36972433D01*
X38858882Y-37171372D01*
X38891076Y-37344000D01*
X38770524Y-37344000D01*
X38575394Y-37382814D01*
X38391586Y-37458950D01*
X38226163Y-37569482D01*
X38085482Y-37710163D01*
X37974950Y-37875586D01*
X37898814Y-38059394D01*
X37860000Y-38254524D01*
X37860000Y-38453476D01*
X37898814Y-38648606D01*
X37974950Y-38832414D01*
X38079577Y-38989000D01*
X37974950Y-39145586D01*
X37898814Y-39329394D01*
X37860000Y-39524524D01*
X37860000Y-39723476D01*
X37898814Y-39918606D01*
X37974950Y-40102414D01*
X38085482Y-40267837D01*
X38226163Y-40408518D01*
X38391586Y-40519050D01*
X38575394Y-40595186D01*
X38770524Y-40634000D01*
X38892643Y-40634000D01*
X38861265Y-40782433D01*
X38858882Y-40981372D01*
X38891076Y-41154000D01*
X38770524Y-41154000D01*
X38575394Y-41192814D01*
X38391586Y-41268950D01*
X38226163Y-41379482D01*
X38085482Y-41520163D01*
X37974950Y-41685586D01*
X37898814Y-41869394D01*
X37860000Y-42064524D01*
X37860000Y-42263476D01*
X37898814Y-42458606D01*
X37974950Y-42642414D01*
X38079577Y-42799000D01*
X37974950Y-42955586D01*
X37898814Y-43139394D01*
X37860000Y-43334524D01*
X37860000Y-43533476D01*
X37898814Y-43728606D01*
X37974950Y-43912414D01*
X38085482Y-44077837D01*
X38226163Y-44218518D01*
X38391586Y-44329050D01*
X38575394Y-44405186D01*
X38770524Y-44444000D01*
X38892643Y-44444000D01*
X38861265Y-44592433D01*
X38858882Y-44791372D01*
X38895356Y-44986952D01*
X38969285Y-45171659D01*
X38980745Y-45193101D01*
X39181515Y-45212880D01*
X39690395Y-44704000D01*
X40049605Y-44704000D01*
X40558485Y-45212880D01*
X40759255Y-45193101D01*
X40837587Y-45010218D01*
X40878735Y-44815567D01*
X40881118Y-44616628D01*
X40844644Y-44421048D01*
X40770715Y-44236341D01*
X40759255Y-44214899D01*
X40558485Y-44195120D01*
X40049605Y-44704000D01*
X39690395Y-44704000D01*
X39676253Y-44689858D01*
X39855858Y-44510253D01*
X39870000Y-44524395D01*
X40378880Y-44015515D01*
X40359101Y-43814745D01*
X40228952Y-43759000D01*
X43602262Y-43759000D01*
X43638367Y-43762556D01*
X43674472Y-43759000D01*
X43782452Y-43748365D01*
X43921000Y-43706337D01*
X44044000Y-43640592D01*
X44044001Y-51374306D01*
X43964150Y-51398528D01*
X43810614Y-51480595D01*
X43676038Y-51591038D01*
X43565595Y-51725614D01*
X43483528Y-51879150D01*
X43432992Y-52045746D01*
X43415928Y-52219000D01*
X43415928Y-53044000D01*
X43432992Y-53217254D01*
X43483528Y-53383850D01*
X43549664Y-53507580D01*
X43523463Y-53539506D01*
X43464498Y-53649820D01*
X43428188Y-53769518D01*
X43415928Y-53894000D01*
X43419000Y-54270750D01*
X43577750Y-54429500D01*
X44577000Y-54429500D01*
X44577000Y-54409500D01*
X44831000Y-54409500D01*
X44831000Y-54429500D01*
X44851000Y-54429500D01*
X44851000Y-54683500D01*
X44831000Y-54683500D01*
X44831000Y-55695250D01*
X44989750Y-55854000D01*
X45028372Y-55854326D01*
X44779770Y-56102928D01*
X44253999Y-56102928D01*
X44080745Y-56119992D01*
X43914149Y-56170528D01*
X43760613Y-56252595D01*
X43626038Y-56363038D01*
X43515595Y-56497613D01*
X43433528Y-56651149D01*
X43382992Y-56817745D01*
X43365928Y-56990999D01*
X43365928Y-57516001D01*
X43382992Y-57689255D01*
X43433528Y-57855851D01*
X43515595Y-58009387D01*
X43626038Y-58143962D01*
X43652891Y-58166000D01*
X43626038Y-58188038D01*
X43515595Y-58322613D01*
X43433528Y-58476149D01*
X43382992Y-58642745D01*
X43365928Y-58815999D01*
X43365928Y-59341001D01*
X43382992Y-59514255D01*
X43433528Y-59680851D01*
X43515595Y-59834387D01*
X43626038Y-59968962D01*
X43760613Y-60079405D01*
X43914149Y-60161472D01*
X43944001Y-60170527D01*
X43944000Y-62823928D01*
X43904000Y-62823928D01*
X43779518Y-62836188D01*
X43659820Y-62872498D01*
X43549506Y-62931463D01*
X43452815Y-63010815D01*
X43373463Y-63107506D01*
X43314498Y-63217820D01*
X43278188Y-63337518D01*
X43265928Y-63462000D01*
X43265928Y-65062000D01*
X43278188Y-65186482D01*
X43314498Y-65306180D01*
X43373463Y-65416494D01*
X43452815Y-65513185D01*
X43549506Y-65592537D01*
X43659820Y-65651502D01*
X43779518Y-65687812D01*
X43904000Y-65700072D01*
X45067271Y-65700072D01*
X45280199Y-65913000D01*
X40439685Y-65913000D01*
X40445799Y-65906886D01*
X40597371Y-65680043D01*
X40701775Y-65427989D01*
X40755000Y-65160411D01*
X40755000Y-64887589D01*
X40701775Y-64620011D01*
X40597371Y-64367957D01*
X40445799Y-64141114D01*
X40252886Y-63948201D01*
X40026043Y-63796629D01*
X39773989Y-63692225D01*
X39506411Y-63639000D01*
X39233589Y-63639000D01*
X38966011Y-63692225D01*
X38713957Y-63796629D01*
X38487114Y-63948201D01*
X38294201Y-64141114D01*
X38142629Y-64367957D01*
X38038225Y-64620011D01*
X37985000Y-64887589D01*
X37985000Y-65160411D01*
X38038225Y-65427989D01*
X38142629Y-65680043D01*
X38294201Y-65906886D01*
X38300315Y-65913000D01*
X36957000Y-65913000D01*
X36957000Y-63052485D01*
X39361120Y-63052485D01*
X39380899Y-63253255D01*
X39563782Y-63331587D01*
X39758433Y-63372735D01*
X39957372Y-63375118D01*
X40152952Y-63338644D01*
X40337659Y-63264715D01*
X40359101Y-63253255D01*
X40378880Y-63052485D01*
X39870000Y-62543605D01*
X39361120Y-63052485D01*
X36957000Y-63052485D01*
X36957000Y-56827802D01*
X37087004Y-56697798D01*
X37116001Y-56674001D01*
X37210974Y-56558276D01*
X37281546Y-56426247D01*
X37325003Y-56282986D01*
X37336000Y-56171333D01*
X37336000Y-56171325D01*
X37339676Y-56134000D01*
X37336000Y-56096675D01*
X37336000Y-55914524D01*
X37860000Y-55914524D01*
X37860000Y-56113476D01*
X37898814Y-56308606D01*
X37974950Y-56492414D01*
X38079577Y-56649000D01*
X37974950Y-56805586D01*
X37898814Y-56989394D01*
X37860000Y-57184524D01*
X37860000Y-57383476D01*
X37898814Y-57578606D01*
X37974950Y-57762414D01*
X38085482Y-57927837D01*
X38226163Y-58068518D01*
X38391586Y-58179050D01*
X38575394Y-58255186D01*
X38770524Y-58294000D01*
X38892643Y-58294000D01*
X38861265Y-58442433D01*
X38858882Y-58641372D01*
X38891076Y-58814000D01*
X38770524Y-58814000D01*
X38575394Y-58852814D01*
X38391586Y-58928950D01*
X38226163Y-59039482D01*
X38085482Y-59180163D01*
X37974950Y-59345586D01*
X37898814Y-59529394D01*
X37860000Y-59724524D01*
X37860000Y-59923476D01*
X37898814Y-60118606D01*
X37974950Y-60302414D01*
X38079577Y-60459000D01*
X37974950Y-60615586D01*
X37898814Y-60799394D01*
X37860000Y-60994524D01*
X37860000Y-61193476D01*
X37898814Y-61388606D01*
X37974950Y-61572414D01*
X38085482Y-61737837D01*
X38226163Y-61878518D01*
X38391586Y-61989050D01*
X38575394Y-62065186D01*
X38770524Y-62104000D01*
X38892643Y-62104000D01*
X38861265Y-62252433D01*
X38858882Y-62451372D01*
X38895356Y-62646952D01*
X38969285Y-62831659D01*
X38980745Y-62853101D01*
X39181515Y-62872880D01*
X39690395Y-62364000D01*
X40049605Y-62364000D01*
X40558485Y-62872880D01*
X40759255Y-62853101D01*
X40837587Y-62670218D01*
X40878735Y-62475567D01*
X40881118Y-62276628D01*
X40844644Y-62081048D01*
X40770715Y-61896341D01*
X40759255Y-61874899D01*
X40558485Y-61855120D01*
X40049605Y-62364000D01*
X39690395Y-62364000D01*
X39676253Y-62349858D01*
X39855858Y-62170253D01*
X39870000Y-62184395D01*
X40378880Y-61675515D01*
X40359101Y-61474745D01*
X40176218Y-61396413D01*
X39981567Y-61355265D01*
X39848136Y-61353667D01*
X39880000Y-61193476D01*
X39880000Y-60994524D01*
X39841186Y-60799394D01*
X39765050Y-60615586D01*
X39660423Y-60459000D01*
X39765050Y-60302414D01*
X39841186Y-60118606D01*
X39880000Y-59923476D01*
X39880000Y-59724524D01*
X39848031Y-59563808D01*
X39957372Y-59565118D01*
X40152952Y-59528644D01*
X40337659Y-59454715D01*
X40359101Y-59443255D01*
X40378880Y-59242485D01*
X39870000Y-58733605D01*
X39855858Y-58747748D01*
X39676253Y-58568143D01*
X39690395Y-58554000D01*
X40049605Y-58554000D01*
X40558485Y-59062880D01*
X40759255Y-59043101D01*
X40837587Y-58860218D01*
X40878735Y-58665567D01*
X40881118Y-58466628D01*
X40844644Y-58271048D01*
X40770715Y-58086341D01*
X40759255Y-58064899D01*
X40558485Y-58045120D01*
X40049605Y-58554000D01*
X39690395Y-58554000D01*
X39676253Y-58539858D01*
X39855858Y-58360253D01*
X39870000Y-58374395D01*
X40378880Y-57865515D01*
X40359101Y-57664745D01*
X40176218Y-57586413D01*
X39981567Y-57545265D01*
X39848136Y-57543667D01*
X39880000Y-57383476D01*
X39880000Y-57184524D01*
X39841186Y-56989394D01*
X39765050Y-56805586D01*
X39660423Y-56649000D01*
X39765050Y-56492414D01*
X39841186Y-56308606D01*
X39880000Y-56113476D01*
X39880000Y-55914524D01*
X39848031Y-55753808D01*
X39957372Y-55755118D01*
X40152952Y-55718644D01*
X40337659Y-55644715D01*
X40359101Y-55633255D01*
X40378880Y-55432485D01*
X39870000Y-54923605D01*
X39855858Y-54937748D01*
X39676253Y-54758143D01*
X39690395Y-54744000D01*
X40049605Y-54744000D01*
X40558485Y-55252880D01*
X40759255Y-55233101D01*
X40765294Y-55219000D01*
X43415928Y-55219000D01*
X43428188Y-55343482D01*
X43464498Y-55463180D01*
X43523463Y-55573494D01*
X43602815Y-55670185D01*
X43699506Y-55749537D01*
X43809820Y-55808502D01*
X43929518Y-55844812D01*
X44054000Y-55857072D01*
X44418250Y-55854000D01*
X44577000Y-55695250D01*
X44577000Y-54683500D01*
X43577750Y-54683500D01*
X43419000Y-54842250D01*
X43415928Y-55219000D01*
X40765294Y-55219000D01*
X40837587Y-55050218D01*
X40878735Y-54855567D01*
X40881118Y-54656628D01*
X40844644Y-54461048D01*
X40770715Y-54276341D01*
X40759255Y-54254899D01*
X40558485Y-54235120D01*
X40049605Y-54744000D01*
X39690395Y-54744000D01*
X39181515Y-54235120D01*
X38980745Y-54254899D01*
X38902413Y-54437782D01*
X38861265Y-54632433D01*
X38858882Y-54831372D01*
X38891076Y-55004000D01*
X38770524Y-55004000D01*
X38575394Y-55042814D01*
X38391586Y-55118950D01*
X38226163Y-55229482D01*
X38085482Y-55370163D01*
X37974950Y-55535586D01*
X37898814Y-55719394D01*
X37860000Y-55914524D01*
X37336000Y-55914524D01*
X37336000Y-54055515D01*
X39361120Y-54055515D01*
X39870000Y-54564395D01*
X40378880Y-54055515D01*
X40359101Y-53854745D01*
X40176218Y-53776413D01*
X39981567Y-53735265D01*
X39782628Y-53732882D01*
X39587048Y-53769356D01*
X39402341Y-53843285D01*
X39380899Y-53854745D01*
X39361120Y-54055515D01*
X37336000Y-54055515D01*
X37336000Y-51947589D01*
X37985000Y-51947589D01*
X37985000Y-52220411D01*
X38038225Y-52487989D01*
X38142629Y-52740043D01*
X38294201Y-52966886D01*
X38487114Y-53159799D01*
X38713957Y-53311371D01*
X38966011Y-53415775D01*
X39233589Y-53469000D01*
X39506411Y-53469000D01*
X39773989Y-53415775D01*
X40026043Y-53311371D01*
X40252886Y-53159799D01*
X40445799Y-52966886D01*
X40597371Y-52740043D01*
X40701775Y-52487989D01*
X40755000Y-52220411D01*
X40755000Y-51947589D01*
X40701775Y-51680011D01*
X40597371Y-51427957D01*
X40445799Y-51201114D01*
X40252886Y-51008201D01*
X40026043Y-50856629D01*
X39773989Y-50752225D01*
X39506411Y-50699000D01*
X39233589Y-50699000D01*
X38966011Y-50752225D01*
X38713957Y-50856629D01*
X38487114Y-51008201D01*
X38294201Y-51201114D01*
X38142629Y-51427957D01*
X38038225Y-51680011D01*
X37985000Y-51947589D01*
X37336000Y-51947589D01*
X37336000Y-47227589D01*
X37985000Y-47227589D01*
X37985000Y-47500411D01*
X38038225Y-47767989D01*
X38142629Y-48020043D01*
X38294201Y-48246886D01*
X38487114Y-48439799D01*
X38713957Y-48591371D01*
X38966011Y-48695775D01*
X39233589Y-48749000D01*
X39506411Y-48749000D01*
X39773989Y-48695775D01*
X40026043Y-48591371D01*
X40252886Y-48439799D01*
X40445799Y-48246886D01*
X40597371Y-48020043D01*
X40701775Y-47767989D01*
X40755000Y-47500411D01*
X40755000Y-47227589D01*
X40701775Y-46960011D01*
X40597371Y-46707957D01*
X40445799Y-46481114D01*
X40252886Y-46288201D01*
X40026043Y-46136629D01*
X39773989Y-46032225D01*
X39506411Y-45979000D01*
X39233589Y-45979000D01*
X38966011Y-46032225D01*
X38713957Y-46136629D01*
X38487114Y-46288201D01*
X38294201Y-46481114D01*
X38142629Y-46707957D01*
X38038225Y-46960011D01*
X37985000Y-47227589D01*
X37336000Y-47227589D01*
X37336000Y-45392485D01*
X39361120Y-45392485D01*
X39380899Y-45593255D01*
X39563782Y-45671587D01*
X39758433Y-45712735D01*
X39957372Y-45715118D01*
X40152952Y-45678644D01*
X40337659Y-45604715D01*
X40359101Y-45593255D01*
X40378880Y-45392485D01*
X39870000Y-44883605D01*
X39361120Y-45392485D01*
X37336000Y-45392485D01*
X37336000Y-43217325D01*
X37339676Y-43180000D01*
X37336000Y-43142675D01*
X37336000Y-43142667D01*
X37325003Y-43031014D01*
X37281546Y-42887753D01*
X37210974Y-42755724D01*
X37116001Y-42639999D01*
X37087003Y-42616201D01*
X36957000Y-42486198D01*
X36957000Y-36395515D01*
X39361120Y-36395515D01*
X39870000Y-36904395D01*
X40378880Y-36395515D01*
X40359101Y-36194745D01*
X40176218Y-36116413D01*
X39981567Y-36075265D01*
X39782628Y-36072882D01*
X39587048Y-36109356D01*
X39402341Y-36183285D01*
X39380899Y-36194745D01*
X39361120Y-36395515D01*
X36957000Y-36395515D01*
X36957000Y-35687000D01*
X38799973Y-35687000D01*
X38966011Y-35755775D01*
G37*
%TD.AperFunction*%
D23*
X96393000Y-63084605D02*
X96249298Y-62940903D01*
X96180072Y-62961215D01*
X96180072Y-62954000D01*
X96167812Y-62829518D01*
X96131502Y-62709820D01*
X96072537Y-62599506D01*
X95993185Y-62502815D01*
X95896494Y-62423463D01*
X95786180Y-62364498D01*
X95666482Y-62328188D01*
X95542000Y-62315928D01*
X93942000Y-62315928D01*
X93817518Y-62328188D01*
X93697820Y-62364498D01*
X93587506Y-62423463D01*
X93490815Y-62502815D01*
X93411463Y-62599506D01*
X93352498Y-62709820D01*
X93316188Y-62829518D01*
X93303928Y-62954000D01*
X93303928Y-64554000D01*
X93316188Y-64678482D01*
X93352498Y-64798180D01*
X93411463Y-64908494D01*
X93490815Y-65005185D01*
X93587506Y-65084537D01*
X93697820Y-65143502D01*
X93817518Y-65179812D01*
X93942000Y-65192072D01*
X95542000Y-65192072D01*
X95666482Y-65179812D01*
X95786180Y-65143502D01*
X95896494Y-65084537D01*
X95993185Y-65005185D01*
X96072537Y-64908494D01*
X96131502Y-64798180D01*
X96167812Y-64678482D01*
X96180072Y-64554000D01*
X96180072Y-64546785D01*
X96249298Y-64567097D01*
X96393000Y-64423395D01*
X96393000Y-65913000D01*
X85275802Y-65913000D01*
X85347002Y-65841800D01*
X85376001Y-65818001D01*
X85470974Y-65702276D01*
X85541546Y-65570247D01*
X85585003Y-65426986D01*
X85596000Y-65315333D01*
X85596000Y-65315324D01*
X85599676Y-65278001D01*
X85596000Y-65240678D01*
X85596000Y-64068801D01*
X86445928Y-63218873D01*
X86445928Y-64808000D01*
X86458188Y-64932482D01*
X86494498Y-65052180D01*
X86553463Y-65162494D01*
X86632815Y-65259185D01*
X86729506Y-65338537D01*
X86839820Y-65397502D01*
X86959518Y-65433812D01*
X87084000Y-65446072D01*
X88684000Y-65446072D01*
X88808482Y-65433812D01*
X88928180Y-65397502D01*
X89038494Y-65338537D01*
X89135185Y-65259185D01*
X89214537Y-65162494D01*
X89273502Y-65052180D01*
X89289117Y-65000702D01*
X89570903Y-65000702D01*
X89642486Y-65244671D01*
X89897996Y-65365571D01*
X90172184Y-65434300D01*
X90454512Y-65448217D01*
X90734130Y-65406787D01*
X91000292Y-65311603D01*
X91125514Y-65244671D01*
X91197097Y-65000702D01*
X90384000Y-64187605D01*
X89570903Y-65000702D01*
X89289117Y-65000702D01*
X89309812Y-64932482D01*
X89322072Y-64808000D01*
X89322072Y-64800785D01*
X89391298Y-64821097D01*
X90204395Y-64008000D01*
X90563605Y-64008000D01*
X91376702Y-64821097D01*
X91620671Y-64749514D01*
X91741571Y-64494004D01*
X91810300Y-64219816D01*
X91824217Y-63937488D01*
X91782787Y-63657870D01*
X91687603Y-63391708D01*
X91620671Y-63266486D01*
X91376702Y-63194903D01*
X90563605Y-64008000D01*
X90204395Y-64008000D01*
X89391298Y-63194903D01*
X89322072Y-63215215D01*
X89322072Y-63208000D01*
X89309812Y-63083518D01*
X89289118Y-63015298D01*
X89570903Y-63015298D01*
X90384000Y-63828395D01*
X91197097Y-63015298D01*
X91125514Y-62771329D01*
X90870004Y-62650429D01*
X90595816Y-62581700D01*
X90313488Y-62567783D01*
X90033870Y-62609213D01*
X89767708Y-62704397D01*
X89642486Y-62771329D01*
X89570903Y-63015298D01*
X89289118Y-63015298D01*
X89273502Y-62963820D01*
X89214537Y-62853506D01*
X89135185Y-62756815D01*
X89038494Y-62677463D01*
X88928180Y-62618498D01*
X88808482Y-62582188D01*
X88684000Y-62569928D01*
X87094873Y-62569928D01*
X88960802Y-60704000D01*
X90482289Y-60704000D01*
X90526226Y-60747937D01*
X90695744Y-60861205D01*
X90884102Y-60939226D01*
X91084061Y-60979000D01*
X91287939Y-60979000D01*
X91487898Y-60939226D01*
X91676256Y-60861205D01*
X91845774Y-60747937D01*
X91989937Y-60603774D01*
X92103205Y-60434256D01*
X92181226Y-60245898D01*
X92221000Y-60045939D01*
X92221000Y-59842061D01*
X92181226Y-59642102D01*
X92103205Y-59453744D01*
X91989937Y-59284226D01*
X91845774Y-59140063D01*
X91676256Y-59026795D01*
X91487898Y-58948774D01*
X91287939Y-58909000D01*
X91084061Y-58909000D01*
X90884102Y-58948774D01*
X90695744Y-59026795D01*
X90526226Y-59140063D01*
X90482289Y-59184000D01*
X88683325Y-59184000D01*
X88646000Y-59180324D01*
X88608675Y-59184000D01*
X88608667Y-59184000D01*
X88497014Y-59194997D01*
X88353753Y-59238454D01*
X88221724Y-59309026D01*
X88105999Y-59403999D01*
X88082201Y-59432997D01*
X84325003Y-63190196D01*
X84295999Y-63213999D01*
X84240871Y-63281174D01*
X84210491Y-63318191D01*
X84029710Y-63047634D01*
X83764366Y-62782290D01*
X83452356Y-62573811D01*
X83105668Y-62430209D01*
X82737626Y-62357000D01*
X82362374Y-62357000D01*
X81994332Y-62430209D01*
X81647644Y-62573811D01*
X81335634Y-62782290D01*
X81070290Y-63047634D01*
X80861811Y-63359644D01*
X80718209Y-63706332D01*
X80645000Y-64074374D01*
X80645000Y-64449626D01*
X80718209Y-64817668D01*
X80861811Y-65164356D01*
X80866918Y-65171999D01*
X79630078Y-65171999D01*
X79753840Y-65105847D01*
X79907633Y-64979633D01*
X80033847Y-64825840D01*
X80127632Y-64650380D01*
X80185385Y-64459994D01*
X80204886Y-64262000D01*
X80185385Y-64064006D01*
X80127632Y-63873620D01*
X80033847Y-63698160D01*
X79907633Y-63544367D01*
X79753840Y-63418153D01*
X79578380Y-63324368D01*
X79387994Y-63266615D01*
X79239608Y-63252000D01*
X77870392Y-63252000D01*
X77722006Y-63266615D01*
X77568450Y-63313196D01*
X77625205Y-63228256D01*
X77703226Y-63039898D01*
X77743000Y-62839939D01*
X77743000Y-62636061D01*
X77718000Y-62510377D01*
X77718000Y-62279604D01*
X77722886Y-62229999D01*
X77711104Y-62110379D01*
X77703385Y-62032007D01*
X77645632Y-61841620D01*
X77551847Y-61666160D01*
X77425633Y-61512367D01*
X77387100Y-61480744D01*
X75043132Y-59136777D01*
X74971937Y-59030226D01*
X74827774Y-58886063D01*
X74658256Y-58772795D01*
X74469898Y-58694774D01*
X74269939Y-58655000D01*
X74066061Y-58655000D01*
X73866102Y-58694774D01*
X73677744Y-58772795D01*
X73508226Y-58886063D01*
X73364063Y-59030226D01*
X73250795Y-59199744D01*
X73172774Y-59388102D01*
X73133000Y-59588061D01*
X73133000Y-59791939D01*
X73172774Y-59991898D01*
X73250795Y-60180256D01*
X73364063Y-60349774D01*
X73508226Y-60493937D01*
X73614777Y-60565132D01*
X75675108Y-62625464D01*
X75673000Y-62636061D01*
X75673000Y-62839939D01*
X75712774Y-63039898D01*
X75790795Y-63228256D01*
X75904063Y-63397774D01*
X75984341Y-63478052D01*
X75870912Y-63591480D01*
X75854216Y-63393233D01*
X75675616Y-63317411D01*
X75485656Y-63277890D01*
X75291636Y-63276187D01*
X75101011Y-63312368D01*
X74921107Y-63385043D01*
X74905784Y-63393233D01*
X74889088Y-63591483D01*
X75380000Y-64082395D01*
X75394143Y-64068253D01*
X75573748Y-64247858D01*
X75559605Y-64262000D01*
X75573748Y-64276143D01*
X75394143Y-64455748D01*
X75380000Y-64441605D01*
X74889088Y-64932517D01*
X74905784Y-65130767D01*
X75002907Y-65171999D01*
X74487099Y-65171999D01*
X74568893Y-65138957D01*
X74584216Y-65130767D01*
X74600912Y-64932517D01*
X74110000Y-64441605D01*
X73619088Y-64932517D01*
X73635784Y-65130767D01*
X73732907Y-65171999D01*
X73217099Y-65171999D01*
X73298893Y-65138957D01*
X73314216Y-65130767D01*
X73330912Y-64932517D01*
X72840000Y-64441605D01*
X72825858Y-64455748D01*
X72646253Y-64276143D01*
X72660395Y-64262000D01*
X73019605Y-64262000D01*
X73127986Y-64370381D01*
X73160368Y-64540989D01*
X73233043Y-64720893D01*
X73241233Y-64736216D01*
X73439483Y-64752912D01*
X73475000Y-64717395D01*
X73510517Y-64752912D01*
X73708767Y-64736216D01*
X73784589Y-64557616D01*
X73823945Y-64368450D01*
X73930395Y-64262000D01*
X74289605Y-64262000D01*
X74397986Y-64370381D01*
X74430368Y-64540989D01*
X74503043Y-64720893D01*
X74511233Y-64736216D01*
X74709483Y-64752912D01*
X74745000Y-64717395D01*
X74780517Y-64752912D01*
X74978767Y-64736216D01*
X75054589Y-64557616D01*
X75093945Y-64368450D01*
X75200395Y-64262000D01*
X75092014Y-64153619D01*
X75059632Y-63983011D01*
X74986957Y-63803107D01*
X74978767Y-63787784D01*
X74780517Y-63771088D01*
X74745000Y-63806605D01*
X74709483Y-63771088D01*
X74511233Y-63787784D01*
X74435411Y-63966384D01*
X74396055Y-64155550D01*
X74289605Y-64262000D01*
X73930395Y-64262000D01*
X73822014Y-64153619D01*
X73789632Y-63983011D01*
X73716957Y-63803107D01*
X73708767Y-63787784D01*
X73510517Y-63771088D01*
X73475000Y-63806605D01*
X73439483Y-63771088D01*
X73241233Y-63787784D01*
X73165411Y-63966384D01*
X73126055Y-64155550D01*
X73019605Y-64262000D01*
X72660395Y-64262000D01*
X72646253Y-64247858D01*
X72825858Y-64068253D01*
X72840000Y-64082395D01*
X73330912Y-63591483D01*
X73619088Y-63591483D01*
X74110000Y-64082395D01*
X74600912Y-63591483D01*
X74584216Y-63393233D01*
X74405616Y-63317411D01*
X74215656Y-63277890D01*
X74021636Y-63276187D01*
X73831011Y-63312368D01*
X73651107Y-63385043D01*
X73635784Y-63393233D01*
X73619088Y-63591483D01*
X73330912Y-63591483D01*
X73314216Y-63393233D01*
X73135616Y-63317411D01*
X72945656Y-63277890D01*
X72751636Y-63276187D01*
X72561011Y-63312368D01*
X72381107Y-63385043D01*
X72365784Y-63393233D01*
X72349088Y-63591480D01*
X72230369Y-63472761D01*
X72202065Y-63501065D01*
X72197901Y-63496901D01*
X72036572Y-63389104D01*
X71857314Y-63314853D01*
X71667014Y-63277000D01*
X71472986Y-63277000D01*
X71282686Y-63314853D01*
X71103428Y-63389104D01*
X70942099Y-63496901D01*
X70935000Y-63504000D01*
X70927901Y-63496901D01*
X70766572Y-63389104D01*
X70587314Y-63314853D01*
X70397014Y-63277000D01*
X70202986Y-63277000D01*
X70012686Y-63314853D01*
X69833428Y-63389104D01*
X69672099Y-63496901D01*
X69665000Y-63504000D01*
X69657901Y-63496901D01*
X69496572Y-63389104D01*
X69317314Y-63314853D01*
X69312909Y-63313977D01*
X69321226Y-63293898D01*
X69361000Y-63093939D01*
X69361000Y-62890061D01*
X69336000Y-62764377D01*
X69336000Y-61771608D01*
X69340886Y-61722000D01*
X69321385Y-61524005D01*
X69263632Y-61333620D01*
X69200289Y-61215114D01*
X69169847Y-61158160D01*
X69043633Y-61004367D01*
X69005100Y-60972744D01*
X67169132Y-59136776D01*
X67097937Y-59030226D01*
X66953774Y-58886063D01*
X66784256Y-58772795D01*
X66595898Y-58694774D01*
X66395939Y-58655000D01*
X66192061Y-58655000D01*
X65992102Y-58694774D01*
X65803744Y-58772795D01*
X65634226Y-58886063D01*
X65490063Y-59030226D01*
X65376795Y-59199744D01*
X65298774Y-59388102D01*
X65259000Y-59588061D01*
X65259000Y-59791939D01*
X65298774Y-59991898D01*
X65376795Y-60180256D01*
X65490063Y-60349774D01*
X65634226Y-60493937D01*
X65740776Y-60565132D01*
X67316001Y-62140357D01*
X67316000Y-62764375D01*
X67291000Y-62890061D01*
X67291000Y-63093939D01*
X67330774Y-63293898D01*
X67358863Y-63361711D01*
X67301107Y-63385043D01*
X67285784Y-63393233D01*
X67269088Y-63591480D01*
X67150369Y-63472761D01*
X67122065Y-63501065D01*
X67117901Y-63496901D01*
X66956572Y-63389104D01*
X66777314Y-63314853D01*
X66587014Y-63277000D01*
X66392986Y-63277000D01*
X66202686Y-63314853D01*
X66023428Y-63389104D01*
X65862099Y-63496901D01*
X65857935Y-63501065D01*
X65829631Y-63472761D01*
X65710912Y-63591480D01*
X65694216Y-63393233D01*
X65515616Y-63317411D01*
X65325656Y-63277890D01*
X65131636Y-63276187D01*
X64941011Y-63312368D01*
X64761107Y-63385043D01*
X64745784Y-63393233D01*
X64729088Y-63591480D01*
X64610369Y-63472761D01*
X64582065Y-63501065D01*
X64577901Y-63496901D01*
X64416572Y-63389104D01*
X64237314Y-63314853D01*
X64047014Y-63277000D01*
X63852986Y-63277000D01*
X63662686Y-63314853D01*
X63483428Y-63389104D01*
X63322099Y-63496901D01*
X63315000Y-63504000D01*
X63307901Y-63496901D01*
X63146572Y-63389104D01*
X62967314Y-63314853D01*
X62777014Y-63277000D01*
X62582986Y-63277000D01*
X62460101Y-63301443D01*
X62463226Y-63293898D01*
X62503000Y-63093939D01*
X62503000Y-62890061D01*
X62478000Y-62764377D01*
X62478000Y-62533608D01*
X62482886Y-62484000D01*
X62463385Y-62286005D01*
X62405632Y-62095620D01*
X62371630Y-62032006D01*
X62311847Y-61920160D01*
X62185633Y-61766367D01*
X62147100Y-61734744D01*
X59549132Y-59136777D01*
X59477937Y-59030226D01*
X59333774Y-58886063D01*
X59164256Y-58772795D01*
X58975898Y-58694774D01*
X58775939Y-58655000D01*
X58572061Y-58655000D01*
X58372102Y-58694774D01*
X58183744Y-58772795D01*
X58014226Y-58886063D01*
X57870063Y-59030226D01*
X57756795Y-59199744D01*
X57678774Y-59388102D01*
X57639000Y-59588061D01*
X57639000Y-59791939D01*
X57678774Y-59991898D01*
X57756795Y-60180256D01*
X57870063Y-60349774D01*
X58014226Y-60493937D01*
X58120777Y-60565132D01*
X60435108Y-62879464D01*
X60433000Y-62890061D01*
X60433000Y-63093939D01*
X60472774Y-63293898D01*
X60550795Y-63482256D01*
X60649308Y-63629692D01*
X60644901Y-63634099D01*
X60537104Y-63795428D01*
X60462853Y-63974686D01*
X60425000Y-64164986D01*
X60425000Y-64359014D01*
X60462853Y-64549314D01*
X60537104Y-64728572D01*
X60644901Y-64889901D01*
X60782099Y-65027099D01*
X60943428Y-65134896D01*
X61122686Y-65209147D01*
X61312986Y-65247000D01*
X61507014Y-65247000D01*
X61697314Y-65209147D01*
X61876572Y-65134896D01*
X62037901Y-65027099D01*
X62045000Y-65020000D01*
X62052099Y-65027099D01*
X62213428Y-65134896D01*
X62392686Y-65209147D01*
X62582986Y-65247000D01*
X62777014Y-65247000D01*
X62967314Y-65209147D01*
X63146572Y-65134896D01*
X63307901Y-65027099D01*
X63315000Y-65020000D01*
X63322099Y-65027099D01*
X63344626Y-65042151D01*
X63266774Y-65230102D01*
X63227000Y-65430061D01*
X63227000Y-65492199D01*
X63185199Y-65534000D01*
X59562676Y-65534000D01*
X59620310Y-65476366D01*
X59828789Y-65164356D01*
X59972391Y-64817668D01*
X60045600Y-64449626D01*
X60045600Y-64074374D01*
X59972391Y-63706332D01*
X59828789Y-63359644D01*
X59620310Y-63047634D01*
X59354966Y-62782290D01*
X59042956Y-62573811D01*
X58696268Y-62430209D01*
X58328226Y-62357000D01*
X57952974Y-62357000D01*
X57584932Y-62430209D01*
X57238244Y-62573811D01*
X56926234Y-62782290D01*
X56660890Y-63047634D01*
X56452411Y-63359644D01*
X56308809Y-63706332D01*
X56235600Y-64074374D01*
X56235600Y-64449626D01*
X56308809Y-64817668D01*
X56452411Y-65164356D01*
X56660890Y-65476366D01*
X56718524Y-65534000D01*
X54483418Y-65534000D01*
X54549514Y-65498671D01*
X54621097Y-65254702D01*
X53808000Y-64441605D01*
X53793858Y-64455748D01*
X53614253Y-64276143D01*
X53628395Y-64262000D01*
X53987605Y-64262000D01*
X54800702Y-65075097D01*
X55044671Y-65003514D01*
X55165571Y-64748004D01*
X55234300Y-64473816D01*
X55248217Y-64191488D01*
X55206787Y-63911870D01*
X55111603Y-63645708D01*
X55044671Y-63520486D01*
X54800702Y-63448903D01*
X53987605Y-64262000D01*
X53628395Y-64262000D01*
X52815298Y-63448903D01*
X52746072Y-63469215D01*
X52746072Y-63462000D01*
X52733812Y-63337518D01*
X52713118Y-63269298D01*
X52994903Y-63269298D01*
X53808000Y-64082395D01*
X54621097Y-63269298D01*
X54549514Y-63025329D01*
X54294004Y-62904429D01*
X54019816Y-62835700D01*
X53737488Y-62821783D01*
X53457870Y-62863213D01*
X53191708Y-62958397D01*
X53066486Y-63025329D01*
X52994903Y-63269298D01*
X52713118Y-63269298D01*
X52697502Y-63217820D01*
X52638537Y-63107506D01*
X52559185Y-63010815D01*
X52462494Y-62931463D01*
X52352180Y-62872498D01*
X52232482Y-62836188D01*
X52108000Y-62823928D01*
X50508000Y-62823928D01*
X50383518Y-62836188D01*
X50263820Y-62872498D01*
X50153506Y-62931463D01*
X50056815Y-63010815D01*
X49977463Y-63107506D01*
X49918498Y-63217820D01*
X49882188Y-63337518D01*
X49869928Y-63462000D01*
X49869928Y-64371270D01*
X48707199Y-65534000D01*
X47879418Y-65534000D01*
X47945514Y-65498671D01*
X48017097Y-65254702D01*
X47204000Y-64441605D01*
X47189858Y-64455748D01*
X47010253Y-64276143D01*
X47024395Y-64262000D01*
X47383605Y-64262000D01*
X48196702Y-65075097D01*
X48440671Y-65003514D01*
X48561571Y-64748004D01*
X48630300Y-64473816D01*
X48644217Y-64191488D01*
X48602787Y-63911870D01*
X48507603Y-63645708D01*
X48440671Y-63520486D01*
X48196702Y-63448903D01*
X47383605Y-64262000D01*
X47024395Y-64262000D01*
X46211298Y-63448903D01*
X46142072Y-63469215D01*
X46142072Y-63462000D01*
X46129812Y-63337518D01*
X46109118Y-63269298D01*
X46390903Y-63269298D01*
X47204000Y-64082395D01*
X48017097Y-63269298D01*
X47945514Y-63025329D01*
X47690004Y-62904429D01*
X47415816Y-62835700D01*
X47133488Y-62821783D01*
X46853870Y-62863213D01*
X46587708Y-62958397D01*
X46462486Y-63025329D01*
X46390903Y-63269298D01*
X46109118Y-63269298D01*
X46093502Y-63217820D01*
X46034537Y-63107506D01*
X45955185Y-63010815D01*
X45858494Y-62931463D01*
X45748180Y-62872498D01*
X45628482Y-62836188D01*
X45504000Y-62823928D01*
X45464000Y-62823928D01*
X45464000Y-60170527D01*
X45493851Y-60161472D01*
X45647387Y-60079405D01*
X45781962Y-59968962D01*
X45892405Y-59834387D01*
X45974472Y-59680851D01*
X46025008Y-59514255D01*
X46042072Y-59341001D01*
X46042072Y-58815999D01*
X46025008Y-58642745D01*
X45974472Y-58476149D01*
X45892405Y-58322613D01*
X45781962Y-58188038D01*
X45755109Y-58166000D01*
X45781962Y-58143962D01*
X45892405Y-58009387D01*
X45974472Y-57855851D01*
X46025008Y-57689255D01*
X46042072Y-57516001D01*
X46042072Y-56990999D01*
X46042003Y-56990299D01*
X46739009Y-56293294D01*
X46768001Y-56269501D01*
X46791795Y-56240508D01*
X46791799Y-56240504D01*
X46862973Y-56153777D01*
X46862974Y-56153776D01*
X46933546Y-56021747D01*
X46977003Y-55878486D01*
X46988000Y-55766833D01*
X46988000Y-55766824D01*
X46989803Y-55748514D01*
X51545000Y-55748514D01*
X51545000Y-56011486D01*
X51596304Y-56269405D01*
X51696939Y-56512359D01*
X51843038Y-56731013D01*
X52028987Y-56916962D01*
X52247641Y-57063061D01*
X52490595Y-57163696D01*
X52748514Y-57215000D01*
X53011486Y-57215000D01*
X53269405Y-57163696D01*
X53512359Y-57063061D01*
X53731013Y-56916962D01*
X53916962Y-56731013D01*
X54063061Y-56512359D01*
X54163696Y-56269405D01*
X54215000Y-56011486D01*
X54215000Y-55768212D01*
X89495000Y-55768212D01*
X89495000Y-55991788D01*
X89538617Y-56211067D01*
X89624176Y-56417624D01*
X89748388Y-56603520D01*
X89906480Y-56761612D01*
X90092376Y-56885824D01*
X90298933Y-56971383D01*
X90518212Y-57015000D01*
X90741788Y-57015000D01*
X90961067Y-56971383D01*
X91167624Y-56885824D01*
X91353520Y-56761612D01*
X91511612Y-56603520D01*
X91635824Y-56417624D01*
X91721383Y-56211067D01*
X91765000Y-55991788D01*
X91765000Y-55768212D01*
X91721383Y-55548933D01*
X91635824Y-55342376D01*
X91511612Y-55156480D01*
X91353520Y-54998388D01*
X91167624Y-54874176D01*
X90961067Y-54788617D01*
X90741788Y-54745000D01*
X90518212Y-54745000D01*
X90298933Y-54788617D01*
X90092376Y-54874176D01*
X89906480Y-54998388D01*
X89748388Y-55156480D01*
X89624176Y-55342376D01*
X89538617Y-55548933D01*
X89495000Y-55768212D01*
X54215000Y-55768212D01*
X54215000Y-55748514D01*
X54163696Y-55490595D01*
X54063061Y-55247641D01*
X53916962Y-55028987D01*
X53731013Y-54843038D01*
X53512359Y-54696939D01*
X53269405Y-54596304D01*
X53011486Y-54545000D01*
X52748514Y-54545000D01*
X52490595Y-54596304D01*
X52247641Y-54696939D01*
X52028987Y-54843038D01*
X51843038Y-55028987D01*
X51696939Y-55247641D01*
X51596304Y-55490595D01*
X51545000Y-55748514D01*
X46989803Y-55748514D01*
X46991676Y-55729501D01*
X46988000Y-55692178D01*
X46988000Y-54192822D01*
X46991676Y-54155499D01*
X46988000Y-54118176D01*
X46988000Y-54118167D01*
X46977003Y-54006514D01*
X46933546Y-53863253D01*
X46862974Y-53731224D01*
X46796168Y-53649820D01*
X46791799Y-53644496D01*
X46791795Y-53644492D01*
X46768001Y-53615499D01*
X46739008Y-53591705D01*
X45992072Y-52844770D01*
X45992072Y-52222000D01*
X95217581Y-52222000D01*
X95250000Y-52225193D01*
X95282419Y-52222000D01*
X95379383Y-52212450D01*
X95503793Y-52174710D01*
X95618450Y-52113425D01*
X95718948Y-52030948D01*
X95801425Y-51930450D01*
X95862710Y-51815793D01*
X95900450Y-51691383D01*
X95913193Y-51562000D01*
X95910000Y-51529581D01*
X95910000Y-42450419D01*
X95913193Y-42418000D01*
X95900450Y-42288617D01*
X95862710Y-42164207D01*
X95801425Y-42049550D01*
X95718948Y-41949052D01*
X95618450Y-41866575D01*
X95503793Y-41805290D01*
X95379383Y-41767550D01*
X95282419Y-41758000D01*
X95250000Y-41754807D01*
X95217581Y-41758000D01*
X76086165Y-41758000D01*
X76151256Y-41692909D01*
X76264524Y-41523391D01*
X76342545Y-41335033D01*
X76382319Y-41135074D01*
X76382319Y-40931196D01*
X76342545Y-40731237D01*
X76264524Y-40542879D01*
X76151256Y-40373361D01*
X76007093Y-40229198D01*
X75837575Y-40115930D01*
X75649217Y-40037909D01*
X75608233Y-40029757D01*
X75600081Y-39988773D01*
X75583606Y-39949000D01*
X79387897Y-39949000D01*
X79424002Y-39952556D01*
X79460107Y-39949000D01*
X79568087Y-39938365D01*
X79706635Y-39896337D01*
X79834322Y-39828087D01*
X79946240Y-39736238D01*
X79969261Y-39708188D01*
X82356962Y-37320487D01*
X82385007Y-37297471D01*
X82476856Y-37185553D01*
X82545106Y-37057866D01*
X82571088Y-36972212D01*
X89495000Y-36972212D01*
X89495000Y-37195788D01*
X89538617Y-37415067D01*
X89624176Y-37621624D01*
X89748388Y-37807520D01*
X89906480Y-37965612D01*
X90092376Y-38089824D01*
X90298933Y-38175383D01*
X90518212Y-38219000D01*
X90741788Y-38219000D01*
X90961067Y-38175383D01*
X91167624Y-38089824D01*
X91353520Y-37965612D01*
X91511612Y-37807520D01*
X91635824Y-37621624D01*
X91721383Y-37415067D01*
X91765000Y-37195788D01*
X91765000Y-36972212D01*
X91721383Y-36752933D01*
X91635824Y-36546376D01*
X91511612Y-36360480D01*
X91353520Y-36202388D01*
X91167624Y-36078176D01*
X90961067Y-35992617D01*
X90741788Y-35949000D01*
X90518212Y-35949000D01*
X90298933Y-35992617D01*
X90092376Y-36078176D01*
X89906480Y-36202388D01*
X89748388Y-36360480D01*
X89624176Y-36546376D01*
X89538617Y-36752933D01*
X89495000Y-36972212D01*
X82571088Y-36972212D01*
X82587134Y-36919318D01*
X82597769Y-36811337D01*
X82597769Y-36811329D01*
X82601324Y-36775234D01*
X82597769Y-36739139D01*
X82597769Y-36582174D01*
X82629597Y-36477251D01*
X82634091Y-36431620D01*
X82709169Y-36356542D01*
X82822437Y-36187024D01*
X82900458Y-35998666D01*
X82940232Y-35798707D01*
X82940232Y-35687000D01*
X96393000Y-35687000D01*
X96393000Y-63084605D01*
%TA.AperFunction,Conductor*%
D24*
G36*
X96393000Y-63084605D02*
G01*
X96249298Y-62940903D01*
X96180072Y-62961215D01*
X96180072Y-62954000D01*
X96167812Y-62829518D01*
X96131502Y-62709820D01*
X96072537Y-62599506D01*
X95993185Y-62502815D01*
X95896494Y-62423463D01*
X95786180Y-62364498D01*
X95666482Y-62328188D01*
X95542000Y-62315928D01*
X93942000Y-62315928D01*
X93817518Y-62328188D01*
X93697820Y-62364498D01*
X93587506Y-62423463D01*
X93490815Y-62502815D01*
X93411463Y-62599506D01*
X93352498Y-62709820D01*
X93316188Y-62829518D01*
X93303928Y-62954000D01*
X93303928Y-64554000D01*
X93316188Y-64678482D01*
X93352498Y-64798180D01*
X93411463Y-64908494D01*
X93490815Y-65005185D01*
X93587506Y-65084537D01*
X93697820Y-65143502D01*
X93817518Y-65179812D01*
X93942000Y-65192072D01*
X95542000Y-65192072D01*
X95666482Y-65179812D01*
X95786180Y-65143502D01*
X95896494Y-65084537D01*
X95993185Y-65005185D01*
X96072537Y-64908494D01*
X96131502Y-64798180D01*
X96167812Y-64678482D01*
X96180072Y-64554000D01*
X96180072Y-64546785D01*
X96249298Y-64567097D01*
X96393000Y-64423395D01*
X96393000Y-65913000D01*
X85275802Y-65913000D01*
X85347002Y-65841800D01*
X85376001Y-65818001D01*
X85470974Y-65702276D01*
X85541546Y-65570247D01*
X85585003Y-65426986D01*
X85596000Y-65315333D01*
X85596000Y-65315324D01*
X85599676Y-65278001D01*
X85596000Y-65240678D01*
X85596000Y-64068801D01*
X86445928Y-63218873D01*
X86445928Y-64808000D01*
X86458188Y-64932482D01*
X86494498Y-65052180D01*
X86553463Y-65162494D01*
X86632815Y-65259185D01*
X86729506Y-65338537D01*
X86839820Y-65397502D01*
X86959518Y-65433812D01*
X87084000Y-65446072D01*
X88684000Y-65446072D01*
X88808482Y-65433812D01*
X88928180Y-65397502D01*
X89038494Y-65338537D01*
X89135185Y-65259185D01*
X89214537Y-65162494D01*
X89273502Y-65052180D01*
X89289117Y-65000702D01*
X89570903Y-65000702D01*
X89642486Y-65244671D01*
X89897996Y-65365571D01*
X90172184Y-65434300D01*
X90454512Y-65448217D01*
X90734130Y-65406787D01*
X91000292Y-65311603D01*
X91125514Y-65244671D01*
X91197097Y-65000702D01*
X90384000Y-64187605D01*
X89570903Y-65000702D01*
X89289117Y-65000702D01*
X89309812Y-64932482D01*
X89322072Y-64808000D01*
X89322072Y-64800785D01*
X89391298Y-64821097D01*
X90204395Y-64008000D01*
X90563605Y-64008000D01*
X91376702Y-64821097D01*
X91620671Y-64749514D01*
X91741571Y-64494004D01*
X91810300Y-64219816D01*
X91824217Y-63937488D01*
X91782787Y-63657870D01*
X91687603Y-63391708D01*
X91620671Y-63266486D01*
X91376702Y-63194903D01*
X90563605Y-64008000D01*
X90204395Y-64008000D01*
X89391298Y-63194903D01*
X89322072Y-63215215D01*
X89322072Y-63208000D01*
X89309812Y-63083518D01*
X89289118Y-63015298D01*
X89570903Y-63015298D01*
X90384000Y-63828395D01*
X91197097Y-63015298D01*
X91125514Y-62771329D01*
X90870004Y-62650429D01*
X90595816Y-62581700D01*
X90313488Y-62567783D01*
X90033870Y-62609213D01*
X89767708Y-62704397D01*
X89642486Y-62771329D01*
X89570903Y-63015298D01*
X89289118Y-63015298D01*
X89273502Y-62963820D01*
X89214537Y-62853506D01*
X89135185Y-62756815D01*
X89038494Y-62677463D01*
X88928180Y-62618498D01*
X88808482Y-62582188D01*
X88684000Y-62569928D01*
X87094873Y-62569928D01*
X88960802Y-60704000D01*
X90482289Y-60704000D01*
X90526226Y-60747937D01*
X90695744Y-60861205D01*
X90884102Y-60939226D01*
X91084061Y-60979000D01*
X91287939Y-60979000D01*
X91487898Y-60939226D01*
X91676256Y-60861205D01*
X91845774Y-60747937D01*
X91989937Y-60603774D01*
X92103205Y-60434256D01*
X92181226Y-60245898D01*
X92221000Y-60045939D01*
X92221000Y-59842061D01*
X92181226Y-59642102D01*
X92103205Y-59453744D01*
X91989937Y-59284226D01*
X91845774Y-59140063D01*
X91676256Y-59026795D01*
X91487898Y-58948774D01*
X91287939Y-58909000D01*
X91084061Y-58909000D01*
X90884102Y-58948774D01*
X90695744Y-59026795D01*
X90526226Y-59140063D01*
X90482289Y-59184000D01*
X88683325Y-59184000D01*
X88646000Y-59180324D01*
X88608675Y-59184000D01*
X88608667Y-59184000D01*
X88497014Y-59194997D01*
X88353753Y-59238454D01*
X88221724Y-59309026D01*
X88105999Y-59403999D01*
X88082201Y-59432997D01*
X84325003Y-63190196D01*
X84295999Y-63213999D01*
X84240871Y-63281174D01*
X84210491Y-63318191D01*
X84029710Y-63047634D01*
X83764366Y-62782290D01*
X83452356Y-62573811D01*
X83105668Y-62430209D01*
X82737626Y-62357000D01*
X82362374Y-62357000D01*
X81994332Y-62430209D01*
X81647644Y-62573811D01*
X81335634Y-62782290D01*
X81070290Y-63047634D01*
X80861811Y-63359644D01*
X80718209Y-63706332D01*
X80645000Y-64074374D01*
X80645000Y-64449626D01*
X80718209Y-64817668D01*
X80861811Y-65164356D01*
X80866918Y-65171999D01*
X79630078Y-65171999D01*
X79753840Y-65105847D01*
X79907633Y-64979633D01*
X80033847Y-64825840D01*
X80127632Y-64650380D01*
X80185385Y-64459994D01*
X80204886Y-64262000D01*
X80185385Y-64064006D01*
X80127632Y-63873620D01*
X80033847Y-63698160D01*
X79907633Y-63544367D01*
X79753840Y-63418153D01*
X79578380Y-63324368D01*
X79387994Y-63266615D01*
X79239608Y-63252000D01*
X77870392Y-63252000D01*
X77722006Y-63266615D01*
X77568450Y-63313196D01*
X77625205Y-63228256D01*
X77703226Y-63039898D01*
X77743000Y-62839939D01*
X77743000Y-62636061D01*
X77718000Y-62510377D01*
X77718000Y-62279604D01*
X77722886Y-62229999D01*
X77711104Y-62110379D01*
X77703385Y-62032007D01*
X77645632Y-61841620D01*
X77551847Y-61666160D01*
X77425633Y-61512367D01*
X77387100Y-61480744D01*
X75043132Y-59136777D01*
X74971937Y-59030226D01*
X74827774Y-58886063D01*
X74658256Y-58772795D01*
X74469898Y-58694774D01*
X74269939Y-58655000D01*
X74066061Y-58655000D01*
X73866102Y-58694774D01*
X73677744Y-58772795D01*
X73508226Y-58886063D01*
X73364063Y-59030226D01*
X73250795Y-59199744D01*
X73172774Y-59388102D01*
X73133000Y-59588061D01*
X73133000Y-59791939D01*
X73172774Y-59991898D01*
X73250795Y-60180256D01*
X73364063Y-60349774D01*
X73508226Y-60493937D01*
X73614777Y-60565132D01*
X75675108Y-62625464D01*
X75673000Y-62636061D01*
X75673000Y-62839939D01*
X75712774Y-63039898D01*
X75790795Y-63228256D01*
X75904063Y-63397774D01*
X75984341Y-63478052D01*
X75870912Y-63591480D01*
X75854216Y-63393233D01*
X75675616Y-63317411D01*
X75485656Y-63277890D01*
X75291636Y-63276187D01*
X75101011Y-63312368D01*
X74921107Y-63385043D01*
X74905784Y-63393233D01*
X74889088Y-63591483D01*
X75380000Y-64082395D01*
X75394143Y-64068253D01*
X75573748Y-64247858D01*
X75559605Y-64262000D01*
X75573748Y-64276143D01*
X75394143Y-64455748D01*
X75380000Y-64441605D01*
X74889088Y-64932517D01*
X74905784Y-65130767D01*
X75002907Y-65171999D01*
X74487099Y-65171999D01*
X74568893Y-65138957D01*
X74584216Y-65130767D01*
X74600912Y-64932517D01*
X74110000Y-64441605D01*
X73619088Y-64932517D01*
X73635784Y-65130767D01*
X73732907Y-65171999D01*
X73217099Y-65171999D01*
X73298893Y-65138957D01*
X73314216Y-65130767D01*
X73330912Y-64932517D01*
X72840000Y-64441605D01*
X72825858Y-64455748D01*
X72646253Y-64276143D01*
X72660395Y-64262000D01*
X73019605Y-64262000D01*
X73127986Y-64370381D01*
X73160368Y-64540989D01*
X73233043Y-64720893D01*
X73241233Y-64736216D01*
X73439483Y-64752912D01*
X73475000Y-64717395D01*
X73510517Y-64752912D01*
X73708767Y-64736216D01*
X73784589Y-64557616D01*
X73823945Y-64368450D01*
X73930395Y-64262000D01*
X74289605Y-64262000D01*
X74397986Y-64370381D01*
X74430368Y-64540989D01*
X74503043Y-64720893D01*
X74511233Y-64736216D01*
X74709483Y-64752912D01*
X74745000Y-64717395D01*
X74780517Y-64752912D01*
X74978767Y-64736216D01*
X75054589Y-64557616D01*
X75093945Y-64368450D01*
X75200395Y-64262000D01*
X75092014Y-64153619D01*
X75059632Y-63983011D01*
X74986957Y-63803107D01*
X74978767Y-63787784D01*
X74780517Y-63771088D01*
X74745000Y-63806605D01*
X74709483Y-63771088D01*
X74511233Y-63787784D01*
X74435411Y-63966384D01*
X74396055Y-64155550D01*
X74289605Y-64262000D01*
X73930395Y-64262000D01*
X73822014Y-64153619D01*
X73789632Y-63983011D01*
X73716957Y-63803107D01*
X73708767Y-63787784D01*
X73510517Y-63771088D01*
X73475000Y-63806605D01*
X73439483Y-63771088D01*
X73241233Y-63787784D01*
X73165411Y-63966384D01*
X73126055Y-64155550D01*
X73019605Y-64262000D01*
X72660395Y-64262000D01*
X72646253Y-64247858D01*
X72825858Y-64068253D01*
X72840000Y-64082395D01*
X73330912Y-63591483D01*
X73619088Y-63591483D01*
X74110000Y-64082395D01*
X74600912Y-63591483D01*
X74584216Y-63393233D01*
X74405616Y-63317411D01*
X74215656Y-63277890D01*
X74021636Y-63276187D01*
X73831011Y-63312368D01*
X73651107Y-63385043D01*
X73635784Y-63393233D01*
X73619088Y-63591483D01*
X73330912Y-63591483D01*
X73314216Y-63393233D01*
X73135616Y-63317411D01*
X72945656Y-63277890D01*
X72751636Y-63276187D01*
X72561011Y-63312368D01*
X72381107Y-63385043D01*
X72365784Y-63393233D01*
X72349088Y-63591480D01*
X72230369Y-63472761D01*
X72202065Y-63501065D01*
X72197901Y-63496901D01*
X72036572Y-63389104D01*
X71857314Y-63314853D01*
X71667014Y-63277000D01*
X71472986Y-63277000D01*
X71282686Y-63314853D01*
X71103428Y-63389104D01*
X70942099Y-63496901D01*
X70935000Y-63504000D01*
X70927901Y-63496901D01*
X70766572Y-63389104D01*
X70587314Y-63314853D01*
X70397014Y-63277000D01*
X70202986Y-63277000D01*
X70012686Y-63314853D01*
X69833428Y-63389104D01*
X69672099Y-63496901D01*
X69665000Y-63504000D01*
X69657901Y-63496901D01*
X69496572Y-63389104D01*
X69317314Y-63314853D01*
X69312909Y-63313977D01*
X69321226Y-63293898D01*
X69361000Y-63093939D01*
X69361000Y-62890061D01*
X69336000Y-62764377D01*
X69336000Y-61771608D01*
X69340886Y-61722000D01*
X69321385Y-61524005D01*
X69263632Y-61333620D01*
X69200289Y-61215114D01*
X69169847Y-61158160D01*
X69043633Y-61004367D01*
X69005100Y-60972744D01*
X67169132Y-59136776D01*
X67097937Y-59030226D01*
X66953774Y-58886063D01*
X66784256Y-58772795D01*
X66595898Y-58694774D01*
X66395939Y-58655000D01*
X66192061Y-58655000D01*
X65992102Y-58694774D01*
X65803744Y-58772795D01*
X65634226Y-58886063D01*
X65490063Y-59030226D01*
X65376795Y-59199744D01*
X65298774Y-59388102D01*
X65259000Y-59588061D01*
X65259000Y-59791939D01*
X65298774Y-59991898D01*
X65376795Y-60180256D01*
X65490063Y-60349774D01*
X65634226Y-60493937D01*
X65740776Y-60565132D01*
X67316001Y-62140357D01*
X67316000Y-62764375D01*
X67291000Y-62890061D01*
X67291000Y-63093939D01*
X67330774Y-63293898D01*
X67358863Y-63361711D01*
X67301107Y-63385043D01*
X67285784Y-63393233D01*
X67269088Y-63591480D01*
X67150369Y-63472761D01*
X67122065Y-63501065D01*
X67117901Y-63496901D01*
X66956572Y-63389104D01*
X66777314Y-63314853D01*
X66587014Y-63277000D01*
X66392986Y-63277000D01*
X66202686Y-63314853D01*
X66023428Y-63389104D01*
X65862099Y-63496901D01*
X65857935Y-63501065D01*
X65829631Y-63472761D01*
X65710912Y-63591480D01*
X65694216Y-63393233D01*
X65515616Y-63317411D01*
X65325656Y-63277890D01*
X65131636Y-63276187D01*
X64941011Y-63312368D01*
X64761107Y-63385043D01*
X64745784Y-63393233D01*
X64729088Y-63591480D01*
X64610369Y-63472761D01*
X64582065Y-63501065D01*
X64577901Y-63496901D01*
X64416572Y-63389104D01*
X64237314Y-63314853D01*
X64047014Y-63277000D01*
X63852986Y-63277000D01*
X63662686Y-63314853D01*
X63483428Y-63389104D01*
X63322099Y-63496901D01*
X63315000Y-63504000D01*
X63307901Y-63496901D01*
X63146572Y-63389104D01*
X62967314Y-63314853D01*
X62777014Y-63277000D01*
X62582986Y-63277000D01*
X62460101Y-63301443D01*
X62463226Y-63293898D01*
X62503000Y-63093939D01*
X62503000Y-62890061D01*
X62478000Y-62764377D01*
X62478000Y-62533608D01*
X62482886Y-62484000D01*
X62463385Y-62286005D01*
X62405632Y-62095620D01*
X62371630Y-62032006D01*
X62311847Y-61920160D01*
X62185633Y-61766367D01*
X62147100Y-61734744D01*
X59549132Y-59136777D01*
X59477937Y-59030226D01*
X59333774Y-58886063D01*
X59164256Y-58772795D01*
X58975898Y-58694774D01*
X58775939Y-58655000D01*
X58572061Y-58655000D01*
X58372102Y-58694774D01*
X58183744Y-58772795D01*
X58014226Y-58886063D01*
X57870063Y-59030226D01*
X57756795Y-59199744D01*
X57678774Y-59388102D01*
X57639000Y-59588061D01*
X57639000Y-59791939D01*
X57678774Y-59991898D01*
X57756795Y-60180256D01*
X57870063Y-60349774D01*
X58014226Y-60493937D01*
X58120777Y-60565132D01*
X60435108Y-62879464D01*
X60433000Y-62890061D01*
X60433000Y-63093939D01*
X60472774Y-63293898D01*
X60550795Y-63482256D01*
X60649308Y-63629692D01*
X60644901Y-63634099D01*
X60537104Y-63795428D01*
X60462853Y-63974686D01*
X60425000Y-64164986D01*
X60425000Y-64359014D01*
X60462853Y-64549314D01*
X60537104Y-64728572D01*
X60644901Y-64889901D01*
X60782099Y-65027099D01*
X60943428Y-65134896D01*
X61122686Y-65209147D01*
X61312986Y-65247000D01*
X61507014Y-65247000D01*
X61697314Y-65209147D01*
X61876572Y-65134896D01*
X62037901Y-65027099D01*
X62045000Y-65020000D01*
X62052099Y-65027099D01*
X62213428Y-65134896D01*
X62392686Y-65209147D01*
X62582986Y-65247000D01*
X62777014Y-65247000D01*
X62967314Y-65209147D01*
X63146572Y-65134896D01*
X63307901Y-65027099D01*
X63315000Y-65020000D01*
X63322099Y-65027099D01*
X63344626Y-65042151D01*
X63266774Y-65230102D01*
X63227000Y-65430061D01*
X63227000Y-65492199D01*
X63185199Y-65534000D01*
X59562676Y-65534000D01*
X59620310Y-65476366D01*
X59828789Y-65164356D01*
X59972391Y-64817668D01*
X60045600Y-64449626D01*
X60045600Y-64074374D01*
X59972391Y-63706332D01*
X59828789Y-63359644D01*
X59620310Y-63047634D01*
X59354966Y-62782290D01*
X59042956Y-62573811D01*
X58696268Y-62430209D01*
X58328226Y-62357000D01*
X57952974Y-62357000D01*
X57584932Y-62430209D01*
X57238244Y-62573811D01*
X56926234Y-62782290D01*
X56660890Y-63047634D01*
X56452411Y-63359644D01*
X56308809Y-63706332D01*
X56235600Y-64074374D01*
X56235600Y-64449626D01*
X56308809Y-64817668D01*
X56452411Y-65164356D01*
X56660890Y-65476366D01*
X56718524Y-65534000D01*
X54483418Y-65534000D01*
X54549514Y-65498671D01*
X54621097Y-65254702D01*
X53808000Y-64441605D01*
X53793858Y-64455748D01*
X53614253Y-64276143D01*
X53628395Y-64262000D01*
X53987605Y-64262000D01*
X54800702Y-65075097D01*
X55044671Y-65003514D01*
X55165571Y-64748004D01*
X55234300Y-64473816D01*
X55248217Y-64191488D01*
X55206787Y-63911870D01*
X55111603Y-63645708D01*
X55044671Y-63520486D01*
X54800702Y-63448903D01*
X53987605Y-64262000D01*
X53628395Y-64262000D01*
X52815298Y-63448903D01*
X52746072Y-63469215D01*
X52746072Y-63462000D01*
X52733812Y-63337518D01*
X52713118Y-63269298D01*
X52994903Y-63269298D01*
X53808000Y-64082395D01*
X54621097Y-63269298D01*
X54549514Y-63025329D01*
X54294004Y-62904429D01*
X54019816Y-62835700D01*
X53737488Y-62821783D01*
X53457870Y-62863213D01*
X53191708Y-62958397D01*
X53066486Y-63025329D01*
X52994903Y-63269298D01*
X52713118Y-63269298D01*
X52697502Y-63217820D01*
X52638537Y-63107506D01*
X52559185Y-63010815D01*
X52462494Y-62931463D01*
X52352180Y-62872498D01*
X52232482Y-62836188D01*
X52108000Y-62823928D01*
X50508000Y-62823928D01*
X50383518Y-62836188D01*
X50263820Y-62872498D01*
X50153506Y-62931463D01*
X50056815Y-63010815D01*
X49977463Y-63107506D01*
X49918498Y-63217820D01*
X49882188Y-63337518D01*
X49869928Y-63462000D01*
X49869928Y-64371270D01*
X48707199Y-65534000D01*
X47879418Y-65534000D01*
X47945514Y-65498671D01*
X48017097Y-65254702D01*
X47204000Y-64441605D01*
X47189858Y-64455748D01*
X47010253Y-64276143D01*
X47024395Y-64262000D01*
X47383605Y-64262000D01*
X48196702Y-65075097D01*
X48440671Y-65003514D01*
X48561571Y-64748004D01*
X48630300Y-64473816D01*
X48644217Y-64191488D01*
X48602787Y-63911870D01*
X48507603Y-63645708D01*
X48440671Y-63520486D01*
X48196702Y-63448903D01*
X47383605Y-64262000D01*
X47024395Y-64262000D01*
X46211298Y-63448903D01*
X46142072Y-63469215D01*
X46142072Y-63462000D01*
X46129812Y-63337518D01*
X46109118Y-63269298D01*
X46390903Y-63269298D01*
X47204000Y-64082395D01*
X48017097Y-63269298D01*
X47945514Y-63025329D01*
X47690004Y-62904429D01*
X47415816Y-62835700D01*
X47133488Y-62821783D01*
X46853870Y-62863213D01*
X46587708Y-62958397D01*
X46462486Y-63025329D01*
X46390903Y-63269298D01*
X46109118Y-63269298D01*
X46093502Y-63217820D01*
X46034537Y-63107506D01*
X45955185Y-63010815D01*
X45858494Y-62931463D01*
X45748180Y-62872498D01*
X45628482Y-62836188D01*
X45504000Y-62823928D01*
X45464000Y-62823928D01*
X45464000Y-60170527D01*
X45493851Y-60161472D01*
X45647387Y-60079405D01*
X45781962Y-59968962D01*
X45892405Y-59834387D01*
X45974472Y-59680851D01*
X46025008Y-59514255D01*
X46042072Y-59341001D01*
X46042072Y-58815999D01*
X46025008Y-58642745D01*
X45974472Y-58476149D01*
X45892405Y-58322613D01*
X45781962Y-58188038D01*
X45755109Y-58166000D01*
X45781962Y-58143962D01*
X45892405Y-58009387D01*
X45974472Y-57855851D01*
X46025008Y-57689255D01*
X46042072Y-57516001D01*
X46042072Y-56990999D01*
X46042003Y-56990299D01*
X46739009Y-56293294D01*
X46768001Y-56269501D01*
X46791795Y-56240508D01*
X46791799Y-56240504D01*
X46862973Y-56153777D01*
X46862974Y-56153776D01*
X46933546Y-56021747D01*
X46977003Y-55878486D01*
X46988000Y-55766833D01*
X46988000Y-55766824D01*
X46989803Y-55748514D01*
X51545000Y-55748514D01*
X51545000Y-56011486D01*
X51596304Y-56269405D01*
X51696939Y-56512359D01*
X51843038Y-56731013D01*
X52028987Y-56916962D01*
X52247641Y-57063061D01*
X52490595Y-57163696D01*
X52748514Y-57215000D01*
X53011486Y-57215000D01*
X53269405Y-57163696D01*
X53512359Y-57063061D01*
X53731013Y-56916962D01*
X53916962Y-56731013D01*
X54063061Y-56512359D01*
X54163696Y-56269405D01*
X54215000Y-56011486D01*
X54215000Y-55768212D01*
X89495000Y-55768212D01*
X89495000Y-55991788D01*
X89538617Y-56211067D01*
X89624176Y-56417624D01*
X89748388Y-56603520D01*
X89906480Y-56761612D01*
X90092376Y-56885824D01*
X90298933Y-56971383D01*
X90518212Y-57015000D01*
X90741788Y-57015000D01*
X90961067Y-56971383D01*
X91167624Y-56885824D01*
X91353520Y-56761612D01*
X91511612Y-56603520D01*
X91635824Y-56417624D01*
X91721383Y-56211067D01*
X91765000Y-55991788D01*
X91765000Y-55768212D01*
X91721383Y-55548933D01*
X91635824Y-55342376D01*
X91511612Y-55156480D01*
X91353520Y-54998388D01*
X91167624Y-54874176D01*
X90961067Y-54788617D01*
X90741788Y-54745000D01*
X90518212Y-54745000D01*
X90298933Y-54788617D01*
X90092376Y-54874176D01*
X89906480Y-54998388D01*
X89748388Y-55156480D01*
X89624176Y-55342376D01*
X89538617Y-55548933D01*
X89495000Y-55768212D01*
X54215000Y-55768212D01*
X54215000Y-55748514D01*
X54163696Y-55490595D01*
X54063061Y-55247641D01*
X53916962Y-55028987D01*
X53731013Y-54843038D01*
X53512359Y-54696939D01*
X53269405Y-54596304D01*
X53011486Y-54545000D01*
X52748514Y-54545000D01*
X52490595Y-54596304D01*
X52247641Y-54696939D01*
X52028987Y-54843038D01*
X51843038Y-55028987D01*
X51696939Y-55247641D01*
X51596304Y-55490595D01*
X51545000Y-55748514D01*
X46989803Y-55748514D01*
X46991676Y-55729501D01*
X46988000Y-55692178D01*
X46988000Y-54192822D01*
X46991676Y-54155499D01*
X46988000Y-54118176D01*
X46988000Y-54118167D01*
X46977003Y-54006514D01*
X46933546Y-53863253D01*
X46862974Y-53731224D01*
X46796168Y-53649820D01*
X46791799Y-53644496D01*
X46791795Y-53644492D01*
X46768001Y-53615499D01*
X46739008Y-53591705D01*
X45992072Y-52844770D01*
X45992072Y-52222000D01*
X95217581Y-52222000D01*
X95250000Y-52225193D01*
X95282419Y-52222000D01*
X95379383Y-52212450D01*
X95503793Y-52174710D01*
X95618450Y-52113425D01*
X95718948Y-52030948D01*
X95801425Y-51930450D01*
X95862710Y-51815793D01*
X95900450Y-51691383D01*
X95913193Y-51562000D01*
X95910000Y-51529581D01*
X95910000Y-42450419D01*
X95913193Y-42418000D01*
X95900450Y-42288617D01*
X95862710Y-42164207D01*
X95801425Y-42049550D01*
X95718948Y-41949052D01*
X95618450Y-41866575D01*
X95503793Y-41805290D01*
X95379383Y-41767550D01*
X95282419Y-41758000D01*
X95250000Y-41754807D01*
X95217581Y-41758000D01*
X76086165Y-41758000D01*
X76151256Y-41692909D01*
X76264524Y-41523391D01*
X76342545Y-41335033D01*
X76382319Y-41135074D01*
X76382319Y-40931196D01*
X76342545Y-40731237D01*
X76264524Y-40542879D01*
X76151256Y-40373361D01*
X76007093Y-40229198D01*
X75837575Y-40115930D01*
X75649217Y-40037909D01*
X75608233Y-40029757D01*
X75600081Y-39988773D01*
X75583606Y-39949000D01*
X79387897Y-39949000D01*
X79424002Y-39952556D01*
X79460107Y-39949000D01*
X79568087Y-39938365D01*
X79706635Y-39896337D01*
X79834322Y-39828087D01*
X79946240Y-39736238D01*
X79969261Y-39708188D01*
X82356962Y-37320487D01*
X82385007Y-37297471D01*
X82476856Y-37185553D01*
X82545106Y-37057866D01*
X82571088Y-36972212D01*
X89495000Y-36972212D01*
X89495000Y-37195788D01*
X89538617Y-37415067D01*
X89624176Y-37621624D01*
X89748388Y-37807520D01*
X89906480Y-37965612D01*
X90092376Y-38089824D01*
X90298933Y-38175383D01*
X90518212Y-38219000D01*
X90741788Y-38219000D01*
X90961067Y-38175383D01*
X91167624Y-38089824D01*
X91353520Y-37965612D01*
X91511612Y-37807520D01*
X91635824Y-37621624D01*
X91721383Y-37415067D01*
X91765000Y-37195788D01*
X91765000Y-36972212D01*
X91721383Y-36752933D01*
X91635824Y-36546376D01*
X91511612Y-36360480D01*
X91353520Y-36202388D01*
X91167624Y-36078176D01*
X90961067Y-35992617D01*
X90741788Y-35949000D01*
X90518212Y-35949000D01*
X90298933Y-35992617D01*
X90092376Y-36078176D01*
X89906480Y-36202388D01*
X89748388Y-36360480D01*
X89624176Y-36546376D01*
X89538617Y-36752933D01*
X89495000Y-36972212D01*
X82571088Y-36972212D01*
X82587134Y-36919318D01*
X82597769Y-36811337D01*
X82597769Y-36811329D01*
X82601324Y-36775234D01*
X82597769Y-36739139D01*
X82597769Y-36582174D01*
X82629597Y-36477251D01*
X82634091Y-36431620D01*
X82709169Y-36356542D01*
X82822437Y-36187024D01*
X82900458Y-35998666D01*
X82940232Y-35798707D01*
X82940232Y-35687000D01*
X96393000Y-35687000D01*
X96393000Y-63084605D01*
G37*
%TD.AperFunction*%
D23*
X65413748Y-64247858D02*
X65399605Y-64262000D01*
X65413748Y-64276143D01*
X65234143Y-64455748D01*
X65220000Y-64441605D01*
X65205858Y-64455748D01*
X65026253Y-64276143D01*
X65040395Y-64262000D01*
X65026253Y-64247858D01*
X65205858Y-64068253D01*
X65220000Y-64082395D01*
X65234143Y-64068253D01*
X65413748Y-64247858D01*
%TA.AperFunction,Conductor*%
D24*
G36*
X65413748Y-64247858D02*
G01*
X65399605Y-64262000D01*
X65413748Y-64276143D01*
X65234143Y-64455748D01*
X65220000Y-64441605D01*
X65205858Y-64455748D01*
X65026253Y-64276143D01*
X65040395Y-64262000D01*
X65026253Y-64247858D01*
X65205858Y-64068253D01*
X65220000Y-64082395D01*
X65234143Y-64068253D01*
X65413748Y-64247858D01*
G37*
%TD.AperFunction*%
D23*
X67953748Y-64247858D02*
X67939605Y-64262000D01*
X67953748Y-64276143D01*
X67774143Y-64455748D01*
X67760000Y-64441605D01*
X67745858Y-64455748D01*
X67566253Y-64276143D01*
X67580395Y-64262000D01*
X67566253Y-64247858D01*
X67745858Y-64068253D01*
X67760000Y-64082395D01*
X67774143Y-64068253D01*
X67953748Y-64247858D01*
%TA.AperFunction,Conductor*%
D24*
G36*
X67953748Y-64247858D02*
G01*
X67939605Y-64262000D01*
X67953748Y-64276143D01*
X67774143Y-64455748D01*
X67760000Y-64441605D01*
X67745858Y-64455748D01*
X67566253Y-64276143D01*
X67580395Y-64262000D01*
X67566253Y-64247858D01*
X67745858Y-64068253D01*
X67760000Y-64082395D01*
X67774143Y-64068253D01*
X67953748Y-64247858D01*
G37*
%TD.AperFunction*%
D23*
X73609629Y-39988773D02*
X73569855Y-40188732D01*
X73569855Y-40392610D01*
X73609629Y-40592569D01*
X73632518Y-40647827D01*
X73372346Y-40907999D01*
X44419079Y-40907999D01*
X44382984Y-40904444D01*
X44346889Y-40907999D01*
X44346880Y-40907999D01*
X44238900Y-40918634D01*
X44100352Y-40960662D01*
X43972665Y-41028912D01*
X43860747Y-41120761D01*
X43837731Y-41148806D01*
X43147538Y-41839000D01*
X40227016Y-41839000D01*
X40337659Y-41794715D01*
X40359101Y-41783255D01*
X40378880Y-41582485D01*
X39870000Y-41073605D01*
X39855858Y-41087748D01*
X39676253Y-40908143D01*
X39690395Y-40894000D01*
X40049605Y-40894000D01*
X40558485Y-41402880D01*
X40759255Y-41383101D01*
X40837587Y-41200218D01*
X40878735Y-41005567D01*
X40881118Y-40806628D01*
X40844644Y-40611048D01*
X40770715Y-40426341D01*
X40759255Y-40404899D01*
X40558485Y-40385120D01*
X40049605Y-40894000D01*
X39690395Y-40894000D01*
X39676253Y-40879858D01*
X39855858Y-40700253D01*
X39870000Y-40714395D01*
X40378880Y-40205515D01*
X40359101Y-40004745D01*
X40228952Y-39949000D01*
X73626104Y-39949000D01*
X73609629Y-39988773D01*
%TA.AperFunction,Conductor*%
D24*
G36*
X73609629Y-39988773D02*
G01*
X73569855Y-40188732D01*
X73569855Y-40392610D01*
X73609629Y-40592569D01*
X73632518Y-40647827D01*
X73372346Y-40907999D01*
X44419079Y-40907999D01*
X44382984Y-40904444D01*
X44346889Y-40907999D01*
X44346880Y-40907999D01*
X44238900Y-40918634D01*
X44100352Y-40960662D01*
X43972665Y-41028912D01*
X43860747Y-41120761D01*
X43837731Y-41148806D01*
X43147538Y-41839000D01*
X40227016Y-41839000D01*
X40337659Y-41794715D01*
X40359101Y-41783255D01*
X40378880Y-41582485D01*
X39870000Y-41073605D01*
X39855858Y-41087748D01*
X39676253Y-40908143D01*
X39690395Y-40894000D01*
X40049605Y-40894000D01*
X40558485Y-41402880D01*
X40759255Y-41383101D01*
X40837587Y-41200218D01*
X40878735Y-41005567D01*
X40881118Y-40806628D01*
X40844644Y-40611048D01*
X40770715Y-40426341D01*
X40759255Y-40404899D01*
X40558485Y-40385120D01*
X40049605Y-40894000D01*
X39690395Y-40894000D01*
X39676253Y-40879858D01*
X39855858Y-40700253D01*
X39870000Y-40714395D01*
X40378880Y-40205515D01*
X40359101Y-40004745D01*
X40228952Y-39949000D01*
X73626104Y-39949000D01*
X73609629Y-39988773D01*
G37*
%TD.AperFunction*%
%TD*%
M02*
