M48
; DRILL file {KiCad (5.1.10)-1} date 07/14/21 07:55:44
; FORMAT={-:-/ absolute / inch / decimal}
; #@! TF.CreationDate,2021-07-14T07:55:44+08:00
; #@! TF.GenerationSoftware,Kicad,Pcbnew,(5.1.10)-1
; #@! TF.FileFunction,Plated,1,2,PTH
FMAT,2
INCH
T1C0.0157
T2C0.0177
T3C0.0197
T4C0.0315
T5C0.0402
T6C0.1181
%
G90
G05
T1
X2.3Y-2.17
X2.31Y-2.35
X2.42Y-2.48
X2.53Y-2.58
X2.54Y-2.47
X2.58Y-2.12
X2.61Y-2.35
X2.69Y-2.48
X2.92Y-2.35
X2.9372Y-1.5862
X2.9664Y-1.6155
X3.0Y-2.19
X3.02Y-2.47
X3.06Y-2.25
X3.1954Y-1.4346
X3.2246Y-1.4054
X3.59Y-2.36
T2
X2.4177Y-2.53
X2.4677Y-2.53
X2.5177Y-2.53
X2.5677Y-2.53
X2.6177Y-2.53
X2.6677Y-2.53
X2.7177Y-2.53
X2.7677Y-2.53
X2.8177Y-2.53
X2.8677Y-2.53
X2.9177Y-2.53
X2.9677Y-2.53
X3.0177Y-2.53
X3.0677Y-2.53
X3.1177Y-2.53
T3
X1.5303Y-1.51
X1.5303Y-1.56
X1.5303Y-1.66
X1.5303Y-1.71
X1.5303Y-2.2053
X1.5303Y-2.2553
X1.5303Y-2.3553
X1.5303Y-2.4053
X1.5697Y-1.46
X1.5697Y-1.61
X1.5697Y-1.76
X1.5697Y-2.1553
X1.5697Y-2.3053
X1.5697Y-2.4553
T4
X1.76Y-2.53
X1.8584Y-2.53
X2.02Y-2.53
X2.1184Y-2.53
X3.46Y-2.52
X3.5584Y-2.52
X3.73Y-2.51
X3.8284Y-2.51
T5
X1.33Y-1.39
X1.33Y-1.49
X1.33Y-1.59
X1.33Y-1.69
X1.33Y-2.08
X1.33Y-2.18
X1.33Y-2.28
X1.33Y-2.38
X3.87Y-1.4
X3.87Y-1.5
X3.87Y-1.6
X3.87Y-1.7
X3.87Y-2.02
X3.87Y-2.12
X3.87Y-2.22
X3.87Y-2.32
T6
X1.35Y-1.85
X1.35Y-2.55
X3.9Y-1.87
T0
M30
