%TF.GenerationSoftware,KiCad,Pcbnew,(5.1.10)-1*%
%TF.CreationDate,2021-07-18T21:09:21+08:00*%
%TF.ProjectId,2.5_SAS_Backend,322e355f-5341-4535-9f42-61636b656e64,rev?*%
%TF.SameCoordinates,Original*%
%TF.FileFunction,Soldermask,Top*%
%TF.FilePolarity,Negative*%
%FSLAX46Y46*%
G04 Gerber Fmt 4.6, Leading zero omitted, Abs format (unit mm)*
G04 Created by KiCad (PCBNEW (5.1.10)-1) date 2021-07-18 21:09:21*
%MOMM*%
%LPD*%
G01*
G04 APERTURE LIST*
%ADD10C,1.900000*%
%ADD11C,0.750000*%
%ADD12C,1.000000*%
%ADD13C,1.400000*%
%ADD14C,0.700000*%
%ADD15C,2.540000*%
%ADD16C,1.600000*%
%ADD17R,1.600000X1.600000*%
%ADD18R,2.030000X1.730000*%
%ADD19O,2.030000X1.730000*%
G04 APERTURE END LIST*
D10*
%TO.C,U5*%
X40132000Y-63874000D03*
X40132000Y-50934000D03*
D11*
X39632000Y-61214000D03*
X40632000Y-59944000D03*
X40632000Y-58674000D03*
X39632000Y-57404000D03*
X40632000Y-56134000D03*
X40632000Y-54864000D03*
X39632000Y-53594000D03*
%TD*%
D10*
%TO.C,U3*%
X40132000Y-47364000D03*
X40132000Y-34424000D03*
D11*
X39632000Y-44704000D03*
X40632000Y-43434000D03*
X40632000Y-42164000D03*
X39632000Y-40894000D03*
X40632000Y-39624000D03*
X40632000Y-38354000D03*
X39632000Y-37084000D03*
%TD*%
D12*
%TO.C,U4*%
X90630000Y-55880000D03*
D13*
X52880000Y-55880000D03*
%TD*%
D14*
%TO.C,U2*%
X62680000Y-64262000D03*
X63950000Y-64262000D03*
X61410000Y-64262000D03*
X67760000Y-64262000D03*
X65220000Y-64262000D03*
X66490000Y-64262000D03*
X69030000Y-64262000D03*
X70300000Y-64262000D03*
X71570000Y-64262000D03*
X72840000Y-64262000D03*
X74110000Y-64262000D03*
X75380000Y-64262000D03*
X76650000Y-64262000D03*
X77920000Y-64262000D03*
X79190000Y-64262000D03*
D15*
X58140600Y-64262000D03*
X82550000Y-64262000D03*
%TD*%
D16*
%TO.C,5V_C2*%
X53808000Y-64262000D03*
D17*
X51308000Y-64262000D03*
%TD*%
D16*
%TO.C,12V_C3*%
X90384000Y-64008000D03*
D17*
X87884000Y-64008000D03*
%TD*%
D16*
%TO.C,12V_C4*%
X97242000Y-63754000D03*
D17*
X94742000Y-63754000D03*
%TD*%
%TO.C,D1*%
G36*
G01*
X45104000Y-53294000D02*
X44304000Y-53294000D01*
G75*
G02*
X44054000Y-53044000I0J250000D01*
G01*
X44054000Y-52219000D01*
G75*
G02*
X44304000Y-51969000I250000J0D01*
G01*
X45104000Y-51969000D01*
G75*
G02*
X45354000Y-52219000I0J-250000D01*
G01*
X45354000Y-53044000D01*
G75*
G02*
X45104000Y-53294000I-250000J0D01*
G01*
G37*
G36*
G01*
X45104000Y-55219000D02*
X44304000Y-55219000D01*
G75*
G02*
X44054000Y-54969000I0J250000D01*
G01*
X44054000Y-54144000D01*
G75*
G02*
X44304000Y-53894000I250000J0D01*
G01*
X45104000Y-53894000D01*
G75*
G02*
X45354000Y-54144000I0J-250000D01*
G01*
X45354000Y-54969000D01*
G75*
G02*
X45104000Y-55219000I-250000J0D01*
G01*
G37*
%TD*%
%TO.C,R1*%
G36*
G01*
X45154001Y-57766000D02*
X44253999Y-57766000D01*
G75*
G02*
X44004000Y-57516001I0J249999D01*
G01*
X44004000Y-56990999D01*
G75*
G02*
X44253999Y-56741000I249999J0D01*
G01*
X45154001Y-56741000D01*
G75*
G02*
X45404000Y-56990999I0J-249999D01*
G01*
X45404000Y-57516001D01*
G75*
G02*
X45154001Y-57766000I-249999J0D01*
G01*
G37*
G36*
G01*
X45154001Y-59591000D02*
X44253999Y-59591000D01*
G75*
G02*
X44004000Y-59341001I0J249999D01*
G01*
X44004000Y-58815999D01*
G75*
G02*
X44253999Y-58566000I249999J0D01*
G01*
X45154001Y-58566000D01*
G75*
G02*
X45404000Y-58815999I0J-249999D01*
G01*
X45404000Y-59341001D01*
G75*
G02*
X45154001Y-59591000I-249999J0D01*
G01*
G37*
%TD*%
D18*
%TO.C,M1*%
X98298000Y-51308000D03*
D19*
X98298000Y-53848000D03*
X98298000Y-56388000D03*
X98298000Y-58928000D03*
%TD*%
D18*
%TO.C,M2*%
X98298000Y-35560000D03*
D19*
X98298000Y-38100000D03*
X98298000Y-40640000D03*
X98298000Y-43180000D03*
%TD*%
D18*
%TO.C,M3*%
X34036000Y-42926000D03*
D19*
X34036000Y-40386000D03*
X34036000Y-37846000D03*
X34036000Y-35306000D03*
%TD*%
D18*
%TO.C,M4*%
X34036000Y-60452000D03*
D19*
X34036000Y-57912000D03*
X34036000Y-55372000D03*
X34036000Y-52832000D03*
%TD*%
D16*
%TO.C,5V_C1*%
X47204000Y-64262000D03*
D17*
X44704000Y-64262000D03*
%TD*%
D12*
%TO.C,U1*%
X90630000Y-34163000D03*
D13*
X52880000Y-34163000D03*
%TD*%
M02*
