%TF.GenerationSoftware,KiCad,Pcbnew,(5.1.10)-1*%
%TF.CreationDate,2021-07-20T23:53:59+08:00*%
%TF.ProjectId,2.5_SAS_Backend,322e355f-5341-4535-9f42-61636b656e64,rev?*%
%TF.SameCoordinates,Original*%
%TF.FileFunction,Paste,Top*%
%TF.FilePolarity,Positive*%
%FSLAX46Y46*%
G04 Gerber Fmt 4.6, Leading zero omitted, Abs format (unit mm)*
G04 Created by KiCad (PCBNEW (5.1.10)-1) date 2021-07-20 23:53:59*
%MOMM*%
%LPD*%
G01*
G04 APERTURE LIST*
G04 APERTURE END LIST*
%TO.C,D1*%
G36*
G01*
X92094001Y-39070000D02*
X91293999Y-39070000D01*
G75*
G02*
X91044000Y-38820001I0J249999D01*
G01*
X91044000Y-37994999D01*
G75*
G02*
X91293999Y-37745000I249999J0D01*
G01*
X92094001Y-37745000D01*
G75*
G02*
X92344000Y-37994999I0J-249999D01*
G01*
X92344000Y-38820001D01*
G75*
G02*
X92094001Y-39070000I-249999J0D01*
G01*
G37*
G36*
G01*
X92094001Y-40995000D02*
X91293999Y-40995000D01*
G75*
G02*
X91044000Y-40745001I0J249999D01*
G01*
X91044000Y-39919999D01*
G75*
G02*
X91293999Y-39670000I249999J0D01*
G01*
X92094001Y-39670000D01*
G75*
G02*
X92344000Y-39919999I0J-249999D01*
G01*
X92344000Y-40745001D01*
G75*
G02*
X92094001Y-40995000I-249999J0D01*
G01*
G37*
%TD*%
%TO.C,R1*%
G36*
G01*
X88842002Y-38970000D02*
X87941998Y-38970000D01*
G75*
G02*
X87692000Y-38720002I0J249998D01*
G01*
X87692000Y-38194998D01*
G75*
G02*
X87941998Y-37945000I249998J0D01*
G01*
X88842002Y-37945000D01*
G75*
G02*
X89092000Y-38194998I0J-249998D01*
G01*
X89092000Y-38720002D01*
G75*
G02*
X88842002Y-38970000I-249998J0D01*
G01*
G37*
G36*
G01*
X88842002Y-40795000D02*
X87941998Y-40795000D01*
G75*
G02*
X87692000Y-40545002I0J249998D01*
G01*
X87692000Y-40019998D01*
G75*
G02*
X87941998Y-39770000I249998J0D01*
G01*
X88842002Y-39770000D01*
G75*
G02*
X89092000Y-40019998I0J-249998D01*
G01*
X89092000Y-40545002D01*
G75*
G02*
X88842002Y-40795000I-249998J0D01*
G01*
G37*
%TD*%
%TO.C,F2*%
G36*
G01*
X71511000Y-59957000D02*
X72761000Y-59957000D01*
G75*
G02*
X73011000Y-60207000I0J-250000D01*
G01*
X73011000Y-60957000D01*
G75*
G02*
X72761000Y-61207000I-250000J0D01*
G01*
X71511000Y-61207000D01*
G75*
G02*
X71261000Y-60957000I0J250000D01*
G01*
X71261000Y-60207000D01*
G75*
G02*
X71511000Y-59957000I250000J0D01*
G01*
G37*
G36*
G01*
X71511000Y-57157000D02*
X72761000Y-57157000D01*
G75*
G02*
X73011000Y-57407000I0J-250000D01*
G01*
X73011000Y-58157000D01*
G75*
G02*
X72761000Y-58407000I-250000J0D01*
G01*
X71511000Y-58407000D01*
G75*
G02*
X71261000Y-58157000I0J250000D01*
G01*
X71261000Y-57407000D01*
G75*
G02*
X71511000Y-57157000I250000J0D01*
G01*
G37*
%TD*%
%TO.C,F1*%
G36*
G01*
X64145000Y-59957000D02*
X65395000Y-59957000D01*
G75*
G02*
X65645000Y-60207000I0J-250000D01*
G01*
X65645000Y-60957000D01*
G75*
G02*
X65395000Y-61207000I-250000J0D01*
G01*
X64145000Y-61207000D01*
G75*
G02*
X63895000Y-60957000I0J250000D01*
G01*
X63895000Y-60207000D01*
G75*
G02*
X64145000Y-59957000I250000J0D01*
G01*
G37*
G36*
G01*
X64145000Y-57157000D02*
X65395000Y-57157000D01*
G75*
G02*
X65645000Y-57407000I0J-250000D01*
G01*
X65645000Y-58157000D01*
G75*
G02*
X65395000Y-58407000I-250000J0D01*
G01*
X64145000Y-58407000D01*
G75*
G02*
X63895000Y-58157000I0J250000D01*
G01*
X63895000Y-57407000D01*
G75*
G02*
X64145000Y-57157000I250000J0D01*
G01*
G37*
%TD*%
%TO.C,R4*%
G36*
G01*
X81984002Y-38970000D02*
X81083998Y-38970000D01*
G75*
G02*
X80834000Y-38720002I0J249998D01*
G01*
X80834000Y-38194998D01*
G75*
G02*
X81083998Y-37945000I249998J0D01*
G01*
X81984002Y-37945000D01*
G75*
G02*
X82234000Y-38194998I0J-249998D01*
G01*
X82234000Y-38720002D01*
G75*
G02*
X81984002Y-38970000I-249998J0D01*
G01*
G37*
G36*
G01*
X81984002Y-40795000D02*
X81083998Y-40795000D01*
G75*
G02*
X80834000Y-40545002I0J249998D01*
G01*
X80834000Y-40019998D01*
G75*
G02*
X81083998Y-39770000I249998J0D01*
G01*
X81984002Y-39770000D01*
G75*
G02*
X82234000Y-40019998I0J-249998D01*
G01*
X82234000Y-40545002D01*
G75*
G02*
X81984002Y-40795000I-249998J0D01*
G01*
G37*
%TD*%
%TO.C,R3*%
G36*
G01*
X78797998Y-39770000D02*
X79698002Y-39770000D01*
G75*
G02*
X79948000Y-40019998I0J-249998D01*
G01*
X79948000Y-40545002D01*
G75*
G02*
X79698002Y-40795000I-249998J0D01*
G01*
X78797998Y-40795000D01*
G75*
G02*
X78548000Y-40545002I0J249998D01*
G01*
X78548000Y-40019998D01*
G75*
G02*
X78797998Y-39770000I249998J0D01*
G01*
G37*
G36*
G01*
X78797998Y-37945000D02*
X79698002Y-37945000D01*
G75*
G02*
X79948000Y-38194998I0J-249998D01*
G01*
X79948000Y-38720002D01*
G75*
G02*
X79698002Y-38970000I-249998J0D01*
G01*
X78797998Y-38970000D01*
G75*
G02*
X78548000Y-38720002I0J249998D01*
G01*
X78548000Y-38194998D01*
G75*
G02*
X78797998Y-37945000I249998J0D01*
G01*
G37*
%TD*%
%TO.C,R2*%
G36*
G01*
X77412002Y-38970000D02*
X76511998Y-38970000D01*
G75*
G02*
X76262000Y-38720002I0J249998D01*
G01*
X76262000Y-38194998D01*
G75*
G02*
X76511998Y-37945000I249998J0D01*
G01*
X77412002Y-37945000D01*
G75*
G02*
X77662000Y-38194998I0J-249998D01*
G01*
X77662000Y-38720002D01*
G75*
G02*
X77412002Y-38970000I-249998J0D01*
G01*
G37*
G36*
G01*
X77412002Y-40795000D02*
X76511998Y-40795000D01*
G75*
G02*
X76262000Y-40545002I0J249998D01*
G01*
X76262000Y-40019998D01*
G75*
G02*
X76511998Y-39770000I249998J0D01*
G01*
X77412002Y-39770000D01*
G75*
G02*
X77662000Y-40019998I0J-249998D01*
G01*
X77662000Y-40545002D01*
G75*
G02*
X77412002Y-40795000I-249998J0D01*
G01*
G37*
%TD*%
%TO.C,D2*%
G36*
G01*
X83673999Y-39670000D02*
X84474001Y-39670000D01*
G75*
G02*
X84724000Y-39919999I0J-249999D01*
G01*
X84724000Y-40745001D01*
G75*
G02*
X84474001Y-40995000I-249999J0D01*
G01*
X83673999Y-40995000D01*
G75*
G02*
X83424000Y-40745001I0J249999D01*
G01*
X83424000Y-39919999D01*
G75*
G02*
X83673999Y-39670000I249999J0D01*
G01*
G37*
G36*
G01*
X83673999Y-37745000D02*
X84474001Y-37745000D01*
G75*
G02*
X84724000Y-37994999I0J-249999D01*
G01*
X84724000Y-38820001D01*
G75*
G02*
X84474001Y-39070000I-249999J0D01*
G01*
X83673999Y-39070000D01*
G75*
G02*
X83424000Y-38820001I0J249999D01*
G01*
X83424000Y-37994999D01*
G75*
G02*
X83673999Y-37745000I249999J0D01*
G01*
G37*
%TD*%
M02*
