M48
; DRILL file {KiCad (5.1.10)-1} date 07/20/21 23:53:57
; FORMAT={-:-/ absolute / inch / decimal}
; #@! TF.CreationDate,2021-07-20T23:53:57+08:00
; #@! TF.GenerationSoftware,Kicad,Pcbnew,(5.1.10)-1
; #@! TF.FileFunction,Plated,1,2,PTH
FMAT,2
INCH
T1C0.0157
T2C0.0177
T3C0.0197
T4C0.0315
T5C0.0402
%
G90
G05
T1
X2.03Y-2.07
X2.86Y-1.44
X2.96Y-2.2
X3.01Y-2.27
X3.05Y-1.39
X3.16Y-2.2
X3.22Y-1.39
X3.42Y-1.58
X3.45Y-1.27
X3.46Y-2.08
T2
X2.4877Y-2.53
X2.5377Y-2.53
X2.5877Y-2.53
X2.6377Y-2.53
X2.6877Y-2.53
X2.7377Y-2.53
X2.7877Y-2.53
X2.8377Y-2.53
X2.8877Y-2.53
X2.9377Y-2.53
X2.9877Y-2.53
X3.0377Y-2.53
X3.0877Y-2.53
X3.1377Y-2.53
X3.1877Y-2.53
T3
X1.6303Y-1.46
X1.6303Y-1.51
X1.6303Y-1.61
X1.6303Y-1.66
X1.6303Y-2.2
X1.6303Y-2.25
X1.6303Y-2.35
X1.6303Y-2.4
X1.6697Y-1.41
X1.6697Y-1.56
X1.6697Y-1.71
X1.6697Y-2.15
X1.6697Y-2.3
X1.6697Y-2.45
T4
X1.8716Y-2.53
X1.97Y-2.53
X2.1016Y-2.53
X2.2Y-2.53
X3.5016Y-2.53
X3.6Y-2.53
X3.7316Y-2.53
X3.83Y-2.53
T5
X1.37Y-1.46
X1.37Y-1.56
X1.37Y-1.66
X1.37Y-1.76
X1.37Y-2.11
X1.37Y-2.21
X1.37Y-2.31
X1.37Y-2.41
X3.81Y-1.31
X3.81Y-1.41
X3.81Y-1.51
X3.81Y-1.61
X3.81Y-2.05
X3.81Y-2.15
X3.81Y-2.25
X3.81Y-2.35
T0
M30
