%TF.GenerationSoftware,KiCad,Pcbnew,(5.1.10)-1*%
%TF.CreationDate,2021-07-20T23:53:59+08:00*%
%TF.ProjectId,2.5_SAS_Backend,322e355f-5341-4535-9f42-61636b656e64,rev?*%
%TF.SameCoordinates,Original*%
%TF.FileFunction,Soldermask,Bot*%
%TF.FilePolarity,Negative*%
%FSLAX46Y46*%
G04 Gerber Fmt 4.6, Leading zero omitted, Abs format (unit mm)*
G04 Created by KiCad (PCBNEW (5.1.10)-1) date 2021-07-20 23:53:59*
%MOMM*%
%LPD*%
G01*
G04 APERTURE LIST*
%ADD10C,2.200000*%
%ADD11R,2.600000X2.600000*%
%ADD12C,1.000000*%
%ADD13C,1.400000*%
%ADD14R,0.600000X2.530000*%
%ADD15R,0.500000X2.530000*%
%ADD16C,2.400000*%
%ADD17C,0.850000*%
%ADD18C,0.840000*%
%ADD19C,2.540000*%
%ADD20C,1.600000*%
%ADD21R,1.600000X1.600000*%
%ADD22R,2.030000X1.730000*%
%ADD23O,2.030000X1.730000*%
G04 APERTURE END LIST*
D10*
%TO.C,REF\u002A\u002A*%
X34798000Y-33020000D03*
%TD*%
%TO.C,REF\u002A\u002A*%
X34544000Y-65278000D03*
%TD*%
%TO.C,REF\u002A\u002A*%
X97790000Y-46228000D03*
%TD*%
%TO.C,REF\u002A\u002A*%
X34290000Y-49276000D03*
%TD*%
D11*
%TO.C,U1*%
X48750000Y-34810000D03*
X92500000Y-34810000D03*
D12*
X51750000Y-34810000D03*
D13*
X89500000Y-34810000D03*
D14*
X54750000Y-32980000D03*
X56020000Y-32980000D03*
X57290000Y-32980000D03*
X58560000Y-32980000D03*
X59830000Y-32980000D03*
X61100000Y-32980000D03*
X62370000Y-32980000D03*
D15*
X63145000Y-37650000D03*
X63945000Y-37650000D03*
X64745000Y-37650000D03*
X65545000Y-37650000D03*
X66345000Y-37650000D03*
X67145000Y-37650000D03*
X67945000Y-37650000D03*
D14*
X68720000Y-32980000D03*
X69990000Y-32980000D03*
X71260000Y-32980000D03*
X72530000Y-32980000D03*
X73800000Y-32980000D03*
X75070000Y-32980000D03*
X76340000Y-32980000D03*
X77610000Y-32980000D03*
X78880000Y-32980000D03*
X80150000Y-32980000D03*
X81420000Y-32980000D03*
X82690000Y-32980000D03*
X83960000Y-32980000D03*
X85230000Y-32980000D03*
X86500000Y-32980000D03*
%TD*%
D16*
%TO.C,U5*%
X41910000Y-51950000D03*
X41910000Y-64890000D03*
D17*
X42410000Y-54610000D03*
X41410000Y-55880000D03*
X41410000Y-57150000D03*
X42410000Y-58420000D03*
X41410000Y-59690000D03*
X41410000Y-60960000D03*
X42410000Y-62230000D03*
%TD*%
D16*
%TO.C,U3*%
X41910000Y-33154000D03*
X41910000Y-46094000D03*
D17*
X42410000Y-35814000D03*
X41410000Y-37084000D03*
X41410000Y-38354000D03*
X42410000Y-39624000D03*
X41410000Y-40894000D03*
X41410000Y-42164000D03*
X42410000Y-43434000D03*
%TD*%
D11*
%TO.C,U4*%
X48750000Y-55310000D03*
X92500000Y-55310000D03*
D12*
X51750000Y-55310000D03*
D13*
X89500000Y-55310000D03*
D14*
X54750000Y-53480000D03*
X56020000Y-53480000D03*
X57290000Y-53480000D03*
X58560000Y-53480000D03*
X59830000Y-53480000D03*
X61100000Y-53480000D03*
X62370000Y-53480000D03*
D15*
X63145000Y-58150000D03*
X63945000Y-58150000D03*
X64745000Y-58150000D03*
X65545000Y-58150000D03*
X66345000Y-58150000D03*
X67145000Y-58150000D03*
X67945000Y-58150000D03*
D14*
X68720000Y-53480000D03*
X69990000Y-53480000D03*
X71260000Y-53480000D03*
X72530000Y-53480000D03*
X73800000Y-53480000D03*
X75070000Y-53480000D03*
X76340000Y-53480000D03*
X77610000Y-53480000D03*
X78880000Y-53480000D03*
X80150000Y-53480000D03*
X81420000Y-53480000D03*
X82690000Y-53480000D03*
X83960000Y-53480000D03*
X85230000Y-53480000D03*
X86500000Y-53480000D03*
%TD*%
D18*
%TO.C,U2*%
X64458000Y-64262000D03*
X65728000Y-64262000D03*
X63188000Y-64262000D03*
X69538000Y-64262000D03*
X66998000Y-64262000D03*
X68268000Y-64262000D03*
X70808000Y-64262000D03*
X72078000Y-64262000D03*
X73348000Y-64262000D03*
X74618000Y-64262000D03*
X75888000Y-64262000D03*
X77158000Y-64262000D03*
X78428000Y-64262000D03*
X79698000Y-64262000D03*
X80968000Y-64262000D03*
D19*
X59918600Y-64262000D03*
X84328000Y-64262000D03*
%TD*%
D20*
%TO.C,5V_C2*%
X88940000Y-64262000D03*
D21*
X91440000Y-64262000D03*
%TD*%
D20*
%TO.C,12V_C3*%
X47538000Y-64262000D03*
D21*
X50038000Y-64262000D03*
%TD*%
D20*
%TO.C,12V_C4*%
X53380000Y-64262000D03*
D21*
X55880000Y-64262000D03*
%TD*%
D22*
%TO.C,M1*%
X96774000Y-52070000D03*
D23*
X96774000Y-54610000D03*
X96774000Y-57150000D03*
X96774000Y-59690000D03*
%TD*%
D22*
%TO.C,M2*%
X96774000Y-33274000D03*
D23*
X96774000Y-35814000D03*
X96774000Y-38354000D03*
X96774000Y-40894000D03*
%TD*%
D22*
%TO.C,M3*%
X34798000Y-44704000D03*
D23*
X34798000Y-42164000D03*
X34798000Y-39624000D03*
X34798000Y-37084000D03*
%TD*%
D22*
%TO.C,M4*%
X34798000Y-61214000D03*
D23*
X34798000Y-58674000D03*
X34798000Y-56134000D03*
X34798000Y-53594000D03*
%TD*%
D20*
%TO.C,5V_C1*%
X94782000Y-64262000D03*
D21*
X97282000Y-64262000D03*
%TD*%
M02*
