%TF.GenerationSoftware,KiCad,Pcbnew,(5.1.10)-1*%
%TF.CreationDate,2021-07-20T23:53:58+08:00*%
%TF.ProjectId,2.5_SAS_Backend,322e355f-5341-4535-9f42-61636b656e64,rev?*%
%TF.SameCoordinates,Original*%
%TF.FileFunction,Copper,L1,Top*%
%TF.FilePolarity,Positive*%
%FSLAX46Y46*%
G04 Gerber Fmt 4.6, Leading zero omitted, Abs format (unit mm)*
G04 Created by KiCad (PCBNEW (5.1.10)-1) date 2021-07-20 23:53:58*
%MOMM*%
%LPD*%
G01*
G04 APERTURE LIST*
%TA.AperFunction,NonConductor*%
%ADD10C,0.300000*%
%TD*%
%TA.AperFunction,WasherPad*%
%ADD11C,2.400000*%
%TD*%
%TA.AperFunction,ComponentPad*%
%ADD12C,0.850000*%
%TD*%
%TA.AperFunction,ComponentPad*%
%ADD13C,0.840000*%
%TD*%
%TA.AperFunction,WasherPad*%
%ADD14C,2.540000*%
%TD*%
%TA.AperFunction,ComponentPad*%
%ADD15C,1.600000*%
%TD*%
%TA.AperFunction,ComponentPad*%
%ADD16R,1.600000X1.600000*%
%TD*%
%TA.AperFunction,ComponentPad*%
%ADD17R,2.030000X1.730000*%
%TD*%
%TA.AperFunction,ComponentPad*%
%ADD18O,2.030000X1.730000*%
%TD*%
%TA.AperFunction,ViaPad*%
%ADD19C,0.800000*%
%TD*%
%TA.AperFunction,Conductor*%
%ADD20C,0.750000*%
%TD*%
%TA.AperFunction,Conductor*%
%ADD21C,0.250000*%
%TD*%
%TA.AperFunction,Conductor*%
%ADD22C,0.254000*%
%TD*%
%TA.AperFunction,Conductor*%
%ADD23C,0.100000*%
%TD*%
G04 APERTURE END LIST*
D10*
X46352857Y-39199428D02*
X46424285Y-39128000D01*
X46567142Y-39056571D01*
X46924285Y-39056571D01*
X47067142Y-39128000D01*
X47138571Y-39199428D01*
X47210000Y-39342285D01*
X47210000Y-39485142D01*
X47138571Y-39699428D01*
X46281428Y-40556571D01*
X47210000Y-40556571D01*
X48138571Y-39056571D02*
X48281428Y-39056571D01*
X48424285Y-39128000D01*
X48495714Y-39199428D01*
X48567142Y-39342285D01*
X48638571Y-39628000D01*
X48638571Y-39985142D01*
X48567142Y-40270857D01*
X48495714Y-40413714D01*
X48424285Y-40485142D01*
X48281428Y-40556571D01*
X48138571Y-40556571D01*
X47995714Y-40485142D01*
X47924285Y-40413714D01*
X47852857Y-40270857D01*
X47781428Y-39985142D01*
X47781428Y-39628000D01*
X47852857Y-39342285D01*
X47924285Y-39199428D01*
X47995714Y-39128000D01*
X48138571Y-39056571D01*
X49210000Y-39199428D02*
X49281428Y-39128000D01*
X49424285Y-39056571D01*
X49781428Y-39056571D01*
X49924285Y-39128000D01*
X49995714Y-39199428D01*
X50067142Y-39342285D01*
X50067142Y-39485142D01*
X49995714Y-39699428D01*
X49138571Y-40556571D01*
X50067142Y-40556571D01*
X51495714Y-40556571D02*
X50638571Y-40556571D01*
X51067142Y-40556571D02*
X51067142Y-39056571D01*
X50924285Y-39270857D01*
X50781428Y-39413714D01*
X50638571Y-39485142D01*
X52138571Y-40413714D02*
X52210000Y-40485142D01*
X52138571Y-40556571D01*
X52067142Y-40485142D01*
X52138571Y-40413714D01*
X52138571Y-40556571D01*
X52710000Y-39056571D02*
X53710000Y-39056571D01*
X53067142Y-40556571D01*
X54281428Y-40413714D02*
X54352857Y-40485142D01*
X54281428Y-40556571D01*
X54210000Y-40485142D01*
X54281428Y-40413714D01*
X54281428Y-40556571D01*
X54924285Y-39199428D02*
X54995714Y-39128000D01*
X55138571Y-39056571D01*
X55495714Y-39056571D01*
X55638571Y-39128000D01*
X55710000Y-39199428D01*
X55781428Y-39342285D01*
X55781428Y-39485142D01*
X55710000Y-39699428D01*
X54852857Y-40556571D01*
X55781428Y-40556571D01*
X56710000Y-39056571D02*
X56852857Y-39056571D01*
X56995714Y-39128000D01*
X57067142Y-39199428D01*
X57138571Y-39342285D01*
X57210000Y-39628000D01*
X57210000Y-39985142D01*
X57138571Y-40270857D01*
X57067142Y-40413714D01*
X56995714Y-40485142D01*
X56852857Y-40556571D01*
X56710000Y-40556571D01*
X56567142Y-40485142D01*
X56495714Y-40413714D01*
X56424285Y-40270857D01*
X56352857Y-39985142D01*
X56352857Y-39628000D01*
X56424285Y-39342285D01*
X56495714Y-39199428D01*
X56567142Y-39128000D01*
X56710000Y-39056571D01*
X57852857Y-40413714D02*
X57924285Y-40485142D01*
X57852857Y-40556571D01*
X57781428Y-40485142D01*
X57852857Y-40413714D01*
X57852857Y-40556571D01*
X58495714Y-40485142D02*
X58710000Y-40556571D01*
X59067142Y-40556571D01*
X59210000Y-40485142D01*
X59281428Y-40413714D01*
X59352857Y-40270857D01*
X59352857Y-40128000D01*
X59281428Y-39985142D01*
X59210000Y-39913714D01*
X59067142Y-39842285D01*
X58781428Y-39770857D01*
X58638571Y-39699428D01*
X58567142Y-39628000D01*
X58495714Y-39485142D01*
X58495714Y-39342285D01*
X58567142Y-39199428D01*
X58638571Y-39128000D01*
X58781428Y-39056571D01*
X59138571Y-39056571D01*
X59352857Y-39128000D01*
X59924285Y-40128000D02*
X60638571Y-40128000D01*
X59781428Y-40556571D02*
X60281428Y-39056571D01*
X60781428Y-40556571D01*
X61210000Y-40485142D02*
X61424285Y-40556571D01*
X61781428Y-40556571D01*
X61924285Y-40485142D01*
X61995714Y-40413714D01*
X62067142Y-40270857D01*
X62067142Y-40128000D01*
X61995714Y-39985142D01*
X61924285Y-39913714D01*
X61781428Y-39842285D01*
X61495714Y-39770857D01*
X61352857Y-39699428D01*
X61281428Y-39628000D01*
X61210000Y-39485142D01*
X61210000Y-39342285D01*
X61281428Y-39199428D01*
X61352857Y-39128000D01*
X61495714Y-39056571D01*
X61852857Y-39056571D01*
X62067142Y-39128000D01*
X62710000Y-40413714D02*
X62781428Y-40485142D01*
X62710000Y-40556571D01*
X62638571Y-40485142D01*
X62710000Y-40413714D01*
X62710000Y-40556571D01*
X63924285Y-39770857D02*
X64138571Y-39842285D01*
X64210000Y-39913714D01*
X64281428Y-40056571D01*
X64281428Y-40270857D01*
X64210000Y-40413714D01*
X64138571Y-40485142D01*
X63995714Y-40556571D01*
X63424285Y-40556571D01*
X63424285Y-39056571D01*
X63924285Y-39056571D01*
X64067142Y-39128000D01*
X64138571Y-39199428D01*
X64210000Y-39342285D01*
X64210000Y-39485142D01*
X64138571Y-39628000D01*
X64067142Y-39699428D01*
X63924285Y-39770857D01*
X63424285Y-39770857D01*
X65567142Y-40556571D02*
X65567142Y-39770857D01*
X65495714Y-39628000D01*
X65352857Y-39556571D01*
X65067142Y-39556571D01*
X64924285Y-39628000D01*
X65567142Y-40485142D02*
X65424285Y-40556571D01*
X65067142Y-40556571D01*
X64924285Y-40485142D01*
X64852857Y-40342285D01*
X64852857Y-40199428D01*
X64924285Y-40056571D01*
X65067142Y-39985142D01*
X65424285Y-39985142D01*
X65567142Y-39913714D01*
X66924285Y-40485142D02*
X66781428Y-40556571D01*
X66495714Y-40556571D01*
X66352857Y-40485142D01*
X66281428Y-40413714D01*
X66210000Y-40270857D01*
X66210000Y-39842285D01*
X66281428Y-39699428D01*
X66352857Y-39628000D01*
X66495714Y-39556571D01*
X66781428Y-39556571D01*
X66924285Y-39628000D01*
X67567142Y-40556571D02*
X67567142Y-39056571D01*
X67710000Y-39985142D02*
X68138571Y-40556571D01*
X68138571Y-39556571D02*
X67567142Y-40128000D01*
X69352857Y-40485142D02*
X69210000Y-40556571D01*
X68924285Y-40556571D01*
X68781428Y-40485142D01*
X68710000Y-40342285D01*
X68710000Y-39770857D01*
X68781428Y-39628000D01*
X68924285Y-39556571D01*
X69210000Y-39556571D01*
X69352857Y-39628000D01*
X69424285Y-39770857D01*
X69424285Y-39913714D01*
X68710000Y-40056571D01*
X70067142Y-39556571D02*
X70067142Y-40556571D01*
X70067142Y-39699428D02*
X70138571Y-39628000D01*
X70281428Y-39556571D01*
X70495714Y-39556571D01*
X70638571Y-39628000D01*
X70710000Y-39770857D01*
X70710000Y-40556571D01*
X72067142Y-40556571D02*
X72067142Y-39056571D01*
X72067142Y-40485142D02*
X71924285Y-40556571D01*
X71638571Y-40556571D01*
X71495714Y-40485142D01*
X71424285Y-40413714D01*
X71352857Y-40270857D01*
X71352857Y-39842285D01*
X71424285Y-39699428D01*
X71495714Y-39628000D01*
X71638571Y-39556571D01*
X71924285Y-39556571D01*
X72067142Y-39628000D01*
X72781428Y-40413714D02*
X72852857Y-40485142D01*
X72781428Y-40556571D01*
X72710000Y-40485142D01*
X72781428Y-40413714D01*
X72781428Y-40556571D01*
X73281428Y-39056571D02*
X73781428Y-40556571D01*
X74281428Y-39056571D01*
X75424285Y-39056571D02*
X75138571Y-39056571D01*
X74995714Y-39128000D01*
X74924285Y-39199428D01*
X74781428Y-39413714D01*
X74710000Y-39699428D01*
X74710000Y-40270857D01*
X74781428Y-40413714D01*
X74852857Y-40485142D01*
X74995714Y-40556571D01*
X75281428Y-40556571D01*
X75424285Y-40485142D01*
X75495714Y-40413714D01*
X75567142Y-40270857D01*
X75567142Y-39913714D01*
X75495714Y-39770857D01*
X75424285Y-39699428D01*
X75281428Y-39628000D01*
X74995714Y-39628000D01*
X74852857Y-39699428D01*
X74781428Y-39770857D01*
X74710000Y-39913714D01*
%TO.P,D1,2*%
%TO.N,Net-(D1-Pad2)*%
%TA.AperFunction,SMDPad,CuDef*%
G36*
G01*
X92094001Y-39070000D02*
X91293999Y-39070000D01*
G75*
G02*
X91044000Y-38820001I0J249999D01*
G01*
X91044000Y-37994999D01*
G75*
G02*
X91293999Y-37745000I249999J0D01*
G01*
X92094001Y-37745000D01*
G75*
G02*
X92344000Y-37994999I0J-249999D01*
G01*
X92344000Y-38820001D01*
G75*
G02*
X92094001Y-39070000I-249999J0D01*
G01*
G37*
%TD.AperFunction*%
%TO.P,D1,1*%
%TO.N,GND*%
%TA.AperFunction,SMDPad,CuDef*%
G36*
G01*
X92094001Y-40995000D02*
X91293999Y-40995000D01*
G75*
G02*
X91044000Y-40745001I0J249999D01*
G01*
X91044000Y-39919999D01*
G75*
G02*
X91293999Y-39670000I249999J0D01*
G01*
X92094001Y-39670000D01*
G75*
G02*
X92344000Y-39919999I0J-249999D01*
G01*
X92344000Y-40745001D01*
G75*
G02*
X92094001Y-40995000I-249999J0D01*
G01*
G37*
%TD.AperFunction*%
%TD*%
%TO.P,R1,2*%
%TO.N,Net-(D1-Pad2)*%
%TA.AperFunction,SMDPad,CuDef*%
G36*
G01*
X88842002Y-38970000D02*
X87941998Y-38970000D01*
G75*
G02*
X87692000Y-38720002I0J249998D01*
G01*
X87692000Y-38194998D01*
G75*
G02*
X87941998Y-37945000I249998J0D01*
G01*
X88842002Y-37945000D01*
G75*
G02*
X89092000Y-38194998I0J-249998D01*
G01*
X89092000Y-38720002D01*
G75*
G02*
X88842002Y-38970000I-249998J0D01*
G01*
G37*
%TD.AperFunction*%
%TO.P,R1,1*%
%TO.N,+5V*%
%TA.AperFunction,SMDPad,CuDef*%
G36*
G01*
X88842002Y-40795000D02*
X87941998Y-40795000D01*
G75*
G02*
X87692000Y-40545002I0J249998D01*
G01*
X87692000Y-40019998D01*
G75*
G02*
X87941998Y-39770000I249998J0D01*
G01*
X88842002Y-39770000D01*
G75*
G02*
X89092000Y-40019998I0J-249998D01*
G01*
X89092000Y-40545002D01*
G75*
G02*
X88842002Y-40795000I-249998J0D01*
G01*
G37*
%TD.AperFunction*%
%TD*%
%TO.P,F2,2*%
%TO.N,Net-(F2-Pad2)*%
%TA.AperFunction,SMDPad,CuDef*%
G36*
G01*
X71511000Y-59957000D02*
X72761000Y-59957000D01*
G75*
G02*
X73011000Y-60207000I0J-250000D01*
G01*
X73011000Y-60957000D01*
G75*
G02*
X72761000Y-61207000I-250000J0D01*
G01*
X71511000Y-61207000D01*
G75*
G02*
X71261000Y-60957000I0J250000D01*
G01*
X71261000Y-60207000D01*
G75*
G02*
X71511000Y-59957000I250000J0D01*
G01*
G37*
%TD.AperFunction*%
%TO.P,F2,1*%
%TO.N,+5V*%
%TA.AperFunction,SMDPad,CuDef*%
G36*
G01*
X71511000Y-57157000D02*
X72761000Y-57157000D01*
G75*
G02*
X73011000Y-57407000I0J-250000D01*
G01*
X73011000Y-58157000D01*
G75*
G02*
X72761000Y-58407000I-250000J0D01*
G01*
X71511000Y-58407000D01*
G75*
G02*
X71261000Y-58157000I0J250000D01*
G01*
X71261000Y-57407000D01*
G75*
G02*
X71511000Y-57157000I250000J0D01*
G01*
G37*
%TD.AperFunction*%
%TD*%
%TO.P,F1,2*%
%TO.N,Net-(F1-Pad2)*%
%TA.AperFunction,SMDPad,CuDef*%
G36*
G01*
X64145000Y-59957000D02*
X65395000Y-59957000D01*
G75*
G02*
X65645000Y-60207000I0J-250000D01*
G01*
X65645000Y-60957000D01*
G75*
G02*
X65395000Y-61207000I-250000J0D01*
G01*
X64145000Y-61207000D01*
G75*
G02*
X63895000Y-60957000I0J250000D01*
G01*
X63895000Y-60207000D01*
G75*
G02*
X64145000Y-59957000I250000J0D01*
G01*
G37*
%TD.AperFunction*%
%TO.P,F1,1*%
%TO.N,+12V*%
%TA.AperFunction,SMDPad,CuDef*%
G36*
G01*
X64145000Y-57157000D02*
X65395000Y-57157000D01*
G75*
G02*
X65645000Y-57407000I0J-250000D01*
G01*
X65645000Y-58157000D01*
G75*
G02*
X65395000Y-58407000I-250000J0D01*
G01*
X64145000Y-58407000D01*
G75*
G02*
X63895000Y-58157000I0J250000D01*
G01*
X63895000Y-57407000D01*
G75*
G02*
X64145000Y-57157000I250000J0D01*
G01*
G37*
%TD.AperFunction*%
%TD*%
%TO.P,R4,2*%
%TO.N,Net-(R3-Pad1)*%
%TA.AperFunction,SMDPad,CuDef*%
G36*
G01*
X81984002Y-38970000D02*
X81083998Y-38970000D01*
G75*
G02*
X80834000Y-38720002I0J249998D01*
G01*
X80834000Y-38194998D01*
G75*
G02*
X81083998Y-37945000I249998J0D01*
G01*
X81984002Y-37945000D01*
G75*
G02*
X82234000Y-38194998I0J-249998D01*
G01*
X82234000Y-38720002D01*
G75*
G02*
X81984002Y-38970000I-249998J0D01*
G01*
G37*
%TD.AperFunction*%
%TO.P,R4,1*%
%TO.N,Net-(D2-Pad2)*%
%TA.AperFunction,SMDPad,CuDef*%
G36*
G01*
X81984002Y-40795000D02*
X81083998Y-40795000D01*
G75*
G02*
X80834000Y-40545002I0J249998D01*
G01*
X80834000Y-40019998D01*
G75*
G02*
X81083998Y-39770000I249998J0D01*
G01*
X81984002Y-39770000D01*
G75*
G02*
X82234000Y-40019998I0J-249998D01*
G01*
X82234000Y-40545002D01*
G75*
G02*
X81984002Y-40795000I-249998J0D01*
G01*
G37*
%TD.AperFunction*%
%TD*%
%TO.P,R3,2*%
%TO.N,Net-(R2-Pad1)*%
%TA.AperFunction,SMDPad,CuDef*%
G36*
G01*
X78797998Y-39770000D02*
X79698002Y-39770000D01*
G75*
G02*
X79948000Y-40019998I0J-249998D01*
G01*
X79948000Y-40545002D01*
G75*
G02*
X79698002Y-40795000I-249998J0D01*
G01*
X78797998Y-40795000D01*
G75*
G02*
X78548000Y-40545002I0J249998D01*
G01*
X78548000Y-40019998D01*
G75*
G02*
X78797998Y-39770000I249998J0D01*
G01*
G37*
%TD.AperFunction*%
%TO.P,R3,1*%
%TO.N,Net-(R3-Pad1)*%
%TA.AperFunction,SMDPad,CuDef*%
G36*
G01*
X78797998Y-37945000D02*
X79698002Y-37945000D01*
G75*
G02*
X79948000Y-38194998I0J-249998D01*
G01*
X79948000Y-38720002D01*
G75*
G02*
X79698002Y-38970000I-249998J0D01*
G01*
X78797998Y-38970000D01*
G75*
G02*
X78548000Y-38720002I0J249998D01*
G01*
X78548000Y-38194998D01*
G75*
G02*
X78797998Y-37945000I249998J0D01*
G01*
G37*
%TD.AperFunction*%
%TD*%
%TO.P,R2,2*%
%TO.N,+12V*%
%TA.AperFunction,SMDPad,CuDef*%
G36*
G01*
X77412002Y-38970000D02*
X76511998Y-38970000D01*
G75*
G02*
X76262000Y-38720002I0J249998D01*
G01*
X76262000Y-38194998D01*
G75*
G02*
X76511998Y-37945000I249998J0D01*
G01*
X77412002Y-37945000D01*
G75*
G02*
X77662000Y-38194998I0J-249998D01*
G01*
X77662000Y-38720002D01*
G75*
G02*
X77412002Y-38970000I-249998J0D01*
G01*
G37*
%TD.AperFunction*%
%TO.P,R2,1*%
%TO.N,Net-(R2-Pad1)*%
%TA.AperFunction,SMDPad,CuDef*%
G36*
G01*
X77412002Y-40795000D02*
X76511998Y-40795000D01*
G75*
G02*
X76262000Y-40545002I0J249998D01*
G01*
X76262000Y-40019998D01*
G75*
G02*
X76511998Y-39770000I249998J0D01*
G01*
X77412002Y-39770000D01*
G75*
G02*
X77662000Y-40019998I0J-249998D01*
G01*
X77662000Y-40545002D01*
G75*
G02*
X77412002Y-40795000I-249998J0D01*
G01*
G37*
%TD.AperFunction*%
%TD*%
%TO.P,D2,2*%
%TO.N,Net-(D2-Pad2)*%
%TA.AperFunction,SMDPad,CuDef*%
G36*
G01*
X83673999Y-39670000D02*
X84474001Y-39670000D01*
G75*
G02*
X84724000Y-39919999I0J-249999D01*
G01*
X84724000Y-40745001D01*
G75*
G02*
X84474001Y-40995000I-249999J0D01*
G01*
X83673999Y-40995000D01*
G75*
G02*
X83424000Y-40745001I0J249999D01*
G01*
X83424000Y-39919999D01*
G75*
G02*
X83673999Y-39670000I249999J0D01*
G01*
G37*
%TD.AperFunction*%
%TO.P,D2,1*%
%TO.N,GND*%
%TA.AperFunction,SMDPad,CuDef*%
G36*
G01*
X83673999Y-37745000D02*
X84474001Y-37745000D01*
G75*
G02*
X84724000Y-37994999I0J-249999D01*
G01*
X84724000Y-38820001D01*
G75*
G02*
X84474001Y-39070000I-249999J0D01*
G01*
X83673999Y-39070000D01*
G75*
G02*
X83424000Y-38820001I0J249999D01*
G01*
X83424000Y-37994999D01*
G75*
G02*
X83673999Y-37745000I249999J0D01*
G01*
G37*
%TD.AperFunction*%
%TD*%
D11*
%TO.P,U5,*%
%TO.N,*%
X41910000Y-51950000D03*
X41910000Y-64890000D03*
D12*
%TO.P,U5,1*%
%TO.N,GND*%
X42410000Y-54610000D03*
%TO.P,U5,2*%
%TO.N,/S2_TXD_P*%
X41410000Y-55880000D03*
%TO.P,U5,3*%
%TO.N,/S2_TXD_N*%
X41410000Y-57150000D03*
%TO.P,U5,4*%
%TO.N,GND*%
X42410000Y-58420000D03*
%TO.P,U5,5*%
%TO.N,/S2_RXD_N*%
X41410000Y-59690000D03*
%TO.P,U5,6*%
%TO.N,/S2_RXD_P*%
X41410000Y-60960000D03*
%TO.P,U5,7*%
%TO.N,GND*%
X42410000Y-62230000D03*
%TD*%
D11*
%TO.P,U3,*%
%TO.N,*%
X41910000Y-33154000D03*
X41910000Y-46094000D03*
D12*
%TO.P,U3,1*%
%TO.N,GND*%
X42410000Y-35814000D03*
%TO.P,U3,2*%
%TO.N,/S1_TXD_P*%
X41410000Y-37084000D03*
%TO.P,U3,3*%
%TO.N,/S1_TXD_N*%
X41410000Y-38354000D03*
%TO.P,U3,4*%
%TO.N,GND*%
X42410000Y-39624000D03*
%TO.P,U3,5*%
%TO.N,/S1_RXD_N*%
X41410000Y-40894000D03*
%TO.P,U3,6*%
%TO.N,/S1_RXD_P*%
X41410000Y-42164000D03*
%TO.P,U3,7*%
%TO.N,GND*%
X42410000Y-43434000D03*
%TD*%
D13*
%TO.P,U2,14*%
%TO.N,Net-(F1-Pad2)*%
X64458000Y-64262000D03*
%TO.P,U2,13*%
X65728000Y-64262000D03*
%TO.P,U2,15*%
X63188000Y-64262000D03*
%TO.P,U2,10*%
%TO.N,GND*%
X69538000Y-64262000D03*
%TO.P,U2,12*%
X66998000Y-64262000D03*
%TO.P,U2,11*%
%TO.N,N/C*%
X68268000Y-64262000D03*
%TO.P,U2,9*%
%TO.N,Net-(F2-Pad2)*%
X70808000Y-64262000D03*
%TO.P,U2,8*%
X72078000Y-64262000D03*
%TO.P,U2,7*%
X73348000Y-64262000D03*
%TO.P,U2,6*%
%TO.N,GND*%
X74618000Y-64262000D03*
%TO.P,U2,5*%
X75888000Y-64262000D03*
%TO.P,U2,4*%
X77158000Y-64262000D03*
%TO.P,U2,3*%
%TO.N,N/C*%
X78428000Y-64262000D03*
%TO.P,U2,2*%
X79698000Y-64262000D03*
%TO.P,U2,1*%
X80968000Y-64262000D03*
D14*
%TO.P,U2,*%
%TO.N,*%
X59918600Y-64262000D03*
X84328000Y-64262000D03*
%TD*%
D15*
%TO.P,5V_C2,2*%
%TO.N,GND*%
X88940000Y-64262000D03*
D16*
%TO.P,5V_C2,1*%
%TO.N,+5V*%
X91440000Y-64262000D03*
%TD*%
D15*
%TO.P,12V_C3,2*%
%TO.N,GND*%
X47538000Y-64262000D03*
D16*
%TO.P,12V_C3,1*%
%TO.N,+12V*%
X50038000Y-64262000D03*
%TD*%
D15*
%TO.P,12V_C4,2*%
%TO.N,GND*%
X53380000Y-64262000D03*
D16*
%TO.P,12V_C4,1*%
%TO.N,+12V*%
X55880000Y-64262000D03*
%TD*%
D17*
%TO.P,M1,1*%
%TO.N,GND*%
X96774000Y-52070000D03*
D18*
%TO.P,M1,2*%
%TO.N,+5V*%
X96774000Y-54610000D03*
%TO.P,M1,3*%
%TO.N,N/C*%
X96774000Y-57150000D03*
%TO.P,M1,4*%
X96774000Y-59690000D03*
%TD*%
D17*
%TO.P,M2,1*%
%TO.N,GND*%
X96774000Y-33274000D03*
D18*
%TO.P,M2,2*%
%TO.N,+5V*%
X96774000Y-35814000D03*
%TO.P,M2,3*%
%TO.N,N/C*%
X96774000Y-38354000D03*
%TO.P,M2,4*%
X96774000Y-40894000D03*
%TD*%
D17*
%TO.P,M3,1*%
%TO.N,GND*%
X34798000Y-44704000D03*
D18*
%TO.P,M3,2*%
%TO.N,+12V*%
X34798000Y-42164000D03*
%TO.P,M3,3*%
%TO.N,N/C*%
X34798000Y-39624000D03*
%TO.P,M3,4*%
X34798000Y-37084000D03*
%TD*%
D17*
%TO.P,M4,1*%
%TO.N,GND*%
X34798000Y-61214000D03*
D18*
%TO.P,M4,2*%
%TO.N,+12V*%
X34798000Y-58674000D03*
%TO.P,M4,3*%
%TO.N,N/C*%
X34798000Y-56134000D03*
%TO.P,M4,4*%
X34798000Y-53594000D03*
%TD*%
D15*
%TO.P,5V_C1,2*%
%TO.N,GND*%
X94782000Y-64262000D03*
D16*
%TO.P,5V_C1,1*%
%TO.N,+5V*%
X97282000Y-64262000D03*
%TD*%
D19*
%TO.N,+12V*%
X87884000Y-52832000D03*
X87630000Y-32258000D03*
%TO.N,GND*%
X75184000Y-55880000D03*
X80264000Y-55880000D03*
X77470000Y-35306000D03*
X81788000Y-35306000D03*
X72644000Y-36576000D03*
X51562000Y-52578000D03*
%TO.N,+5V*%
X76454000Y-57658000D03*
X86868000Y-40132000D03*
%TD*%
D20*
%TO.N,+12V*%
X50038000Y-64262000D02*
X50038000Y-62230000D01*
X50038000Y-62230000D02*
X50546000Y-61722000D01*
X50546000Y-61722000D02*
X54864000Y-61722000D01*
X55880000Y-62738000D02*
X55880000Y-64262000D01*
X54864000Y-61722000D02*
X55880000Y-62738000D01*
X44103990Y-58327990D02*
X44103990Y-49691990D01*
X50038000Y-64262000D02*
X44103990Y-58327990D01*
X44103990Y-49691990D02*
X43434000Y-49022000D01*
X43434000Y-49022000D02*
X39116000Y-49022000D01*
X39116000Y-49022000D02*
X38862000Y-48768000D01*
X38862000Y-48768000D02*
X38862000Y-42926000D01*
X38100000Y-42164000D02*
X34798000Y-42164000D01*
X38862000Y-42926000D02*
X38100000Y-42164000D01*
X38862000Y-48768000D02*
X38862000Y-57912000D01*
X38100000Y-58674000D02*
X34798000Y-58674000D01*
X38862000Y-57912000D02*
X38100000Y-58674000D01*
X60836000Y-57782000D02*
X55880000Y-62738000D01*
X64770000Y-57782000D02*
X60836000Y-57782000D01*
X64770000Y-57782000D02*
X64770000Y-54356000D01*
X66294000Y-52832000D02*
X87884000Y-52832000D01*
X64770000Y-54356000D02*
X66294000Y-52832000D01*
X44103990Y-42169468D02*
X45212000Y-41061458D01*
X44103990Y-49691990D02*
X44103990Y-42169468D01*
X45212000Y-41061458D02*
X45212000Y-32766000D01*
X45212000Y-32766000D02*
X45720000Y-32258000D01*
D21*
X76962000Y-38457500D02*
X76049500Y-38457500D01*
X75184000Y-37592000D02*
X75184000Y-32258000D01*
X76049500Y-38457500D02*
X75184000Y-37592000D01*
D20*
X75184000Y-32258000D02*
X87630000Y-32258000D01*
X45720000Y-32258000D02*
X75184000Y-32258000D01*
%TO.N,GND*%
X66998000Y-64262000D02*
X66998000Y-65474000D01*
X66998000Y-65474000D02*
X67310000Y-65786000D01*
X67310000Y-65786000D02*
X69342000Y-65786000D01*
X69538000Y-65590000D02*
X69538000Y-64262000D01*
X69342000Y-65786000D02*
X69538000Y-65590000D01*
X74618000Y-65728000D02*
X74618000Y-64262000D01*
X74676000Y-65786000D02*
X74618000Y-65728000D01*
X69342000Y-65786000D02*
X74676000Y-65786000D01*
X74618000Y-64262000D02*
X75888000Y-64262000D01*
X75888000Y-64262000D02*
X77158000Y-64262000D01*
X74676000Y-65786000D02*
X77216000Y-65786000D01*
X77158000Y-65728000D02*
X77158000Y-64262000D01*
X77216000Y-65786000D02*
X77158000Y-65728000D01*
X77216000Y-65786000D02*
X82042000Y-65786000D01*
X82042000Y-65786000D02*
X82550000Y-66294000D01*
X86908000Y-66294000D02*
X88940000Y-64262000D01*
X82550000Y-66294000D02*
X86908000Y-66294000D01*
X65024000Y-65786000D02*
X64702999Y-66107001D01*
X67310000Y-65786000D02*
X65024000Y-65786000D01*
X47538000Y-65572000D02*
X47538000Y-64262000D01*
X48073001Y-66107001D02*
X47538000Y-65572000D01*
X75184000Y-55880000D02*
X80264000Y-55880000D01*
X77432999Y-64045001D02*
X77432999Y-61251001D01*
X77216000Y-64262000D02*
X77432999Y-64045001D01*
X77158000Y-64262000D02*
X77216000Y-64262000D01*
X80264000Y-58420000D02*
X80264000Y-55880000D01*
X77432999Y-61251001D02*
X80264000Y-58420000D01*
X53661001Y-64543001D02*
X53380000Y-64262000D01*
X53661001Y-66107001D02*
X53661001Y-64543001D01*
X64702999Y-66107001D02*
X53661001Y-66107001D01*
X53661001Y-66107001D02*
X48073001Y-66107001D01*
X88940000Y-64262000D02*
X88940000Y-65987990D01*
X88940000Y-65987990D02*
X89246010Y-66294000D01*
X89246010Y-66294000D02*
X94234000Y-66294000D01*
X94782000Y-65746000D02*
X94782000Y-64262000D01*
X94234000Y-66294000D02*
X94782000Y-65746000D01*
X94782000Y-64262000D02*
X94782000Y-52792000D01*
X95504000Y-52070000D02*
X96774000Y-52070000D01*
X94782000Y-52792000D02*
X95504000Y-52070000D01*
X95347478Y-52070000D02*
X95088010Y-51810532D01*
X96774000Y-52070000D02*
X95347478Y-52070000D01*
X95250000Y-33274000D02*
X95088010Y-33435990D01*
X96774000Y-33274000D02*
X95250000Y-33274000D01*
X95088010Y-33435990D02*
X95088010Y-32927990D01*
X77470000Y-35306000D02*
X81788000Y-35306000D01*
X81788000Y-35306000D02*
X82567001Y-36085001D01*
X94724999Y-36085001D02*
X95088010Y-35721990D01*
X95088010Y-35721990D02*
X95088010Y-33435990D01*
D21*
X94942500Y-40332500D02*
X95088010Y-40478010D01*
X91694000Y-40332500D02*
X94942500Y-40332500D01*
D20*
X95088010Y-40478010D02*
X95088010Y-35721990D01*
X95088010Y-51810532D02*
X95088010Y-40478010D01*
D21*
X84074000Y-36576000D02*
X83583001Y-36085001D01*
X84074000Y-38407500D02*
X84074000Y-36576000D01*
D20*
X82567001Y-36085001D02*
X83583001Y-36085001D01*
X93818010Y-35721990D02*
X92710000Y-36830000D01*
X95088010Y-35721990D02*
X93818010Y-35721990D01*
X92710000Y-36830000D02*
X85852000Y-36830000D01*
X85107001Y-36085001D02*
X83583001Y-36085001D01*
X85852000Y-36830000D02*
X85107001Y-36085001D01*
%TO.N,+5V*%
X76330000Y-57782000D02*
X76454000Y-57658000D01*
X72136000Y-57782000D02*
X76330000Y-57782000D01*
D21*
X88241500Y-40132000D02*
X88392000Y-40282500D01*
X86868000Y-40132000D02*
X88241500Y-40132000D01*
%TO.N,Net-(D1-Pad2)*%
X91644000Y-38457500D02*
X91694000Y-38407500D01*
X88392000Y-38457500D02*
X91644000Y-38457500D01*
%TO.N,Net-(D2-Pad2)*%
X84024000Y-40282500D02*
X84074000Y-40332500D01*
X81534000Y-40282500D02*
X84024000Y-40282500D01*
%TO.N,Net-(R2-Pad1)*%
X76962000Y-40282500D02*
X79248000Y-40282500D01*
%TO.N,Net-(R3-Pad1)*%
X79248000Y-38457500D02*
X81534000Y-38457500D01*
D20*
%TO.N,Net-(F1-Pad2)*%
X63188000Y-64262000D02*
X64458000Y-64262000D01*
X64458000Y-64262000D02*
X65728000Y-64262000D01*
X64458000Y-60894000D02*
X64770000Y-60582000D01*
X64458000Y-64262000D02*
X64458000Y-60894000D01*
X63188000Y-62164000D02*
X64770000Y-60582000D01*
X63188000Y-64262000D02*
X63188000Y-62164000D01*
X65728000Y-61540000D02*
X64770000Y-60582000D01*
X65728000Y-64262000D02*
X65728000Y-61540000D01*
%TO.N,Net-(F2-Pad2)*%
X70808000Y-64262000D02*
X72078000Y-64262000D01*
X72078000Y-64262000D02*
X73348000Y-64262000D01*
X70808000Y-61910000D02*
X72136000Y-60582000D01*
X70808000Y-64262000D02*
X70808000Y-61910000D01*
X72078000Y-60640000D02*
X72136000Y-60582000D01*
X72078000Y-64262000D02*
X72078000Y-60640000D01*
X73348000Y-61794000D02*
X72136000Y-60582000D01*
X73348000Y-64262000D02*
X73348000Y-61794000D01*
%TD*%
D22*
%TO.N,GND*%
X93345000Y-64267250D02*
X93341783Y-64332512D01*
X93345000Y-64354224D01*
X93345000Y-65913000D01*
X85286013Y-65913000D01*
X85542366Y-65741710D01*
X85807710Y-65476366D01*
X85955821Y-65254702D01*
X88126903Y-65254702D01*
X88198486Y-65498671D01*
X88453996Y-65619571D01*
X88728184Y-65688300D01*
X89010512Y-65702217D01*
X89290130Y-65660787D01*
X89556292Y-65565603D01*
X89681514Y-65498671D01*
X89753097Y-65254702D01*
X88940000Y-64441605D01*
X88126903Y-65254702D01*
X85955821Y-65254702D01*
X86016189Y-65164356D01*
X86159791Y-64817668D01*
X86233000Y-64449626D01*
X86233000Y-64332512D01*
X87499783Y-64332512D01*
X87541213Y-64612130D01*
X87636397Y-64878292D01*
X87703329Y-65003514D01*
X87947298Y-65075097D01*
X88760395Y-64262000D01*
X89119605Y-64262000D01*
X89932702Y-65075097D01*
X90001928Y-65054785D01*
X90001928Y-65062000D01*
X90014188Y-65186482D01*
X90050498Y-65306180D01*
X90109463Y-65416494D01*
X90188815Y-65513185D01*
X90285506Y-65592537D01*
X90395820Y-65651502D01*
X90515518Y-65687812D01*
X90640000Y-65700072D01*
X92240000Y-65700072D01*
X92364482Y-65687812D01*
X92484180Y-65651502D01*
X92594494Y-65592537D01*
X92691185Y-65513185D01*
X92770537Y-65416494D01*
X92829502Y-65306180D01*
X92865812Y-65186482D01*
X92878072Y-65062000D01*
X92878072Y-63462000D01*
X92865812Y-63337518D01*
X92829502Y-63217820D01*
X92770537Y-63107506D01*
X92691185Y-63010815D01*
X92594494Y-62931463D01*
X92484180Y-62872498D01*
X92364482Y-62836188D01*
X92240000Y-62823928D01*
X90640000Y-62823928D01*
X90515518Y-62836188D01*
X90395820Y-62872498D01*
X90285506Y-62931463D01*
X90188815Y-63010815D01*
X90109463Y-63107506D01*
X90050498Y-63217820D01*
X90014188Y-63337518D01*
X90001928Y-63462000D01*
X90001928Y-63469215D01*
X89932702Y-63448903D01*
X89119605Y-64262000D01*
X88760395Y-64262000D01*
X87947298Y-63448903D01*
X87703329Y-63520486D01*
X87582429Y-63775996D01*
X87513700Y-64050184D01*
X87499783Y-64332512D01*
X86233000Y-64332512D01*
X86233000Y-64074374D01*
X86159791Y-63706332D01*
X86016189Y-63359644D01*
X85955822Y-63269298D01*
X88126903Y-63269298D01*
X88940000Y-64082395D01*
X89753097Y-63269298D01*
X89681514Y-63025329D01*
X89426004Y-62904429D01*
X89151816Y-62835700D01*
X88869488Y-62821783D01*
X88589870Y-62863213D01*
X88323708Y-62958397D01*
X88198486Y-63025329D01*
X88126903Y-63269298D01*
X85955822Y-63269298D01*
X85807710Y-63047634D01*
X85542366Y-62782290D01*
X85230356Y-62573811D01*
X84883668Y-62430209D01*
X84515626Y-62357000D01*
X84140374Y-62357000D01*
X83772332Y-62430209D01*
X83425644Y-62573811D01*
X83113634Y-62782290D01*
X82848290Y-63047634D01*
X82639811Y-63359644D01*
X82496209Y-63706332D01*
X82423000Y-64074374D01*
X82423000Y-64449626D01*
X82496209Y-64817668D01*
X82639811Y-65164356D01*
X82848290Y-65476366D01*
X83113634Y-65741710D01*
X83369987Y-65913000D01*
X60876613Y-65913000D01*
X61132966Y-65741710D01*
X61398310Y-65476366D01*
X61606789Y-65164356D01*
X61750391Y-64817668D01*
X61823600Y-64449626D01*
X61823600Y-64158092D01*
X62133000Y-64158092D01*
X62133000Y-64365908D01*
X62173543Y-64569732D01*
X62253071Y-64761730D01*
X62368528Y-64934523D01*
X62515477Y-65081472D01*
X62688270Y-65196929D01*
X62880268Y-65276457D01*
X63084092Y-65317000D01*
X63291908Y-65317000D01*
X63495732Y-65276457D01*
X63506492Y-65272000D01*
X64139508Y-65272000D01*
X64150268Y-65276457D01*
X64354092Y-65317000D01*
X64561908Y-65317000D01*
X64765732Y-65276457D01*
X64776492Y-65272000D01*
X65409508Y-65272000D01*
X65420268Y-65276457D01*
X65624092Y-65317000D01*
X65831908Y-65317000D01*
X66035732Y-65276457D01*
X66227730Y-65196929D01*
X66400523Y-65081472D01*
X66461459Y-65020536D01*
X66482119Y-65188115D01*
X66672708Y-65270963D01*
X66875796Y-65315038D01*
X67083582Y-65318645D01*
X67288079Y-65281646D01*
X67481428Y-65205462D01*
X67513881Y-65188115D01*
X67534541Y-65020536D01*
X67595477Y-65081472D01*
X67768270Y-65196929D01*
X67960268Y-65276457D01*
X68164092Y-65317000D01*
X68371908Y-65317000D01*
X68575732Y-65276457D01*
X68767730Y-65196929D01*
X68940523Y-65081472D01*
X69001459Y-65020536D01*
X69022119Y-65188115D01*
X69212708Y-65270963D01*
X69415796Y-65315038D01*
X69623582Y-65318645D01*
X69828079Y-65281646D01*
X70021428Y-65205462D01*
X70053881Y-65188115D01*
X70074541Y-65020536D01*
X70135477Y-65081472D01*
X70308270Y-65196929D01*
X70500268Y-65276457D01*
X70704092Y-65317000D01*
X70911908Y-65317000D01*
X71115732Y-65276457D01*
X71126492Y-65272000D01*
X71759508Y-65272000D01*
X71770268Y-65276457D01*
X71974092Y-65317000D01*
X72181908Y-65317000D01*
X72385732Y-65276457D01*
X72396492Y-65272000D01*
X73029508Y-65272000D01*
X73040268Y-65276457D01*
X73244092Y-65317000D01*
X73451908Y-65317000D01*
X73655732Y-65276457D01*
X73847730Y-65196929D01*
X74020523Y-65081472D01*
X74081459Y-65020536D01*
X74102119Y-65188115D01*
X74292708Y-65270963D01*
X74495796Y-65315038D01*
X74703582Y-65318645D01*
X74908079Y-65281646D01*
X75101428Y-65205462D01*
X75133881Y-65188115D01*
X75153844Y-65026190D01*
X75228631Y-65100977D01*
X75253000Y-65076608D01*
X75277369Y-65100977D01*
X75352156Y-65026190D01*
X75372119Y-65188115D01*
X75562708Y-65270963D01*
X75765796Y-65315038D01*
X75973582Y-65318645D01*
X76178079Y-65281646D01*
X76371428Y-65205462D01*
X76403881Y-65188115D01*
X76423844Y-65026190D01*
X76498631Y-65100977D01*
X76523000Y-65076608D01*
X76547369Y-65100977D01*
X76622156Y-65026190D01*
X76642119Y-65188115D01*
X76832708Y-65270963D01*
X77035796Y-65315038D01*
X77243582Y-65318645D01*
X77448079Y-65281646D01*
X77641428Y-65205462D01*
X77673881Y-65188115D01*
X77694541Y-65020536D01*
X77755477Y-65081472D01*
X77928270Y-65196929D01*
X78120268Y-65276457D01*
X78324092Y-65317000D01*
X78531908Y-65317000D01*
X78735732Y-65276457D01*
X78927730Y-65196929D01*
X79063000Y-65106544D01*
X79198270Y-65196929D01*
X79390268Y-65276457D01*
X79594092Y-65317000D01*
X79801908Y-65317000D01*
X80005732Y-65276457D01*
X80197730Y-65196929D01*
X80333000Y-65106544D01*
X80468270Y-65196929D01*
X80660268Y-65276457D01*
X80864092Y-65317000D01*
X81071908Y-65317000D01*
X81275732Y-65276457D01*
X81467730Y-65196929D01*
X81640523Y-65081472D01*
X81787472Y-64934523D01*
X81902929Y-64761730D01*
X81982457Y-64569732D01*
X82023000Y-64365908D01*
X82023000Y-64158092D01*
X81982457Y-63954268D01*
X81902929Y-63762270D01*
X81787472Y-63589477D01*
X81640523Y-63442528D01*
X81467730Y-63327071D01*
X81275732Y-63247543D01*
X81071908Y-63207000D01*
X80864092Y-63207000D01*
X80660268Y-63247543D01*
X80468270Y-63327071D01*
X80333000Y-63417456D01*
X80197730Y-63327071D01*
X80005732Y-63247543D01*
X79801908Y-63207000D01*
X79594092Y-63207000D01*
X79390268Y-63247543D01*
X79198270Y-63327071D01*
X79063000Y-63417456D01*
X78927730Y-63327071D01*
X78735732Y-63247543D01*
X78531908Y-63207000D01*
X78324092Y-63207000D01*
X78120268Y-63247543D01*
X77928270Y-63327071D01*
X77755477Y-63442528D01*
X77694541Y-63503464D01*
X77673881Y-63335885D01*
X77483292Y-63253037D01*
X77280204Y-63208962D01*
X77072418Y-63205355D01*
X76867921Y-63242354D01*
X76674572Y-63318538D01*
X76642119Y-63335885D01*
X76622156Y-63497810D01*
X76547369Y-63423023D01*
X76523000Y-63447392D01*
X76498631Y-63423023D01*
X76423844Y-63497810D01*
X76403881Y-63335885D01*
X76213292Y-63253037D01*
X76010204Y-63208962D01*
X75802418Y-63205355D01*
X75597921Y-63242354D01*
X75404572Y-63318538D01*
X75372119Y-63335885D01*
X75352156Y-63497810D01*
X75277369Y-63423023D01*
X75253000Y-63447392D01*
X75228631Y-63423023D01*
X75153844Y-63497810D01*
X75133881Y-63335885D01*
X74943292Y-63253037D01*
X74740204Y-63208962D01*
X74532418Y-63205355D01*
X74358000Y-63236912D01*
X74358000Y-61843608D01*
X74362886Y-61794000D01*
X74343385Y-61596005D01*
X74285632Y-61405620D01*
X74227493Y-61296850D01*
X74191847Y-61230160D01*
X74065633Y-61076367D01*
X74027099Y-61044743D01*
X73649072Y-60666716D01*
X73649072Y-60207000D01*
X73632008Y-60033746D01*
X73581472Y-59867150D01*
X73499405Y-59713614D01*
X73388962Y-59579038D01*
X73254386Y-59468595D01*
X73100850Y-59386528D01*
X72934254Y-59335992D01*
X72761000Y-59318928D01*
X71511000Y-59318928D01*
X71337746Y-59335992D01*
X71171150Y-59386528D01*
X71017614Y-59468595D01*
X70883038Y-59579038D01*
X70772595Y-59713614D01*
X70690528Y-59867150D01*
X70639992Y-60033746D01*
X70622928Y-60207000D01*
X70622928Y-60666717D01*
X70128901Y-61160744D01*
X70090368Y-61192367D01*
X70058745Y-61230900D01*
X70058744Y-61230901D01*
X69964154Y-61346160D01*
X69870368Y-61521621D01*
X69812615Y-61712006D01*
X69793114Y-61910000D01*
X69798001Y-61959617D01*
X69798000Y-63238867D01*
X69660204Y-63208962D01*
X69452418Y-63205355D01*
X69247921Y-63242354D01*
X69054572Y-63318538D01*
X69022119Y-63335885D01*
X69001459Y-63503464D01*
X68940523Y-63442528D01*
X68767730Y-63327071D01*
X68575732Y-63247543D01*
X68371908Y-63207000D01*
X68164092Y-63207000D01*
X67960268Y-63247543D01*
X67768270Y-63327071D01*
X67595477Y-63442528D01*
X67534541Y-63503464D01*
X67513881Y-63335885D01*
X67323292Y-63253037D01*
X67120204Y-63208962D01*
X66912418Y-63205355D01*
X66738000Y-63236912D01*
X66738000Y-61589608D01*
X66742886Y-61540000D01*
X66723385Y-61342005D01*
X66665632Y-61151620D01*
X66633761Y-61091994D01*
X66571847Y-60976160D01*
X66445633Y-60822367D01*
X66407099Y-60790743D01*
X66283072Y-60666716D01*
X66283072Y-60207000D01*
X66266008Y-60033746D01*
X66215472Y-59867150D01*
X66133405Y-59713614D01*
X66022962Y-59579038D01*
X65888386Y-59468595D01*
X65734850Y-59386528D01*
X65568254Y-59335992D01*
X65395000Y-59318928D01*
X64145000Y-59318928D01*
X63971746Y-59335992D01*
X63805150Y-59386528D01*
X63651614Y-59468595D01*
X63517038Y-59579038D01*
X63406595Y-59713614D01*
X63324528Y-59867150D01*
X63273992Y-60033746D01*
X63256928Y-60207000D01*
X63256928Y-60666717D01*
X62508901Y-61414744D01*
X62470368Y-61446367D01*
X62438745Y-61484900D01*
X62438744Y-61484901D01*
X62344154Y-61600160D01*
X62250368Y-61775621D01*
X62192615Y-61966006D01*
X62173114Y-62164000D01*
X62178001Y-62213617D01*
X62178000Y-63943507D01*
X62173543Y-63954268D01*
X62133000Y-64158092D01*
X61823600Y-64158092D01*
X61823600Y-64074374D01*
X61750391Y-63706332D01*
X61606789Y-63359644D01*
X61398310Y-63047634D01*
X61132966Y-62782290D01*
X60820956Y-62573811D01*
X60474268Y-62430209D01*
X60106226Y-62357000D01*
X59730974Y-62357000D01*
X59362932Y-62430209D01*
X59016244Y-62573811D01*
X58704234Y-62782290D01*
X58438890Y-63047634D01*
X58230411Y-63359644D01*
X58086809Y-63706332D01*
X58013600Y-64074374D01*
X58013600Y-64449626D01*
X58086809Y-64817668D01*
X58230411Y-65164356D01*
X58438890Y-65476366D01*
X58704234Y-65741710D01*
X58960587Y-65913000D01*
X44577000Y-65913000D01*
X44577000Y-65254702D01*
X46724903Y-65254702D01*
X46796486Y-65498671D01*
X47051996Y-65619571D01*
X47326184Y-65688300D01*
X47608512Y-65702217D01*
X47888130Y-65660787D01*
X48154292Y-65565603D01*
X48279514Y-65498671D01*
X48351097Y-65254702D01*
X47538000Y-64441605D01*
X46724903Y-65254702D01*
X44577000Y-65254702D01*
X44577000Y-64332512D01*
X46097783Y-64332512D01*
X46139213Y-64612130D01*
X46234397Y-64878292D01*
X46301329Y-65003514D01*
X46545298Y-65075097D01*
X47358395Y-64262000D01*
X46545298Y-63448903D01*
X46301329Y-63520486D01*
X46180429Y-63775996D01*
X46111700Y-64050184D01*
X46097783Y-64332512D01*
X44577000Y-64332512D01*
X44577000Y-60229355D01*
X47207891Y-62860246D01*
X47187870Y-62863213D01*
X46921708Y-62958397D01*
X46796486Y-63025329D01*
X46724903Y-63269298D01*
X47538000Y-64082395D01*
X47552143Y-64068253D01*
X47731748Y-64247858D01*
X47717605Y-64262000D01*
X48530702Y-65075097D01*
X48599928Y-65054785D01*
X48599928Y-65062000D01*
X48612188Y-65186482D01*
X48648498Y-65306180D01*
X48707463Y-65416494D01*
X48786815Y-65513185D01*
X48883506Y-65592537D01*
X48993820Y-65651502D01*
X49113518Y-65687812D01*
X49238000Y-65700072D01*
X50838000Y-65700072D01*
X50962482Y-65687812D01*
X51082180Y-65651502D01*
X51192494Y-65592537D01*
X51289185Y-65513185D01*
X51368537Y-65416494D01*
X51427502Y-65306180D01*
X51443117Y-65254702D01*
X52566903Y-65254702D01*
X52638486Y-65498671D01*
X52893996Y-65619571D01*
X53168184Y-65688300D01*
X53450512Y-65702217D01*
X53730130Y-65660787D01*
X53996292Y-65565603D01*
X54121514Y-65498671D01*
X54193097Y-65254702D01*
X53380000Y-64441605D01*
X52566903Y-65254702D01*
X51443117Y-65254702D01*
X51463812Y-65186482D01*
X51476072Y-65062000D01*
X51476072Y-64332512D01*
X51939783Y-64332512D01*
X51981213Y-64612130D01*
X52076397Y-64878292D01*
X52143329Y-65003514D01*
X52387298Y-65075097D01*
X53200395Y-64262000D01*
X52387298Y-63448903D01*
X52143329Y-63520486D01*
X52022429Y-63775996D01*
X51953700Y-64050184D01*
X51939783Y-64332512D01*
X51476072Y-64332512D01*
X51476072Y-63462000D01*
X51463812Y-63337518D01*
X51443118Y-63269298D01*
X52566903Y-63269298D01*
X53380000Y-64082395D01*
X54193097Y-63269298D01*
X54121514Y-63025329D01*
X53866004Y-62904429D01*
X53591816Y-62835700D01*
X53309488Y-62821783D01*
X53029870Y-62863213D01*
X52763708Y-62958397D01*
X52638486Y-63025329D01*
X52566903Y-63269298D01*
X51443118Y-63269298D01*
X51427502Y-63217820D01*
X51368537Y-63107506D01*
X51289185Y-63010815D01*
X51192494Y-62931463D01*
X51082180Y-62872498D01*
X51048000Y-62862130D01*
X51048000Y-62732000D01*
X54445645Y-62732000D01*
X54681347Y-62967703D01*
X54628815Y-63010815D01*
X54549463Y-63107506D01*
X54490498Y-63217820D01*
X54454188Y-63337518D01*
X54441928Y-63462000D01*
X54441928Y-63469215D01*
X54372702Y-63448903D01*
X53559605Y-64262000D01*
X54372702Y-65075097D01*
X54441928Y-65054785D01*
X54441928Y-65062000D01*
X54454188Y-65186482D01*
X54490498Y-65306180D01*
X54549463Y-65416494D01*
X54628815Y-65513185D01*
X54725506Y-65592537D01*
X54835820Y-65651502D01*
X54955518Y-65687812D01*
X55080000Y-65700072D01*
X56680000Y-65700072D01*
X56804482Y-65687812D01*
X56924180Y-65651502D01*
X57034494Y-65592537D01*
X57131185Y-65513185D01*
X57210537Y-65416494D01*
X57269502Y-65306180D01*
X57305812Y-65186482D01*
X57318072Y-65062000D01*
X57318072Y-63462000D01*
X57305812Y-63337518D01*
X57269502Y-63217820D01*
X57210537Y-63107506D01*
X57131185Y-63010815D01*
X57078652Y-62967703D01*
X61254355Y-58792000D01*
X63525614Y-58792000D01*
X63651614Y-58895405D01*
X63805150Y-58977472D01*
X63971746Y-59028008D01*
X64145000Y-59045072D01*
X65395000Y-59045072D01*
X65568254Y-59028008D01*
X65734850Y-58977472D01*
X65888386Y-58895405D01*
X66022962Y-58784962D01*
X66133405Y-58650386D01*
X66215472Y-58496850D01*
X66266008Y-58330254D01*
X66283072Y-58157000D01*
X66283072Y-57407000D01*
X70622928Y-57407000D01*
X70622928Y-58157000D01*
X70639992Y-58330254D01*
X70690528Y-58496850D01*
X70772595Y-58650386D01*
X70883038Y-58784962D01*
X71017614Y-58895405D01*
X71171150Y-58977472D01*
X71337746Y-59028008D01*
X71511000Y-59045072D01*
X72761000Y-59045072D01*
X72934254Y-59028008D01*
X73100850Y-58977472D01*
X73254386Y-58895405D01*
X73380386Y-58792000D01*
X76280392Y-58792000D01*
X76330000Y-58796886D01*
X76527994Y-58777385D01*
X76718380Y-58719632D01*
X76893840Y-58625847D01*
X77005023Y-58534602D01*
X77113774Y-58461937D01*
X77257937Y-58317774D01*
X77371205Y-58148256D01*
X77449226Y-57959898D01*
X77489000Y-57759939D01*
X77489000Y-57556061D01*
X77449226Y-57356102D01*
X77371205Y-57167744D01*
X77257937Y-56998226D01*
X77113774Y-56854063D01*
X76944256Y-56740795D01*
X76755898Y-56662774D01*
X76555939Y-56623000D01*
X76352061Y-56623000D01*
X76152102Y-56662774D01*
X75963744Y-56740795D01*
X75917042Y-56772000D01*
X73380386Y-56772000D01*
X73254386Y-56668595D01*
X73100850Y-56586528D01*
X72934254Y-56535992D01*
X72761000Y-56518928D01*
X71511000Y-56518928D01*
X71337746Y-56535992D01*
X71171150Y-56586528D01*
X71017614Y-56668595D01*
X70883038Y-56779038D01*
X70772595Y-56913614D01*
X70690528Y-57067150D01*
X70639992Y-57233746D01*
X70622928Y-57407000D01*
X66283072Y-57407000D01*
X66266008Y-57233746D01*
X66215472Y-57067150D01*
X66133405Y-56913614D01*
X66022962Y-56779038D01*
X65888386Y-56668595D01*
X65780000Y-56610661D01*
X65780000Y-55178514D01*
X88165000Y-55178514D01*
X88165000Y-55441486D01*
X88216304Y-55699405D01*
X88316939Y-55942359D01*
X88463038Y-56161013D01*
X88648987Y-56346962D01*
X88867641Y-56493061D01*
X89110595Y-56593696D01*
X89368514Y-56645000D01*
X89631486Y-56645000D01*
X89889405Y-56593696D01*
X90132359Y-56493061D01*
X90351013Y-56346962D01*
X90536962Y-56161013D01*
X90683061Y-55942359D01*
X90783696Y-55699405D01*
X90835000Y-55441486D01*
X90835000Y-55178514D01*
X90783696Y-54920595D01*
X90683061Y-54677641D01*
X90536962Y-54458987D01*
X90351013Y-54273038D01*
X90132359Y-54126939D01*
X89889405Y-54026304D01*
X89631486Y-53975000D01*
X89368514Y-53975000D01*
X89110595Y-54026304D01*
X88867641Y-54126939D01*
X88648987Y-54273038D01*
X88463038Y-54458987D01*
X88316939Y-54677641D01*
X88216304Y-54920595D01*
X88165000Y-55178514D01*
X65780000Y-55178514D01*
X65780000Y-54774355D01*
X66712356Y-53842000D01*
X87656377Y-53842000D01*
X87782061Y-53867000D01*
X87985939Y-53867000D01*
X88185898Y-53827226D01*
X88374256Y-53749205D01*
X88543774Y-53635937D01*
X88687937Y-53491774D01*
X88801205Y-53322256D01*
X88879226Y-53133898D01*
X88919000Y-52933939D01*
X88919000Y-52730061D01*
X88879226Y-52530102D01*
X88801205Y-52341744D01*
X88721195Y-52222000D01*
X93345000Y-52222000D01*
X93345000Y-64267250D01*
%TA.AperFunction,Conductor*%
D23*
G36*
X93345000Y-64267250D02*
G01*
X93341783Y-64332512D01*
X93345000Y-64354224D01*
X93345000Y-65913000D01*
X85286013Y-65913000D01*
X85542366Y-65741710D01*
X85807710Y-65476366D01*
X85955821Y-65254702D01*
X88126903Y-65254702D01*
X88198486Y-65498671D01*
X88453996Y-65619571D01*
X88728184Y-65688300D01*
X89010512Y-65702217D01*
X89290130Y-65660787D01*
X89556292Y-65565603D01*
X89681514Y-65498671D01*
X89753097Y-65254702D01*
X88940000Y-64441605D01*
X88126903Y-65254702D01*
X85955821Y-65254702D01*
X86016189Y-65164356D01*
X86159791Y-64817668D01*
X86233000Y-64449626D01*
X86233000Y-64332512D01*
X87499783Y-64332512D01*
X87541213Y-64612130D01*
X87636397Y-64878292D01*
X87703329Y-65003514D01*
X87947298Y-65075097D01*
X88760395Y-64262000D01*
X89119605Y-64262000D01*
X89932702Y-65075097D01*
X90001928Y-65054785D01*
X90001928Y-65062000D01*
X90014188Y-65186482D01*
X90050498Y-65306180D01*
X90109463Y-65416494D01*
X90188815Y-65513185D01*
X90285506Y-65592537D01*
X90395820Y-65651502D01*
X90515518Y-65687812D01*
X90640000Y-65700072D01*
X92240000Y-65700072D01*
X92364482Y-65687812D01*
X92484180Y-65651502D01*
X92594494Y-65592537D01*
X92691185Y-65513185D01*
X92770537Y-65416494D01*
X92829502Y-65306180D01*
X92865812Y-65186482D01*
X92878072Y-65062000D01*
X92878072Y-63462000D01*
X92865812Y-63337518D01*
X92829502Y-63217820D01*
X92770537Y-63107506D01*
X92691185Y-63010815D01*
X92594494Y-62931463D01*
X92484180Y-62872498D01*
X92364482Y-62836188D01*
X92240000Y-62823928D01*
X90640000Y-62823928D01*
X90515518Y-62836188D01*
X90395820Y-62872498D01*
X90285506Y-62931463D01*
X90188815Y-63010815D01*
X90109463Y-63107506D01*
X90050498Y-63217820D01*
X90014188Y-63337518D01*
X90001928Y-63462000D01*
X90001928Y-63469215D01*
X89932702Y-63448903D01*
X89119605Y-64262000D01*
X88760395Y-64262000D01*
X87947298Y-63448903D01*
X87703329Y-63520486D01*
X87582429Y-63775996D01*
X87513700Y-64050184D01*
X87499783Y-64332512D01*
X86233000Y-64332512D01*
X86233000Y-64074374D01*
X86159791Y-63706332D01*
X86016189Y-63359644D01*
X85955822Y-63269298D01*
X88126903Y-63269298D01*
X88940000Y-64082395D01*
X89753097Y-63269298D01*
X89681514Y-63025329D01*
X89426004Y-62904429D01*
X89151816Y-62835700D01*
X88869488Y-62821783D01*
X88589870Y-62863213D01*
X88323708Y-62958397D01*
X88198486Y-63025329D01*
X88126903Y-63269298D01*
X85955822Y-63269298D01*
X85807710Y-63047634D01*
X85542366Y-62782290D01*
X85230356Y-62573811D01*
X84883668Y-62430209D01*
X84515626Y-62357000D01*
X84140374Y-62357000D01*
X83772332Y-62430209D01*
X83425644Y-62573811D01*
X83113634Y-62782290D01*
X82848290Y-63047634D01*
X82639811Y-63359644D01*
X82496209Y-63706332D01*
X82423000Y-64074374D01*
X82423000Y-64449626D01*
X82496209Y-64817668D01*
X82639811Y-65164356D01*
X82848290Y-65476366D01*
X83113634Y-65741710D01*
X83369987Y-65913000D01*
X60876613Y-65913000D01*
X61132966Y-65741710D01*
X61398310Y-65476366D01*
X61606789Y-65164356D01*
X61750391Y-64817668D01*
X61823600Y-64449626D01*
X61823600Y-64158092D01*
X62133000Y-64158092D01*
X62133000Y-64365908D01*
X62173543Y-64569732D01*
X62253071Y-64761730D01*
X62368528Y-64934523D01*
X62515477Y-65081472D01*
X62688270Y-65196929D01*
X62880268Y-65276457D01*
X63084092Y-65317000D01*
X63291908Y-65317000D01*
X63495732Y-65276457D01*
X63506492Y-65272000D01*
X64139508Y-65272000D01*
X64150268Y-65276457D01*
X64354092Y-65317000D01*
X64561908Y-65317000D01*
X64765732Y-65276457D01*
X64776492Y-65272000D01*
X65409508Y-65272000D01*
X65420268Y-65276457D01*
X65624092Y-65317000D01*
X65831908Y-65317000D01*
X66035732Y-65276457D01*
X66227730Y-65196929D01*
X66400523Y-65081472D01*
X66461459Y-65020536D01*
X66482119Y-65188115D01*
X66672708Y-65270963D01*
X66875796Y-65315038D01*
X67083582Y-65318645D01*
X67288079Y-65281646D01*
X67481428Y-65205462D01*
X67513881Y-65188115D01*
X67534541Y-65020536D01*
X67595477Y-65081472D01*
X67768270Y-65196929D01*
X67960268Y-65276457D01*
X68164092Y-65317000D01*
X68371908Y-65317000D01*
X68575732Y-65276457D01*
X68767730Y-65196929D01*
X68940523Y-65081472D01*
X69001459Y-65020536D01*
X69022119Y-65188115D01*
X69212708Y-65270963D01*
X69415796Y-65315038D01*
X69623582Y-65318645D01*
X69828079Y-65281646D01*
X70021428Y-65205462D01*
X70053881Y-65188115D01*
X70074541Y-65020536D01*
X70135477Y-65081472D01*
X70308270Y-65196929D01*
X70500268Y-65276457D01*
X70704092Y-65317000D01*
X70911908Y-65317000D01*
X71115732Y-65276457D01*
X71126492Y-65272000D01*
X71759508Y-65272000D01*
X71770268Y-65276457D01*
X71974092Y-65317000D01*
X72181908Y-65317000D01*
X72385732Y-65276457D01*
X72396492Y-65272000D01*
X73029508Y-65272000D01*
X73040268Y-65276457D01*
X73244092Y-65317000D01*
X73451908Y-65317000D01*
X73655732Y-65276457D01*
X73847730Y-65196929D01*
X74020523Y-65081472D01*
X74081459Y-65020536D01*
X74102119Y-65188115D01*
X74292708Y-65270963D01*
X74495796Y-65315038D01*
X74703582Y-65318645D01*
X74908079Y-65281646D01*
X75101428Y-65205462D01*
X75133881Y-65188115D01*
X75153844Y-65026190D01*
X75228631Y-65100977D01*
X75253000Y-65076608D01*
X75277369Y-65100977D01*
X75352156Y-65026190D01*
X75372119Y-65188115D01*
X75562708Y-65270963D01*
X75765796Y-65315038D01*
X75973582Y-65318645D01*
X76178079Y-65281646D01*
X76371428Y-65205462D01*
X76403881Y-65188115D01*
X76423844Y-65026190D01*
X76498631Y-65100977D01*
X76523000Y-65076608D01*
X76547369Y-65100977D01*
X76622156Y-65026190D01*
X76642119Y-65188115D01*
X76832708Y-65270963D01*
X77035796Y-65315038D01*
X77243582Y-65318645D01*
X77448079Y-65281646D01*
X77641428Y-65205462D01*
X77673881Y-65188115D01*
X77694541Y-65020536D01*
X77755477Y-65081472D01*
X77928270Y-65196929D01*
X78120268Y-65276457D01*
X78324092Y-65317000D01*
X78531908Y-65317000D01*
X78735732Y-65276457D01*
X78927730Y-65196929D01*
X79063000Y-65106544D01*
X79198270Y-65196929D01*
X79390268Y-65276457D01*
X79594092Y-65317000D01*
X79801908Y-65317000D01*
X80005732Y-65276457D01*
X80197730Y-65196929D01*
X80333000Y-65106544D01*
X80468270Y-65196929D01*
X80660268Y-65276457D01*
X80864092Y-65317000D01*
X81071908Y-65317000D01*
X81275732Y-65276457D01*
X81467730Y-65196929D01*
X81640523Y-65081472D01*
X81787472Y-64934523D01*
X81902929Y-64761730D01*
X81982457Y-64569732D01*
X82023000Y-64365908D01*
X82023000Y-64158092D01*
X81982457Y-63954268D01*
X81902929Y-63762270D01*
X81787472Y-63589477D01*
X81640523Y-63442528D01*
X81467730Y-63327071D01*
X81275732Y-63247543D01*
X81071908Y-63207000D01*
X80864092Y-63207000D01*
X80660268Y-63247543D01*
X80468270Y-63327071D01*
X80333000Y-63417456D01*
X80197730Y-63327071D01*
X80005732Y-63247543D01*
X79801908Y-63207000D01*
X79594092Y-63207000D01*
X79390268Y-63247543D01*
X79198270Y-63327071D01*
X79063000Y-63417456D01*
X78927730Y-63327071D01*
X78735732Y-63247543D01*
X78531908Y-63207000D01*
X78324092Y-63207000D01*
X78120268Y-63247543D01*
X77928270Y-63327071D01*
X77755477Y-63442528D01*
X77694541Y-63503464D01*
X77673881Y-63335885D01*
X77483292Y-63253037D01*
X77280204Y-63208962D01*
X77072418Y-63205355D01*
X76867921Y-63242354D01*
X76674572Y-63318538D01*
X76642119Y-63335885D01*
X76622156Y-63497810D01*
X76547369Y-63423023D01*
X76523000Y-63447392D01*
X76498631Y-63423023D01*
X76423844Y-63497810D01*
X76403881Y-63335885D01*
X76213292Y-63253037D01*
X76010204Y-63208962D01*
X75802418Y-63205355D01*
X75597921Y-63242354D01*
X75404572Y-63318538D01*
X75372119Y-63335885D01*
X75352156Y-63497810D01*
X75277369Y-63423023D01*
X75253000Y-63447392D01*
X75228631Y-63423023D01*
X75153844Y-63497810D01*
X75133881Y-63335885D01*
X74943292Y-63253037D01*
X74740204Y-63208962D01*
X74532418Y-63205355D01*
X74358000Y-63236912D01*
X74358000Y-61843608D01*
X74362886Y-61794000D01*
X74343385Y-61596005D01*
X74285632Y-61405620D01*
X74227493Y-61296850D01*
X74191847Y-61230160D01*
X74065633Y-61076367D01*
X74027099Y-61044743D01*
X73649072Y-60666716D01*
X73649072Y-60207000D01*
X73632008Y-60033746D01*
X73581472Y-59867150D01*
X73499405Y-59713614D01*
X73388962Y-59579038D01*
X73254386Y-59468595D01*
X73100850Y-59386528D01*
X72934254Y-59335992D01*
X72761000Y-59318928D01*
X71511000Y-59318928D01*
X71337746Y-59335992D01*
X71171150Y-59386528D01*
X71017614Y-59468595D01*
X70883038Y-59579038D01*
X70772595Y-59713614D01*
X70690528Y-59867150D01*
X70639992Y-60033746D01*
X70622928Y-60207000D01*
X70622928Y-60666717D01*
X70128901Y-61160744D01*
X70090368Y-61192367D01*
X70058745Y-61230900D01*
X70058744Y-61230901D01*
X69964154Y-61346160D01*
X69870368Y-61521621D01*
X69812615Y-61712006D01*
X69793114Y-61910000D01*
X69798001Y-61959617D01*
X69798000Y-63238867D01*
X69660204Y-63208962D01*
X69452418Y-63205355D01*
X69247921Y-63242354D01*
X69054572Y-63318538D01*
X69022119Y-63335885D01*
X69001459Y-63503464D01*
X68940523Y-63442528D01*
X68767730Y-63327071D01*
X68575732Y-63247543D01*
X68371908Y-63207000D01*
X68164092Y-63207000D01*
X67960268Y-63247543D01*
X67768270Y-63327071D01*
X67595477Y-63442528D01*
X67534541Y-63503464D01*
X67513881Y-63335885D01*
X67323292Y-63253037D01*
X67120204Y-63208962D01*
X66912418Y-63205355D01*
X66738000Y-63236912D01*
X66738000Y-61589608D01*
X66742886Y-61540000D01*
X66723385Y-61342005D01*
X66665632Y-61151620D01*
X66633761Y-61091994D01*
X66571847Y-60976160D01*
X66445633Y-60822367D01*
X66407099Y-60790743D01*
X66283072Y-60666716D01*
X66283072Y-60207000D01*
X66266008Y-60033746D01*
X66215472Y-59867150D01*
X66133405Y-59713614D01*
X66022962Y-59579038D01*
X65888386Y-59468595D01*
X65734850Y-59386528D01*
X65568254Y-59335992D01*
X65395000Y-59318928D01*
X64145000Y-59318928D01*
X63971746Y-59335992D01*
X63805150Y-59386528D01*
X63651614Y-59468595D01*
X63517038Y-59579038D01*
X63406595Y-59713614D01*
X63324528Y-59867150D01*
X63273992Y-60033746D01*
X63256928Y-60207000D01*
X63256928Y-60666717D01*
X62508901Y-61414744D01*
X62470368Y-61446367D01*
X62438745Y-61484900D01*
X62438744Y-61484901D01*
X62344154Y-61600160D01*
X62250368Y-61775621D01*
X62192615Y-61966006D01*
X62173114Y-62164000D01*
X62178001Y-62213617D01*
X62178000Y-63943507D01*
X62173543Y-63954268D01*
X62133000Y-64158092D01*
X61823600Y-64158092D01*
X61823600Y-64074374D01*
X61750391Y-63706332D01*
X61606789Y-63359644D01*
X61398310Y-63047634D01*
X61132966Y-62782290D01*
X60820956Y-62573811D01*
X60474268Y-62430209D01*
X60106226Y-62357000D01*
X59730974Y-62357000D01*
X59362932Y-62430209D01*
X59016244Y-62573811D01*
X58704234Y-62782290D01*
X58438890Y-63047634D01*
X58230411Y-63359644D01*
X58086809Y-63706332D01*
X58013600Y-64074374D01*
X58013600Y-64449626D01*
X58086809Y-64817668D01*
X58230411Y-65164356D01*
X58438890Y-65476366D01*
X58704234Y-65741710D01*
X58960587Y-65913000D01*
X44577000Y-65913000D01*
X44577000Y-65254702D01*
X46724903Y-65254702D01*
X46796486Y-65498671D01*
X47051996Y-65619571D01*
X47326184Y-65688300D01*
X47608512Y-65702217D01*
X47888130Y-65660787D01*
X48154292Y-65565603D01*
X48279514Y-65498671D01*
X48351097Y-65254702D01*
X47538000Y-64441605D01*
X46724903Y-65254702D01*
X44577000Y-65254702D01*
X44577000Y-64332512D01*
X46097783Y-64332512D01*
X46139213Y-64612130D01*
X46234397Y-64878292D01*
X46301329Y-65003514D01*
X46545298Y-65075097D01*
X47358395Y-64262000D01*
X46545298Y-63448903D01*
X46301329Y-63520486D01*
X46180429Y-63775996D01*
X46111700Y-64050184D01*
X46097783Y-64332512D01*
X44577000Y-64332512D01*
X44577000Y-60229355D01*
X47207891Y-62860246D01*
X47187870Y-62863213D01*
X46921708Y-62958397D01*
X46796486Y-63025329D01*
X46724903Y-63269298D01*
X47538000Y-64082395D01*
X47552143Y-64068253D01*
X47731748Y-64247858D01*
X47717605Y-64262000D01*
X48530702Y-65075097D01*
X48599928Y-65054785D01*
X48599928Y-65062000D01*
X48612188Y-65186482D01*
X48648498Y-65306180D01*
X48707463Y-65416494D01*
X48786815Y-65513185D01*
X48883506Y-65592537D01*
X48993820Y-65651502D01*
X49113518Y-65687812D01*
X49238000Y-65700072D01*
X50838000Y-65700072D01*
X50962482Y-65687812D01*
X51082180Y-65651502D01*
X51192494Y-65592537D01*
X51289185Y-65513185D01*
X51368537Y-65416494D01*
X51427502Y-65306180D01*
X51443117Y-65254702D01*
X52566903Y-65254702D01*
X52638486Y-65498671D01*
X52893996Y-65619571D01*
X53168184Y-65688300D01*
X53450512Y-65702217D01*
X53730130Y-65660787D01*
X53996292Y-65565603D01*
X54121514Y-65498671D01*
X54193097Y-65254702D01*
X53380000Y-64441605D01*
X52566903Y-65254702D01*
X51443117Y-65254702D01*
X51463812Y-65186482D01*
X51476072Y-65062000D01*
X51476072Y-64332512D01*
X51939783Y-64332512D01*
X51981213Y-64612130D01*
X52076397Y-64878292D01*
X52143329Y-65003514D01*
X52387298Y-65075097D01*
X53200395Y-64262000D01*
X52387298Y-63448903D01*
X52143329Y-63520486D01*
X52022429Y-63775996D01*
X51953700Y-64050184D01*
X51939783Y-64332512D01*
X51476072Y-64332512D01*
X51476072Y-63462000D01*
X51463812Y-63337518D01*
X51443118Y-63269298D01*
X52566903Y-63269298D01*
X53380000Y-64082395D01*
X54193097Y-63269298D01*
X54121514Y-63025329D01*
X53866004Y-62904429D01*
X53591816Y-62835700D01*
X53309488Y-62821783D01*
X53029870Y-62863213D01*
X52763708Y-62958397D01*
X52638486Y-63025329D01*
X52566903Y-63269298D01*
X51443118Y-63269298D01*
X51427502Y-63217820D01*
X51368537Y-63107506D01*
X51289185Y-63010815D01*
X51192494Y-62931463D01*
X51082180Y-62872498D01*
X51048000Y-62862130D01*
X51048000Y-62732000D01*
X54445645Y-62732000D01*
X54681347Y-62967703D01*
X54628815Y-63010815D01*
X54549463Y-63107506D01*
X54490498Y-63217820D01*
X54454188Y-63337518D01*
X54441928Y-63462000D01*
X54441928Y-63469215D01*
X54372702Y-63448903D01*
X53559605Y-64262000D01*
X54372702Y-65075097D01*
X54441928Y-65054785D01*
X54441928Y-65062000D01*
X54454188Y-65186482D01*
X54490498Y-65306180D01*
X54549463Y-65416494D01*
X54628815Y-65513185D01*
X54725506Y-65592537D01*
X54835820Y-65651502D01*
X54955518Y-65687812D01*
X55080000Y-65700072D01*
X56680000Y-65700072D01*
X56804482Y-65687812D01*
X56924180Y-65651502D01*
X57034494Y-65592537D01*
X57131185Y-65513185D01*
X57210537Y-65416494D01*
X57269502Y-65306180D01*
X57305812Y-65186482D01*
X57318072Y-65062000D01*
X57318072Y-63462000D01*
X57305812Y-63337518D01*
X57269502Y-63217820D01*
X57210537Y-63107506D01*
X57131185Y-63010815D01*
X57078652Y-62967703D01*
X61254355Y-58792000D01*
X63525614Y-58792000D01*
X63651614Y-58895405D01*
X63805150Y-58977472D01*
X63971746Y-59028008D01*
X64145000Y-59045072D01*
X65395000Y-59045072D01*
X65568254Y-59028008D01*
X65734850Y-58977472D01*
X65888386Y-58895405D01*
X66022962Y-58784962D01*
X66133405Y-58650386D01*
X66215472Y-58496850D01*
X66266008Y-58330254D01*
X66283072Y-58157000D01*
X66283072Y-57407000D01*
X70622928Y-57407000D01*
X70622928Y-58157000D01*
X70639992Y-58330254D01*
X70690528Y-58496850D01*
X70772595Y-58650386D01*
X70883038Y-58784962D01*
X71017614Y-58895405D01*
X71171150Y-58977472D01*
X71337746Y-59028008D01*
X71511000Y-59045072D01*
X72761000Y-59045072D01*
X72934254Y-59028008D01*
X73100850Y-58977472D01*
X73254386Y-58895405D01*
X73380386Y-58792000D01*
X76280392Y-58792000D01*
X76330000Y-58796886D01*
X76527994Y-58777385D01*
X76718380Y-58719632D01*
X76893840Y-58625847D01*
X77005023Y-58534602D01*
X77113774Y-58461937D01*
X77257937Y-58317774D01*
X77371205Y-58148256D01*
X77449226Y-57959898D01*
X77489000Y-57759939D01*
X77489000Y-57556061D01*
X77449226Y-57356102D01*
X77371205Y-57167744D01*
X77257937Y-56998226D01*
X77113774Y-56854063D01*
X76944256Y-56740795D01*
X76755898Y-56662774D01*
X76555939Y-56623000D01*
X76352061Y-56623000D01*
X76152102Y-56662774D01*
X75963744Y-56740795D01*
X75917042Y-56772000D01*
X73380386Y-56772000D01*
X73254386Y-56668595D01*
X73100850Y-56586528D01*
X72934254Y-56535992D01*
X72761000Y-56518928D01*
X71511000Y-56518928D01*
X71337746Y-56535992D01*
X71171150Y-56586528D01*
X71017614Y-56668595D01*
X70883038Y-56779038D01*
X70772595Y-56913614D01*
X70690528Y-57067150D01*
X70639992Y-57233746D01*
X70622928Y-57407000D01*
X66283072Y-57407000D01*
X66266008Y-57233746D01*
X66215472Y-57067150D01*
X66133405Y-56913614D01*
X66022962Y-56779038D01*
X65888386Y-56668595D01*
X65780000Y-56610661D01*
X65780000Y-55178514D01*
X88165000Y-55178514D01*
X88165000Y-55441486D01*
X88216304Y-55699405D01*
X88316939Y-55942359D01*
X88463038Y-56161013D01*
X88648987Y-56346962D01*
X88867641Y-56493061D01*
X89110595Y-56593696D01*
X89368514Y-56645000D01*
X89631486Y-56645000D01*
X89889405Y-56593696D01*
X90132359Y-56493061D01*
X90351013Y-56346962D01*
X90536962Y-56161013D01*
X90683061Y-55942359D01*
X90783696Y-55699405D01*
X90835000Y-55441486D01*
X90835000Y-55178514D01*
X90783696Y-54920595D01*
X90683061Y-54677641D01*
X90536962Y-54458987D01*
X90351013Y-54273038D01*
X90132359Y-54126939D01*
X89889405Y-54026304D01*
X89631486Y-53975000D01*
X89368514Y-53975000D01*
X89110595Y-54026304D01*
X88867641Y-54126939D01*
X88648987Y-54273038D01*
X88463038Y-54458987D01*
X88316939Y-54677641D01*
X88216304Y-54920595D01*
X88165000Y-55178514D01*
X65780000Y-55178514D01*
X65780000Y-54774355D01*
X66712356Y-53842000D01*
X87656377Y-53842000D01*
X87782061Y-53867000D01*
X87985939Y-53867000D01*
X88185898Y-53827226D01*
X88374256Y-53749205D01*
X88543774Y-53635937D01*
X88687937Y-53491774D01*
X88801205Y-53322256D01*
X88879226Y-53133898D01*
X88919000Y-52933939D01*
X88919000Y-52730061D01*
X88879226Y-52530102D01*
X88801205Y-52341744D01*
X88721195Y-52222000D01*
X93345000Y-52222000D01*
X93345000Y-64267250D01*
G37*
%TD.AperFunction*%
D22*
X69731748Y-64247858D02*
X69717605Y-64262000D01*
X69731748Y-64276143D01*
X69552143Y-64455748D01*
X69538000Y-64441605D01*
X69523858Y-64455748D01*
X69344253Y-64276143D01*
X69358395Y-64262000D01*
X69344253Y-64247858D01*
X69523858Y-64068253D01*
X69538000Y-64082395D01*
X69552143Y-64068253D01*
X69731748Y-64247858D01*
%TA.AperFunction,Conductor*%
D23*
G36*
X69731748Y-64247858D02*
G01*
X69717605Y-64262000D01*
X69731748Y-64276143D01*
X69552143Y-64455748D01*
X69538000Y-64441605D01*
X69523858Y-64455748D01*
X69344253Y-64276143D01*
X69358395Y-64262000D01*
X69344253Y-64247858D01*
X69523858Y-64068253D01*
X69538000Y-64082395D01*
X69552143Y-64068253D01*
X69731748Y-64247858D01*
G37*
%TD.AperFunction*%
D22*
X76081748Y-64247858D02*
X76067605Y-64262000D01*
X76081748Y-64276143D01*
X75902143Y-64455748D01*
X75888000Y-64441605D01*
X75873858Y-64455748D01*
X75694253Y-64276143D01*
X75708395Y-64262000D01*
X75694253Y-64247858D01*
X75873858Y-64068253D01*
X75888000Y-64082395D01*
X75902143Y-64068253D01*
X76081748Y-64247858D01*
%TA.AperFunction,Conductor*%
D23*
G36*
X76081748Y-64247858D02*
G01*
X76067605Y-64262000D01*
X76081748Y-64276143D01*
X75902143Y-64455748D01*
X75888000Y-64441605D01*
X75873858Y-64455748D01*
X75694253Y-64276143D01*
X75708395Y-64262000D01*
X75694253Y-64247858D01*
X75873858Y-64068253D01*
X75888000Y-64082395D01*
X75902143Y-64068253D01*
X76081748Y-64247858D01*
G37*
%TD.AperFunction*%
D22*
X67191748Y-64247858D02*
X67177605Y-64262000D01*
X67191748Y-64276143D01*
X67012143Y-64455748D01*
X66998000Y-64441605D01*
X66983858Y-64455748D01*
X66804253Y-64276143D01*
X66818395Y-64262000D01*
X66804253Y-64247858D01*
X66983858Y-64068253D01*
X66998000Y-64082395D01*
X67012143Y-64068253D01*
X67191748Y-64247858D01*
%TA.AperFunction,Conductor*%
D23*
G36*
X67191748Y-64247858D02*
G01*
X67177605Y-64262000D01*
X67191748Y-64276143D01*
X67012143Y-64455748D01*
X66998000Y-64441605D01*
X66983858Y-64455748D01*
X66804253Y-64276143D01*
X66818395Y-64262000D01*
X66804253Y-64247858D01*
X66983858Y-64068253D01*
X66998000Y-64082395D01*
X67012143Y-64068253D01*
X67191748Y-64247858D01*
G37*
%TD.AperFunction*%
D22*
X77351748Y-64247858D02*
X77337605Y-64262000D01*
X77351748Y-64276143D01*
X77172143Y-64455748D01*
X77158000Y-64441605D01*
X77143858Y-64455748D01*
X76964253Y-64276143D01*
X76978395Y-64262000D01*
X76964253Y-64247858D01*
X77143858Y-64068253D01*
X77158000Y-64082395D01*
X77172143Y-64068253D01*
X77351748Y-64247858D01*
%TA.AperFunction,Conductor*%
D23*
G36*
X77351748Y-64247858D02*
G01*
X77337605Y-64262000D01*
X77351748Y-64276143D01*
X77172143Y-64455748D01*
X77158000Y-64441605D01*
X77143858Y-64455748D01*
X76964253Y-64276143D01*
X76978395Y-64262000D01*
X76964253Y-64247858D01*
X77143858Y-64068253D01*
X77158000Y-64082395D01*
X77172143Y-64068253D01*
X77351748Y-64247858D01*
G37*
%TD.AperFunction*%
D22*
X74811748Y-64247858D02*
X74797605Y-64262000D01*
X74811748Y-64276143D01*
X74632143Y-64455748D01*
X74618000Y-64441605D01*
X74603858Y-64455748D01*
X74424253Y-64276143D01*
X74438395Y-64262000D01*
X74424253Y-64247858D01*
X74603858Y-64068253D01*
X74618000Y-64082395D01*
X74632143Y-64068253D01*
X74811748Y-64247858D01*
%TA.AperFunction,Conductor*%
D23*
G36*
X74811748Y-64247858D02*
G01*
X74797605Y-64262000D01*
X74811748Y-64276143D01*
X74632143Y-64455748D01*
X74618000Y-64441605D01*
X74603858Y-64455748D01*
X74424253Y-64276143D01*
X74438395Y-64262000D01*
X74424253Y-64247858D01*
X74603858Y-64068253D01*
X74618000Y-64082395D01*
X74632143Y-64068253D01*
X74811748Y-64247858D01*
G37*
%TD.AperFunction*%
D22*
X64090901Y-53606744D02*
X64052368Y-53638367D01*
X64020745Y-53676900D01*
X64020744Y-53676901D01*
X63926154Y-53792160D01*
X63832368Y-53967621D01*
X63774615Y-54158006D01*
X63755114Y-54356000D01*
X63760001Y-54405618D01*
X63760000Y-56610661D01*
X63651614Y-56668595D01*
X63525614Y-56772000D01*
X60885604Y-56772000D01*
X60835999Y-56767114D01*
X60786394Y-56772000D01*
X60786392Y-56772000D01*
X60638006Y-56786615D01*
X60447620Y-56844368D01*
X60272160Y-56938153D01*
X60118367Y-57064367D01*
X60086739Y-57102906D01*
X55880000Y-61309645D01*
X55613261Y-61042906D01*
X55581633Y-61004367D01*
X55427840Y-60878153D01*
X55252380Y-60784368D01*
X55061994Y-60726615D01*
X54913608Y-60712000D01*
X54864000Y-60707114D01*
X54814392Y-60712000D01*
X50595597Y-60712000D01*
X50545999Y-60707115D01*
X50496401Y-60712000D01*
X50496392Y-60712000D01*
X50348006Y-60726615D01*
X50157620Y-60784368D01*
X49982160Y-60878153D01*
X49828367Y-61004367D01*
X49796739Y-61042906D01*
X49358901Y-61480744D01*
X49320368Y-61512367D01*
X49288745Y-61550900D01*
X49288744Y-61550901D01*
X49194154Y-61666160D01*
X49100368Y-61841621D01*
X49087709Y-61883354D01*
X45113990Y-57909635D01*
X45113990Y-55198212D01*
X50615000Y-55198212D01*
X50615000Y-55421788D01*
X50658617Y-55641067D01*
X50744176Y-55847624D01*
X50868388Y-56033520D01*
X51026480Y-56191612D01*
X51212376Y-56315824D01*
X51418933Y-56401383D01*
X51638212Y-56445000D01*
X51861788Y-56445000D01*
X52081067Y-56401383D01*
X52287624Y-56315824D01*
X52473520Y-56191612D01*
X52631612Y-56033520D01*
X52755824Y-55847624D01*
X52841383Y-55641067D01*
X52885000Y-55421788D01*
X52885000Y-55198212D01*
X52841383Y-54978933D01*
X52755824Y-54772376D01*
X52631612Y-54586480D01*
X52473520Y-54428388D01*
X52287624Y-54304176D01*
X52081067Y-54218617D01*
X51861788Y-54175000D01*
X51638212Y-54175000D01*
X51418933Y-54218617D01*
X51212376Y-54304176D01*
X51026480Y-54428388D01*
X50868388Y-54586480D01*
X50744176Y-54772376D01*
X50658617Y-54978933D01*
X50615000Y-55198212D01*
X45113990Y-55198212D01*
X45113990Y-52222000D01*
X65475644Y-52222000D01*
X64090901Y-53606744D01*
%TA.AperFunction,Conductor*%
D23*
G36*
X64090901Y-53606744D02*
G01*
X64052368Y-53638367D01*
X64020745Y-53676900D01*
X64020744Y-53676901D01*
X63926154Y-53792160D01*
X63832368Y-53967621D01*
X63774615Y-54158006D01*
X63755114Y-54356000D01*
X63760001Y-54405618D01*
X63760000Y-56610661D01*
X63651614Y-56668595D01*
X63525614Y-56772000D01*
X60885604Y-56772000D01*
X60835999Y-56767114D01*
X60786394Y-56772000D01*
X60786392Y-56772000D01*
X60638006Y-56786615D01*
X60447620Y-56844368D01*
X60272160Y-56938153D01*
X60118367Y-57064367D01*
X60086739Y-57102906D01*
X55880000Y-61309645D01*
X55613261Y-61042906D01*
X55581633Y-61004367D01*
X55427840Y-60878153D01*
X55252380Y-60784368D01*
X55061994Y-60726615D01*
X54913608Y-60712000D01*
X54864000Y-60707114D01*
X54814392Y-60712000D01*
X50595597Y-60712000D01*
X50545999Y-60707115D01*
X50496401Y-60712000D01*
X50496392Y-60712000D01*
X50348006Y-60726615D01*
X50157620Y-60784368D01*
X49982160Y-60878153D01*
X49828367Y-61004367D01*
X49796739Y-61042906D01*
X49358901Y-61480744D01*
X49320368Y-61512367D01*
X49288745Y-61550900D01*
X49288744Y-61550901D01*
X49194154Y-61666160D01*
X49100368Y-61841621D01*
X49087709Y-61883354D01*
X45113990Y-57909635D01*
X45113990Y-55198212D01*
X50615000Y-55198212D01*
X50615000Y-55421788D01*
X50658617Y-55641067D01*
X50744176Y-55847624D01*
X50868388Y-56033520D01*
X51026480Y-56191612D01*
X51212376Y-56315824D01*
X51418933Y-56401383D01*
X51638212Y-56445000D01*
X51861788Y-56445000D01*
X52081067Y-56401383D01*
X52287624Y-56315824D01*
X52473520Y-56191612D01*
X52631612Y-56033520D01*
X52755824Y-55847624D01*
X52841383Y-55641067D01*
X52885000Y-55421788D01*
X52885000Y-55198212D01*
X52841383Y-54978933D01*
X52755824Y-54772376D01*
X52631612Y-54586480D01*
X52473520Y-54428388D01*
X52287624Y-54304176D01*
X52081067Y-54218617D01*
X51861788Y-54175000D01*
X51638212Y-54175000D01*
X51418933Y-54218617D01*
X51212376Y-54304176D01*
X51026480Y-54428388D01*
X50868388Y-54586480D01*
X50744176Y-54772376D01*
X50658617Y-54978933D01*
X50615000Y-55198212D01*
X45113990Y-55198212D01*
X45113990Y-52222000D01*
X65475644Y-52222000D01*
X64090901Y-53606744D01*
G37*
%TD.AperFunction*%
D22*
X93345000Y-41758000D02*
X76637857Y-41758000D01*
X76637857Y-41433072D01*
X77412002Y-41433072D01*
X77585256Y-41416008D01*
X77751852Y-41365472D01*
X77905387Y-41283405D01*
X78039962Y-41172962D01*
X78105000Y-41093713D01*
X78170038Y-41172962D01*
X78304613Y-41283405D01*
X78458148Y-41365472D01*
X78624744Y-41416008D01*
X78797998Y-41433072D01*
X79698002Y-41433072D01*
X79871256Y-41416008D01*
X80037852Y-41365472D01*
X80191387Y-41283405D01*
X80325962Y-41172962D01*
X80391000Y-41093713D01*
X80456038Y-41172962D01*
X80590613Y-41283405D01*
X80744148Y-41365472D01*
X80910744Y-41416008D01*
X81083998Y-41433072D01*
X81984002Y-41433072D01*
X82157256Y-41416008D01*
X82323852Y-41365472D01*
X82477387Y-41283405D01*
X82611962Y-41172962D01*
X82719030Y-41042500D01*
X82840681Y-41042500D01*
X82853528Y-41084851D01*
X82935595Y-41238387D01*
X83046038Y-41372962D01*
X83180613Y-41483405D01*
X83334149Y-41565472D01*
X83500745Y-41616008D01*
X83673999Y-41633072D01*
X84474001Y-41633072D01*
X84647255Y-41616008D01*
X84813851Y-41565472D01*
X84967387Y-41483405D01*
X85101962Y-41372962D01*
X85212405Y-41238387D01*
X85294472Y-41084851D01*
X85345008Y-40918255D01*
X85362072Y-40745001D01*
X85362072Y-40030061D01*
X85833000Y-40030061D01*
X85833000Y-40233939D01*
X85872774Y-40433898D01*
X85950795Y-40622256D01*
X86064063Y-40791774D01*
X86208226Y-40935937D01*
X86377744Y-41049205D01*
X86566102Y-41127226D01*
X86766061Y-41167000D01*
X86969939Y-41167000D01*
X87169898Y-41127226D01*
X87249458Y-41094271D01*
X87314038Y-41172962D01*
X87448613Y-41283405D01*
X87602148Y-41365472D01*
X87768744Y-41416008D01*
X87941998Y-41433072D01*
X88842002Y-41433072D01*
X89015256Y-41416008D01*
X89181852Y-41365472D01*
X89335387Y-41283405D01*
X89469962Y-41172962D01*
X89580405Y-41038387D01*
X89603596Y-40995000D01*
X90405928Y-40995000D01*
X90418188Y-41119482D01*
X90454498Y-41239180D01*
X90513463Y-41349494D01*
X90592815Y-41446185D01*
X90689506Y-41525537D01*
X90799820Y-41584502D01*
X90919518Y-41620812D01*
X91044000Y-41633072D01*
X91408250Y-41630000D01*
X91567000Y-41471250D01*
X91567000Y-40459500D01*
X91821000Y-40459500D01*
X91821000Y-41471250D01*
X91979750Y-41630000D01*
X92344000Y-41633072D01*
X92468482Y-41620812D01*
X92588180Y-41584502D01*
X92698494Y-41525537D01*
X92795185Y-41446185D01*
X92874537Y-41349494D01*
X92933502Y-41239180D01*
X92969812Y-41119482D01*
X92982072Y-40995000D01*
X92979000Y-40618250D01*
X92820250Y-40459500D01*
X91821000Y-40459500D01*
X91567000Y-40459500D01*
X90567750Y-40459500D01*
X90409000Y-40618250D01*
X90405928Y-40995000D01*
X89603596Y-40995000D01*
X89662472Y-40884852D01*
X89713008Y-40718256D01*
X89730072Y-40545002D01*
X89730072Y-40019998D01*
X89713008Y-39846744D01*
X89662472Y-39680148D01*
X89580405Y-39526613D01*
X89469962Y-39392038D01*
X89443109Y-39370000D01*
X89469962Y-39347962D01*
X89577030Y-39217500D01*
X90504342Y-39217500D01*
X90539663Y-39283581D01*
X90513463Y-39315506D01*
X90454498Y-39425820D01*
X90418188Y-39545518D01*
X90405928Y-39670000D01*
X90409000Y-40046750D01*
X90567750Y-40205500D01*
X91567000Y-40205500D01*
X91567000Y-40185500D01*
X91821000Y-40185500D01*
X91821000Y-40205500D01*
X92820250Y-40205500D01*
X92979000Y-40046750D01*
X92982072Y-39670000D01*
X92969812Y-39545518D01*
X92933502Y-39425820D01*
X92874537Y-39315506D01*
X92848337Y-39283581D01*
X92914472Y-39159851D01*
X92965008Y-38993255D01*
X92982072Y-38820001D01*
X92982072Y-37994999D01*
X92965008Y-37821745D01*
X92914472Y-37655149D01*
X92832405Y-37501613D01*
X92721962Y-37367038D01*
X92587387Y-37256595D01*
X92433851Y-37174528D01*
X92267255Y-37123992D01*
X92094001Y-37106928D01*
X91293999Y-37106928D01*
X91120745Y-37123992D01*
X90954149Y-37174528D01*
X90800613Y-37256595D01*
X90666038Y-37367038D01*
X90555595Y-37501613D01*
X90473528Y-37655149D01*
X90460681Y-37697500D01*
X89577030Y-37697500D01*
X89469962Y-37567038D01*
X89335387Y-37456595D01*
X89181852Y-37374528D01*
X89015256Y-37323992D01*
X88842002Y-37306928D01*
X87941998Y-37306928D01*
X87768744Y-37323992D01*
X87602148Y-37374528D01*
X87448613Y-37456595D01*
X87314038Y-37567038D01*
X87203595Y-37701613D01*
X87121528Y-37855148D01*
X87070992Y-38021744D01*
X87053928Y-38194998D01*
X87053928Y-38720002D01*
X87070992Y-38893256D01*
X87121528Y-39059852D01*
X87161781Y-39135159D01*
X86969939Y-39097000D01*
X86766061Y-39097000D01*
X86566102Y-39136774D01*
X86377744Y-39214795D01*
X86208226Y-39328063D01*
X86064063Y-39472226D01*
X85950795Y-39641744D01*
X85872774Y-39830102D01*
X85833000Y-40030061D01*
X85362072Y-40030061D01*
X85362072Y-39919999D01*
X85345008Y-39746745D01*
X85294472Y-39580149D01*
X85228337Y-39456419D01*
X85254537Y-39424494D01*
X85313502Y-39314180D01*
X85349812Y-39194482D01*
X85362072Y-39070000D01*
X85359000Y-38693250D01*
X85200250Y-38534500D01*
X84201000Y-38534500D01*
X84201000Y-38554500D01*
X83947000Y-38554500D01*
X83947000Y-38534500D01*
X83927000Y-38534500D01*
X83927000Y-38280500D01*
X83947000Y-38280500D01*
X83947000Y-37268750D01*
X84201000Y-37268750D01*
X84201000Y-38280500D01*
X85200250Y-38280500D01*
X85359000Y-38121750D01*
X85362072Y-37745000D01*
X85349812Y-37620518D01*
X85313502Y-37500820D01*
X85254537Y-37390506D01*
X85175185Y-37293815D01*
X85078494Y-37214463D01*
X84968180Y-37155498D01*
X84848482Y-37119188D01*
X84724000Y-37106928D01*
X84359750Y-37110000D01*
X84201000Y-37268750D01*
X83947000Y-37268750D01*
X83788250Y-37110000D01*
X83424000Y-37106928D01*
X83299518Y-37119188D01*
X83179820Y-37155498D01*
X83069506Y-37214463D01*
X82972815Y-37293815D01*
X82893463Y-37390506D01*
X82834498Y-37500820D01*
X82798188Y-37620518D01*
X82785928Y-37745000D01*
X82786553Y-37821624D01*
X82722405Y-37701613D01*
X82611962Y-37567038D01*
X82477387Y-37456595D01*
X82323852Y-37374528D01*
X82157256Y-37323992D01*
X81984002Y-37306928D01*
X81083998Y-37306928D01*
X80910744Y-37323992D01*
X80744148Y-37374528D01*
X80590613Y-37456595D01*
X80456038Y-37567038D01*
X80391000Y-37646287D01*
X80325962Y-37567038D01*
X80191387Y-37456595D01*
X80037852Y-37374528D01*
X79871256Y-37323992D01*
X79698002Y-37306928D01*
X78797998Y-37306928D01*
X78624744Y-37323992D01*
X78458148Y-37374528D01*
X78304613Y-37456595D01*
X78170038Y-37567038D01*
X78105000Y-37646287D01*
X78039962Y-37567038D01*
X77905387Y-37456595D01*
X77751852Y-37374528D01*
X77585256Y-37323992D01*
X77412002Y-37306928D01*
X76511998Y-37306928D01*
X76338744Y-37323992D01*
X76172148Y-37374528D01*
X76086897Y-37420096D01*
X75944000Y-37277199D01*
X75944000Y-34678514D01*
X88165000Y-34678514D01*
X88165000Y-34941486D01*
X88216304Y-35199405D01*
X88316939Y-35442359D01*
X88463038Y-35661013D01*
X88648987Y-35846962D01*
X88867641Y-35993061D01*
X89110595Y-36093696D01*
X89368514Y-36145000D01*
X89631486Y-36145000D01*
X89889405Y-36093696D01*
X90132359Y-35993061D01*
X90351013Y-35846962D01*
X90536962Y-35661013D01*
X90683061Y-35442359D01*
X90783696Y-35199405D01*
X90835000Y-34941486D01*
X90835000Y-34678514D01*
X90783696Y-34420595D01*
X90683061Y-34177641D01*
X90536962Y-33958987D01*
X90351013Y-33773038D01*
X90132359Y-33626939D01*
X89889405Y-33526304D01*
X89631486Y-33475000D01*
X89368514Y-33475000D01*
X89110595Y-33526304D01*
X88867641Y-33626939D01*
X88648987Y-33773038D01*
X88463038Y-33958987D01*
X88316939Y-34177641D01*
X88216304Y-34420595D01*
X88165000Y-34678514D01*
X75944000Y-34678514D01*
X75944000Y-33268000D01*
X87402377Y-33268000D01*
X87528061Y-33293000D01*
X87731939Y-33293000D01*
X87931898Y-33253226D01*
X88120256Y-33175205D01*
X88289774Y-33061937D01*
X88433937Y-32917774D01*
X88547205Y-32748256D01*
X88625226Y-32559898D01*
X88665000Y-32359939D01*
X88665000Y-32156061D01*
X88660015Y-32131000D01*
X93345000Y-32131000D01*
X93345000Y-41758000D01*
%TA.AperFunction,Conductor*%
D23*
G36*
X93345000Y-41758000D02*
G01*
X76637857Y-41758000D01*
X76637857Y-41433072D01*
X77412002Y-41433072D01*
X77585256Y-41416008D01*
X77751852Y-41365472D01*
X77905387Y-41283405D01*
X78039962Y-41172962D01*
X78105000Y-41093713D01*
X78170038Y-41172962D01*
X78304613Y-41283405D01*
X78458148Y-41365472D01*
X78624744Y-41416008D01*
X78797998Y-41433072D01*
X79698002Y-41433072D01*
X79871256Y-41416008D01*
X80037852Y-41365472D01*
X80191387Y-41283405D01*
X80325962Y-41172962D01*
X80391000Y-41093713D01*
X80456038Y-41172962D01*
X80590613Y-41283405D01*
X80744148Y-41365472D01*
X80910744Y-41416008D01*
X81083998Y-41433072D01*
X81984002Y-41433072D01*
X82157256Y-41416008D01*
X82323852Y-41365472D01*
X82477387Y-41283405D01*
X82611962Y-41172962D01*
X82719030Y-41042500D01*
X82840681Y-41042500D01*
X82853528Y-41084851D01*
X82935595Y-41238387D01*
X83046038Y-41372962D01*
X83180613Y-41483405D01*
X83334149Y-41565472D01*
X83500745Y-41616008D01*
X83673999Y-41633072D01*
X84474001Y-41633072D01*
X84647255Y-41616008D01*
X84813851Y-41565472D01*
X84967387Y-41483405D01*
X85101962Y-41372962D01*
X85212405Y-41238387D01*
X85294472Y-41084851D01*
X85345008Y-40918255D01*
X85362072Y-40745001D01*
X85362072Y-40030061D01*
X85833000Y-40030061D01*
X85833000Y-40233939D01*
X85872774Y-40433898D01*
X85950795Y-40622256D01*
X86064063Y-40791774D01*
X86208226Y-40935937D01*
X86377744Y-41049205D01*
X86566102Y-41127226D01*
X86766061Y-41167000D01*
X86969939Y-41167000D01*
X87169898Y-41127226D01*
X87249458Y-41094271D01*
X87314038Y-41172962D01*
X87448613Y-41283405D01*
X87602148Y-41365472D01*
X87768744Y-41416008D01*
X87941998Y-41433072D01*
X88842002Y-41433072D01*
X89015256Y-41416008D01*
X89181852Y-41365472D01*
X89335387Y-41283405D01*
X89469962Y-41172962D01*
X89580405Y-41038387D01*
X89603596Y-40995000D01*
X90405928Y-40995000D01*
X90418188Y-41119482D01*
X90454498Y-41239180D01*
X90513463Y-41349494D01*
X90592815Y-41446185D01*
X90689506Y-41525537D01*
X90799820Y-41584502D01*
X90919518Y-41620812D01*
X91044000Y-41633072D01*
X91408250Y-41630000D01*
X91567000Y-41471250D01*
X91567000Y-40459500D01*
X91821000Y-40459500D01*
X91821000Y-41471250D01*
X91979750Y-41630000D01*
X92344000Y-41633072D01*
X92468482Y-41620812D01*
X92588180Y-41584502D01*
X92698494Y-41525537D01*
X92795185Y-41446185D01*
X92874537Y-41349494D01*
X92933502Y-41239180D01*
X92969812Y-41119482D01*
X92982072Y-40995000D01*
X92979000Y-40618250D01*
X92820250Y-40459500D01*
X91821000Y-40459500D01*
X91567000Y-40459500D01*
X90567750Y-40459500D01*
X90409000Y-40618250D01*
X90405928Y-40995000D01*
X89603596Y-40995000D01*
X89662472Y-40884852D01*
X89713008Y-40718256D01*
X89730072Y-40545002D01*
X89730072Y-40019998D01*
X89713008Y-39846744D01*
X89662472Y-39680148D01*
X89580405Y-39526613D01*
X89469962Y-39392038D01*
X89443109Y-39370000D01*
X89469962Y-39347962D01*
X89577030Y-39217500D01*
X90504342Y-39217500D01*
X90539663Y-39283581D01*
X90513463Y-39315506D01*
X90454498Y-39425820D01*
X90418188Y-39545518D01*
X90405928Y-39670000D01*
X90409000Y-40046750D01*
X90567750Y-40205500D01*
X91567000Y-40205500D01*
X91567000Y-40185500D01*
X91821000Y-40185500D01*
X91821000Y-40205500D01*
X92820250Y-40205500D01*
X92979000Y-40046750D01*
X92982072Y-39670000D01*
X92969812Y-39545518D01*
X92933502Y-39425820D01*
X92874537Y-39315506D01*
X92848337Y-39283581D01*
X92914472Y-39159851D01*
X92965008Y-38993255D01*
X92982072Y-38820001D01*
X92982072Y-37994999D01*
X92965008Y-37821745D01*
X92914472Y-37655149D01*
X92832405Y-37501613D01*
X92721962Y-37367038D01*
X92587387Y-37256595D01*
X92433851Y-37174528D01*
X92267255Y-37123992D01*
X92094001Y-37106928D01*
X91293999Y-37106928D01*
X91120745Y-37123992D01*
X90954149Y-37174528D01*
X90800613Y-37256595D01*
X90666038Y-37367038D01*
X90555595Y-37501613D01*
X90473528Y-37655149D01*
X90460681Y-37697500D01*
X89577030Y-37697500D01*
X89469962Y-37567038D01*
X89335387Y-37456595D01*
X89181852Y-37374528D01*
X89015256Y-37323992D01*
X88842002Y-37306928D01*
X87941998Y-37306928D01*
X87768744Y-37323992D01*
X87602148Y-37374528D01*
X87448613Y-37456595D01*
X87314038Y-37567038D01*
X87203595Y-37701613D01*
X87121528Y-37855148D01*
X87070992Y-38021744D01*
X87053928Y-38194998D01*
X87053928Y-38720002D01*
X87070992Y-38893256D01*
X87121528Y-39059852D01*
X87161781Y-39135159D01*
X86969939Y-39097000D01*
X86766061Y-39097000D01*
X86566102Y-39136774D01*
X86377744Y-39214795D01*
X86208226Y-39328063D01*
X86064063Y-39472226D01*
X85950795Y-39641744D01*
X85872774Y-39830102D01*
X85833000Y-40030061D01*
X85362072Y-40030061D01*
X85362072Y-39919999D01*
X85345008Y-39746745D01*
X85294472Y-39580149D01*
X85228337Y-39456419D01*
X85254537Y-39424494D01*
X85313502Y-39314180D01*
X85349812Y-39194482D01*
X85362072Y-39070000D01*
X85359000Y-38693250D01*
X85200250Y-38534500D01*
X84201000Y-38534500D01*
X84201000Y-38554500D01*
X83947000Y-38554500D01*
X83947000Y-38534500D01*
X83927000Y-38534500D01*
X83927000Y-38280500D01*
X83947000Y-38280500D01*
X83947000Y-37268750D01*
X84201000Y-37268750D01*
X84201000Y-38280500D01*
X85200250Y-38280500D01*
X85359000Y-38121750D01*
X85362072Y-37745000D01*
X85349812Y-37620518D01*
X85313502Y-37500820D01*
X85254537Y-37390506D01*
X85175185Y-37293815D01*
X85078494Y-37214463D01*
X84968180Y-37155498D01*
X84848482Y-37119188D01*
X84724000Y-37106928D01*
X84359750Y-37110000D01*
X84201000Y-37268750D01*
X83947000Y-37268750D01*
X83788250Y-37110000D01*
X83424000Y-37106928D01*
X83299518Y-37119188D01*
X83179820Y-37155498D01*
X83069506Y-37214463D01*
X82972815Y-37293815D01*
X82893463Y-37390506D01*
X82834498Y-37500820D01*
X82798188Y-37620518D01*
X82785928Y-37745000D01*
X82786553Y-37821624D01*
X82722405Y-37701613D01*
X82611962Y-37567038D01*
X82477387Y-37456595D01*
X82323852Y-37374528D01*
X82157256Y-37323992D01*
X81984002Y-37306928D01*
X81083998Y-37306928D01*
X80910744Y-37323992D01*
X80744148Y-37374528D01*
X80590613Y-37456595D01*
X80456038Y-37567038D01*
X80391000Y-37646287D01*
X80325962Y-37567038D01*
X80191387Y-37456595D01*
X80037852Y-37374528D01*
X79871256Y-37323992D01*
X79698002Y-37306928D01*
X78797998Y-37306928D01*
X78624744Y-37323992D01*
X78458148Y-37374528D01*
X78304613Y-37456595D01*
X78170038Y-37567038D01*
X78105000Y-37646287D01*
X78039962Y-37567038D01*
X77905387Y-37456595D01*
X77751852Y-37374528D01*
X77585256Y-37323992D01*
X77412002Y-37306928D01*
X76511998Y-37306928D01*
X76338744Y-37323992D01*
X76172148Y-37374528D01*
X76086897Y-37420096D01*
X75944000Y-37277199D01*
X75944000Y-34678514D01*
X88165000Y-34678514D01*
X88165000Y-34941486D01*
X88216304Y-35199405D01*
X88316939Y-35442359D01*
X88463038Y-35661013D01*
X88648987Y-35846962D01*
X88867641Y-35993061D01*
X89110595Y-36093696D01*
X89368514Y-36145000D01*
X89631486Y-36145000D01*
X89889405Y-36093696D01*
X90132359Y-35993061D01*
X90351013Y-35846962D01*
X90536962Y-35661013D01*
X90683061Y-35442359D01*
X90783696Y-35199405D01*
X90835000Y-34941486D01*
X90835000Y-34678514D01*
X90783696Y-34420595D01*
X90683061Y-34177641D01*
X90536962Y-33958987D01*
X90351013Y-33773038D01*
X90132359Y-33626939D01*
X89889405Y-33526304D01*
X89631486Y-33475000D01*
X89368514Y-33475000D01*
X89110595Y-33526304D01*
X88867641Y-33626939D01*
X88648987Y-33773038D01*
X88463038Y-33958987D01*
X88316939Y-34177641D01*
X88216304Y-34420595D01*
X88165000Y-34678514D01*
X75944000Y-34678514D01*
X75944000Y-33268000D01*
X87402377Y-33268000D01*
X87528061Y-33293000D01*
X87731939Y-33293000D01*
X87931898Y-33253226D01*
X88120256Y-33175205D01*
X88289774Y-33061937D01*
X88433937Y-32917774D01*
X88547205Y-32748256D01*
X88625226Y-32559898D01*
X88665000Y-32359939D01*
X88665000Y-32156061D01*
X88660015Y-32131000D01*
X93345000Y-32131000D01*
X93345000Y-41758000D01*
G37*
%TD.AperFunction*%
D22*
X74424000Y-37554677D02*
X74420324Y-37592000D01*
X74424000Y-37629322D01*
X74424000Y-37629332D01*
X74434997Y-37740985D01*
X74473374Y-37867499D01*
X74478454Y-37884246D01*
X74549026Y-38016276D01*
X74588871Y-38064826D01*
X74607889Y-38088000D01*
X46222000Y-38088000D01*
X46222000Y-34698212D01*
X50615000Y-34698212D01*
X50615000Y-34921788D01*
X50658617Y-35141067D01*
X50744176Y-35347624D01*
X50868388Y-35533520D01*
X51026480Y-35691612D01*
X51212376Y-35815824D01*
X51418933Y-35901383D01*
X51638212Y-35945000D01*
X51861788Y-35945000D01*
X52081067Y-35901383D01*
X52287624Y-35815824D01*
X52473520Y-35691612D01*
X52631612Y-35533520D01*
X52755824Y-35347624D01*
X52841383Y-35141067D01*
X52885000Y-34921788D01*
X52885000Y-34698212D01*
X52841383Y-34478933D01*
X52755824Y-34272376D01*
X52631612Y-34086480D01*
X52473520Y-33928388D01*
X52287624Y-33804176D01*
X52081067Y-33718617D01*
X51861788Y-33675000D01*
X51638212Y-33675000D01*
X51418933Y-33718617D01*
X51212376Y-33804176D01*
X51026480Y-33928388D01*
X50868388Y-34086480D01*
X50744176Y-34272376D01*
X50658617Y-34478933D01*
X50615000Y-34698212D01*
X46222000Y-34698212D01*
X46222000Y-33268000D01*
X74424001Y-33268000D01*
X74424000Y-37554677D01*
%TA.AperFunction,Conductor*%
D23*
G36*
X74424000Y-37554677D02*
G01*
X74420324Y-37592000D01*
X74424000Y-37629322D01*
X74424000Y-37629332D01*
X74434997Y-37740985D01*
X74473374Y-37867499D01*
X74478454Y-37884246D01*
X74549026Y-38016276D01*
X74588871Y-38064826D01*
X74607889Y-38088000D01*
X46222000Y-38088000D01*
X46222000Y-34698212D01*
X50615000Y-34698212D01*
X50615000Y-34921788D01*
X50658617Y-35141067D01*
X50744176Y-35347624D01*
X50868388Y-35533520D01*
X51026480Y-35691612D01*
X51212376Y-35815824D01*
X51418933Y-35901383D01*
X51638212Y-35945000D01*
X51861788Y-35945000D01*
X52081067Y-35901383D01*
X52287624Y-35815824D01*
X52473520Y-35691612D01*
X52631612Y-35533520D01*
X52755824Y-35347624D01*
X52841383Y-35141067D01*
X52885000Y-34921788D01*
X52885000Y-34698212D01*
X52841383Y-34478933D01*
X52755824Y-34272376D01*
X52631612Y-34086480D01*
X52473520Y-33928388D01*
X52287624Y-33804176D01*
X52081067Y-33718617D01*
X51861788Y-33675000D01*
X51638212Y-33675000D01*
X51418933Y-33718617D01*
X51212376Y-33804176D01*
X51026480Y-33928388D01*
X50868388Y-34086480D01*
X50744176Y-34272376D01*
X50658617Y-34478933D01*
X50615000Y-34698212D01*
X46222000Y-34698212D01*
X46222000Y-33268000D01*
X74424001Y-33268000D01*
X74424000Y-37554677D01*
G37*
%TD.AperFunction*%
%TD*%
M02*
