%TF.GenerationSoftware,KiCad,Pcbnew,(5.1.10)-1*%
%TF.CreationDate,2021-07-20T23:53:59+08:00*%
%TF.ProjectId,2.5_SAS_Backend,322e355f-5341-4535-9f42-61636b656e64,rev?*%
%TF.SameCoordinates,Original*%
%TF.FileFunction,Soldermask,Top*%
%TF.FilePolarity,Negative*%
%FSLAX46Y46*%
G04 Gerber Fmt 4.6, Leading zero omitted, Abs format (unit mm)*
G04 Created by KiCad (PCBNEW (5.1.10)-1) date 2021-07-20 23:53:59*
%MOMM*%
%LPD*%
G01*
G04 APERTURE LIST*
%ADD10C,2.200000*%
%ADD11C,1.000000*%
%ADD12C,1.400000*%
%ADD13C,2.400000*%
%ADD14C,0.850000*%
%ADD15C,0.840000*%
%ADD16C,2.540000*%
%ADD17C,1.600000*%
%ADD18R,1.600000X1.600000*%
%ADD19R,2.030000X1.730000*%
%ADD20O,2.030000X1.730000*%
G04 APERTURE END LIST*
D10*
%TO.C,REF\u002A\u002A*%
X34798000Y-33020000D03*
%TD*%
%TO.C,REF\u002A\u002A*%
X34544000Y-65278000D03*
%TD*%
%TO.C,REF\u002A\u002A*%
X97790000Y-46228000D03*
%TD*%
%TO.C,REF\u002A\u002A*%
X34290000Y-49276000D03*
%TD*%
%TO.C,D1*%
G36*
G01*
X92094001Y-39070000D02*
X91293999Y-39070000D01*
G75*
G02*
X91044000Y-38820001I0J249999D01*
G01*
X91044000Y-37994999D01*
G75*
G02*
X91293999Y-37745000I249999J0D01*
G01*
X92094001Y-37745000D01*
G75*
G02*
X92344000Y-37994999I0J-249999D01*
G01*
X92344000Y-38820001D01*
G75*
G02*
X92094001Y-39070000I-249999J0D01*
G01*
G37*
G36*
G01*
X92094001Y-40995000D02*
X91293999Y-40995000D01*
G75*
G02*
X91044000Y-40745001I0J249999D01*
G01*
X91044000Y-39919999D01*
G75*
G02*
X91293999Y-39670000I249999J0D01*
G01*
X92094001Y-39670000D01*
G75*
G02*
X92344000Y-39919999I0J-249999D01*
G01*
X92344000Y-40745001D01*
G75*
G02*
X92094001Y-40995000I-249999J0D01*
G01*
G37*
%TD*%
%TO.C,R1*%
G36*
G01*
X88842002Y-38970000D02*
X87941998Y-38970000D01*
G75*
G02*
X87692000Y-38720002I0J249998D01*
G01*
X87692000Y-38194998D01*
G75*
G02*
X87941998Y-37945000I249998J0D01*
G01*
X88842002Y-37945000D01*
G75*
G02*
X89092000Y-38194998I0J-249998D01*
G01*
X89092000Y-38720002D01*
G75*
G02*
X88842002Y-38970000I-249998J0D01*
G01*
G37*
G36*
G01*
X88842002Y-40795000D02*
X87941998Y-40795000D01*
G75*
G02*
X87692000Y-40545002I0J249998D01*
G01*
X87692000Y-40019998D01*
G75*
G02*
X87941998Y-39770000I249998J0D01*
G01*
X88842002Y-39770000D01*
G75*
G02*
X89092000Y-40019998I0J-249998D01*
G01*
X89092000Y-40545002D01*
G75*
G02*
X88842002Y-40795000I-249998J0D01*
G01*
G37*
%TD*%
%TO.C,F2*%
G36*
G01*
X71511000Y-59957000D02*
X72761000Y-59957000D01*
G75*
G02*
X73011000Y-60207000I0J-250000D01*
G01*
X73011000Y-60957000D01*
G75*
G02*
X72761000Y-61207000I-250000J0D01*
G01*
X71511000Y-61207000D01*
G75*
G02*
X71261000Y-60957000I0J250000D01*
G01*
X71261000Y-60207000D01*
G75*
G02*
X71511000Y-59957000I250000J0D01*
G01*
G37*
G36*
G01*
X71511000Y-57157000D02*
X72761000Y-57157000D01*
G75*
G02*
X73011000Y-57407000I0J-250000D01*
G01*
X73011000Y-58157000D01*
G75*
G02*
X72761000Y-58407000I-250000J0D01*
G01*
X71511000Y-58407000D01*
G75*
G02*
X71261000Y-58157000I0J250000D01*
G01*
X71261000Y-57407000D01*
G75*
G02*
X71511000Y-57157000I250000J0D01*
G01*
G37*
%TD*%
%TO.C,F1*%
G36*
G01*
X64145000Y-59957000D02*
X65395000Y-59957000D01*
G75*
G02*
X65645000Y-60207000I0J-250000D01*
G01*
X65645000Y-60957000D01*
G75*
G02*
X65395000Y-61207000I-250000J0D01*
G01*
X64145000Y-61207000D01*
G75*
G02*
X63895000Y-60957000I0J250000D01*
G01*
X63895000Y-60207000D01*
G75*
G02*
X64145000Y-59957000I250000J0D01*
G01*
G37*
G36*
G01*
X64145000Y-57157000D02*
X65395000Y-57157000D01*
G75*
G02*
X65645000Y-57407000I0J-250000D01*
G01*
X65645000Y-58157000D01*
G75*
G02*
X65395000Y-58407000I-250000J0D01*
G01*
X64145000Y-58407000D01*
G75*
G02*
X63895000Y-58157000I0J250000D01*
G01*
X63895000Y-57407000D01*
G75*
G02*
X64145000Y-57157000I250000J0D01*
G01*
G37*
%TD*%
D11*
%TO.C,U1*%
X51750000Y-34810000D03*
D12*
X89500000Y-34810000D03*
%TD*%
%TO.C,R4*%
G36*
G01*
X81984002Y-38970000D02*
X81083998Y-38970000D01*
G75*
G02*
X80834000Y-38720002I0J249998D01*
G01*
X80834000Y-38194998D01*
G75*
G02*
X81083998Y-37945000I249998J0D01*
G01*
X81984002Y-37945000D01*
G75*
G02*
X82234000Y-38194998I0J-249998D01*
G01*
X82234000Y-38720002D01*
G75*
G02*
X81984002Y-38970000I-249998J0D01*
G01*
G37*
G36*
G01*
X81984002Y-40795000D02*
X81083998Y-40795000D01*
G75*
G02*
X80834000Y-40545002I0J249998D01*
G01*
X80834000Y-40019998D01*
G75*
G02*
X81083998Y-39770000I249998J0D01*
G01*
X81984002Y-39770000D01*
G75*
G02*
X82234000Y-40019998I0J-249998D01*
G01*
X82234000Y-40545002D01*
G75*
G02*
X81984002Y-40795000I-249998J0D01*
G01*
G37*
%TD*%
%TO.C,R3*%
G36*
G01*
X78797998Y-39770000D02*
X79698002Y-39770000D01*
G75*
G02*
X79948000Y-40019998I0J-249998D01*
G01*
X79948000Y-40545002D01*
G75*
G02*
X79698002Y-40795000I-249998J0D01*
G01*
X78797998Y-40795000D01*
G75*
G02*
X78548000Y-40545002I0J249998D01*
G01*
X78548000Y-40019998D01*
G75*
G02*
X78797998Y-39770000I249998J0D01*
G01*
G37*
G36*
G01*
X78797998Y-37945000D02*
X79698002Y-37945000D01*
G75*
G02*
X79948000Y-38194998I0J-249998D01*
G01*
X79948000Y-38720002D01*
G75*
G02*
X79698002Y-38970000I-249998J0D01*
G01*
X78797998Y-38970000D01*
G75*
G02*
X78548000Y-38720002I0J249998D01*
G01*
X78548000Y-38194998D01*
G75*
G02*
X78797998Y-37945000I249998J0D01*
G01*
G37*
%TD*%
%TO.C,R2*%
G36*
G01*
X77412002Y-38970000D02*
X76511998Y-38970000D01*
G75*
G02*
X76262000Y-38720002I0J249998D01*
G01*
X76262000Y-38194998D01*
G75*
G02*
X76511998Y-37945000I249998J0D01*
G01*
X77412002Y-37945000D01*
G75*
G02*
X77662000Y-38194998I0J-249998D01*
G01*
X77662000Y-38720002D01*
G75*
G02*
X77412002Y-38970000I-249998J0D01*
G01*
G37*
G36*
G01*
X77412002Y-40795000D02*
X76511998Y-40795000D01*
G75*
G02*
X76262000Y-40545002I0J249998D01*
G01*
X76262000Y-40019998D01*
G75*
G02*
X76511998Y-39770000I249998J0D01*
G01*
X77412002Y-39770000D01*
G75*
G02*
X77662000Y-40019998I0J-249998D01*
G01*
X77662000Y-40545002D01*
G75*
G02*
X77412002Y-40795000I-249998J0D01*
G01*
G37*
%TD*%
%TO.C,D2*%
G36*
G01*
X83673999Y-39670000D02*
X84474001Y-39670000D01*
G75*
G02*
X84724000Y-39919999I0J-249999D01*
G01*
X84724000Y-40745001D01*
G75*
G02*
X84474001Y-40995000I-249999J0D01*
G01*
X83673999Y-40995000D01*
G75*
G02*
X83424000Y-40745001I0J249999D01*
G01*
X83424000Y-39919999D01*
G75*
G02*
X83673999Y-39670000I249999J0D01*
G01*
G37*
G36*
G01*
X83673999Y-37745000D02*
X84474001Y-37745000D01*
G75*
G02*
X84724000Y-37994999I0J-249999D01*
G01*
X84724000Y-38820001D01*
G75*
G02*
X84474001Y-39070000I-249999J0D01*
G01*
X83673999Y-39070000D01*
G75*
G02*
X83424000Y-38820001I0J249999D01*
G01*
X83424000Y-37994999D01*
G75*
G02*
X83673999Y-37745000I249999J0D01*
G01*
G37*
%TD*%
D13*
%TO.C,U5*%
X41910000Y-51950000D03*
X41910000Y-64890000D03*
D14*
X42410000Y-54610000D03*
X41410000Y-55880000D03*
X41410000Y-57150000D03*
X42410000Y-58420000D03*
X41410000Y-59690000D03*
X41410000Y-60960000D03*
X42410000Y-62230000D03*
%TD*%
D13*
%TO.C,U3*%
X41910000Y-33154000D03*
X41910000Y-46094000D03*
D14*
X42410000Y-35814000D03*
X41410000Y-37084000D03*
X41410000Y-38354000D03*
X42410000Y-39624000D03*
X41410000Y-40894000D03*
X41410000Y-42164000D03*
X42410000Y-43434000D03*
%TD*%
D11*
%TO.C,U4*%
X51750000Y-55310000D03*
D12*
X89500000Y-55310000D03*
%TD*%
D15*
%TO.C,U2*%
X64458000Y-64262000D03*
X65728000Y-64262000D03*
X63188000Y-64262000D03*
X69538000Y-64262000D03*
X66998000Y-64262000D03*
X68268000Y-64262000D03*
X70808000Y-64262000D03*
X72078000Y-64262000D03*
X73348000Y-64262000D03*
X74618000Y-64262000D03*
X75888000Y-64262000D03*
X77158000Y-64262000D03*
X78428000Y-64262000D03*
X79698000Y-64262000D03*
X80968000Y-64262000D03*
D16*
X59918600Y-64262000D03*
X84328000Y-64262000D03*
%TD*%
D17*
%TO.C,5V_C2*%
X88940000Y-64262000D03*
D18*
X91440000Y-64262000D03*
%TD*%
D17*
%TO.C,12V_C3*%
X47538000Y-64262000D03*
D18*
X50038000Y-64262000D03*
%TD*%
D17*
%TO.C,12V_C4*%
X53380000Y-64262000D03*
D18*
X55880000Y-64262000D03*
%TD*%
D19*
%TO.C,M1*%
X96774000Y-52070000D03*
D20*
X96774000Y-54610000D03*
X96774000Y-57150000D03*
X96774000Y-59690000D03*
%TD*%
D19*
%TO.C,M2*%
X96774000Y-33274000D03*
D20*
X96774000Y-35814000D03*
X96774000Y-38354000D03*
X96774000Y-40894000D03*
%TD*%
D19*
%TO.C,M3*%
X34798000Y-44704000D03*
D20*
X34798000Y-42164000D03*
X34798000Y-39624000D03*
X34798000Y-37084000D03*
%TD*%
D19*
%TO.C,M4*%
X34798000Y-61214000D03*
D20*
X34798000Y-58674000D03*
X34798000Y-56134000D03*
X34798000Y-53594000D03*
%TD*%
D17*
%TO.C,5V_C1*%
X94782000Y-64262000D03*
D18*
X97282000Y-64262000D03*
%TD*%
M02*
