%TF.GenerationSoftware,KiCad,Pcbnew,(5.1.10)-1*%
%TF.CreationDate,2021-07-19T20:27:22+08:00*%
%TF.ProjectId,2.5_SAS_Backend,322e355f-5341-4535-9f42-61636b656e64,rev?*%
%TF.SameCoordinates,Original*%
%TF.FileFunction,Legend,Top*%
%TF.FilePolarity,Positive*%
%FSLAX46Y46*%
G04 Gerber Fmt 4.6, Leading zero omitted, Abs format (unit mm)*
G04 Created by KiCad (PCBNEW (5.1.10)-1) date 2021-07-19 20:27:22*
%MOMM*%
%LPD*%
G01*
G04 APERTURE LIST*
%ADD10C,0.300000*%
%ADD11C,0.120000*%
%ADD12C,0.150000*%
G04 APERTURE END LIST*
D10*
X53298571Y-52661428D02*
X53370000Y-52590000D01*
X53512857Y-52518571D01*
X53870000Y-52518571D01*
X54012857Y-52590000D01*
X54084285Y-52661428D01*
X54155714Y-52804285D01*
X54155714Y-52947142D01*
X54084285Y-53161428D01*
X53227142Y-54018571D01*
X54155714Y-54018571D01*
X55084285Y-52518571D02*
X55227142Y-52518571D01*
X55370000Y-52590000D01*
X55441428Y-52661428D01*
X55512857Y-52804285D01*
X55584285Y-53090000D01*
X55584285Y-53447142D01*
X55512857Y-53732857D01*
X55441428Y-53875714D01*
X55370000Y-53947142D01*
X55227142Y-54018571D01*
X55084285Y-54018571D01*
X54941428Y-53947142D01*
X54870000Y-53875714D01*
X54798571Y-53732857D01*
X54727142Y-53447142D01*
X54727142Y-53090000D01*
X54798571Y-52804285D01*
X54870000Y-52661428D01*
X54941428Y-52590000D01*
X55084285Y-52518571D01*
X56155714Y-52661428D02*
X56227142Y-52590000D01*
X56370000Y-52518571D01*
X56727142Y-52518571D01*
X56870000Y-52590000D01*
X56941428Y-52661428D01*
X57012857Y-52804285D01*
X57012857Y-52947142D01*
X56941428Y-53161428D01*
X56084285Y-54018571D01*
X57012857Y-54018571D01*
X58441428Y-54018571D02*
X57584285Y-54018571D01*
X58012857Y-54018571D02*
X58012857Y-52518571D01*
X57870000Y-52732857D01*
X57727142Y-52875714D01*
X57584285Y-52947142D01*
X59084285Y-53447142D02*
X60227142Y-53447142D01*
X61227142Y-52518571D02*
X61370000Y-52518571D01*
X61512857Y-52590000D01*
X61584285Y-52661428D01*
X61655714Y-52804285D01*
X61727142Y-53090000D01*
X61727142Y-53447142D01*
X61655714Y-53732857D01*
X61584285Y-53875714D01*
X61512857Y-53947142D01*
X61370000Y-54018571D01*
X61227142Y-54018571D01*
X61084285Y-53947142D01*
X61012857Y-53875714D01*
X60941428Y-53732857D01*
X60870000Y-53447142D01*
X60870000Y-53090000D01*
X60941428Y-52804285D01*
X61012857Y-52661428D01*
X61084285Y-52590000D01*
X61227142Y-52518571D01*
X62227142Y-52518571D02*
X63227142Y-52518571D01*
X62584285Y-54018571D01*
X63798571Y-53447142D02*
X64941428Y-53447142D01*
X66441428Y-54018571D02*
X65584285Y-54018571D01*
X66012857Y-54018571D02*
X66012857Y-52518571D01*
X65870000Y-52732857D01*
X65727142Y-52875714D01*
X65584285Y-52947142D01*
X67155714Y-54018571D02*
X67441428Y-54018571D01*
X67584285Y-53947142D01*
X67655714Y-53875714D01*
X67798571Y-53661428D01*
X67870000Y-53375714D01*
X67870000Y-52804285D01*
X67798571Y-52661428D01*
X67727142Y-52590000D01*
X67584285Y-52518571D01*
X67298571Y-52518571D01*
X67155714Y-52590000D01*
X67084285Y-52661428D01*
X67012857Y-52804285D01*
X67012857Y-53161428D01*
X67084285Y-53304285D01*
X67155714Y-53375714D01*
X67298571Y-53447142D01*
X67584285Y-53447142D01*
X67727142Y-53375714D01*
X67798571Y-53304285D01*
X67870000Y-53161428D01*
X68512857Y-53447142D02*
X69655714Y-53447142D01*
X70298571Y-53947142D02*
X70512857Y-54018571D01*
X70870000Y-54018571D01*
X71012857Y-53947142D01*
X71084285Y-53875714D01*
X71155714Y-53732857D01*
X71155714Y-53590000D01*
X71084285Y-53447142D01*
X71012857Y-53375714D01*
X70870000Y-53304285D01*
X70584285Y-53232857D01*
X70441428Y-53161428D01*
X70370000Y-53090000D01*
X70298571Y-52947142D01*
X70298571Y-52804285D01*
X70370000Y-52661428D01*
X70441428Y-52590000D01*
X70584285Y-52518571D01*
X70941428Y-52518571D01*
X71155714Y-52590000D01*
X71727142Y-53590000D02*
X72441428Y-53590000D01*
X71584285Y-54018571D02*
X72084285Y-52518571D01*
X72584285Y-54018571D01*
X73012857Y-53947142D02*
X73227142Y-54018571D01*
X73584285Y-54018571D01*
X73727142Y-53947142D01*
X73798571Y-53875714D01*
X73870000Y-53732857D01*
X73870000Y-53590000D01*
X73798571Y-53447142D01*
X73727142Y-53375714D01*
X73584285Y-53304285D01*
X73298571Y-53232857D01*
X73155714Y-53161428D01*
X73084285Y-53090000D01*
X73012857Y-52947142D01*
X73012857Y-52804285D01*
X73084285Y-52661428D01*
X73155714Y-52590000D01*
X73298571Y-52518571D01*
X73655714Y-52518571D01*
X73870000Y-52590000D01*
X74512857Y-53447142D02*
X75655714Y-53447142D01*
X76870000Y-53232857D02*
X77084285Y-53304285D01*
X77155714Y-53375714D01*
X77227142Y-53518571D01*
X77227142Y-53732857D01*
X77155714Y-53875714D01*
X77084285Y-53947142D01*
X76941428Y-54018571D01*
X76370000Y-54018571D01*
X76370000Y-52518571D01*
X76870000Y-52518571D01*
X77012857Y-52590000D01*
X77084285Y-52661428D01*
X77155714Y-52804285D01*
X77155714Y-52947142D01*
X77084285Y-53090000D01*
X77012857Y-53161428D01*
X76870000Y-53232857D01*
X76370000Y-53232857D01*
X78512857Y-54018571D02*
X78512857Y-53232857D01*
X78441428Y-53090000D01*
X78298571Y-53018571D01*
X78012857Y-53018571D01*
X77870000Y-53090000D01*
X78512857Y-53947142D02*
X78370000Y-54018571D01*
X78012857Y-54018571D01*
X77870000Y-53947142D01*
X77798571Y-53804285D01*
X77798571Y-53661428D01*
X77870000Y-53518571D01*
X78012857Y-53447142D01*
X78370000Y-53447142D01*
X78512857Y-53375714D01*
X79870000Y-53947142D02*
X79727142Y-54018571D01*
X79441428Y-54018571D01*
X79298571Y-53947142D01*
X79227142Y-53875714D01*
X79155714Y-53732857D01*
X79155714Y-53304285D01*
X79227142Y-53161428D01*
X79298571Y-53090000D01*
X79441428Y-53018571D01*
X79727142Y-53018571D01*
X79870000Y-53090000D01*
X80512857Y-54018571D02*
X80512857Y-52518571D01*
X80655714Y-53447142D02*
X81084285Y-54018571D01*
X81084285Y-53018571D02*
X80512857Y-53590000D01*
X82298571Y-53947142D02*
X82155714Y-54018571D01*
X81870000Y-54018571D01*
X81727142Y-53947142D01*
X81655714Y-53804285D01*
X81655714Y-53232857D01*
X81727142Y-53090000D01*
X81870000Y-53018571D01*
X82155714Y-53018571D01*
X82298571Y-53090000D01*
X82370000Y-53232857D01*
X82370000Y-53375714D01*
X81655714Y-53518571D01*
X83012857Y-53018571D02*
X83012857Y-54018571D01*
X83012857Y-53161428D02*
X83084285Y-53090000D01*
X83227142Y-53018571D01*
X83441428Y-53018571D01*
X83584285Y-53090000D01*
X83655714Y-53232857D01*
X83655714Y-54018571D01*
X85012857Y-54018571D02*
X85012857Y-52518571D01*
X85012857Y-53947142D02*
X84870000Y-54018571D01*
X84584285Y-54018571D01*
X84441428Y-53947142D01*
X84370000Y-53875714D01*
X84298571Y-53732857D01*
X84298571Y-53304285D01*
X84370000Y-53161428D01*
X84441428Y-53090000D01*
X84584285Y-53018571D01*
X84870000Y-53018571D01*
X85012857Y-53090000D01*
X85370000Y-54161428D02*
X86512857Y-54161428D01*
X86655714Y-52518571D02*
X87155714Y-54018571D01*
X87655714Y-52518571D01*
X88870000Y-52518571D02*
X88155714Y-52518571D01*
X88084285Y-53232857D01*
X88155714Y-53161428D01*
X88298571Y-53090000D01*
X88655714Y-53090000D01*
X88798571Y-53161428D01*
X88870000Y-53232857D01*
X88941428Y-53375714D01*
X88941428Y-53732857D01*
X88870000Y-53875714D01*
X88798571Y-53947142D01*
X88655714Y-54018571D01*
X88298571Y-54018571D01*
X88155714Y-53947142D01*
X88084285Y-53875714D01*
D11*
%TO.C,F2*%
X69490000Y-57563936D02*
X69490000Y-58768064D01*
X67670000Y-57563936D02*
X67670000Y-58768064D01*
%TO.C,F1*%
X62632000Y-58071936D02*
X62632000Y-59276064D01*
X60812000Y-58071936D02*
X60812000Y-59276064D01*
%TO.C,R4*%
X47574564Y-35787000D02*
X47120436Y-35787000D01*
X47574564Y-34317000D02*
X47120436Y-34317000D01*
%TO.C,R3*%
X47120436Y-36603000D02*
X47574564Y-36603000D01*
X47120436Y-38073000D02*
X47574564Y-38073000D01*
%TO.C,R2*%
X50930436Y-36603000D02*
X51384564Y-36603000D01*
X50930436Y-38073000D02*
X51384564Y-38073000D01*
%TO.C,D2*%
X48444500Y-31856000D02*
X45559500Y-31856000D01*
X45559500Y-31856000D02*
X45559500Y-33676000D01*
X45559500Y-33676000D02*
X48444500Y-33676000D01*
%TO.C,U5*%
X41402000Y-52933600D02*
X39370000Y-52933600D01*
X41402000Y-61214000D02*
X41402000Y-62484000D01*
X41402000Y-52933600D02*
X41402000Y-61214000D01*
X42672000Y-65024000D02*
X42672000Y-49784000D01*
X37592000Y-65024000D02*
X42672000Y-65024000D01*
X37592000Y-49784000D02*
X37592000Y-65024000D01*
X42672000Y-49784000D02*
X37592000Y-49784000D01*
%TO.C,U3*%
X41402000Y-36423600D02*
X39370000Y-36423600D01*
X41402000Y-44704000D02*
X41402000Y-45974000D01*
X41402000Y-36423600D02*
X41402000Y-44704000D01*
X42672000Y-48514000D02*
X42672000Y-33274000D01*
X37592000Y-48514000D02*
X42672000Y-48514000D01*
X37592000Y-33274000D02*
X37592000Y-48514000D01*
X42672000Y-33274000D02*
X37592000Y-33274000D01*
%TO.C,U2*%
X85090000Y-66802000D02*
X85090000Y-61722000D01*
X85090000Y-61722000D02*
X55880000Y-61722000D01*
X55880000Y-61722000D02*
X55880000Y-66802000D01*
X55880000Y-66802000D02*
X85090000Y-66802000D01*
X80568800Y-62992000D02*
X80568800Y-65532000D01*
X80543400Y-65532000D02*
X60960000Y-65532000D01*
%TO.C,5V_C2*%
X92048000Y-64008000D02*
G75*
G03*
X92048000Y-64008000I-2620000J0D01*
G01*
X89428000Y-66588000D02*
X89428000Y-61428000D01*
X89388000Y-66588000D02*
X89388000Y-61428000D01*
X89348000Y-66587000D02*
X89348000Y-61429000D01*
X89308000Y-66586000D02*
X89308000Y-61430000D01*
X89268000Y-66584000D02*
X89268000Y-61432000D01*
X89228000Y-66581000D02*
X89228000Y-61435000D01*
X89188000Y-66577000D02*
X89188000Y-65048000D01*
X89188000Y-62968000D02*
X89188000Y-61439000D01*
X89148000Y-66573000D02*
X89148000Y-65048000D01*
X89148000Y-62968000D02*
X89148000Y-61443000D01*
X89108000Y-66569000D02*
X89108000Y-65048000D01*
X89108000Y-62968000D02*
X89108000Y-61447000D01*
X89068000Y-66564000D02*
X89068000Y-65048000D01*
X89068000Y-62968000D02*
X89068000Y-61452000D01*
X89028000Y-66558000D02*
X89028000Y-65048000D01*
X89028000Y-62968000D02*
X89028000Y-61458000D01*
X88988000Y-66551000D02*
X88988000Y-65048000D01*
X88988000Y-62968000D02*
X88988000Y-61465000D01*
X88948000Y-66544000D02*
X88948000Y-65048000D01*
X88948000Y-62968000D02*
X88948000Y-61472000D01*
X88908000Y-66536000D02*
X88908000Y-65048000D01*
X88908000Y-62968000D02*
X88908000Y-61480000D01*
X88868000Y-66528000D02*
X88868000Y-65048000D01*
X88868000Y-62968000D02*
X88868000Y-61488000D01*
X88828000Y-66519000D02*
X88828000Y-65048000D01*
X88828000Y-62968000D02*
X88828000Y-61497000D01*
X88788000Y-66509000D02*
X88788000Y-65048000D01*
X88788000Y-62968000D02*
X88788000Y-61507000D01*
X88748000Y-66499000D02*
X88748000Y-65048000D01*
X88748000Y-62968000D02*
X88748000Y-61517000D01*
X88707000Y-66488000D02*
X88707000Y-65048000D01*
X88707000Y-62968000D02*
X88707000Y-61528000D01*
X88667000Y-66476000D02*
X88667000Y-65048000D01*
X88667000Y-62968000D02*
X88667000Y-61540000D01*
X88627000Y-66463000D02*
X88627000Y-65048000D01*
X88627000Y-62968000D02*
X88627000Y-61553000D01*
X88587000Y-66450000D02*
X88587000Y-65048000D01*
X88587000Y-62968000D02*
X88587000Y-61566000D01*
X88547000Y-66436000D02*
X88547000Y-65048000D01*
X88547000Y-62968000D02*
X88547000Y-61580000D01*
X88507000Y-66422000D02*
X88507000Y-65048000D01*
X88507000Y-62968000D02*
X88507000Y-61594000D01*
X88467000Y-66406000D02*
X88467000Y-65048000D01*
X88467000Y-62968000D02*
X88467000Y-61610000D01*
X88427000Y-66390000D02*
X88427000Y-65048000D01*
X88427000Y-62968000D02*
X88427000Y-61626000D01*
X88387000Y-66373000D02*
X88387000Y-65048000D01*
X88387000Y-62968000D02*
X88387000Y-61643000D01*
X88347000Y-66356000D02*
X88347000Y-65048000D01*
X88347000Y-62968000D02*
X88347000Y-61660000D01*
X88307000Y-66337000D02*
X88307000Y-65048000D01*
X88307000Y-62968000D02*
X88307000Y-61679000D01*
X88267000Y-66318000D02*
X88267000Y-65048000D01*
X88267000Y-62968000D02*
X88267000Y-61698000D01*
X88227000Y-66298000D02*
X88227000Y-65048000D01*
X88227000Y-62968000D02*
X88227000Y-61718000D01*
X88187000Y-66276000D02*
X88187000Y-65048000D01*
X88187000Y-62968000D02*
X88187000Y-61740000D01*
X88147000Y-66255000D02*
X88147000Y-65048000D01*
X88147000Y-62968000D02*
X88147000Y-61761000D01*
X88107000Y-66232000D02*
X88107000Y-65048000D01*
X88107000Y-62968000D02*
X88107000Y-61784000D01*
X88067000Y-66208000D02*
X88067000Y-65048000D01*
X88067000Y-62968000D02*
X88067000Y-61808000D01*
X88027000Y-66183000D02*
X88027000Y-65048000D01*
X88027000Y-62968000D02*
X88027000Y-61833000D01*
X87987000Y-66157000D02*
X87987000Y-65048000D01*
X87987000Y-62968000D02*
X87987000Y-61859000D01*
X87947000Y-66130000D02*
X87947000Y-65048000D01*
X87947000Y-62968000D02*
X87947000Y-61886000D01*
X87907000Y-66103000D02*
X87907000Y-65048000D01*
X87907000Y-62968000D02*
X87907000Y-61913000D01*
X87867000Y-66073000D02*
X87867000Y-65048000D01*
X87867000Y-62968000D02*
X87867000Y-61943000D01*
X87827000Y-66043000D02*
X87827000Y-65048000D01*
X87827000Y-62968000D02*
X87827000Y-61973000D01*
X87787000Y-66012000D02*
X87787000Y-65048000D01*
X87787000Y-62968000D02*
X87787000Y-62004000D01*
X87747000Y-65979000D02*
X87747000Y-65048000D01*
X87747000Y-62968000D02*
X87747000Y-62037000D01*
X87707000Y-65945000D02*
X87707000Y-65048000D01*
X87707000Y-62968000D02*
X87707000Y-62071000D01*
X87667000Y-65909000D02*
X87667000Y-65048000D01*
X87667000Y-62968000D02*
X87667000Y-62107000D01*
X87627000Y-65872000D02*
X87627000Y-65048000D01*
X87627000Y-62968000D02*
X87627000Y-62144000D01*
X87587000Y-65834000D02*
X87587000Y-65048000D01*
X87587000Y-62968000D02*
X87587000Y-62182000D01*
X87547000Y-65793000D02*
X87547000Y-65048000D01*
X87547000Y-62968000D02*
X87547000Y-62223000D01*
X87507000Y-65751000D02*
X87507000Y-65048000D01*
X87507000Y-62968000D02*
X87507000Y-62265000D01*
X87467000Y-65707000D02*
X87467000Y-65048000D01*
X87467000Y-62968000D02*
X87467000Y-62309000D01*
X87427000Y-65661000D02*
X87427000Y-65048000D01*
X87427000Y-62968000D02*
X87427000Y-62355000D01*
X87387000Y-65613000D02*
X87387000Y-65048000D01*
X87387000Y-62968000D02*
X87387000Y-62403000D01*
X87347000Y-65562000D02*
X87347000Y-65048000D01*
X87347000Y-62968000D02*
X87347000Y-62454000D01*
X87307000Y-65508000D02*
X87307000Y-65048000D01*
X87307000Y-62968000D02*
X87307000Y-62508000D01*
X87267000Y-65451000D02*
X87267000Y-65048000D01*
X87267000Y-62968000D02*
X87267000Y-62565000D01*
X87227000Y-65391000D02*
X87227000Y-65048000D01*
X87227000Y-62968000D02*
X87227000Y-62625000D01*
X87187000Y-65327000D02*
X87187000Y-65048000D01*
X87187000Y-62968000D02*
X87187000Y-62689000D01*
X87147000Y-65259000D02*
X87147000Y-65048000D01*
X87147000Y-62968000D02*
X87147000Y-62757000D01*
X87107000Y-65186000D02*
X87107000Y-62830000D01*
X87067000Y-65106000D02*
X87067000Y-62910000D01*
X87027000Y-65019000D02*
X87027000Y-62997000D01*
X86987000Y-64923000D02*
X86987000Y-63093000D01*
X86947000Y-64813000D02*
X86947000Y-63203000D01*
X86907000Y-64685000D02*
X86907000Y-63331000D01*
X86867000Y-64526000D02*
X86867000Y-63490000D01*
X86827000Y-64292000D02*
X86827000Y-63724000D01*
X92232775Y-65483000D02*
X91732775Y-65483000D01*
X91982775Y-65733000D02*
X91982775Y-65233000D01*
%TO.C,12V_C3*%
X48614000Y-64262000D02*
G75*
G03*
X48614000Y-64262000I-2620000J0D01*
G01*
X45994000Y-66842000D02*
X45994000Y-61682000D01*
X45954000Y-66842000D02*
X45954000Y-61682000D01*
X45914000Y-66841000D02*
X45914000Y-61683000D01*
X45874000Y-66840000D02*
X45874000Y-61684000D01*
X45834000Y-66838000D02*
X45834000Y-61686000D01*
X45794000Y-66835000D02*
X45794000Y-61689000D01*
X45754000Y-66831000D02*
X45754000Y-65302000D01*
X45754000Y-63222000D02*
X45754000Y-61693000D01*
X45714000Y-66827000D02*
X45714000Y-65302000D01*
X45714000Y-63222000D02*
X45714000Y-61697000D01*
X45674000Y-66823000D02*
X45674000Y-65302000D01*
X45674000Y-63222000D02*
X45674000Y-61701000D01*
X45634000Y-66818000D02*
X45634000Y-65302000D01*
X45634000Y-63222000D02*
X45634000Y-61706000D01*
X45594000Y-66812000D02*
X45594000Y-65302000D01*
X45594000Y-63222000D02*
X45594000Y-61712000D01*
X45554000Y-66805000D02*
X45554000Y-65302000D01*
X45554000Y-63222000D02*
X45554000Y-61719000D01*
X45514000Y-66798000D02*
X45514000Y-65302000D01*
X45514000Y-63222000D02*
X45514000Y-61726000D01*
X45474000Y-66790000D02*
X45474000Y-65302000D01*
X45474000Y-63222000D02*
X45474000Y-61734000D01*
X45434000Y-66782000D02*
X45434000Y-65302000D01*
X45434000Y-63222000D02*
X45434000Y-61742000D01*
X45394000Y-66773000D02*
X45394000Y-65302000D01*
X45394000Y-63222000D02*
X45394000Y-61751000D01*
X45354000Y-66763000D02*
X45354000Y-65302000D01*
X45354000Y-63222000D02*
X45354000Y-61761000D01*
X45314000Y-66753000D02*
X45314000Y-65302000D01*
X45314000Y-63222000D02*
X45314000Y-61771000D01*
X45273000Y-66742000D02*
X45273000Y-65302000D01*
X45273000Y-63222000D02*
X45273000Y-61782000D01*
X45233000Y-66730000D02*
X45233000Y-65302000D01*
X45233000Y-63222000D02*
X45233000Y-61794000D01*
X45193000Y-66717000D02*
X45193000Y-65302000D01*
X45193000Y-63222000D02*
X45193000Y-61807000D01*
X45153000Y-66704000D02*
X45153000Y-65302000D01*
X45153000Y-63222000D02*
X45153000Y-61820000D01*
X45113000Y-66690000D02*
X45113000Y-65302000D01*
X45113000Y-63222000D02*
X45113000Y-61834000D01*
X45073000Y-66676000D02*
X45073000Y-65302000D01*
X45073000Y-63222000D02*
X45073000Y-61848000D01*
X45033000Y-66660000D02*
X45033000Y-65302000D01*
X45033000Y-63222000D02*
X45033000Y-61864000D01*
X44993000Y-66644000D02*
X44993000Y-65302000D01*
X44993000Y-63222000D02*
X44993000Y-61880000D01*
X44953000Y-66627000D02*
X44953000Y-65302000D01*
X44953000Y-63222000D02*
X44953000Y-61897000D01*
X44913000Y-66610000D02*
X44913000Y-65302000D01*
X44913000Y-63222000D02*
X44913000Y-61914000D01*
X44873000Y-66591000D02*
X44873000Y-65302000D01*
X44873000Y-63222000D02*
X44873000Y-61933000D01*
X44833000Y-66572000D02*
X44833000Y-65302000D01*
X44833000Y-63222000D02*
X44833000Y-61952000D01*
X44793000Y-66552000D02*
X44793000Y-65302000D01*
X44793000Y-63222000D02*
X44793000Y-61972000D01*
X44753000Y-66530000D02*
X44753000Y-65302000D01*
X44753000Y-63222000D02*
X44753000Y-61994000D01*
X44713000Y-66509000D02*
X44713000Y-65302000D01*
X44713000Y-63222000D02*
X44713000Y-62015000D01*
X44673000Y-66486000D02*
X44673000Y-65302000D01*
X44673000Y-63222000D02*
X44673000Y-62038000D01*
X44633000Y-66462000D02*
X44633000Y-65302000D01*
X44633000Y-63222000D02*
X44633000Y-62062000D01*
X44593000Y-66437000D02*
X44593000Y-65302000D01*
X44593000Y-63222000D02*
X44593000Y-62087000D01*
X44553000Y-66411000D02*
X44553000Y-65302000D01*
X44553000Y-63222000D02*
X44553000Y-62113000D01*
X44513000Y-66384000D02*
X44513000Y-65302000D01*
X44513000Y-63222000D02*
X44513000Y-62140000D01*
X44473000Y-66357000D02*
X44473000Y-65302000D01*
X44473000Y-63222000D02*
X44473000Y-62167000D01*
X44433000Y-66327000D02*
X44433000Y-65302000D01*
X44433000Y-63222000D02*
X44433000Y-62197000D01*
X44393000Y-66297000D02*
X44393000Y-65302000D01*
X44393000Y-63222000D02*
X44393000Y-62227000D01*
X44353000Y-66266000D02*
X44353000Y-65302000D01*
X44353000Y-63222000D02*
X44353000Y-62258000D01*
X44313000Y-66233000D02*
X44313000Y-65302000D01*
X44313000Y-63222000D02*
X44313000Y-62291000D01*
X44273000Y-66199000D02*
X44273000Y-65302000D01*
X44273000Y-63222000D02*
X44273000Y-62325000D01*
X44233000Y-66163000D02*
X44233000Y-65302000D01*
X44233000Y-63222000D02*
X44233000Y-62361000D01*
X44193000Y-66126000D02*
X44193000Y-65302000D01*
X44193000Y-63222000D02*
X44193000Y-62398000D01*
X44153000Y-66088000D02*
X44153000Y-65302000D01*
X44153000Y-63222000D02*
X44153000Y-62436000D01*
X44113000Y-66047000D02*
X44113000Y-65302000D01*
X44113000Y-63222000D02*
X44113000Y-62477000D01*
X44073000Y-66005000D02*
X44073000Y-65302000D01*
X44073000Y-63222000D02*
X44073000Y-62519000D01*
X44033000Y-65961000D02*
X44033000Y-65302000D01*
X44033000Y-63222000D02*
X44033000Y-62563000D01*
X43993000Y-65915000D02*
X43993000Y-65302000D01*
X43993000Y-63222000D02*
X43993000Y-62609000D01*
X43953000Y-65867000D02*
X43953000Y-65302000D01*
X43953000Y-63222000D02*
X43953000Y-62657000D01*
X43913000Y-65816000D02*
X43913000Y-65302000D01*
X43913000Y-63222000D02*
X43913000Y-62708000D01*
X43873000Y-65762000D02*
X43873000Y-65302000D01*
X43873000Y-63222000D02*
X43873000Y-62762000D01*
X43833000Y-65705000D02*
X43833000Y-65302000D01*
X43833000Y-63222000D02*
X43833000Y-62819000D01*
X43793000Y-65645000D02*
X43793000Y-65302000D01*
X43793000Y-63222000D02*
X43793000Y-62879000D01*
X43753000Y-65581000D02*
X43753000Y-65302000D01*
X43753000Y-63222000D02*
X43753000Y-62943000D01*
X43713000Y-65513000D02*
X43713000Y-65302000D01*
X43713000Y-63222000D02*
X43713000Y-63011000D01*
X43673000Y-65440000D02*
X43673000Y-63084000D01*
X43633000Y-65360000D02*
X43633000Y-63164000D01*
X43593000Y-65273000D02*
X43593000Y-63251000D01*
X43553000Y-65177000D02*
X43553000Y-63347000D01*
X43513000Y-65067000D02*
X43513000Y-63457000D01*
X43473000Y-64939000D02*
X43473000Y-63585000D01*
X43433000Y-64780000D02*
X43433000Y-63744000D01*
X43393000Y-64546000D02*
X43393000Y-63978000D01*
X48798775Y-65737000D02*
X48298775Y-65737000D01*
X48548775Y-65987000D02*
X48548775Y-65487000D01*
%TO.C,12V_C4*%
X54710000Y-64262000D02*
G75*
G03*
X54710000Y-64262000I-2620000J0D01*
G01*
X52090000Y-66842000D02*
X52090000Y-61682000D01*
X52050000Y-66842000D02*
X52050000Y-61682000D01*
X52010000Y-66841000D02*
X52010000Y-61683000D01*
X51970000Y-66840000D02*
X51970000Y-61684000D01*
X51930000Y-66838000D02*
X51930000Y-61686000D01*
X51890000Y-66835000D02*
X51890000Y-61689000D01*
X51850000Y-66831000D02*
X51850000Y-65302000D01*
X51850000Y-63222000D02*
X51850000Y-61693000D01*
X51810000Y-66827000D02*
X51810000Y-65302000D01*
X51810000Y-63222000D02*
X51810000Y-61697000D01*
X51770000Y-66823000D02*
X51770000Y-65302000D01*
X51770000Y-63222000D02*
X51770000Y-61701000D01*
X51730000Y-66818000D02*
X51730000Y-65302000D01*
X51730000Y-63222000D02*
X51730000Y-61706000D01*
X51690000Y-66812000D02*
X51690000Y-65302000D01*
X51690000Y-63222000D02*
X51690000Y-61712000D01*
X51650000Y-66805000D02*
X51650000Y-65302000D01*
X51650000Y-63222000D02*
X51650000Y-61719000D01*
X51610000Y-66798000D02*
X51610000Y-65302000D01*
X51610000Y-63222000D02*
X51610000Y-61726000D01*
X51570000Y-66790000D02*
X51570000Y-65302000D01*
X51570000Y-63222000D02*
X51570000Y-61734000D01*
X51530000Y-66782000D02*
X51530000Y-65302000D01*
X51530000Y-63222000D02*
X51530000Y-61742000D01*
X51490000Y-66773000D02*
X51490000Y-65302000D01*
X51490000Y-63222000D02*
X51490000Y-61751000D01*
X51450000Y-66763000D02*
X51450000Y-65302000D01*
X51450000Y-63222000D02*
X51450000Y-61761000D01*
X51410000Y-66753000D02*
X51410000Y-65302000D01*
X51410000Y-63222000D02*
X51410000Y-61771000D01*
X51369000Y-66742000D02*
X51369000Y-65302000D01*
X51369000Y-63222000D02*
X51369000Y-61782000D01*
X51329000Y-66730000D02*
X51329000Y-65302000D01*
X51329000Y-63222000D02*
X51329000Y-61794000D01*
X51289000Y-66717000D02*
X51289000Y-65302000D01*
X51289000Y-63222000D02*
X51289000Y-61807000D01*
X51249000Y-66704000D02*
X51249000Y-65302000D01*
X51249000Y-63222000D02*
X51249000Y-61820000D01*
X51209000Y-66690000D02*
X51209000Y-65302000D01*
X51209000Y-63222000D02*
X51209000Y-61834000D01*
X51169000Y-66676000D02*
X51169000Y-65302000D01*
X51169000Y-63222000D02*
X51169000Y-61848000D01*
X51129000Y-66660000D02*
X51129000Y-65302000D01*
X51129000Y-63222000D02*
X51129000Y-61864000D01*
X51089000Y-66644000D02*
X51089000Y-65302000D01*
X51089000Y-63222000D02*
X51089000Y-61880000D01*
X51049000Y-66627000D02*
X51049000Y-65302000D01*
X51049000Y-63222000D02*
X51049000Y-61897000D01*
X51009000Y-66610000D02*
X51009000Y-65302000D01*
X51009000Y-63222000D02*
X51009000Y-61914000D01*
X50969000Y-66591000D02*
X50969000Y-65302000D01*
X50969000Y-63222000D02*
X50969000Y-61933000D01*
X50929000Y-66572000D02*
X50929000Y-65302000D01*
X50929000Y-63222000D02*
X50929000Y-61952000D01*
X50889000Y-66552000D02*
X50889000Y-65302000D01*
X50889000Y-63222000D02*
X50889000Y-61972000D01*
X50849000Y-66530000D02*
X50849000Y-65302000D01*
X50849000Y-63222000D02*
X50849000Y-61994000D01*
X50809000Y-66509000D02*
X50809000Y-65302000D01*
X50809000Y-63222000D02*
X50809000Y-62015000D01*
X50769000Y-66486000D02*
X50769000Y-65302000D01*
X50769000Y-63222000D02*
X50769000Y-62038000D01*
X50729000Y-66462000D02*
X50729000Y-65302000D01*
X50729000Y-63222000D02*
X50729000Y-62062000D01*
X50689000Y-66437000D02*
X50689000Y-65302000D01*
X50689000Y-63222000D02*
X50689000Y-62087000D01*
X50649000Y-66411000D02*
X50649000Y-65302000D01*
X50649000Y-63222000D02*
X50649000Y-62113000D01*
X50609000Y-66384000D02*
X50609000Y-65302000D01*
X50609000Y-63222000D02*
X50609000Y-62140000D01*
X50569000Y-66357000D02*
X50569000Y-65302000D01*
X50569000Y-63222000D02*
X50569000Y-62167000D01*
X50529000Y-66327000D02*
X50529000Y-65302000D01*
X50529000Y-63222000D02*
X50529000Y-62197000D01*
X50489000Y-66297000D02*
X50489000Y-65302000D01*
X50489000Y-63222000D02*
X50489000Y-62227000D01*
X50449000Y-66266000D02*
X50449000Y-65302000D01*
X50449000Y-63222000D02*
X50449000Y-62258000D01*
X50409000Y-66233000D02*
X50409000Y-65302000D01*
X50409000Y-63222000D02*
X50409000Y-62291000D01*
X50369000Y-66199000D02*
X50369000Y-65302000D01*
X50369000Y-63222000D02*
X50369000Y-62325000D01*
X50329000Y-66163000D02*
X50329000Y-65302000D01*
X50329000Y-63222000D02*
X50329000Y-62361000D01*
X50289000Y-66126000D02*
X50289000Y-65302000D01*
X50289000Y-63222000D02*
X50289000Y-62398000D01*
X50249000Y-66088000D02*
X50249000Y-65302000D01*
X50249000Y-63222000D02*
X50249000Y-62436000D01*
X50209000Y-66047000D02*
X50209000Y-65302000D01*
X50209000Y-63222000D02*
X50209000Y-62477000D01*
X50169000Y-66005000D02*
X50169000Y-65302000D01*
X50169000Y-63222000D02*
X50169000Y-62519000D01*
X50129000Y-65961000D02*
X50129000Y-65302000D01*
X50129000Y-63222000D02*
X50129000Y-62563000D01*
X50089000Y-65915000D02*
X50089000Y-65302000D01*
X50089000Y-63222000D02*
X50089000Y-62609000D01*
X50049000Y-65867000D02*
X50049000Y-65302000D01*
X50049000Y-63222000D02*
X50049000Y-62657000D01*
X50009000Y-65816000D02*
X50009000Y-65302000D01*
X50009000Y-63222000D02*
X50009000Y-62708000D01*
X49969000Y-65762000D02*
X49969000Y-65302000D01*
X49969000Y-63222000D02*
X49969000Y-62762000D01*
X49929000Y-65705000D02*
X49929000Y-65302000D01*
X49929000Y-63222000D02*
X49929000Y-62819000D01*
X49889000Y-65645000D02*
X49889000Y-65302000D01*
X49889000Y-63222000D02*
X49889000Y-62879000D01*
X49849000Y-65581000D02*
X49849000Y-65302000D01*
X49849000Y-63222000D02*
X49849000Y-62943000D01*
X49809000Y-65513000D02*
X49809000Y-65302000D01*
X49809000Y-63222000D02*
X49809000Y-63011000D01*
X49769000Y-65440000D02*
X49769000Y-63084000D01*
X49729000Y-65360000D02*
X49729000Y-63164000D01*
X49689000Y-65273000D02*
X49689000Y-63251000D01*
X49649000Y-65177000D02*
X49649000Y-63347000D01*
X49609000Y-65067000D02*
X49609000Y-63457000D01*
X49569000Y-64939000D02*
X49569000Y-63585000D01*
X49529000Y-64780000D02*
X49529000Y-63744000D01*
X49489000Y-64546000D02*
X49489000Y-63978000D01*
X54894775Y-65737000D02*
X54394775Y-65737000D01*
X54644775Y-65987000D02*
X54644775Y-65487000D01*
%TO.C,D1*%
X43794000Y-52594000D02*
X43794000Y-55479000D01*
X43794000Y-55479000D02*
X45614000Y-55479000D01*
X45614000Y-55479000D02*
X45614000Y-52594000D01*
%TO.C,R1*%
X43969000Y-58393064D02*
X43969000Y-57938936D01*
X45439000Y-58393064D02*
X45439000Y-57938936D01*
%TO.C,M1*%
X100380000Y-50212000D02*
X100330000Y-57312000D01*
X100330000Y-57312000D02*
X100330000Y-60512000D01*
X100330000Y-60512000D02*
X94898000Y-60512000D01*
X94898000Y-60512000D02*
X94898000Y-50212000D01*
X94898000Y-50212000D02*
X100380000Y-50212000D01*
X94998000Y-51562000D02*
X96008000Y-51562000D01*
X96008000Y-51562000D02*
X96008000Y-56642000D01*
X96008000Y-56642000D02*
X94998000Y-56642000D01*
%TO.C,M2*%
X100380000Y-34210000D02*
X100330000Y-41310000D01*
X100330000Y-41310000D02*
X100330000Y-44510000D01*
X100330000Y-44510000D02*
X94898000Y-44510000D01*
X94898000Y-44510000D02*
X94898000Y-34210000D01*
X94898000Y-34210000D02*
X100380000Y-34210000D01*
X94998000Y-35560000D02*
X96008000Y-35560000D01*
X96008000Y-35560000D02*
X96008000Y-40640000D01*
X96008000Y-40640000D02*
X94998000Y-40640000D01*
%TO.C,M3*%
X31954000Y-44276000D02*
X32004000Y-37176000D01*
X32004000Y-37176000D02*
X32004000Y-33976000D01*
X32004000Y-33976000D02*
X37436000Y-33976000D01*
X37436000Y-33976000D02*
X37436000Y-44276000D01*
X37436000Y-44276000D02*
X31954000Y-44276000D01*
X37336000Y-42926000D02*
X36326000Y-42926000D01*
X36326000Y-42926000D02*
X36326000Y-37846000D01*
X36326000Y-37846000D02*
X37336000Y-37846000D01*
%TO.C,M4*%
X31954000Y-61802000D02*
X32004000Y-54702000D01*
X32004000Y-54702000D02*
X32004000Y-51502000D01*
X32004000Y-51502000D02*
X37436000Y-51502000D01*
X37436000Y-51502000D02*
X37436000Y-61802000D01*
X37436000Y-61802000D02*
X31954000Y-61802000D01*
X37336000Y-60452000D02*
X36326000Y-60452000D01*
X36326000Y-60452000D02*
X36326000Y-55372000D01*
X36326000Y-55372000D02*
X37336000Y-55372000D01*
%TO.C,5V_C1*%
X98398000Y-64008000D02*
G75*
G03*
X98398000Y-64008000I-2620000J0D01*
G01*
X95778000Y-66588000D02*
X95778000Y-61428000D01*
X95738000Y-66588000D02*
X95738000Y-61428000D01*
X95698000Y-66587000D02*
X95698000Y-61429000D01*
X95658000Y-66586000D02*
X95658000Y-61430000D01*
X95618000Y-66584000D02*
X95618000Y-61432000D01*
X95578000Y-66581000D02*
X95578000Y-61435000D01*
X95538000Y-66577000D02*
X95538000Y-65048000D01*
X95538000Y-62968000D02*
X95538000Y-61439000D01*
X95498000Y-66573000D02*
X95498000Y-65048000D01*
X95498000Y-62968000D02*
X95498000Y-61443000D01*
X95458000Y-66569000D02*
X95458000Y-65048000D01*
X95458000Y-62968000D02*
X95458000Y-61447000D01*
X95418000Y-66564000D02*
X95418000Y-65048000D01*
X95418000Y-62968000D02*
X95418000Y-61452000D01*
X95378000Y-66558000D02*
X95378000Y-65048000D01*
X95378000Y-62968000D02*
X95378000Y-61458000D01*
X95338000Y-66551000D02*
X95338000Y-65048000D01*
X95338000Y-62968000D02*
X95338000Y-61465000D01*
X95298000Y-66544000D02*
X95298000Y-65048000D01*
X95298000Y-62968000D02*
X95298000Y-61472000D01*
X95258000Y-66536000D02*
X95258000Y-65048000D01*
X95258000Y-62968000D02*
X95258000Y-61480000D01*
X95218000Y-66528000D02*
X95218000Y-65048000D01*
X95218000Y-62968000D02*
X95218000Y-61488000D01*
X95178000Y-66519000D02*
X95178000Y-65048000D01*
X95178000Y-62968000D02*
X95178000Y-61497000D01*
X95138000Y-66509000D02*
X95138000Y-65048000D01*
X95138000Y-62968000D02*
X95138000Y-61507000D01*
X95098000Y-66499000D02*
X95098000Y-65048000D01*
X95098000Y-62968000D02*
X95098000Y-61517000D01*
X95057000Y-66488000D02*
X95057000Y-65048000D01*
X95057000Y-62968000D02*
X95057000Y-61528000D01*
X95017000Y-66476000D02*
X95017000Y-65048000D01*
X95017000Y-62968000D02*
X95017000Y-61540000D01*
X94977000Y-66463000D02*
X94977000Y-65048000D01*
X94977000Y-62968000D02*
X94977000Y-61553000D01*
X94937000Y-66450000D02*
X94937000Y-65048000D01*
X94937000Y-62968000D02*
X94937000Y-61566000D01*
X94897000Y-66436000D02*
X94897000Y-65048000D01*
X94897000Y-62968000D02*
X94897000Y-61580000D01*
X94857000Y-66422000D02*
X94857000Y-65048000D01*
X94857000Y-62968000D02*
X94857000Y-61594000D01*
X94817000Y-66406000D02*
X94817000Y-65048000D01*
X94817000Y-62968000D02*
X94817000Y-61610000D01*
X94777000Y-66390000D02*
X94777000Y-65048000D01*
X94777000Y-62968000D02*
X94777000Y-61626000D01*
X94737000Y-66373000D02*
X94737000Y-65048000D01*
X94737000Y-62968000D02*
X94737000Y-61643000D01*
X94697000Y-66356000D02*
X94697000Y-65048000D01*
X94697000Y-62968000D02*
X94697000Y-61660000D01*
X94657000Y-66337000D02*
X94657000Y-65048000D01*
X94657000Y-62968000D02*
X94657000Y-61679000D01*
X94617000Y-66318000D02*
X94617000Y-65048000D01*
X94617000Y-62968000D02*
X94617000Y-61698000D01*
X94577000Y-66298000D02*
X94577000Y-65048000D01*
X94577000Y-62968000D02*
X94577000Y-61718000D01*
X94537000Y-66276000D02*
X94537000Y-65048000D01*
X94537000Y-62968000D02*
X94537000Y-61740000D01*
X94497000Y-66255000D02*
X94497000Y-65048000D01*
X94497000Y-62968000D02*
X94497000Y-61761000D01*
X94457000Y-66232000D02*
X94457000Y-65048000D01*
X94457000Y-62968000D02*
X94457000Y-61784000D01*
X94417000Y-66208000D02*
X94417000Y-65048000D01*
X94417000Y-62968000D02*
X94417000Y-61808000D01*
X94377000Y-66183000D02*
X94377000Y-65048000D01*
X94377000Y-62968000D02*
X94377000Y-61833000D01*
X94337000Y-66157000D02*
X94337000Y-65048000D01*
X94337000Y-62968000D02*
X94337000Y-61859000D01*
X94297000Y-66130000D02*
X94297000Y-65048000D01*
X94297000Y-62968000D02*
X94297000Y-61886000D01*
X94257000Y-66103000D02*
X94257000Y-65048000D01*
X94257000Y-62968000D02*
X94257000Y-61913000D01*
X94217000Y-66073000D02*
X94217000Y-65048000D01*
X94217000Y-62968000D02*
X94217000Y-61943000D01*
X94177000Y-66043000D02*
X94177000Y-65048000D01*
X94177000Y-62968000D02*
X94177000Y-61973000D01*
X94137000Y-66012000D02*
X94137000Y-65048000D01*
X94137000Y-62968000D02*
X94137000Y-62004000D01*
X94097000Y-65979000D02*
X94097000Y-65048000D01*
X94097000Y-62968000D02*
X94097000Y-62037000D01*
X94057000Y-65945000D02*
X94057000Y-65048000D01*
X94057000Y-62968000D02*
X94057000Y-62071000D01*
X94017000Y-65909000D02*
X94017000Y-65048000D01*
X94017000Y-62968000D02*
X94017000Y-62107000D01*
X93977000Y-65872000D02*
X93977000Y-65048000D01*
X93977000Y-62968000D02*
X93977000Y-62144000D01*
X93937000Y-65834000D02*
X93937000Y-65048000D01*
X93937000Y-62968000D02*
X93937000Y-62182000D01*
X93897000Y-65793000D02*
X93897000Y-65048000D01*
X93897000Y-62968000D02*
X93897000Y-62223000D01*
X93857000Y-65751000D02*
X93857000Y-65048000D01*
X93857000Y-62968000D02*
X93857000Y-62265000D01*
X93817000Y-65707000D02*
X93817000Y-65048000D01*
X93817000Y-62968000D02*
X93817000Y-62309000D01*
X93777000Y-65661000D02*
X93777000Y-65048000D01*
X93777000Y-62968000D02*
X93777000Y-62355000D01*
X93737000Y-65613000D02*
X93737000Y-65048000D01*
X93737000Y-62968000D02*
X93737000Y-62403000D01*
X93697000Y-65562000D02*
X93697000Y-65048000D01*
X93697000Y-62968000D02*
X93697000Y-62454000D01*
X93657000Y-65508000D02*
X93657000Y-65048000D01*
X93657000Y-62968000D02*
X93657000Y-62508000D01*
X93617000Y-65451000D02*
X93617000Y-65048000D01*
X93617000Y-62968000D02*
X93617000Y-62565000D01*
X93577000Y-65391000D02*
X93577000Y-65048000D01*
X93577000Y-62968000D02*
X93577000Y-62625000D01*
X93537000Y-65327000D02*
X93537000Y-65048000D01*
X93537000Y-62968000D02*
X93537000Y-62689000D01*
X93497000Y-65259000D02*
X93497000Y-65048000D01*
X93497000Y-62968000D02*
X93497000Y-62757000D01*
X93457000Y-65186000D02*
X93457000Y-62830000D01*
X93417000Y-65106000D02*
X93417000Y-62910000D01*
X93377000Y-65019000D02*
X93377000Y-62997000D01*
X93337000Y-64923000D02*
X93337000Y-63093000D01*
X93297000Y-64813000D02*
X93297000Y-63203000D01*
X93257000Y-64685000D02*
X93257000Y-63331000D01*
X93217000Y-64526000D02*
X93217000Y-63490000D01*
X93177000Y-64292000D02*
X93177000Y-63724000D01*
X98582775Y-65483000D02*
X98082775Y-65483000D01*
X98332775Y-65733000D02*
X98332775Y-65233000D01*
%TO.C,F2*%
D12*
X70328571Y-58499333D02*
X70328571Y-58832666D01*
X70852380Y-58832666D02*
X69852380Y-58832666D01*
X69852380Y-58356476D01*
X69947619Y-58023142D02*
X69900000Y-57975523D01*
X69852380Y-57880285D01*
X69852380Y-57642190D01*
X69900000Y-57546952D01*
X69947619Y-57499333D01*
X70042857Y-57451714D01*
X70138095Y-57451714D01*
X70280952Y-57499333D01*
X70852380Y-58070761D01*
X70852380Y-57451714D01*
%TO.C,F1*%
X63470571Y-59007333D02*
X63470571Y-59340666D01*
X63994380Y-59340666D02*
X62994380Y-59340666D01*
X62994380Y-58864476D01*
X63994380Y-57959714D02*
X63994380Y-58531142D01*
X63994380Y-58245428D02*
X62994380Y-58245428D01*
X63137238Y-58340666D01*
X63232476Y-58435904D01*
X63280095Y-58531142D01*
%TO.C,R4*%
X47180833Y-39314380D02*
X46847500Y-38838190D01*
X46609404Y-39314380D02*
X46609404Y-38314380D01*
X46990357Y-38314380D01*
X47085595Y-38362000D01*
X47133214Y-38409619D01*
X47180833Y-38504857D01*
X47180833Y-38647714D01*
X47133214Y-38742952D01*
X47085595Y-38790571D01*
X46990357Y-38838190D01*
X46609404Y-38838190D01*
X48037976Y-38647714D02*
X48037976Y-39314380D01*
X47799880Y-38266761D02*
X47561785Y-38981047D01*
X48180833Y-38981047D01*
%TO.C,R3*%
X44537333Y-35758380D02*
X44204000Y-35282190D01*
X43965904Y-35758380D02*
X43965904Y-34758380D01*
X44346857Y-34758380D01*
X44442095Y-34806000D01*
X44489714Y-34853619D01*
X44537333Y-34948857D01*
X44537333Y-35091714D01*
X44489714Y-35186952D01*
X44442095Y-35234571D01*
X44346857Y-35282190D01*
X43965904Y-35282190D01*
X44870666Y-34758380D02*
X45489714Y-34758380D01*
X45156380Y-35139333D01*
X45299238Y-35139333D01*
X45394476Y-35186952D01*
X45442095Y-35234571D01*
X45489714Y-35329809D01*
X45489714Y-35567904D01*
X45442095Y-35663142D01*
X45394476Y-35710761D01*
X45299238Y-35758380D01*
X45013523Y-35758380D01*
X44918285Y-35710761D01*
X44870666Y-35663142D01*
%TO.C,R2*%
X51141333Y-39314380D02*
X50808000Y-38838190D01*
X50569904Y-39314380D02*
X50569904Y-38314380D01*
X50950857Y-38314380D01*
X51046095Y-38362000D01*
X51093714Y-38409619D01*
X51141333Y-38504857D01*
X51141333Y-38647714D01*
X51093714Y-38742952D01*
X51046095Y-38790571D01*
X50950857Y-38838190D01*
X50569904Y-38838190D01*
X51522285Y-38409619D02*
X51569904Y-38362000D01*
X51665142Y-38314380D01*
X51903238Y-38314380D01*
X51998476Y-38362000D01*
X52046095Y-38409619D01*
X52093714Y-38504857D01*
X52093714Y-38600095D01*
X52046095Y-38742952D01*
X51474666Y-39314380D01*
X52093714Y-39314380D01*
%TO.C,D2*%
X43711904Y-33218380D02*
X43711904Y-32218380D01*
X43950000Y-32218380D01*
X44092857Y-32266000D01*
X44188095Y-32361238D01*
X44235714Y-32456476D01*
X44283333Y-32646952D01*
X44283333Y-32789809D01*
X44235714Y-32980285D01*
X44188095Y-33075523D01*
X44092857Y-33170761D01*
X43950000Y-33218380D01*
X43711904Y-33218380D01*
X44664285Y-32313619D02*
X44711904Y-32266000D01*
X44807142Y-32218380D01*
X45045238Y-32218380D01*
X45140476Y-32266000D01*
X45188095Y-32313619D01*
X45235714Y-32408857D01*
X45235714Y-32504095D01*
X45188095Y-32646952D01*
X44616666Y-33218380D01*
X45235714Y-33218380D01*
%TO.C,U5*%
X35774380Y-58165904D02*
X36583904Y-58165904D01*
X36679142Y-58118285D01*
X36726761Y-58070666D01*
X36774380Y-57975428D01*
X36774380Y-57784952D01*
X36726761Y-57689714D01*
X36679142Y-57642095D01*
X36583904Y-57594476D01*
X35774380Y-57594476D01*
X35774380Y-56642095D02*
X35774380Y-57118285D01*
X36250571Y-57165904D01*
X36202952Y-57118285D01*
X36155333Y-57023047D01*
X36155333Y-56784952D01*
X36202952Y-56689714D01*
X36250571Y-56642095D01*
X36345809Y-56594476D01*
X36583904Y-56594476D01*
X36679142Y-56642095D01*
X36726761Y-56689714D01*
X36774380Y-56784952D01*
X36774380Y-57023047D01*
X36726761Y-57118285D01*
X36679142Y-57165904D01*
X38958780Y-62617171D02*
X37958780Y-62617171D01*
X37958780Y-62236219D01*
X38006400Y-62140980D01*
X38054019Y-62093361D01*
X38149257Y-62045742D01*
X38292114Y-62045742D01*
X38387352Y-62093361D01*
X38434971Y-62140980D01*
X38482590Y-62236219D01*
X38482590Y-62617171D01*
X38958780Y-61617171D02*
X38292114Y-61617171D01*
X37958780Y-61617171D02*
X38006400Y-61664790D01*
X38054019Y-61617171D01*
X38006400Y-61569552D01*
X37958780Y-61617171D01*
X38054019Y-61617171D01*
X38292114Y-61140980D02*
X38958780Y-61140980D01*
X38387352Y-61140980D02*
X38339733Y-61093361D01*
X38292114Y-60998123D01*
X38292114Y-60855266D01*
X38339733Y-60760028D01*
X38434971Y-60712409D01*
X38958780Y-60712409D01*
X38958780Y-59712409D02*
X38958780Y-60283838D01*
X38958780Y-59998123D02*
X37958780Y-59998123D01*
X38101638Y-60093361D01*
X38196876Y-60188600D01*
X38244495Y-60283838D01*
X38984180Y-55022571D02*
X37984180Y-55022571D01*
X37984180Y-54641619D01*
X38031800Y-54546380D01*
X38079419Y-54498761D01*
X38174657Y-54451142D01*
X38317514Y-54451142D01*
X38412752Y-54498761D01*
X38460371Y-54546380D01*
X38507990Y-54641619D01*
X38507990Y-55022571D01*
X38984180Y-54022571D02*
X38317514Y-54022571D01*
X37984180Y-54022571D02*
X38031800Y-54070190D01*
X38079419Y-54022571D01*
X38031800Y-53974952D01*
X37984180Y-54022571D01*
X38079419Y-54022571D01*
X38317514Y-53546380D02*
X38984180Y-53546380D01*
X38412752Y-53546380D02*
X38365133Y-53498761D01*
X38317514Y-53403523D01*
X38317514Y-53260666D01*
X38365133Y-53165428D01*
X38460371Y-53117809D01*
X38984180Y-53117809D01*
X37984180Y-52736857D02*
X37984180Y-52070190D01*
X38984180Y-52498761D01*
%TO.C,U3*%
X35774380Y-41655904D02*
X36583904Y-41655904D01*
X36679142Y-41608285D01*
X36726761Y-41560666D01*
X36774380Y-41465428D01*
X36774380Y-41274952D01*
X36726761Y-41179714D01*
X36679142Y-41132095D01*
X36583904Y-41084476D01*
X35774380Y-41084476D01*
X35774380Y-40703523D02*
X35774380Y-40084476D01*
X36155333Y-40417809D01*
X36155333Y-40274952D01*
X36202952Y-40179714D01*
X36250571Y-40132095D01*
X36345809Y-40084476D01*
X36583904Y-40084476D01*
X36679142Y-40132095D01*
X36726761Y-40179714D01*
X36774380Y-40274952D01*
X36774380Y-40560666D01*
X36726761Y-40655904D01*
X36679142Y-40703523D01*
X38958780Y-46107171D02*
X37958780Y-46107171D01*
X37958780Y-45726219D01*
X38006400Y-45630980D01*
X38054019Y-45583361D01*
X38149257Y-45535742D01*
X38292114Y-45535742D01*
X38387352Y-45583361D01*
X38434971Y-45630980D01*
X38482590Y-45726219D01*
X38482590Y-46107171D01*
X38958780Y-45107171D02*
X38292114Y-45107171D01*
X37958780Y-45107171D02*
X38006400Y-45154790D01*
X38054019Y-45107171D01*
X38006400Y-45059552D01*
X37958780Y-45107171D01*
X38054019Y-45107171D01*
X38292114Y-44630980D02*
X38958780Y-44630980D01*
X38387352Y-44630980D02*
X38339733Y-44583361D01*
X38292114Y-44488123D01*
X38292114Y-44345266D01*
X38339733Y-44250028D01*
X38434971Y-44202409D01*
X38958780Y-44202409D01*
X38958780Y-43202409D02*
X38958780Y-43773838D01*
X38958780Y-43488123D02*
X37958780Y-43488123D01*
X38101638Y-43583361D01*
X38196876Y-43678600D01*
X38244495Y-43773838D01*
X38984180Y-38512571D02*
X37984180Y-38512571D01*
X37984180Y-38131619D01*
X38031800Y-38036380D01*
X38079419Y-37988761D01*
X38174657Y-37941142D01*
X38317514Y-37941142D01*
X38412752Y-37988761D01*
X38460371Y-38036380D01*
X38507990Y-38131619D01*
X38507990Y-38512571D01*
X38984180Y-37512571D02*
X38317514Y-37512571D01*
X37984180Y-37512571D02*
X38031800Y-37560190D01*
X38079419Y-37512571D01*
X38031800Y-37464952D01*
X37984180Y-37512571D01*
X38079419Y-37512571D01*
X38317514Y-37036380D02*
X38984180Y-37036380D01*
X38412752Y-37036380D02*
X38365133Y-36988761D01*
X38317514Y-36893523D01*
X38317514Y-36750666D01*
X38365133Y-36655428D01*
X38460371Y-36607809D01*
X38984180Y-36607809D01*
X37984180Y-36226857D02*
X37984180Y-35560190D01*
X38984180Y-35988761D01*
%TO.C,U2*%
X69088095Y-59904380D02*
X69088095Y-60713904D01*
X69135714Y-60809142D01*
X69183333Y-60856761D01*
X69278571Y-60904380D01*
X69469047Y-60904380D01*
X69564285Y-60856761D01*
X69611904Y-60809142D01*
X69659523Y-60713904D01*
X69659523Y-59904380D01*
X70088095Y-59999619D02*
X70135714Y-59952000D01*
X70230952Y-59904380D01*
X70469047Y-59904380D01*
X70564285Y-59952000D01*
X70611904Y-59999619D01*
X70659523Y-60094857D01*
X70659523Y-60190095D01*
X70611904Y-60332952D01*
X70040476Y-60904380D01*
X70659523Y-60904380D01*
X77311428Y-65984380D02*
X77311428Y-64984380D01*
X77692380Y-64984380D01*
X77787619Y-65032000D01*
X77835238Y-65079619D01*
X77882857Y-65174857D01*
X77882857Y-65317714D01*
X77835238Y-65412952D01*
X77787619Y-65460571D01*
X77692380Y-65508190D01*
X77311428Y-65508190D01*
X78311428Y-65984380D02*
X78311428Y-65317714D01*
X78311428Y-64984380D02*
X78263809Y-65032000D01*
X78311428Y-65079619D01*
X78359047Y-65032000D01*
X78311428Y-64984380D01*
X78311428Y-65079619D01*
X78787619Y-65317714D02*
X78787619Y-65984380D01*
X78787619Y-65412952D02*
X78835238Y-65365333D01*
X78930476Y-65317714D01*
X79073333Y-65317714D01*
X79168571Y-65365333D01*
X79216190Y-65460571D01*
X79216190Y-65984380D01*
X80216190Y-65984380D02*
X79644761Y-65984380D01*
X79930476Y-65984380D02*
X79930476Y-64984380D01*
X79835238Y-65127238D01*
X79740000Y-65222476D01*
X79644761Y-65270095D01*
X61658571Y-63444380D02*
X61087142Y-63444380D01*
X61372857Y-63444380D02*
X61372857Y-62444380D01*
X61277619Y-62587238D01*
X61182380Y-62682476D01*
X61087142Y-62730095D01*
X62039523Y-62539619D02*
X62087142Y-62492000D01*
X62182380Y-62444380D01*
X62420476Y-62444380D01*
X62515714Y-62492000D01*
X62563333Y-62539619D01*
X62610952Y-62634857D01*
X62610952Y-62730095D01*
X62563333Y-62872952D01*
X61991904Y-63444380D01*
X62610952Y-63444380D01*
X62944285Y-62777714D02*
X63182380Y-63444380D01*
X63420476Y-62777714D01*
X77311428Y-62444380D02*
X77930476Y-62444380D01*
X77597142Y-62825333D01*
X77740000Y-62825333D01*
X77835238Y-62872952D01*
X77882857Y-62920571D01*
X77930476Y-63015809D01*
X77930476Y-63253904D01*
X77882857Y-63349142D01*
X77835238Y-63396761D01*
X77740000Y-63444380D01*
X77454285Y-63444380D01*
X77359047Y-63396761D01*
X77311428Y-63349142D01*
X78359047Y-63349142D02*
X78406666Y-63396761D01*
X78359047Y-63444380D01*
X78311428Y-63396761D01*
X78359047Y-63349142D01*
X78359047Y-63444380D01*
X78740000Y-62444380D02*
X79359047Y-62444380D01*
X79025714Y-62825333D01*
X79168571Y-62825333D01*
X79263809Y-62872952D01*
X79311428Y-62920571D01*
X79359047Y-63015809D01*
X79359047Y-63253904D01*
X79311428Y-63349142D01*
X79263809Y-63396761D01*
X79168571Y-63444380D01*
X78882857Y-63444380D01*
X78787619Y-63396761D01*
X78740000Y-63349142D01*
X79692380Y-62777714D02*
X79930476Y-63444380D01*
X80168571Y-62777714D01*
%TO.C,5V_C2*%
X87860380Y-60158380D02*
X87384190Y-60158380D01*
X87336571Y-60634571D01*
X87384190Y-60586952D01*
X87479428Y-60539333D01*
X87717523Y-60539333D01*
X87812761Y-60586952D01*
X87860380Y-60634571D01*
X87908000Y-60729809D01*
X87908000Y-60967904D01*
X87860380Y-61063142D01*
X87812761Y-61110761D01*
X87717523Y-61158380D01*
X87479428Y-61158380D01*
X87384190Y-61110761D01*
X87336571Y-61063142D01*
X88193714Y-60158380D02*
X88527047Y-61158380D01*
X88860380Y-60158380D01*
X88955619Y-61253619D02*
X89717523Y-61253619D01*
X90527047Y-61063142D02*
X90479428Y-61110761D01*
X90336571Y-61158380D01*
X90241333Y-61158380D01*
X90098476Y-61110761D01*
X90003238Y-61015523D01*
X89955619Y-60920285D01*
X89908000Y-60729809D01*
X89908000Y-60586952D01*
X89955619Y-60396476D01*
X90003238Y-60301238D01*
X90098476Y-60206000D01*
X90241333Y-60158380D01*
X90336571Y-60158380D01*
X90479428Y-60206000D01*
X90527047Y-60253619D01*
X90908000Y-60253619D02*
X90955619Y-60206000D01*
X91050857Y-60158380D01*
X91288952Y-60158380D01*
X91384190Y-60206000D01*
X91431809Y-60253619D01*
X91479428Y-60348857D01*
X91479428Y-60444095D01*
X91431809Y-60586952D01*
X90860380Y-61158380D01*
X91479428Y-61158380D01*
%TO.C,12V_C3*%
X43997809Y-62174380D02*
X43426380Y-62174380D01*
X43712095Y-62174380D02*
X43712095Y-61174380D01*
X43616857Y-61317238D01*
X43521619Y-61412476D01*
X43426380Y-61460095D01*
X44378761Y-61269619D02*
X44426380Y-61222000D01*
X44521619Y-61174380D01*
X44759714Y-61174380D01*
X44854952Y-61222000D01*
X44902571Y-61269619D01*
X44950190Y-61364857D01*
X44950190Y-61460095D01*
X44902571Y-61602952D01*
X44331142Y-62174380D01*
X44950190Y-62174380D01*
X45235904Y-61174380D02*
X45569238Y-62174380D01*
X45902571Y-61174380D01*
X45997809Y-62269619D02*
X46759714Y-62269619D01*
X47569238Y-62079142D02*
X47521619Y-62126761D01*
X47378761Y-62174380D01*
X47283523Y-62174380D01*
X47140666Y-62126761D01*
X47045428Y-62031523D01*
X46997809Y-61936285D01*
X46950190Y-61745809D01*
X46950190Y-61602952D01*
X46997809Y-61412476D01*
X47045428Y-61317238D01*
X47140666Y-61222000D01*
X47283523Y-61174380D01*
X47378761Y-61174380D01*
X47521619Y-61222000D01*
X47569238Y-61269619D01*
X47902571Y-61174380D02*
X48521619Y-61174380D01*
X48188285Y-61555333D01*
X48331142Y-61555333D01*
X48426380Y-61602952D01*
X48474000Y-61650571D01*
X48521619Y-61745809D01*
X48521619Y-61983904D01*
X48474000Y-62079142D01*
X48426380Y-62126761D01*
X48331142Y-62174380D01*
X48045428Y-62174380D01*
X47950190Y-62126761D01*
X47902571Y-62079142D01*
%TO.C,12V_C4*%
X50347809Y-61158380D02*
X49776380Y-61158380D01*
X50062095Y-61158380D02*
X50062095Y-60158380D01*
X49966857Y-60301238D01*
X49871619Y-60396476D01*
X49776380Y-60444095D01*
X50728761Y-60253619D02*
X50776380Y-60206000D01*
X50871619Y-60158380D01*
X51109714Y-60158380D01*
X51204952Y-60206000D01*
X51252571Y-60253619D01*
X51300190Y-60348857D01*
X51300190Y-60444095D01*
X51252571Y-60586952D01*
X50681142Y-61158380D01*
X51300190Y-61158380D01*
X51585904Y-60158380D02*
X51919238Y-61158380D01*
X52252571Y-60158380D01*
X52347809Y-61253619D02*
X53109714Y-61253619D01*
X53919238Y-61063142D02*
X53871619Y-61110761D01*
X53728761Y-61158380D01*
X53633523Y-61158380D01*
X53490666Y-61110761D01*
X53395428Y-61015523D01*
X53347809Y-60920285D01*
X53300190Y-60729809D01*
X53300190Y-60586952D01*
X53347809Y-60396476D01*
X53395428Y-60301238D01*
X53490666Y-60206000D01*
X53633523Y-60158380D01*
X53728761Y-60158380D01*
X53871619Y-60206000D01*
X53919238Y-60253619D01*
X54776380Y-60491714D02*
X54776380Y-61158380D01*
X54538285Y-60110761D02*
X54300190Y-60825047D01*
X54919238Y-60825047D01*
%TO.C,D1*%
X43556380Y-54332095D02*
X42556380Y-54332095D01*
X42556380Y-54094000D01*
X42604000Y-53951142D01*
X42699238Y-53855904D01*
X42794476Y-53808285D01*
X42984952Y-53760666D01*
X43127809Y-53760666D01*
X43318285Y-53808285D01*
X43413523Y-53855904D01*
X43508761Y-53951142D01*
X43556380Y-54094000D01*
X43556380Y-54332095D01*
X43556380Y-52808285D02*
X43556380Y-53379714D01*
X43556380Y-53094000D02*
X42556380Y-53094000D01*
X42699238Y-53189238D01*
X42794476Y-53284476D01*
X42842095Y-53379714D01*
%TO.C,R1*%
X43632380Y-58332666D02*
X43156190Y-58666000D01*
X43632380Y-58904095D02*
X42632380Y-58904095D01*
X42632380Y-58523142D01*
X42680000Y-58427904D01*
X42727619Y-58380285D01*
X42822857Y-58332666D01*
X42965714Y-58332666D01*
X43060952Y-58380285D01*
X43108571Y-58427904D01*
X43156190Y-58523142D01*
X43156190Y-58904095D01*
X43632380Y-57380285D02*
X43632380Y-57951714D01*
X43632380Y-57666000D02*
X42632380Y-57666000D01*
X42775238Y-57761238D01*
X42870476Y-57856476D01*
X42918095Y-57951714D01*
%TO.C,M1*%
X95956380Y-55927523D02*
X94956380Y-55927523D01*
X95670666Y-55594190D01*
X94956380Y-55260857D01*
X95956380Y-55260857D01*
X95956380Y-54260857D02*
X95956380Y-54832285D01*
X95956380Y-54546571D02*
X94956380Y-54546571D01*
X95099238Y-54641809D01*
X95194476Y-54737047D01*
X95242095Y-54832285D01*
%TO.C,M2*%
X96210380Y-40941523D02*
X95210380Y-40941523D01*
X95924666Y-40608190D01*
X95210380Y-40274857D01*
X96210380Y-40274857D01*
X95305619Y-39846285D02*
X95258000Y-39798666D01*
X95210380Y-39703428D01*
X95210380Y-39465333D01*
X95258000Y-39370095D01*
X95305619Y-39322476D01*
X95400857Y-39274857D01*
X95496095Y-39274857D01*
X95638952Y-39322476D01*
X96210380Y-39893904D01*
X96210380Y-39274857D01*
%TO.C,M3*%
X37028380Y-37131523D02*
X36028380Y-37131523D01*
X36742666Y-36798190D01*
X36028380Y-36464857D01*
X37028380Y-36464857D01*
X36028380Y-36083904D02*
X36028380Y-35464857D01*
X36409333Y-35798190D01*
X36409333Y-35655333D01*
X36456952Y-35560095D01*
X36504571Y-35512476D01*
X36599809Y-35464857D01*
X36837904Y-35464857D01*
X36933142Y-35512476D01*
X36980761Y-35560095D01*
X37028380Y-35655333D01*
X37028380Y-35941047D01*
X36980761Y-36036285D01*
X36933142Y-36083904D01*
%TO.C,M4*%
X36774380Y-54403523D02*
X35774380Y-54403523D01*
X36488666Y-54070190D01*
X35774380Y-53736857D01*
X36774380Y-53736857D01*
X36107714Y-52832095D02*
X36774380Y-52832095D01*
X35726761Y-53070190D02*
X36441047Y-53308285D01*
X36441047Y-52689238D01*
%TO.C,5V_C1*%
X94464380Y-59904380D02*
X93988190Y-59904380D01*
X93940571Y-60380571D01*
X93988190Y-60332952D01*
X94083428Y-60285333D01*
X94321523Y-60285333D01*
X94416761Y-60332952D01*
X94464380Y-60380571D01*
X94512000Y-60475809D01*
X94512000Y-60713904D01*
X94464380Y-60809142D01*
X94416761Y-60856761D01*
X94321523Y-60904380D01*
X94083428Y-60904380D01*
X93988190Y-60856761D01*
X93940571Y-60809142D01*
X94797714Y-59904380D02*
X95131047Y-60904380D01*
X95464380Y-59904380D01*
X95559619Y-60999619D02*
X96321523Y-60999619D01*
X97131047Y-60809142D02*
X97083428Y-60856761D01*
X96940571Y-60904380D01*
X96845333Y-60904380D01*
X96702476Y-60856761D01*
X96607238Y-60761523D01*
X96559619Y-60666285D01*
X96512000Y-60475809D01*
X96512000Y-60332952D01*
X96559619Y-60142476D01*
X96607238Y-60047238D01*
X96702476Y-59952000D01*
X96845333Y-59904380D01*
X96940571Y-59904380D01*
X97083428Y-59952000D01*
X97131047Y-59999619D01*
X98083428Y-60904380D02*
X97512000Y-60904380D01*
X97797714Y-60904380D02*
X97797714Y-59904380D01*
X97702476Y-60047238D01*
X97607238Y-60142476D01*
X97512000Y-60190095D01*
%TD*%
M02*
