M48
; DRILL file {KiCad (5.1.10)-1} date 07/19/21 20:27:21
; FORMAT={-:-/ absolute / inch / decimal}
; #@! TF.CreationDate,2021-07-19T20:27:21+08:00
; #@! TF.GenerationSoftware,Kicad,Pcbnew,(5.1.10)-1
; #@! TF.FileFunction,Plated,1,2,PTH
FMAT,2
INCH
T1C0.0157
T2C0.0177
T3C0.0197
T4C0.0315
T5C0.0402
T6C0.0787
%
G90
G05
T1
X1.86Y-2.1
X1.86Y-2.4
X2.13Y-1.42
X2.2Y-2.4957
X2.3Y-2.17
X2.31Y-2.35
X2.53Y-2.58
X2.56Y-1.5
X2.58Y-2.12
X2.61Y-2.35
X2.65Y-1.6
X2.92Y-2.35
X2.97Y-2.17
X3.06Y-2.25
X3.2043Y-1.52
X3.2457Y-1.52
X3.3543Y-1.55
X3.3957Y-1.55
X3.59Y-2.36
T2
X2.4177Y-2.53
X2.4677Y-2.53
X2.5177Y-2.53
X2.5677Y-2.53
X2.6177Y-2.53
X2.6677Y-2.53
X2.7177Y-2.53
X2.7677Y-2.53
X2.8177Y-2.53
X2.8677Y-2.53
X2.9177Y-2.53
X2.9677Y-2.53
X3.0177Y-2.53
X3.0677Y-2.53
X3.1177Y-2.53
T3
X1.5603Y-1.46
X1.5603Y-1.61
X1.5603Y-1.76
X1.5603Y-2.11
X1.5603Y-2.26
X1.5603Y-2.41
X1.5997Y-1.51
X1.5997Y-1.56
X1.5997Y-1.66
X1.5997Y-1.71
X1.5997Y-2.16
X1.5997Y-2.21
X1.5997Y-2.31
X1.5997Y-2.36
T4
X1.7616Y-2.53
X1.86Y-2.53
X2.0016Y-2.53
X2.1Y-2.53
X3.4716Y-2.52
X3.57Y-2.52
X3.7216Y-2.52
X3.82Y-2.52
T5
X1.34Y-1.39
X1.34Y-1.49
X1.34Y-1.59
X1.34Y-1.69
X1.34Y-2.08
X1.34Y-2.18
X1.34Y-2.28
X1.34Y-2.38
X3.87Y-1.4
X3.87Y-1.5
X3.87Y-1.6
X3.87Y-1.7
X3.87Y-2.03
X3.87Y-2.13
X3.87Y-2.23
X3.87Y-2.33
T6
X1.33Y-1.27
X1.33Y-1.85
X1.33Y-2.55
X3.92Y-1.87
T0
M30
